<svg width="584" height="588" viewBox="0 0 584 588" fill="none" xmlns="http://www.w3.org/2000/svg">
<g id="24-hours">
<path id="Ellipse 11" d="M584 256C584 397.385 469.385 512 328 512C186.615 512 72 397.385 72 256C72 114.615 186.615 0 328 0C469.385 0 584 114.615 584 256Z" fill="#F7F7F7" fill-opacity="0.6"/>
<g id="clock">
<g id="Group">
<g id="Group_2">
<path id="Vector" d="M266 299.503V212.508C266 206.986 261.523 202.508 256 202.508C250.477 202.508 246 206.986 246 212.508V299.503C243.943 300.137 241.972 300.965 240.101 301.959L212.571 274.429C208.666 270.525 202.334 270.525 198.428 274.429C194.523 278.334 194.523 284.666 198.428 288.572L225.958 316.102C223.436 320.849 222 326.259 222 332C222 350.748 237.252 366 256 366C274.748 366 290 350.748 290 332C290 316.731 279.882 303.783 266 299.503ZM256 346C248.28 346 242 339.72 242 332C242 324.28 248.28 318 256 318C263.72 318 270 324.28 270 332C270 339.719 263.72 346 256 346Z" fill="#A3A3A3"/>
</g>
</g>
<g id="Group_3">
<g id="Group_4">
<path id="Vector_2" d="M367.476 284.342H340.076V277.342C340.076 273.483 343.216 270.342 347.076 270.342H350.476C365.364 270.342 377.476 258.23 377.476 243.342C377.476 228.454 365.364 216.342 350.476 216.342H330.076C324.553 216.342 320.076 220.82 320.076 226.342C320.076 231.864 324.553 236.342 330.076 236.342H350.476C354.336 236.342 357.476 239.483 357.476 243.342C357.476 247.201 354.335 250.342 350.476 250.342H347.076C332.188 250.342 320.076 262.454 320.076 277.342V294.342C320.076 299.864 324.553 304.342 330.076 304.342H367.476C372.999 304.342 377.476 299.864 377.476 294.342C377.476 288.82 372.999 284.342 367.476 284.342Z" fill="#A3A3A3"/>
</g>
</g>
<g id="Group_5">
<g id="Group_6">
<path id="Vector_3" d="M435.008 213.352C429.485 213.352 425.008 217.83 425.008 223.352V250.751H407.608V223.352C407.608 217.83 403.131 213.352 397.608 213.352C392.085 213.352 387.608 217.83 387.608 223.352V260.751C387.608 266.273 392.085 270.751 397.608 270.751H425.008V294.342C425.008 299.864 429.485 304.342 435.008 304.342C440.531 304.342 445.008 299.864 445.008 294.342V223.352C445.008 217.83 440.531 213.352 435.008 213.352Z" fill="#A3A3A3"/>
</g>
</g>
<g id="Group_7">
<g id="Group_8">
<path id="Vector_4" d="M476.471 246.942H474.6V223.352C474.6 217.83 470.123 213.352 464.6 213.352C459.077 213.352 454.6 217.83 454.6 223.352V294.342C454.6 299.864 459.077 304.342 464.6 304.342C470.123 304.342 474.6 299.864 474.6 294.342V266.942H476.471C485.034 266.942 492 273.909 492 282.471V294.342C492 299.864 496.477 304.342 502 304.342C507.523 304.342 512 299.864 512 294.342V282.471C512 262.881 496.062 246.942 476.471 246.942Z" fill="#A3A3A3"/>
</g>
</g>
<g id="Group_9">
<g id="Group_10">
<path id="Vector_5" d="M262.679 491.26C260.819 489.399 258.239 488.33 255.609 488.33C252.979 488.33 250.399 489.399 248.539 491.26C246.679 493.12 245.609 495.7 245.609 498.33C245.609 500.97 246.679 503.54 248.539 505.399C250.399 507.269 252.979 508.33 255.609 508.33C258.239 508.33 260.819 507.269 262.679 505.399C264.539 503.54 265.609 500.96 265.609 498.33C265.609 495.7 264.539 493.12 262.679 491.26Z" fill="#A3A3A3"/>
</g>
</g>
<g id="Group_11">
<g id="Group_12">
<path id="Vector_6" d="M145.07 442.54C143.21 440.68 140.63 439.609 138 439.609C135.36 439.609 132.79 440.679 130.93 442.54C129.06 444.399 128 446.979 128 449.62C128 452.25 129.06 454.83 130.93 456.689C132.79 458.549 135.36 459.62 138 459.62C140.63 459.62 143.2 458.55 145.07 456.689C146.93 454.819 148 452.25 148 449.62C148 446.979 146.93 444.41 145.07 442.54Z" fill="#A3A3A3"/>
</g>
</g>
<g id="Group_13">
<g id="Group_14">
<path id="Vector_7" d="M96.3498 324.929C94.4898 323.069 91.9098 321.999 89.2798 321.999C86.6498 321.999 84.0698 323.069 82.2098 324.929C80.3398 326.789 79.2798 329.369 79.2798 331.999C79.2798 334.629 80.3398 337.209 82.2098 339.068C84.0698 340.928 86.6498 341.999 89.2798 341.999C91.9098 341.999 94.4898 340.929 96.3498 339.068C98.2098 337.209 99.2798 334.629 99.2798 331.999C99.2798 329.369 98.2098 326.789 96.3498 324.929Z" fill="#A3A3A3"/>
</g>
</g>
<g id="Group_15">
<g id="Group_16">
<path id="Vector_8" d="M145.07 207.31C143.21 205.451 140.63 204.38 138 204.38C135.36 204.38 132.79 205.45 130.93 207.31C129.06 209.18 128 211.75 128 214.38C128 217.01 129.06 219.59 130.93 221.46C132.79 223.319 135.36 224.39 138 224.39C140.63 224.389 143.2 223.319 145.07 221.46C146.93 219.59 148 217.02 148 214.38C148 211.75 146.93 209.17 145.07 207.31Z" fill="#A3A3A3"/>
</g>
</g>
<g id="Group_17">
<g id="Group_18">
<path id="Vector_9" d="M262.679 158.6C260.819 156.73 258.249 155.67 255.609 155.67C252.979 155.67 250.399 156.73 248.539 158.6C246.679 160.46 245.609 163.031 245.609 165.67C245.609 168.3 246.679 170.88 248.539 172.74C250.399 174.599 252.979 175.67 255.609 175.67C258.249 175.67 260.819 174.6 262.679 172.74C264.539 170.88 265.609 168.3 265.609 165.67C265.609 163.04 264.539 160.46 262.679 158.6Z" fill="#A3A3A3"/>
</g>
</g>
<g id="Group_19">
<g id="Group_20">
<path id="Vector_10" d="M380.3 442.54C378.44 440.68 375.86 439.609 373.23 439.609C370.59 439.609 368.02 440.679 366.15 442.54C364.29 444.41 363.23 446.979 363.23 449.62C363.23 452.25 364.29 454.819 366.15 456.689C368.02 458.549 370.6 459.62 373.23 459.62C375.86 459.62 378.44 458.55 380.3 456.689C382.16 454.819 383.23 452.25 383.23 449.62C383.23 446.979 382.16 444.41 380.3 442.54Z" fill="#A3A3A3"/>
</g>
</g>
<g id="Group_21">
<g id="Group_22">
<path id="Vector_11" d="M502 322H456C450.477 322 446 326.478 446 332C446 436.766 360.767 521.999 256.001 522C205.092 522 157.335 502.28 121.527 466.473C85.72 430.665 66 382.907 66 331.999C66.001 227.233 151.234 142 256 142C278.699 142 300.735 145.917 321.696 153.661L307.428 167.929C304.568 170.789 303.713 175.09 305.261 178.827C306.809 182.563 310.455 185 314.5 185H403.144C408.667 185 413.144 180.522 413.144 175V86.3561C413.144 82.3111 410.707 78.6651 406.971 77.1181C403.236 75.5701 398.934 76.4261 396.073 79.2851L371.75 103.607C336.695 85.8311 297.526 76.3081 257.989 76.0061C203.027 75.6291 150.362 92.6821 105.64 125.439C101.185 128.703 100.218 134.96 103.482 139.416C106.745 143.872 113.002 144.839 117.459 141.574C158.193 111.738 206.067 96.0001 256.027 96.0001C256.629 96.0001 257.235 96.0021 257.837 96.0071C296.612 96.3021 334.991 106.212 368.826 124.665C372.721 126.789 377.548 126.094 380.685 122.957L393.143 110.499V165H338.642L346.42 157.222C348.734 154.908 349.77 151.607 349.191 148.385C348.612 145.163 346.495 142.428 343.521 141.063C315.969 128.413 286.522 122 256 122C140.207 122 46.001 216.205 46 331.999C46 388.25 67.8 441.029 107.385 480.614C146.971 520.2 199.75 542.001 256.001 542C368.445 541.999 460.53 453.171 465.765 342H491.791C486.53 467.508 382.779 568 256 568C125.87 568 20.001 462.132 20 332.002C20 284.766 34.219 239.025 61.122 199.726C64.242 195.169 63.076 188.946 58.519 185.826C53.961 182.705 47.738 183.871 44.618 188.43C15.428 231.069 0 280.716 0 332.002C0 400.382 26.629 464.669 74.981 513.021C123.333 561.373 187.62 588 256 588C324.38 588 388.667 561.371 437.02 513.02C485.373 464.669 512 400.38 512 332C512 326.477 507.523 322 502 322Z" fill="#A3A3A3"/>
</g>
</g>
<g id="Group_23">
<g id="Group_24">
<path id="Vector_12" d="M88.3988 152.514C84.4938 148.61 78.1618 148.61 74.2558 152.514L74.0498 152.724C70.2158 156.7 70.3008 163.061 74.2768 166.895C76.2258 168.774 78.7318 169.712 81.2328 169.712C83.8348 169.712 86.4318 168.696 88.3868 166.669L81.3278 159.586L88.3988 166.657C92.3038 162.752 92.3038 156.42 88.3988 152.514Z" fill="#A3A3A3"/>
</g>
</g>
<g id="Group_25">
<g id="Group_26">
<path id="Vector_13" d="M256 445C193.691 445 143 394.309 143 332C143 326.478 138.523 322 133 322C127.477 322 123 326.478 123 332C123 405.337 182.664 465 256 465C261.523 465 266 460.522 266 455C266 449.478 261.523 445 256 445Z" fill="#A3A3A3"/>
</g>
</g>
</g>
</g>
</svg>
