<svg width="584" height="588" viewBox="0 0 584 588" fill="none" xmlns="http://www.w3.org/2000/svg">
<g id="Page 1">
<path id="Ellipse 12" d="M584 256C584 397.385 469.385 512 328 512C186.615 512 72 397.385 72 256C72 114.615 186.615 0 328 0C469.385 0 584 114.615 584 256Z" fill="#F7F7F7" fill-opacity="0.6"/>
<g id="071   AB Testing">
<path id="Shape" d="M486.41 76H25.6098C11.0584 76.4643 -0.382706 88.5996 0.00980459 103.153V475.514C-0.382706 490.067 11.0584 502.202 25.6098 502.667H173.936L156.87 536.8H128.01C113.871 536.8 102.41 548.262 102.41 562.4C102.41 576.539 113.871 588 128.01 588H384.01C398.148 588 409.61 576.539 409.61 562.4C409.61 548.262 398.148 536.8 384.01 536.8H355.15L338.083 502.667H486.41C500.961 502.202 512.402 490.067 512.01 475.514V103.153C512.402 88.5996 500.961 76.4643 486.41 76V76ZM17.0765 135.733H247.477V323.467H17.0765V135.733ZM264.543 135.733H494.943V323.467H264.543V135.733ZM494.943 340.533V434.4H264.543V340.533H494.943ZM494.943 103.153V118.667H264.543V93.0667H486.41C491.501 93.5925 495.268 98.0452 494.943 103.153V103.153ZM25.6098 93.0667H247.477V118.667H17.0765V103.153C16.7516 98.0452 20.5187 93.5925 25.6098 93.0667V93.0667ZM392.543 562.4C392.543 567.113 388.723 570.933 384.01 570.933H128.01C123.297 570.933 119.476 567.113 119.476 562.4C119.476 557.687 123.297 553.867 128.01 553.867H384.01C388.723 553.867 392.543 557.687 392.543 562.4ZM336.07 536.8H175.95L193.017 502.667H319.003L336.07 536.8ZM486.41 485.6H25.6098C20.5187 485.074 16.7516 480.622 17.0765 475.514V451.467H51.2098C55.9226 451.467 59.7431 447.646 59.7431 442.933C59.7431 438.221 55.9226 434.4 51.2098 434.4H17.0765V340.533H247.477V434.4H85.3432C80.6303 434.4 76.8098 438.221 76.8098 442.933C76.8098 447.646 80.6303 451.467 85.3432 451.467H494.943V475.514C495.268 480.622 491.501 485.074 486.41 485.6Z" fill="#A3A3A3"/>
<path id="Shape_2" d="M406.197 225.043C408.412 221.245 409.589 216.93 409.61 212.533C409.61 198.395 398.149 186.933 384.01 186.933H371.21C364.141 186.933 358.41 192.664 358.41 199.733V259.467C358.41 266.536 364.141 272.267 371.21 272.267H392.543C406.605 272.083 417.96 260.728 418.143 246.667C418.133 237.887 413.623 229.726 406.197 225.043ZM384.01 204C388.723 204 392.543 207.821 392.543 212.533C392.368 217.172 388.648 220.891 384.01 221.067H375.477V204H384.01ZM392.543 255.2H375.477V238.133H392.543C397.256 238.133 401.077 241.954 401.077 246.667C400.85 251.282 397.159 254.973 392.543 255.2Z" fill="#A3A3A3"/>
<path id="Shape_3" d="M384.01 152.8C341.594 152.8 307.21 187.185 307.21 229.6C307.21 272.016 341.594 306.4 384.01 306.4C426.425 306.4 460.81 272.016 460.81 229.6C460.763 187.204 426.406 152.847 384.01 152.8ZM384.01 289.333C351.02 289.333 324.277 262.59 324.277 229.6C324.277 196.61 351.02 169.867 384.01 169.867C417 169.867 443.743 196.61 443.743 229.6C443.706 262.574 416.984 289.296 384.01 289.333Z" fill="#A3A3A3"/>
<path id="Shape_4" d="M136.543 152.8C94.1277 152.8 59.7432 187.185 59.7432 229.6C59.7432 272.016 94.1277 306.4 136.543 306.4C178.959 306.4 213.343 272.016 213.343 229.6C213.296 187.204 178.939 152.847 136.543 152.8ZM136.543 289.333C103.553 289.333 76.8098 262.59 76.8098 229.6C76.8098 196.61 103.553 169.867 136.543 169.867C169.533 169.867 196.277 196.61 196.277 229.6C196.239 262.574 169.517 289.296 136.543 289.333Z" fill="#A3A3A3"/>
<path id="Shape_5" d="M152.757 198.803C150.528 191.725 143.964 186.911 136.544 186.911C129.123 186.911 122.559 191.725 120.33 198.803L102.82 252.563C101.561 256.976 104.016 261.594 108.378 263.017C112.741 264.441 117.447 262.16 119.033 257.854L122.685 246.667H150.393L154.028 257.845C155.174 261.358 158.449 263.734 162.144 263.733C163.042 263.732 163.934 263.591 164.789 263.315C166.941 262.614 168.727 261.086 169.753 259.068C170.779 257.05 170.961 254.707 170.259 252.555L152.757 198.803ZM128.232 229.6L136.544 204.085L144.838 229.6H128.232Z" fill="#A3A3A3"/>
<path id="Shape_6" d="M102.41 408.8H170.676C184.815 408.8 196.276 397.338 196.276 383.2C196.276 369.061 184.815 357.6 170.676 357.6H102.41C88.2711 357.6 76.8096 369.061 76.8096 383.2C76.8096 397.338 88.2711 408.8 102.41 408.8ZM102.41 374.667H170.676C175.389 374.667 179.21 378.487 179.21 383.2C179.21 387.913 175.389 391.733 170.676 391.733H102.41C97.6967 391.733 93.8762 387.913 93.8762 383.2C93.8762 378.487 97.6967 374.667 102.41 374.667Z" fill="#A3A3A3"/>
<path id="Shape_7" d="M349.876 408.8H418.143C432.282 408.8 443.743 397.338 443.743 383.2C443.743 369.061 432.282 357.6 418.143 357.6H349.876C335.738 357.6 324.276 369.061 324.276 383.2C324.276 397.338 335.738 408.8 349.876 408.8ZM349.876 374.667H418.143C422.856 374.667 426.676 378.487 426.676 383.2C426.676 387.913 422.856 391.733 418.143 391.733H349.876C345.164 391.733 341.343 387.913 341.343 383.2C341.343 378.487 345.164 374.667 349.876 374.667Z" fill="#A3A3A3"/>
</g>
</g>
</svg>
