<svg width="118" height="13" viewBox="0 0 118 13" fill="none" xmlns="http://www.w3.org/2000/svg">
<path d="M91.73 0.840746C85.14 0.730746 78.52 1.02076 72.45 0.790759C57.08 0.190759 41.62 -0.709247 26.29 0.940753C17.8726 1.78847 9.5425 3.35075 1.38995 5.61074C0.739954 5.79074 0 6.08075 0 6.53075C0 6.98075 0.849998 7.31075 1.56 7.47075C13.5545 10.2595 25.8358 11.6256 38.15 11.5408C47.78 11.4708 57.8 10.4308 65.5 6.75075C66.26 7.53075 67.83 7.75074 69.24 7.96074C76.75 8.85074 85.13 9.81074 92.72 9.21074L89.52 11.0408C89.32 11.1608 89.1 11.3207 89.17 11.4907C89.24 11.6607 89.47 11.7008 89.67 11.7508C95.5182 13.2079 101.649 13.0767 107.43 11.3707C107.704 11.3183 107.953 11.1779 108.14 10.9708C108.34 10.6208 107.8 10.2808 107.32 10.0708L103.15 8.20073C105.32 9.20073 114.72 6.77074 117.02 6.33074C116.9 6.33074 114.44 4.69075 114.02 4.53075C107.31 1.68075 99.53 0.980746 91.73 0.840746Z" fill="white"/>
</svg>
