<svg xmlns="http://www.w3.org/2000/svg" viewBox="0 0 190.9 259.7"  xmlns:v="https://vecta.io/nano"><path d="M151 118.2l-.4-.9-.6-1.8v-.1c.1-1.5-1-2.9-2.5-3.2h0-.2c-.2-.7-.6-1.4-1.2-1.8l-.1-.4-.7-1.9-.1-.3c.2-1.3-.5-2.6-1.7-3.2-1.3-.6-2.8-.3-3.7.8-.3.3-.5.7-.7 1.1l-2.9 4.7c-.4 0-.8.1-1.2.3-.6.3-1.1.7-1.5 1.3-.3.4-.6.9-.9 1.4l-.7 1.2-1.2 2h-.6c-.4 0-.7 0-1.1.1l-2.1.7c-1.3.6-2.6 1.4-3.7 2.3-.7.5-1.3 1.1-1.9 1.7a1.93 1.93 0 0 0-1-.3c-1.5-.3-3 .1-4.2 1.1-1 .7-1.8 1.5-2.6 2.3-.5 0-1.1.2-1.6.4-1.1.5-2.2 1.3-2.9 2.3-.2-.1-.4-.1-.6-.1-.8-.2-1.7-.1-2.5.2-.7.3-1.3.6-1.8 1.1l-.2.2-.6.4c-.8.6-1.6 1.2-2.2 2-.5.1-.9.3-1.4.6.1-.7.1-1.4-.2-2a3.11 3.11 0 0 0-1.2-1.6c-.3-.3-.7-.5-1.1-.6-1-.9-2.4-1.2-3.6-.6l-1 .6c-.3.2-.5.5-.8.8-1-.4-2.1-.3-3 .3l-1.2.8c-.4-.4-.8-.8-1.4-1.1s-1.4-.4-2.1-.4c-1 .1-1.9.6-2.5 1.3-1-.8-2.4-1-3.6-.5-.2.1-.4.2-.7.3-.3-.1-.5-.1-.8-.1-1.5 0-3 .8-3.7 2.2-.4 0-.8.1-1.2.3-.1-.8-.5-1.6-1-2.2-.8-.8-1.8-1.2-2.9-1.1-.3 0-.5.1-.7.1s-.4.1-.6.2c-.4-.3-.9-.6-1.4-.7-.1-.4-.3-.8-.5-1.1-.3-.4-.7-.7-1.1-1-.5-.3-1.2-.5-1.8-.5-.5-1.3-1.3-2.4-2.1-3.5-.4-.5-1-.9-1.6-1.2-.6-.2-1.2-.2-1.9-.1-1.4.4-2.4 1.5-2.7 2.9s-.3 2.9 0 4.3a15 15 0 0 0 1.1 3.6c1 1.9 2.2 3.6 3.6 5.1l.4.4-.7 1.7-.6 1.6c-.5 1.4-.7 2.8-.7 4.3.1.7.3 1.3.6 1.9a4.28 4.28 0 0 0 1.4 1.6c.8.5 1.6.8 2.5.9a3.53 3.53 0 0 0 1.5 1.7c1.1.7 2.3 1.2 3.6 1.4.6.1 1.3.1 1.9.1.7 0 1.4-.1 2.1-.2h.2c.9 0 1.7-.1 2.5-.5l.9-.6.3-.3.2.6.9 2.2 1.3 3.2L78 161l.3 2.7.2 2-.1 5.4.3 5c.2 1.6.5 3.1 1 4.6.2.5.4 1.1.7 1.6 0 .1.1.3.1.4-.6.7-.9 1.7-.7 2.6.2 1 1 1.9 2 2.3a4.53 4.53 0 0 0 1.6.3c.5 0 1-.1 1.4-.2.7-.2 1.3-.4 2-.7.9 0 1.8-.2 2.6-.5l.6-.2c.4-.1.8-.3 1.1-.6.7-.5 1.2-1.2 1.3-2v-.1l.4-.3.2-.2c1.2-.1 2.4-.5 3.4-1 .2.1.4.1.6.2.7.2 1.5.2 2.3 0 .7-.2 1.3-.6 1.8-1.1.8-.8 1.4-1.8 1.6-2.9 1-.5 1.8-1.5 2.1-2.6.5-1.9.6-3.8.3-5.8-.2-1.9-.6-3.7-1.1-5.5 0-.1-.1-.3-.1-.4l-.1-5.4-.2-5.7-.1-2.1 1.2.3v.1c.7 1.2 2.1 2 3.6 1.9a5.42 5.42 0 0 0 2.5-.6c.6-.3 1.3-.7 1.8-1.2.6-.4 1.1-.9 1.6-1.4l1.3-1.3.7-.5c.3.1.6.1.8.1.4 0 .9 0 1.3-.1.8.4 1.6.4 2.4.2l.5-.1 2-.6c1-.3 1.9-.6 2.8-1.1 1.7-.9 3.4-2 4.9-3.2l3.5-2.7 1.4-1.1.7-.6c.4-.3.7-.6 1-.9l.6-.9c.1-.1.1-.3.2-.4l3.1-2.6 2.6-2.2c1.5-1.3 2.9-2.6 4.2-4.1 1.7-2.1 3.2-4.6 3.2-7.4.1-.8-.1-1.5-.4-2.2h0zm-65.7 45.1v-.2l.2.2h-.2zm6.1 3.8c0 .1 0 .1 0 0h0c-.1-.1-.2-.2-.2-.4a.9.9 0 0 0 .5.1l-.3.3z" fill="#fff"/><g fill="#d8d5d4"><path d="M72.3 146c-.4-1.2-.9-2.3-1.5-3.4l-.8-2.2-.2-.9-.1-1.7.1-2.3.5-2.7.6-1.6.4-.9.3-.8c.1-.5-.3-1.1-.9-1.1h-.1c-.7.2-1.4.6-1.9 1.2a6.55 6.55 0 0 0-1.5 1.8c-.4.8-.8 1.6-1 2.4-.3.8-.5 1.6-.7 2.5s-.2 1.8-.2 2.7.1 1.7.2 2.6c.2.9.4 1.7.7 2.5l.9 2.2 1.1 3.3.1.4.2 1.7c.2 1 1 1.7 2 1.7h.1a2.16 2.16 0 0 0 2.1-1.5c.4-1.2.5-2.5.2-3.7l-.6-2.2zm-15.1-11.9a.76.76 0 0 0 .2.4c.2.2.4.4.7.5h.2c.5 0 .9-.3 1-.7.3-1 .4-2 .3-3v-.7c0-.2.1-.4.1-.6s.1-.4.1-.6.1-.4.2-.6l.2-.5v-.1l1.1-2.3c.2-.4 0-.9-.4-1.2l-.2-.1c-.2-.2-.5-.3-.8-.2-.4.2-.7.4-.9.7l-.6 1-.4 1-.5-.6-1.5-1.6-.2-.3c-.1-.2-.2-.4-.3-.7 0-.1-.1-.1-.1-.2v.1-1c.1-.2 0-.4-.2-.5s-.4 0-.5.2-.2.4-.2.5c-.1.2-.1.3-.2.5-.1.3-.2.7-.2 1.1 0 .7.1 1.4.3 2l.4.9c.2.3.4.6.6.8l1 1.1c-.2.2-.2.5-.2.7l1 4zm19.9-4.1h.4c.2 0 .5.1.7.2l.4.1.8.4.9.4c.5.3 1.1.4 1.7.5.3 0 .7.1 1 .1h.1c.3 0 .6 0 .8-.1.7-.1 1.3-.3 1.9-.5h0c.7-.2 1.3-.4 2-.7.5-.2.8-.8.6-1.3-.1-.2-.3-.4-.5-.6-.2-.1-.5-.1-.8 0l-2.1.7-1 .2h-.4c-.6 0-1.2-.1-1.8-.1H81c-.3 0-.6-.1-.9-.1l-1.6-.2h-.8c-.2 0-.4.1-.6.1-.1 0-.2.1-.3.1h0c-.2.1-.2.4-.1.5.2.2.3.3.4.3h0zm31.4 15.9l-2.6-3.1-1-1.4-.2-.4-.4-1-.3-1.2v-.5l.1-1.8c.1-.6.2-1.3.4-1.9l.5-1.8.3-1c0-.3.1-.6.2-.9l.3-1c.2-.5.2-1.1.1-1.6-.1-.4-.5-.6-.9-.5-.2 0-.3.1-.4.2l.1-.1c-.1 0-.1.1-.2.1-.2.2-.3.4-.3.7 0 .1-.1.1-.1.2-.2-.7-.9-1.2-1.6-1.4-1.1-.2-2.2.5-2.5 1.7-.1.8-.2 1.6-.1 2.5l-.1 4.7v.8c-.2.9-.3 1.9-.2 2.9v.4c0 .6 0 1.2.1 1.9v.1c-.1 0-.2-.1-.3-.1a6.15 6.15 0 0 0-2.7 0c-1.5.2-3 .8-4.3 1.7l-.9.6-1.4.8-2 .8-2.1.5-1.5.2h-.9c-.3 0-.7-.1-1.1-.2l-1.9-.4c-.7-.2-1.4-.3-2.2-.3s-1.6.1-2.3.3c-.5.1-.9.3-1.4.6a4.44 4.44 0 0 0-1.1.8.95.95 0 0 0 .2 1.3c.1 0 .1.1.2.1.5.1 1.1.1 1.6-.1l.5-.1h.9c.3 0 .5.1.8.1l1.7.4c1.2.4 2.4.7 3.6 1 .5.1 1 .1 1.5.1 1 0 1.9-.1 2.9-.4 1.3-.3 2.6-.8 3.9-1.3.6-.3 1.3-.6 1.9-1l1.7-1.2.8-.4.8-.3c.2-.1.7-.2 1.1-.3s.7-.1 1.1-.1h.4c.6 0 1.2-.3 1.5-.9l.7 1.2 1.2 1.8c.4.6.9 1.2 1.4 1.8l1.3 1.4.6.9c.2.5.5 1 .9 1.4l.2.1c.1.1.2.2.3.2h0c.4.2.8.4 1.2.4h.1c1 0 1.9-.7 2.3-1.6.5-1.2-.3-2.6-.8-3.8l-1.6-2.6zm42-26.9c0-.4-.1-.7-.2-1.1s-.2-.7-.4-1.1a4.67 4.67 0 0 0-.5-1l-.5-.8a4.67 4.67 0 0 1-.5-1c-.1-.2-.2-.4-.3-.7v-.2c0-.1 0-.3-.1-.5 0-.3-.3-.6-.7-.6a.65.65 0 0 0-.6.6c-.1.7 0 1.4.2 2.1 0 .2.1.4.1.5l.8 1.6c.2.3.3.7.4 1s.1.6.2.8v-.1.1l.2 1.5v1.4c0 .5-.1 1-.1 1.5s.4 1 .9 1h0c.5 0 .8-.3.9-.8l.2-2.4c.2-.4.1-1.1 0-1.8h0zm-36.4 27.7c-.2-.8-.5-1.5-.9-2.2l-1.3-2.1c-.4-.6-.9-1.1-1.4-1.7-.3-.4-.6-.8-.8-1.2-.1-.2-.2-.5-.4-.7-.1-.2-.2-.4-.2-.6l-.1-.2v-.7c0-.2 0-.5.1-.8.1-.8.3-1.6.5-2.5l.3-1.2c.1-.4.2-.8.2-1.3.1-.8 0-1.7.1-2.5s0-1.6 0-2.4v-.2c0-.4-.3-.7-.6-.7h-.1c-.4 0-.6.3-.6.7v.3c-.1.4-.1.8-.2 1.2v-.1l-.7 2.2-.5 2.1-.4 1.4-.4 1.6-.3 1.5c-.1.5-.1 1 0 1.5.1 1.1.5 2.1 1.1 3.1.5.8 1.1 1.6 1.8 2.3.4.5.7 1 1 1.5l.6 1.1.7 1.8.6 2.2c.2.5.7.9 1.3.9h.3c.7-.2 1.1-.8 1.1-1.4 0-.5-.1-1.1-.2-1.6-.4-.4-.5-.8-.6-1.3h0zm5.7-1.5c-.1-.5-.3-1-.4-1.4l-.6-1.3c-.5-.9-1-1.7-1.6-2.5l-1.4-2c-.1-.2-.2-.3-.3-.5l-.3-1-.2-.8c-.1-.3 0-.6 0-.9l.2-4.6-.1-2.5c0-.4-.1-.8-.2-1.2s0-.6 0-.9-.2-.6-.4-.8c-.5-.4-1.3-.3-1.7.2-.2.2-.3.5-.3.8l.3 3.3.2 3c0 .3-.1.6-.1.9-.1.1-.1.2-.1.3h0v.1l-.1.5a9.71 9.71 0 0 0 0 3.4c.1.6.3 1.1.5 1.7.2.5.5 1 .8 1.5l1.6 2.5c.4.6.7 1.3 1 2l.3.9.3 1.5.3 1.6c.2.5.7.9 1.3.9h.3c.4-.1.7-.3.9-.6s.2-.6.2-.9c0-.4-.1-.8-.1-1.2s-.2-1.5-.3-2h0zm4.3-5.1c-.7-1.3-1.6-2.6-2.6-3.8l.1.1-.6-.8-.3-.5c-.1-.2 0-.1-.1-.2s-.1-.4-.1-.6-.1-.6-.1-1v.2l-.1-2.8-.2-2.5-.3-2.7-.3-1.4c0-.2-.1-.4-.2-.6s-.1-.4-.2-.6-.4-.4-.6-.3h0c-.1 0-.2.1-.3.1h0l-.1.1c-.1.1-.1.2-.1.3v2.4l-.1 3.1c-.1 1-.1 2.1-.1 3.1v1.6c0 .6 0 1.3.2 1.9.2.8.5 1.6 1 2.3l.9 1.2 1.2 1.7c.3.4.5.9.7 1.3.2.5.4 1 .5 1.5.1.6.3 1.2.6 1.8a1.3 1.3 0 0 0 1.2.8h.3c.6-.1 1-.6 1.1-1.3 0-.8-.1-1.6-.4-2.3l-1-2.1zm6.6.3c-.2-.8-.4-1.7-.8-2.5l-1.3-2.1-1.5-1.8-.5-.7-.2-.4-.3-.8c-.1-.3-.1-.5-.2-.8l-.2-2.6-.1-2.7-.5-2.8-.3-1.4-.2-1.2v-.1c0-.3-.1-.5-.3-.6 0-.1-.1-.3-.1-.4s0-.1-.1-.2c-.2-.7-.8-1-1.5-.9-.6.1-.9.7-.9 1.2.1 1.1.3 2.1.5 3.1s.2 1.9.3 2.8l.2 2.9.3 2.6c0 .4.1.9.2 1.3.1.6.3 1.2.6 1.8s.6 1.2 1 1.7l1.1 1.4a9.13 9.13 0 0 1 .8 1.3c.2.3.3.6.5.9l.3 1 .4 1.5c.1.6.4 1.2.8 1.6a1.52 1.52 0 0 0 2 0c.2-.2.3-.4.4-.6h0c.1-.5.1-1.1-.1-1.6-.1-.1-.2-.5-.3-.9h0zm5.9-2.7c0-.5-.1-1.1-.2-1.6-.1-.3-.1-.6-.2-.9l-.3-.8c-.2-.4-.4-.9-.7-1.3l-1.4-1.9-1.6-2.4-.2-.4-.1-.4c-.1-.3-.2-.7-.2-1.1l-.2-2.2c0-.8-.1-1.6-.3-2.4l-.6-2.2-.7-2.4c-.2-.7-1-1-1.7-.8a1.21 1.21 0 0 0-.7.7c-.1.3-.2.6-.1.8l.7 2.9.5 2.3v2.9c0 .6 0 1.2.1 1.8s.3 1.1.6 1.6.5.9.9 1.4l.9 1.3 1.4 2 .2.5.6 1.7v-.2l.2.7v.1l.1.3v.6c0 .6.1 1.1.4 1.6.3.4.8.7 1.3.7.8 0 1.4-.6 1.5-1.3v-.9c-.2-.3-.2-.5-.2-.7h0zm4.2-5.1c-.2-.8-.5-1.5-.9-2.2-.3-.6-.7-1.2-1.2-1.8l-.3-.4-.7-1-1.3-1.9c-.1-.2-.2-.5-.4-.7h0c0-.2-.1-.4-.1-.6l-.3-2.4c-.1-.9-.3-1.8-.6-2.7v-.1c-.2-.8-.4-1.5-.7-2.3s-.6-1.6-1.1-2.4c-.5-.6-1.3-.8-2-.3-.5.3-.7.9-.6 1.4.2.7.4 1.3.7 1.9l.5 1.6.8 3.9.2 1.5c0 .7.1 1.4.3 2.1.5 2 2 3.4 3.1 5 .2.3.4.7.5 1.1l.3.9c.1.3.2.7.2 1.1.1.5.2.9.4 1.4.4.8 1.4 1.1 2.2.7.6-.3 1-1 .9-1.7 0-.4-.1-.7-.1-1.1l.2-1zm4.3-4.4l-.9-2.1c-.4-.7-.8-1.3-1.3-1.9l-1.2-1.8-.3-.6c-.1-.1-.1-.3-.1-.4-.1-.3-.1-.5-.2-.8l-.4-2.6c-.2-.7-.3-1.3-.6-1.9-.1-.4-.2-.8-.4-1.2l-.7-2-.5-1.1-.6-1c-.4-.6-1.3-.8-1.9-.3-.5.4-.7 1-.5 1.6l.6 1.3.8 2.1.7 2 .5 1.9v1.6c0 .7.1 1.4.3 2 .2.5.4 1 .7 1.4.6 1.1 1.5 2.1 2.2 3.2l.6 1.2.6 1.8.1.2v-.1l.3.8c.3.5.8.9 1.4.9.2 0 .4 0 .5-.1.6-.3 1.1-.9 1-1.6h0c0-.4-.1-.7-.2-1.1l-.5-1.4zm2.8-5.8c-.5-.9-1.1-1.8-1.7-2.7-.2-.3-.3-.6-.5-.9l-.6-1.6-.4-2c-.1-.7-.4-1.4-.6-2.1s-.5-1.3-.7-2c-.1-.2-.1-.3-.2-.4s-.1-.2-.1-.3c-.2-1-.6-1.9-1.2-2.7-.2-.3-.6-.5-1-.6-.2-.2-.3-.4-.5-.6-.3-.3-.7-.2-1 .1v.1c-.2.3-.2.7 0 .9l.1.3c-.2.4-.1.9.1 1.3l.2.3c.1.2.2.5.3.7l1 2.7.5 2.1v.1c.1 1.5.4 2.9.8 4.3.2.7.5 1.4.9 2l.8 1.3 1.1 2.2c0 .1 0 .2.1.2.1.5.2 1.1.4 1.6.3.5.8.9 1.4.9.3 0 .5-.1.7-.2.4-.2.7-.5.8-.9 0-.1.1-.3.1-.4h0c0-.6-.1-1.2-.3-1.8 0-.7-.2-1.3-.5-1.9h0zm-87.6 14.5h0z"/><path d="M65.2 144.8c-.2-.8-.6-1.6-.9-2.4l-.7-2.2c-.2-.6-.3-1.2-.4-1.9-.1-.5-.1-1-.1-1.6l.1-2.1.2-1.1c.2-.8.5-1.6.9-2.4h0l.6-1.2c.2-.4.3-.5.5-.8.2-.2.3-.4.4-.7.2-.5.1-1.1-.3-1.4s-.9-.4-1.3-.2c-.3.2-.6.4-.9.7-.4.3-.7.7-.9 1.1-.5.8-.9 1.6-1.2 2.5-.3.8-.6 1.7-.8 2.6l-.2 2.6v.3c0 .8.1 1.7.2 2.5.1.7.3 1.4.5 2.1l.7 2.3.7 2 .2 1 .1 1.5c0 .4 0 .8-.1 1.2v-.2c0 .3-.1.6-.1.8 0 .7.5 1.3 1.2 1.5h.3c.5 0 1.1-.3 1.3-.8.4-1 .5-2 .5-3-.1-.8-.2-1.8-.5-2.7h0zm-4.6.2c-.2-.5-.5-.9-.7-1.4l-.8-1.2-.4-.7c-.1-.2-.2-.4-.2-.6v-.6c0-.3-.2-.6-.5-.8v-.6c0-.2-.2-.4-.4-.4s-.4.2-.4.4v.7a.55.55 0 0 0-.3.5c.1.9.3 1.8.6 2.7l.7 1.8 1.3 4.1c.1.4.5.7 1 .7.1 0 .2 0 .4-.1.5-.2.8-.7.7-1.3-.2-.9-.5-2.1-1-3.2zm10.1-6.9c0 .3.1.5.4.6.1 0 .2 0 .3.1.1 0 .3 0 .4-.1l1.1-1.1.7-.5a.76.76 0 0 1 .4-.2c.1-.1.3-.1.4-.1l.5-.1 2-.2h.9l1.4.2c.4.1 1 .1 1.5.2.9.2 1.7.3 2.6.4 2 .1 4.1-.2 6-.9l3-1 2.7-1.2c.4-.2.7-.3 1.1-.4l.4-.1.6-.1H97h1c.9 0 1.7-.7 1.7-1.7 0-.8-.6-1.6-1.4-1.7-.8-.2-1.7-.2-2.5-.1-.7.1-1.5.4-2.1.7l-3 1.4c-.8.4-1.7.7-2.6 1l-1.9.5c-.5.1-.9.1-1.4.2s-.9 0-1.3 0l-3.3-.3c-.8-.1-1.6-.1-2.4-.1-.8.1-1.5.2-2.2.4l-1.2.3c-.4.1-.8.3-1.2.5-.3.2-.6.5-.9.8s-.6.6-.8 1c-.5.4-.7.9-.8 1.6h0zm3.8 5l.6-.3.4-.1 1.2-.1h1c.4 0 .4.1.7.1l1.1.2c1.3.3 2.7.5 4 .5l2-.1c.7 0 1.3-.1 1.9-.2.7-.1 1.3-.4 1.9-.6.7-.2 1.4-.4 2-.7l1.6-.9c.5-.3 1.1-.6 1.7-.9l1.4-.6c.5-.2 1.2-.3 1.8-.5.7-.2 1.2-1 1-1.7s-.8-1.1-1.5-1.1-1.4.1-2.2.3l-1 .3-.8.3c-.6.3-1.2.5-1.8.9l-1.5.9c-.5.3-1 .4-1.5.5l-1.6.4c-.2 0-.4.1-.7.1H82c-.7 0-1.7-.2-2.5-.4-.7-.2-1.3-.2-2-.2a6.28 6.28 0 0 0-1.9.3c-.5.1-1 .3-1.4.5a4.44 4.44 0 0 0-1.1.8c-.4.3-.7.6-.9 1-.3.5-.5 1.1-.4 1.6s.7.8 1.2.7c.1 0 .2-.1.3-.1l.5-.4c.3-.3.5-.4.7-.5h0zm3.4 12.4h.3c.3 0 .5.1.7.1l.6.2 1.9.6 1.8.7c.7.2 1.4.4 2.2.5.3 0 .6.1.9.1 1.2 0 2.4-.2 3.6-.6l2.1-.7c.7-.3 1.4-.7 2.1-1.2l3.2-2.2.8-.4c.5-.2 1.1-.5 1.7-.6l2.6-.6c.9-.3 1.3-1.3 1-2.2-.3-.7-1-1.2-1.8-1.1l-1.7.3h.1c-1.4.2-2.7.7-4 1.3-1.1.6-2.1 1.3-3.2 2l-1.7 1c-.4.2-.7.3-1.1.4l-2.6.6c-.3 0-.6.1-.9.1h-.7c-.3 0-.7-.1-1-.2l-1.8-.4c-.7-.1-1.3-.2-2-.2s-1.3 0-2 .2c-.4.1-.8.2-1.2.4-.5.2-1 .5-1.3 1a.78.78 0 0 0 .2 1h0c.1.1.3.2.5.2h.2c.1 0 .1 0 .2-.1h.2l.1-.2zm6 8.9c1.2.4 2.5.6 3.8.6h.4l2.1-.1c.8-.1 1.6-.3 2.3-.6 1.4-.5 2.7-1.3 3.8-2.3l2.8-2.6.7-.5.6-.4.8-.3c.3-.1.5-.1.8-.2l2.4-.3c.8-.2 1.4-1 1.3-1.9s-.8-1.5-1.7-1.6c-1 0-2.1.1-3.1.4-.5.1-1 .3-1.4.4l-1.3.6-1.3.9c-.4.3-.8.6-1.1 1l-1.9 1.7c-.3.3-.6.5-1 .7l-.8.5-1.2.5-1 .3-2.1.2h-.9c-.3 0-.6-.1-.9-.1-1.3-.5-2.7-.9-4.1-1.2-.4 0-.9 0-1.3.1s-.8.1-1.2.2-.8.2-1.1.4a1.36 1.36 0 0 0-.7 1.1c0 .8 1 1.1 1.6 1.1l1.7.2c.6.1.9.3 1.3.4h-.1.1l1.7.8zm-5.5 5.5c.2.1.4.1.6.1l.7.1 2.2.4 1.6.4 3.6 1c.7.1 1.4.2 2.2.2h.1a8.33 8.33 0 0 0 2.2-.3c1.3-.3 2.6-.9 3.8-1.6 1.1-.7 2.1-1.5 3-2.3l1.1-.8 1.2-.7c.4-.2 1-.4 1.6-.6l.7-.2a1.96 1.96 0 0 0 1.3-2.4c-.3-1-1.2-1.6-2.2-1.4-1.5.4-3 1-4.3 1.9-.6.4-1.2.9-1.7 1.5l-1.3 1.3-.7.5-1.4.7c-.4.2-.8.3-1.2.5l-1 .2h-1.4c-.4 0-.6-.1-1-.1l-2.4-.7-1.2-.3-1.3-.4c-.4-.1-.8-.1-1.3-.1s-1.1 0-1.6.2-.9.3-1.3.6c-.4.2-.8.4-1.2.7-.3.3-.3.9 0 1.2.1.2.3.3.6.4h0zm27-1c-.5-.1-.9-.2-1.4-.2-1.1-.1-2.2.1-3.3.6-.9.4-1.7.9-2.5 1.5l-3.5 2.7-.7.4-.7.3-1.1.3c-.3.1-.9.1-1.3.1-1 0-2 0-3-.1l-4.9-.6h-1.4c-.4 0-.9.1-1.3.1l-1.3.3c-.4.1-.9.3-1.2.6h0c-.3.4-.3 1.1.1 1.4l.1.1c.3.2.7.2 1.1.1h1c.3 0 .7.1 1.1.2l1.1.3.8.3c1.3.4 2.6.7 3.9.9.7.1 1.5.1 2.3.1h.9c.4 0 .8 0 1.2-.1a11.57 11.57 0 0 0 4.5-1.2c1.2-.7 2.3-1.6 3.4-2.6l2.3-1.7c.2-.2.5-.3.8-.4.2-.1.3-.2.5-.2l2.4-.4c.6-.1 1.1-.7 1.1-1.4 0-.6-.4-1.2-1-1.4h0zm-10.6 12.4h-2c-.7 0-1.4 0-2.1-.1-.5 0-1-.1-1.5-.1s-1.2-.1-1.8-.3h0-.2l-1.6-.3c-.6-.1-1.2-.1-1.8-.1s-1.2-.1-1.8-.1c-.3 0-.6.1-.9.1s-.6.2-.8.4-.3.6 0 .8c.1.1.2.2.3.2h.1l.1.1v.1c0 .2.2.4.5.4.2 0 .3-.1.4-.3l1 .4 1.2.4 1.2.6 1.1.5c1 .3 2 .6 3 .7.8.1 1.6.1 2.3.1h.5c1 0 2.1-.2 3.1-.6.7-.2 1.2-.8 1.1-1.6-.1-.7-.7-1.3-1.4-1.3h0zm-14.1.6h0zm24.4-7.1c-.2-.3-.6-.4-.9-.3-.3.2-.6.5-.8.8l-.5.6-1.1 1.3-1.3 1.2-1.6 1.5c-.5.5-.5 1.3 0 1.8.2.3.6.4.9.4s.5-.1.7-.2c.6-.5 1.2-1 1.7-1.6l1.3-1.5c.1-.1.2-.3.3-.5l.2-.4c.2-.3.3-.6.5-.9.3-.6.6-1.1.7-1.8h0c0-.1 0-.3-.1-.4h0z"/></g><g fill="#a09f9f"><path d="M145.5 103.7c-.7-.4-1.5-.4-2.2 0a11.46 11.46 0 0 0-2.2 2.2l-1.3 1.5-1.7 1.8-1.6 1.8-2.3 2.4.1-.1-.1.1h-.1l-2.2 2.1-2 2c-1.3 1.1-2.7 2.1-4.2 3.1l-2.5 1.5-7.4 3.2-2.2.8-4.1 1.3c-1.6.4-3.1.9-4.5 1.6-.7.4-1.4.8-2 1.3l-1.8 1.6c-1 1.3-1.7 2.7-2.2 4.2v-.1l-.2.4c-.3.1-.4.4-.4.8 0 .2.1.3.2.5s.3.3.6.3c.2 0 .3-.1.5-.1.2-.2.4-.4.6-.7l.4-.5.7-.9c.2-.3.3-.4.5-.5.1-.1.3-.2.4-.3l1.7-1 1.6-.9a12.2 12.2 0 0 1 1.7-.7l4-1.1 4.1-1.3h-.1l4.8-1.8 4.4-2c1.5-.7 2.9-1.6 4.3-2.6l3.8-2.9 1.9-1.8 1.7-1.7 2.8-2.5 2.7-2.6 1.4-1.4 1.4-1.6 1.2-1.5.5-.7c.2-.4.4-.9.5-1.3 0-.7-.5-1.5-1.2-1.9h0z"/><path d="M134.1 113.6h0zm-29.7 63.3c-.2-.4-.3-.8-.5-1.2l-.2-.6-.5-3.1v-1.4c.1-1.2.3-2.3.6-3.5l.2-1.1c.4-1.6.7-3.3.8-5v-2.4l-.1-2.5c-.1-.8-.3-1.7-.5-2.5-.2-.9-.6-1.8-1.1-2.6-.4-.7-.9-1.4-1.4-2.1l-1.2-1.7-.7-1.2c-.2-.4-.6-.9-.9-1.3-.4-.6-.8-1.2-1.1-1.9l-.3-.6-.3-1.2c-.1-.4-.1-1-.2-1.4-.1-1.7-.1-3.5 0-5.2v-.2c.4-.1.8-.3 1-.6.1-.2.2-.3.3-.5s.1-.4.2-.6l.2-.7.2-1 .1-1c0-.4 0-.8-.1-1.2-.2-.7-.9-1.2-1.6-1.2h-.1c0-.2-.2-.3-.4-.4-.2 0-.4.1-.5.2-.1 0-.1.1-.2.2v.3c0 .1-.1.2-.1.2-.1.1-.3.3-.3.5-.1.2-.1.4-.2.6l-.8 1.8-.5 1c-.1.3-.3.7-.3 1.1-.2.7-.4 1.5-.5 2.2l-.4 4.6c-.1 1.7.1 3.3.7 4.9l1 2.2 1 1.8.7 1.2.8 1.1v-.1.1l.1.2c0-.1-.1-.1-.1-.2l1.7 2.8.3.8c.1.3.2.8.3 1.1.1.5.2 1.1.2 1.6.1 1.4.1 2.9 0 4.3l-.2 2.2-.4 2.1-.3 2.3c-.1.8-.1 1.7-.1 2.5a10.68 10.68 0 0 0 .3 2.5l.5 2.4c.2.8.4 1.5.7 2.3s.7 1.6 1.2 2.4c.6.8 1.7 1 2.6.5s1.2-1.6.8-2.5c0-.4-.2-.8-.4-1.3h0zm-8.2-49.1h0zm-12.8 51l-.3-1.6-.4-1.6c0-.4-.1-.7-.1-1.1-.1-2.3 0-4.7.1-7l.2-7.1c-.1-2-.4-3.9-1-5.7l-.8-2.4-1-2.6-3.3-7.2-1.3-2.4c-.2-.4-.4-.8-.5-1.2l-.4-1.4c-.1-.4-.1-.9-.2-1.3v-1c0-.4.1-.9.2-1.4l.2-.9.3-.8c.1-.3.3-.5.5-.8s.4-.6.7-.9l.2-.2h.1c.4-.3.5-.8.3-1.2-.3-.4-.8-.6-1.3-.3 0 0-.1 0-.1.1-.8.5-1.6 1.2-2.2 2-.1-.8-.6-1.5-1.3-1.8-.6-.2-1.1-.3-1.7-.3l-1.5-.1-.6-.1-3.4-1-1.6-.7-1.7-.7-1.3-.8-1.6-1.2-.9-.6c-.2-.1-.5-.2-.7-.3s-.5-.3-.7-.4h0l-.3-.3a.55.55 0 0 0-.5-.3c-.2 0-.4 0-.5.1-.3.3-.5.7-.3 1.1.1.5.2.9.4 1.3.2.5.6 1 1 1.4.5.4.8.9 1.3 1.3l1.6 1.3c.6.5 1.2.9 1.9 1.3l2 1.1 2 .8c.7.3 1.5.5 2.3.8.7.2 1.4.2 2.1.4.6.1 1.1.2 1.7.2.3 0 .6 0 .8-.1h.1c-.5 1-.8 2.1-.9 3.3-.1.9-.1 1.7 0 2.6 0 .4.1.9.2 1.3.1.3.1.7.3 1l.9 2.3.6 1.8 1.5 4 1.6 3.8.8 2.5.8 2.6c.2 1 .3 2 .4 3v3.2l.2 10.6c.1 1 .3 1.9.6 2.9l.7 2.5c.3.9.6 1.7 1 2.5.4.9.9 1.7 1.6 2.4.3.3.7.5 1.1.4.3 0 .5-.1.8-.2.5-.3.8-.9.8-1.6-.2-.9-.4-1.7-.7-2.5l-.8-2.8z"/></g><path d="M50.8 167.1c-1.8-1.3-3.8-2.1-5.7-3.2l-4.8-2.7-5-2.6-4.9-2.1-10.4-4.1c-.1-.9-.4-1.8-.7-2.6l-.6-2.4c-.2-.8-.1-1.5-.1-2.3l-.4-4.3-.4-2.3-.3-1.1c-.1-.4-.2-.8-.4-1.2-.1-.3-.3-.6-.5-.9-.7-.9-2.1-1.1-3-.4-.6.4-.9 1.1-.9 1.9 0 .3.1.6.1.9l.2.8.2 1.6.3 1.8c.2 1.2.2 2.3.4 3.5l.7 3.8c0 .2.1.5.2.7s0 .3 0 .4v.1l-4.4-1.7c-1.6-.6-3.2-1.4-4.8-2.2l-1.8-1c-.6-.4-1.2-.7-1.8-.9-.5-.2-1.1.1-1.3.6v.1c-.1.4 0 .8.4 1.1.6.7 1.3 1.3 2 1.8l2 1.4.1.1 2.4 1.7c.9.6 1.8 1.1 2.7 1.6l3.8 2.1-.6.8-1.1 1.4-1.2 1.6-1.1 1.8-.2.4c-.1.2-.3.4-.4.6 0 .1-.1.1-.1.2l-.9 1.5c-.1.1-.1.2-.2.3s-.1.1-.1.2l-.2-.1c-.4.3-.6.9-.3 1.3h0c.2.3.5.5.9.5h.1c.7-.1 1.3-.5 1.8-1.1l.3-.3h.1c.6.2 1.3.1 1.8-.3 1-.8 1.8-1.9 2.7-2.8l2.2-2.1 1.3-1.1.5-.5 6.2 2.9 2.3 1 2.5 1 5 2.3-.3-.2 2.7 1.4 5.1 2.9 5.3 2.6c.3.1.7.2 1 .2 1.4 0 2.5-1.1 2.5-2.5.1-.7-.3-1.4-.9-1.9h0zm137-62.5c-.4-1.1-1.4-1.7-2.6-1.7l-1.4.3-1.4.4-2.5.8-1 .3 2.9-5.8.4-.6 1.6-2.6 1.3-2.5c.5-1.1 0-2.3-1-2.8-.9-.4-1.9-.2-2.5.6-.6.7-1.1 1.5-1.5 2.4l-1.5 2.6-1.6 2.6-1.5 2.4c0-.2-.1-.3-.1-.5-.2-1-.5-2-.9-3l-1.2-3.1-.7-1.8c-.2-.5-.5-.9-.8-1.3-.3-.2-.7-.4-1.1-.4-.8 0-1.5.6-1.6 1.4-.7.4-1.1 1.1-1.1 1.9h0v.2c0 1.5.2 3 .3 4.5l.4 4.7v1.1l-.6 3.5c0-.1 0-.2.1-.3l-.5 2.1-.6 2-1.3 3-4.4 8.8v-.1l-.1.1a9.13 9.13 0 0 0-.8 1.3c-.5 1.1 0 2.4 1.1 2.9.3.1.6.2.9.2.7 0 1.4-.3 1.8-.9l.9-1.1 1.1-1.3 2.3-2.9c1.5-1.8 2.8-3.8 3.9-5.8l1.3-1.6 1.1-.9 2.2-1.5-.3.2 2.3-1.3 2.7-1.3 4.9-2.2c1-.5 1.5-1.8 1.1-3h0z" fill="#a5a5a5"/><g fill="#fff"><path d="M11.2 161.6l-1.4-1c-.4-.3-.9-.2-1.3.1a1.05 1.05 0 0 0 0 1.3l1.4 1.3c.4.4.9.7 1.4 1 .2.2.4.3.7.3.4 0 .8-.2 1-.5.4-.5.2-1.2-.3-1.6-.5-.2-1-.5-1.5-.9h0zm4.8-2.8l-1.2-.9c-.6-.4-1.2-.7-1.9-1-.4-.1-.9 0-1.1.3h0c-.1.1-.1.1-.1.2a.91.91 0 0 0 0 1l.3.3c.2.1.4.3.5.4.2.2.5.3.8.5l.3.2.9.7.4.3c.2.1.4.2.7.2.7 0 1.2-.5 1.2-1.2 0-.2 0-.3-.1-.5-.3-.2-.5-.4-.7-.5h0zM6 145.1c-.6-.3-1.2-.1-1.5.5l-.3.9-.1.7-.3 1.2-.2.7c-.1.2-.1.4 0 .6 0 .1 0 .1.1.2h0c.1.2.3.3.5.4h.2c.3 0 .6-.2.7-.5l1.2-2.5.4-.6c.1-.6-.1-1.3-.7-1.6z"/><path d="M8.4 152.6c.3-.1.6-.3.6-.6l.8-1.8c.4-.6.7-1.4.9-2.1a1.1 1.1 0 0 0-.6-1c-.4-.2-.8-.1-1.1.1-.7.8-1.1 1.8-1.2 2.9l-.3 1.4c0 .2 0 .5.1.7s.4.4.6.4h.2zm3.2 2h.1c.3 0 .6-.2.7-.5h0v.1c.1-.1.1-.3.2-.4l.9-1.3c.2-.3.3-.5.4-.8l.3-1c.1-.6-.3-1.2-.9-1.2a1.1 1.1 0 0 0-1.2.8c0 .1-.1.3-.1.4l-.4 1.2-.4 1.1-.1.5c0 .1 0 .2-.1.3 0 .4.2.7.6.8h0zM19 145c-.3-.1-.6-.2-.9-.1l-.1.1-.6.1-2.1.2h-.1c-.4-.1-.7.1-.9.4-.2.4 0 .9.4 1h.1c.4.1.8.2 1.1.2s.5 0 .8.1c.5.1 1 .2 1.4.2.2 0 .4 0 .6-.1.6-.1 1-.7.9-1.4v-.1c-.1-.2-.3-.4-.6-.6h0zm-4.9-3c.1.1.3.1.4.1.2 0 .3.1.5.1.4.1.9.1 1.3.1h1.8c.6-.1 1-.6.9-1.2s-.6-1-1.2-.9l-2.1.6c-.2 0-.3.1-.5.1h-.6c-.1 0-.3 0-.4.1-.1 0-.1.1-.2.2-.2.3-.1.6.1.8zm11.1 12.1c-.5-.3-1.2 0-1.5.5 0 0 0 .1-.1.1l-.5 1.6-.4 1.4v.1c-.1.4 0 .8.3 1 .1.1.3.1.5.1s.4-.1.5-.2.2-.2.2-.3l.5-1.1.5-1c.2-.4.3-.4.4-.7.3-.5.2-1.2-.3-1.5 0 0 0 0-.1 0zm5.8 2.1c-.5-.3-1.2-.1-1.5.5-.3.7-.5 1.4-.7 2.1l-.4 1.1-.3 1c-.1.5.2.9.6 1h.3c.4 0 .8-.4.8-.8l.1-.3.8-1.6.8-1.5c.2-.6 0-1.2-.5-1.5zm5.9 2.4c-.5-.2-1.1.1-1.2.6L34 164c-.1.2-.1.5.1.7.1.1.3.1.4.1s.3 0 .4-.1h0l.2-.2c.2-.3.3-.7.5-1l.6-1.3 1.3-2.2c.2-.5 0-1.1-.4-1.3-.1 0-.2-.1-.2-.1zm3.8 2c-.5-.2-1 .1-1.2.6l-.8 2.5-.4 1.4-.2.6c-.1.3-.1.5-.1.8 0 .2.2.4.4.4h.1c.1 0 .3-.1.3-.2h0c.1-.1.1-.2.1-.3l.2-.6.2-.4.8-1.7c.3-.6.6-1.2 1-1.7s.2-1.1-.4-1.4h0zm4.9 2.1c-.8-.3-1.6.1-1.8.9l-.3 1-.3 1.1-.4 2c0 .1-.1.2-.1.3-.3.4-.1 1 .3 1.3.1.1.3.1.5.1.1 0 .3 0 .4-.1.4-.3.7-.7.8-1.1l.5-1.2c.5-.8.9-1.6 1.3-2.4.2-.8-.2-1.6-.9-1.9h0zm120.7-38.6l-1.4-.7-1.7-.9c-.4-.5-1.1-.6-1.5-.2-.5.4-.6 1.1-.2 1.5l.4.4 2 1.7.8.7c.2.2.6.3.9.3.5 0 1-.3 1.3-.8.4-.6.1-1.5-.6-2h0zm-1.7-5.8h0z"/><path d="M169.3 118.3h0l-1.8-1-.5-.3c-.6-.4-1.4-.3-1.9.2-.1.1-.1.2-.1.3a.47.47 0 0 0-.5.5c0 .2.1.3.2.4l.3.3c.1.1.1.2.2.3a4.44 4.44 0 0 0 1.1.8h.1l.5.4.5.5c.2.2.4.5.7.7a1.08 1.08 0 0 0 .7.3h.3c.4-.1.7-.4.8-.7.1-.2.1-.5.1-.7.1-.1.1-.2.1-.3.1-.3 0-.7-.1-1-.2-.4-.4-.6-.7-.7zm3.4-5.1l-1.2-.8-.1-.1-1.8-1.4c-.5-.3-1.1-.2-1.5.2s-.5 1-.2 1.6c.2.3.4.5.6.6l1.4 1 1.8 1.2h.1c.2.2.4.3.6.4a.9.9 0 0 0 .5.1c.4 0 .9-.2 1.1-.6a1.25 1.25 0 0 0-.3-1.6c-.4-.2-.7-.4-1-.6h0zM168.8 97h.6c.8-.2 1.6-.4 2.3-.8l1-.4c.4-.2.8-.4 1.2-.7.4-.4.5-1 .2-1.4-.2-.4-.7-.6-1.2-.6-.9-.3-1.6.5-2.2 1l-1.3 1c-.2.2-.4.3-.6.5-.3.2-.4.5-.4.8-.1.3.1.5.4.6zm4 .4l-2.2 1.8-.5.5c-.5.4-.9.8-1.4 1.3-.3.4-.4.9-.1 1.3.2.2.5.4.8.4.2 0 .3-.1.5-.1l2.2-1.5 2-1.4.2-.1c.6-.2 1.1-.6 1.5-1.1h0c.1-.2.2-.4.2-.7 0-.4-.1-.7-.4-1s-.6-.4-1-.4c-.6.1-1.1.3-1.5.8l-.3.2zm-2.3 1.8l.1-.1-.1.1zm-.5.4h0zm10.8 2.6c.1-.2.2-.5.1-.8h0c-.1-.3-.2-.6-.4-.8l-.4-.6-.8-1c-.3-.3-.6-.7-.9-1-.3-.4-.6-.6-1-.8-.5-.1-.9.1-1.2.5-.1.2-.2.5-.1.8h0c.1.2.1.3.3.5l.4.5.8 1.1.8 1c.3.4.5.9 1 1 .1.1.3.1.4.1.4 0 .7-.2 1-.5h0zm2.6-5.9h0c-.1-.4-.4-.8-.6-1.1l-1.2-1.4c-.3-.4-.7-.6-1.2-.7-.4 0-.8.3-1 .7-.1.2-.1.4-.1.6h0v.2c.1.1.1.3.2.4 0 .1.1.2.2.3v.1l.4.6.9 1.2.1.1c.2.3.5.4.8.5.2.1.4.2.6.2.3 0 .5-.1.7-.3.4-.5.5-1 .2-1.4h0zm-1 9.6c0-.2 0-.3-.1-.5s-.1-.3-.1-.5a.76.76 0 0 0-.2-.4c-.2-.4-.6-.6-1-.5s-.7.4-.9.8c-.1.2-.1.5 0 .7l.2.9.3 2.2c.1.5.5.9 1 .9h.1c.5-.1.9-.5.9-1 0-.6-.1-1.2-.1-1.8l-.1-.8zm3 1.2l-.1-.5c.1-.2.2-.4.1-.6 0-.2-.1-.5-.1-.7l-.3-.8c-.2-.4-.7-.5-1.1-.3-.1.1-.2.1-.2.2-.2.3-.2.6-.1.9l.3.8v.2c0 .1 0 .1.1.2 0 .1.1.3.1.4l.2.7.1.5a.76.76 0 0 0 .2.4.55.55 0 0 0 .5.3c.1 0 .2 0 .3-.1a.55.55 0 0 0 .3-.5h0a8.11 8.11 0 0 0-.3-1.1h0zm-9.6 2.5l-1.6-1.2-3.3-2.3a.76.76 0 0 0-.4-.2c-.6-.2-1.2 0-1.5.6h0c-.2.4-.1.9.2 1.2l3 2.4 3 2.2c.2.1.4.2.6.2.1 0 .2 0 .4-.1.1 0 .3 0 .4-.1.4-.2.7-.6.6-1 0-.5-.4-.9-.8-1.3s-.4-.2-.6-.4h0z"/></g><g fill="#9d9d9e"><path d="M17 138.5l-.2-.5c0-.2 0-.3-.1-.5s-.2-.3-.3-.5l-.4-1.1a.9.9 0 0 0-.6-.6v-.3c0-.3-.1-.6-.3-.7a.78.78 0 0 0-1 .2s-.1.1-.1.2c-.1.3-.1.6-.1.9s-.1.5-.1.7l-.1 1.6c0 .6 0 1.2.2 1.7.1.3.3.6.5.9.1.1.2.3.3.4.3.2.7.2 1 .1h.1c.4-.1.9-.2 1.3-.4.3-.2.5-.5.5-.9-.3-.5-.4-.9-.6-1.2h0zm-12.9 6.2c-.2-.3-.5-.4-.8-.5h0c-.7-.1-1.4.4-1.5 1.1v.3c-.1.2-.2.5-.2.7h0c0 .1-.1.2-.1.4v-.1.2c-.1.2-.1.5-.1.7 0 .3.1.5.3.7 0 .1.1.1.1.1a.78.78 0 0 0 .4.4 1.1 1.1 0 0 0 1 .6h0c.6 0 1.1-.4 1.2-1l.2-1.3c.2-.7.1-1.4-.2-2l-.3-.3zm5.5 17.1h0l-.3-.3c-.3-.2-.8-.2-1 .2a.61.61 0 0 0 0 .8l.1.1c-.4.1-.7.4-.7.8v.7c.1.5.3 1 .6 1.3a1.27 1.27 0 0 0 .7.9c.2.1.5.1.7.1h.4a1.58 1.58 0 0 0 1.6-1.6c0-.2 0-.5-.1-.7.1 0 .1-.1.2-.1.2-.4.1-.9-.3-1.1-.8-.3-1.3-.7-1.9-1.1h0zm41.1 4.2c-.5-.3-1-.4-1.5-.2h-.3c-.6 0-1.2.4-1.3 1.1 0 .2-.1.4-.1.5-.2.4-.3.8-.4 1.2-.1.2-.1.4-.1.7-.2.3-.3.5-.4.8-.2.3-.1.7.3.9.1.1.2.1.3.1h.2c.2.3.6.4.9.5h.3c.6 0 1.1-.3 1.4-.8.3-.1.6-.4.8-.7.3-.5.6-1.1.7-1.7.1-.4.2-.9.1-1.3-.3-.5-.5-.8-.9-1.1h0zm120.7-74.7a1.38 1.38 0 0 0-.4.3c0-.3-.2-.6-.5-.8s-.6-.2-.9-.1c-.5.1-.9.7-.7 1.2 0 .1 0 .2.1.2.1.2.3.4.5.5-.1.1-.3.2-.4.3-.3.2-.6.4-.9.7-.2.3-.2.8.1 1.1.3.2.7.3 1 .1h0l.1-.1c.2-.1.4-.1.6-.2l.6-.3c.8-.3 1.5-.8 2.1-1.5.3-.5.1-1.1-.3-1.4-.3-.1-.7-.1-1 0h0zm13.7 3.3h0c.4-.5.4-1.1 0-1.6l-1.3-1.5c-.2-.2-.5-.4-.8-.6-.2-.1-.3-.1-.5-.1h0l-.1-.1c-.6-.4-1.3-.3-1.8.2-.4.5-.5 1.2-.2 1.7.3.6.6 1.2 1.1 1.7l.6.7c.2.3.5.6.8.8.2.2.5.3.8.3.2 0 .4 0 .6-.1h.1a1.42 1.42 0 0 0 .7-1.4h0z"/><path d="M183.7 91.4h0zm4.4 15.5l-.1-.6v-.1l-.6-2.3c-.2-.7-1-1.1-1.7-.9-.1 0-.1 0-.2.1s-.3.1-.4.3c-.3.2-.5.6-.5 1 0 .3.1.5.2.8l.1.4.3 1.7v.2c0 .5.4 1 .8 1.1.1 0 .3.1.4.1.3 0 .7-.1.9-.4.6-.3.8-.8.8-1.4h0zm-24 19.1c-.2-.1-.4-.2-.6-.2l-.2-.2-.3-.2c-.3-.4-.6-.7-.9-1-.5-.5-1.4-.4-1.9.1-.3.3-.4.8-.3 1.2v.1c-.4.2-.5.6-.3 1l.1.1c.1.1.3.2.4.3h-.1c.4.2.8.5 1.2.8h0l1 .9c.2.2.5.3.8.3.1 0 .2 0 .4-.1.3 0 .6-.1.8-.3h0c.7 0 1.2-.6 1.2-1.3 0-.2 0-.3-.1-.5-.3-.3-.7-.7-1.2-1h0z"/></g><path d="M186.9 194.2l-.5-3.9-1.1-7.3-1.2-7.3-1.1-6.4c-.3-2.5-.8-5-1.4-7.5l-1-3.4-1.2-3.5-1.5-3.3-1.7-3.2-1.8-3-2.3-3.1-2.3-2.9-2.4-2.7-4.9-5.5c-.9-.9-1.8-1.6-2.9-2.3l-2.7-1.6-1.8-1.6c-.7-.6-1.5-1.1-2.4-1.3-1-.2-2 .1-2.8.8h0l-.3.2c-.4.3-.8.8-1.1 1.2l-.8 1.2-1.6 2.3-3.9 4.8-2.9 3.2-1.4 1.4c-.4.5-.8.9-1.3 1.3l-.2.1c-1 .7-2 1.3-3.1 1.9l-8.2 3.8-4.7 1.7-5.3 2-2.5 1.1c-.5.2-1.1.4-1.6.7-2.2 1.3-3.7 3.5-4.1 6l-.4 2.6c-.6 2.7-1 5.5-1.2 8.2-.1 2.5.4 5 .4 7.5 0 .7-.2 1.4-.3 2.1 0 .1-.1.3-.1.4l-.1.2c-.1.1-.1.2-.2.3h0l-.5.3h.1l-1.7 1c-.6.3-1.4.6-2.1.9l-2.1.9-4.5 1.6-4.2 1.2-4.3.8-3.6 1.3-.5-.6a.76.76 0 0 1-.2-.4l-.3-.6c-1-2.7-1.9-5.5-2.6-8.3l-.4-2.2-.3-2.3c-.2-1.8-.1-3.5-.1-5.3l-.3-5.6c0-1.9-.6-3.8-1.5-5.4-.8-1.1-1.8-2.1-3-2.8-.8-.6-1.6-1.2-2.5-1.6-1-.5-2.2-.9-3.3-1.1-2-.4-4-.6-6.1-.8-1.3-.2-2.7-.3-4.1-.2-.8.1-1.5.7-1.7 1.5h0c-1 .4-1.7 1.9-2.1 2.9l-1.7 3.2-.9 1.3c-.3.6-.5 1.3-.6 2-.1.5-.2 1.1-.2 1.6 0 .4 0 .8.2 1.2.2.8.5 1.5.9 2.2l.7 1.4.3.7c.1.2.1.3.1.5l.1.6-1.6.9c-.4.1-.8.2-1.3.2-.8 0-1.5.1-2.3.4-.9.4-1.6 1-2.2 1.8-.5.6-.8 1.3-1.1 2-.4 1.2-.7 2.4-.8 3.7l-.3 3.7c-.1 1.2 0 2.4 0 3.7v3.7l.4 3.8.5 3.7c.5 2.6 1.1 5.2 1.9 7.7l2.8 7.2 3 7c1.1 2.1 2.3 4.2 3.8 6.1 1.4 2.1 3 4.2 4.7 6.1l2.6 2.7 2.5 2.4 2.8 2.5 3.2 2.4 3 2 2.9 2c2 1.4 4.1 2.6 6.3 3.7l3.3 1.5 3.2 1.4 6.8 2.7c2.3 1 4.8 1.5 7.3 1.6h.6c1.9 0 3.8-.2 5.7-.4l4.1-.1 4.5-.2c1.6-.2 3.2-.7 4.8-1.3l2.6-1.1c.5-.2 1-.3 1.4-.4l3.3-.5 3.4-.3h4l7.1.4 3.4-.1 3.2-.4c1.2-.3 2.3-.7 3.3-1.2 1.1-.5 2.2-1.1 3.2-1.9l2.1-1.9a14.29 14.29 0 0 0 1.4-2c.6-1 1.3-1.9 2-2.8l2.8-3.1 2.6-3.3 3.6-4.3 3-4.1 2-2.9a20.17 20.17 0 0 0 1.8-3.6l1.2-3.2c.3-.1.5-.3.7-.5.7-.7 1.2-1.5 1.6-2.4l.4-1.1.8-2.6c.5-1.7.9-3.5 1.1-5.3l.5-3.6c.2-1.3.3-2.6.4-3.9 1.2-1.2 1-2.4.9-3.6h0zM43.4 93.4a38.72 38.72 0 0 0 1.2 6.8l2 5.8c.4 1.1.9 2.1 1.5 3.1l2.4 4c.4.7.9 1.3 1.3 1.9.6.8 1.3 1.5 2 2.2l2 2.3a22.84 22.84 0 0 0 2.2 2.2l2.4 2.1c.8.6 1.7 1.2 2.6 1.6 1 .6 2.1 1.2 3.2 1.6 1 .3 2.1.5 3.2.7l3 .4c1.3.2 2.7.6 4 .9.9.3 1.7.5 2.6.7l2.6.3h2.6l2.2-.1h3.9l3.7-.2c1-.1 2.1-.2 3.1-.5l2.8-.8-.4.1 1.5-.4-.4.1 2.5-.6 2.2-.4 2-.3c1.1-.2 2.1-.5 3.1-1l2.6-1.4c.8-.5 1.7-.9 2.6-1.2l1.3-.5 2.7-1.2 2.6-1.4 2.7-1.5 2.3-1.6 2.5-1.9 4.4-3.9 2.2-2.2c.9-.8 1.8-1.7 2.6-2.6.9-1.1 1.7-2.2 2.4-3.4.7-1 1.2-2.1 1.6-3.2.3-1 .4-1.9.6-2.9.1-.6.1-1.2.1-1.9l.1-1.8c.1-1.1.1-2.1 0-3.2l-.3-3.2c-.3-2.1-.9-4.2-1.7-6.1l-2-5.5-.9-2.8-.8-2.7c-.7-2.1-1.6-4.1-2.7-5.9a45.37 45.37 0 0 0-3.9-4.8L127 55l-4.6-4.5-2.7-2-2.8-1.6c-1.7-1-3.5-1.8-5.3-2.7-2.1-.9-4.2-1.5-6.5-1.8l-5.8-.7-3.4-.7-4-.7-3.8-.2-3.6.1-3 .3c-1.2.1-2.3.3-3.4.6l-6 1.8a13.9 13.9 0 0 0-2.8 1.2c-1 .5-1.9 1.1-2.8 1.8L64 47.7c-.9.7-1.8 1.4-2.6 2.3-.6.7-.8 1.5-.6 2.4l-3 2.7-2.3 2-1.9 1.8c-1.3 1.3-2.5 2.7-3.5 4.3-1.2 1.8-2.3 3.7-3.2 5.7-.5.9-.8 1.9-1.2 2.8l-1.1 3c-1.3 4.1-1.8 8.4-1.4 12.6l.2 6.1z" fill="#fefefe"/><g fill="#d6d6d6"><path d="M86.4 87.9c.4 1.3.9 2.6 1.6 3.8 1.2 1.9 3 3.4 5.1 4.1.5.2 1.1.3 1.6.4s1 .1 1.5.1 1-.1 1.5-.2c1.2-.3 2.3-.8 3.3-1.5.9-.6 1.7-1.3 2.3-2.2.6-.8 1-1.7 1.3-2.6s.5-1.8.7-2.8c.8-.4 1.5-.9 2.1-1.5.6-.7 1.2-1.4 1.6-2.3.4-.7.7-1.5.8-2.3.1-.5.1-.9.1-1.4 0-.6.1-1.3.1-1.9v.3-1.5c.3-.3.5-.6.7-.9.3-.6.6-1.2.7-1.9.2-.7.3-1.5.3-2.3 0-.6 0-1.2-.2-1.8-.1-.4-.2-.8-.4-1.2-.3-.7-1.1-1-1.8-.7-.5.2-.8.7-.8 1.3 0 .5.1 1 0 1.4v.2l-.3.9c-.1.3-.3.7-.5 1.1 0 .1-.1.1-.1.2l-1.9 1.9c-.2.4-.4.9-.3 1.3V77l-.3 1.3-.4 1.5v.2l-.4.8c-.1.2-.3.3-.4.5l-.5.5c-.2.2-.4.3-.6.4a13.12 13.12 0 0 0-1 .6l.1-.1c-.2.1-.5.2-.7.4-.5.4-.8.9-1 1.5l-.2.7-.5 1.5-.6 1.4-.3.5c-.1.2-.3.3-.4.5s-.3.3-.4.4l-.1.4-.8.4c-.3.2-.7.3-1 .5h-1.4l-.6-.1-.4-.1-1-.4-.6-.3-.7-.5-1.4-1.4-.7-.9c-.3-.5-.7-1.1-.9-1.7-.3-.5-.5-1-.7-1.6 0-.1-.1-.2-.1-.3v-.2c0-.5-.4-.9-.9-1a1.1 1.1 0 0 0-1.2.8v.2c.1.9.2 1.7.5 2.6.1 0 .6 1.9.6 1.9zm-22.6-7.8c.1.7.3 1.3.7 1.9.4.5 1 .9 1.6 1.2.6.2 1.2.4 1.8.4.3 0 .6 0 .9-.1a4.98 4.98 0 0 0 1.9-1c.6-.5 1-1.1 1.3-1.8s.4-1.4.4-2.2c0-1-.3-2-.8-2.8-.4-.7-1.2-1-1.9-.6-.6.3-.9 1-.7 1.7l.3 1v.8c0 .1-.2.4-.3.6h0l-.4.3-.3.3c-.2.1-.3.2-.5.3h0-.3c-.4 0-.8-.1-1.3-.2h-.1l-.1-.2-.7-.7-.3-.6c-.1-.3-.2-.5-.4-.7a.47.47 0 0 0-.6.1v.7c-.2.5-.2 1-.2 1.6h0zm35.1-18.5c.1.2.2.5.4.7.7 1.2 2 1.9 3.4 2h.4c.4 0 .7-.1 1.1-.2.5-.2.9-.4 1.3-.7.6-.5 1.1-1.2 1.3-2 .4-1.1.3-2.3-.1-3.5a1.38 1.38 0 0 0-1.8-.9c-.6.2-1 .7-1 1.3v.9l-.2.5a1.38 1.38 0 0 1-.3.4l.1-.1-.1.1.1-.1-.1.2-.6.4h-.1l-.4.2h-.7c-.2 0-.4-.1-.7-.2l-.3-.1-.2-.1-.2-.2V60l-.2-.3-.2-.4c0-.2 0-.3-.1-.5 0-.5-.5-.9-1-.8-.5 0-.9.5-.8 1v.1l.3 1.3c.5.4.6.8.7 1.2z"/><path d="M102.1 60.8h0zm-29.4 45a4.06 4.06 0 0 0 2.6 2.2c.2.1.5.1.7.1.5 0 1-.1 1.5-.3a3.75 3.75 0 0 0 2.1-1.8c.3-.6.4-1.2.5-1.9 0-.8-.1-1.5-.4-2.3-.2-.5-.8-.8-1.3-.6-.5.1-.8.5-.8 1v1.2a.76.76 0 0 1-.2.4c-.1.1-.1.2-.2.3l-.1.2-.2.1h-.1l-.4.1h-.8l-.4-.2-.3-.2-.4-.4c-.1-.1-.1-.2-.2-.2-.1-.1-.2-.3-.3-.4h0v-.3c0-.3-.3-.4-.5-.4-.1 0-.2 0-.2.1-.4.2-.6.5-.7.8-.2 1-.2 1.7.1 2.5h0zm9.5 3c.2.7.5 1.3 1 1.8.6.6 1.5 1 2.4 1.1h.4c.4 0 .9-.1 1.3-.2A3.53 3.53 0 0 0 89 110c.2-.4.3-.8.4-1.2.1-.5.1-1.1-.1-1.6-.1-.5-.6-.8-1.2-.8-.5.1-.9.5-.9 1.1v.6c0 .1-.2.2-.3.3l-.1.1-.3.2-.4.1h-.7l-.9-.3-.1-.1c-.1-.1-.2-.1-.2-.2l-.2-.2v-.2c0-.1-.1-.3-.1-.4v-.4c.2-.5-.1-1.1-.7-1.2-.5-.2-1.1.1-1.2.7-.1.2-.1.4 0 .6 0 .1.1.3.1.4 0 .4 0 .9.1 1.3h0zm15.5 1.5c0 .1 0 .1-.1.2l-.1.1-.5.6-.1.1-.3.2-.2.1H96l-.6-.2-.3-.3c-.1-.1-.2-.2-.2-.3l-.2-.3v-.1c0-.5-.3-.9-.8-1-.5 0-.9.3-1 .8v.2c.1 1.2.7 2.3 1.6 3.2l.1.1c.4.4.9.7 1.5.8.3.1.5.1.8.1a3.53 3.53 0 0 0 1.7-.4c.5-.3 1-.6 1.3-1.1.4-.5.7-1.1.9-1.8.1-.3.1-.7.1-1 0-.7-.1-1.3-.3-1.9-.3-.7-1.1-1.1-1.8-.8a1.42 1.42 0 0 0-.9 1.5v.1-.1 1l-.2.2zm10.8-1.9l-.2.2c-.1 0-.2.1-.3.1h-.5c-.3 0-.6-.1-.9-.1h-.2l-.4-.4-.2-.3c0-.1 0-.1-.1-.2v-.1c0-.6-.4-1-.9-1.1s-1 .4-1.1.9h0c0 .5.1.9.3 1.3.2.6.4 1.2.7 1.7.4.5.8 1 1.4 1.3.5.3 1.1.5 1.7.5h.4c.7 0 1.5-.2 2.1-.6.4-.3.8-.6 1.1-1.1s.5-1 .5-1.6c.1-.6 0-1.2-.1-1.8s-.3-1.1-.5-1.6c-.3-.7-1.1-1.1-1.9-.8-.6.2-.9.8-.9 1.4l.1 1v.7c0 .2 0 .3-.1.5v.1zm-2.7-.7h0zm8.6-3.6c.2.4.4.8.7 1.2.7.9 1.8 1.4 3 1.4h.2c1.4 0 2.6-.8 3.3-1.9.3-.6.6-1.3.7-2 .1-.5.1-1 0-1.4 0-.3-.1-.6-.2-.8-.1-.4-.3-.8-.6-1.2-.5-.7-1.4-.8-2.1-.3-.5.4-.7 1-.5 1.6l.1.3v.5c0 .1-.1.3-.1.4l-.1.2-.3.4-.1.1-.6.3h-.5l-.3-.1-.2-.1-.6-.4-.4-.3c-.2-.2-.4-.4-.6-.5-.3-.1-.6 0-.8.2-.3.3-.2.9-.1 1.3-.1.2 0 .7.1 1.1h0zm4.5-3.1h0zm1.9-7.2c.2.6.6 1.1 1.1 1.4.3.3.6.5 1 .6.3.1.6.2.8.2.3 0 .6 0 .9-.1a2.37 2.37 0 0 0 1.5-.9c.4-.4.7-.9.9-1.4.3-.8.5-1.6.5-2.4 0-.6 0-1.1-.2-1.6-.2-.6-.5-1.1-.9-1.7s-1.2-.7-1.8-.4c-.6.4-.9 1.1-.6 1.8l.2.6.1.2v.4l-.3 1c-.1.3-.2.4-.2.5l-.5.5h-.6c-.1 0-.1 0-.2-.1h-.1l-.1-.1-.3-.2c-.2-.3-.5-.6-.8-.6-.2 0-.4.1-.6.2-.1.1-.1.2-.2.3 0 .2 0 .4.1.6l.3 1.2zm.5-11c.1.2.3.4.5.6.5.5 1.3.8 2 .8h.5c.6 0 1.2-.2 1.7-.5.6-.3 1-.8 1.3-1.4.1-.3.3-.5.3-.8 0-.2.1-.4.1-.7.1-.8-.2-1.6-.6-2.2-.3-.6-1.1-.9-1.8-.6-.6.3-.8.9-.6 1.6l.2.7v.2c0 .1 0 .2-.1.3l-.1.2-.1.1-.3.2h-.1l-.5.1h-.6c-.1 0-.2-.1-.3-.2h-.1l-.1-.1c-.1-.1-.2-.2-.2-.3l-.2-.4c0-.1-.1-.2-.1-.3v-.5c.2-.2.1-.6-.1-.8a.53.53 0 0 0-.8.1v.1l-.1.2v-.1c-.1.2-.1.4-.2.5 0 .2-.1.4-.1.6-.1.5-.1 1 0 1.5.2.5.3.8.5 1.1h0zm5.5 82.5c.2-.5-.1-.9-.5-1.1-.5-.2-.9.1-1.1.5v.3l-.1.3-.2.3c-.1.1-.2.3-.3.5s-.2.5-.3.7l-.2.6c-.2.9-.2 1.9.2 2.8.3.8.8 1.4 1.5 1.9a5.39 5.39 0 0 0 2.1.8c.3 0 .5.1.8.1a4.53 4.53 0 0 0 1.6-.3c.8-.3 1.6-.8 2.1-1.6.6-.7.9-1.5 1.1-2.4.2-1 0-2.1-.4-3.1-.3-.8-1.2-1.1-2-.8-.6.2-.9.8-.9 1.4v1.1c0 .2 0 .2-.1.3l-.1.2v.1l-.1.2s0-.1.1-.1h0l.1-.1-.1.1v.1-.1l-.1.1v.1l-.4.3-.5.5h-.5l-.6-.2-.2-.1c-.1 0-.2-.1-.2-.1h-.1l-.5-.5-.3-1.2v-.5c0-.3.1-.6.2-1-.1.1 0 0 0-.1h0zm1.4 25.1c.3.3.7.6 1.2.8.6.3 1.2.4 1.9.4.5 0 .9-.1 1.4-.2.6-.2 1.2-.5 1.8-.9.8-.7 1.4-1.7 1.5-2.8.1-.6.1-1.2-.1-1.8l-.3-.8c-.3-.6-1-.9-1.6-.7-.5.2-.8.7-.8 1.3l.1.8v.5l-.1.2c0 .1-.1.2-.1.3v.1l-.1.1-.3.2c-.1 0-.1.1-.2.1l-.8.3-.3.1h-.9l-.2-.1c-.1 0-.1-.1-.2-.1h0l-.2-.2-.1-.2c-.1-.1-.1-.2-.1-.4l-.3-1c0-.2-.1-.3-.1-.5v-.3c0-.1 0-.3.1-.4l.1-.2.1-.3.1-.1c.3-.2.4-.6.3-.9-.2-.3-.6-.4-.9-.3 0 0-.1 0-.1.1l-.1.1c-.4.4-.8.9-1 1.4-.2.4-.4.9-.5 1.4v.8c0 .7.1 1.4.3 2 .1.4.3.8.5 1.2h0zm-83.5-16c.5.5 1 .8 1.6 1.1a6.71 6.71 0 0 0 2.8.6h.5c.5 0 1.1-.1 1.6-.2.6-.2 1.2-.6 1.6-1 1.1-1.2 1.6-2.7 1.5-4.3-.1-1.1-1-1.9-2-1.8-.8 0-1.5.6-1.7 1.3l-.3.9-.3.5-.1.2-.3.2h-.9c-.5 0-1-.1-1.5-.1-.4-.1-.8-.1-1.2-.1-.2 0-.5 0-.7.1-.8 0-1.5.6-1.5 1.4v.3c-.1.4.3.8.9.9zm6.7-88.5a1.27 1.27 0 0 0-.7.9c-.1.3 0 .6.1.8s.2.3.3.4c.2.2.5.3.8.3h.4c.7-.2 1.1-.9 1-1.6-.1-.4-.3-.7-.6-.8-.4-.1-.9-.1-1.3 0zm33.3 32.3c-.8-.1-1.6.6-1.6 1.4 0 .6.3 1.2.8 1.5h.1c.2.1.4.2.6.2h.1c.5 0 1-.3 1.2-.7.5-.7.3-1.7-.5-2.2-.2-.2-.4-.3-.7-.2h0zm-28.6 41.7l-.3.3c-.4.4-.5 1-.2 1.5a1.59 1.59 0 0 0 1 .8h.3c.5 0 .9-.2 1.1-.6.3-.4.3-.9.1-1.4-.3-.7-1.1-.9-1.8-.6h-.2zm3.3 3c.2.6.7 1 1.3 1 .1 0 .2 0 .4-.1.6-.1 1-.6 1-1.2 0-.2 0-.4-.1-.6-.1-.3-.2-.5-.4-.7-.4-.3-.9-.4-1.4-.3h0c-.6.4-1 1.2-.8 1.9h0zm51.1 1.7c.1 0 .3.1.4.1h.1c.2 0 .4-.1.6-.2s.3-.3.4-.5c.1-.1.1-.2.1-.4v-.4c-.1-.7-.7-1.1-1.4-1-.3 0-.5.2-.7.4-.3.3-.4.8-.3 1.2.2.3.4.6.8.8z"/><path d="M110.9 168.7h.2c.1 0 .2 0 .4-.1.5-.2.8-.8.7-1.3s-.5-.9-1-1c-.7-.1-1.3.3-1.5.9-.1.5.1.9.4 1.2.2.2.5.3.8.3zm5.1-4.5c-.2-.4-.7-.7-1.2-.7-.2 0-.5.1-.7.2-.4.3-.6.7-.6 1.1 0 .5.3.9.7 1.1.2.1.4.2.6.1.7 0 1.3-.6 1.3-1.3 0-.1 0-.3-.1-.4h0v-.1zm40.5-24.3c.3.2.6.3.9.3a1.58 1.58 0 0 0 1.6-1.6v-.1c0-.9-.8-1.6-1.7-1.5h-.2c-.6.1-1.1.6-1.3 1.2 0 .7.2 1.3.7 1.7h0z"/></g><path d="M93.8 89.5c-.7-.1-1.3-.4-1.9-.8-.5-.3-.9-.8-1.2-1.3l-.1-.1c-1.3-.8-2.2-2.1-2.6-3.6-.7-2.6-.3-6 1.9-7.8.2-.2.4-.4.7-.5.1-.1.2-.3.4-.4.7-.8 1.7-1.2 2.8-1.4.3-.7.6-1.4 1.1-2.1.7-1.2 1.9-2.1 3.2-2.5 1.2-.4 2.4-.2 3.5.4h0l.5-.3c.2-.1.2-.5.3-.7.3-.8.8-1.5 1.3-2.2.3-.3.6-.6 1-.9.4-.2.9-.3 1.3-.4 1-.1 1.9.4 2.5 1.2.2.2.3.5.4.7.2.2.3.5.4.8.3.8.2 1.7-.1 2.4-.2.4-.5.8-.7 1.2-.3.5-.7 1-1.2 1.5v.3c0 .4-.1.8-.2 1.2l-.7 2.8c-.1.7-.3 1.3-.4 2a4.98 4.98 0 0 1-1 1.9l-.5.5c-.3.2-.5.4-.8.6-.4.2-.9.4-1.4.4-.2.8-.5 1.6-.9 2.3-.7 1.5-1.7 2.7-3 3.7a6.62 6.62 0 0 1-3.3 1.2c-.7 0-1 0-1.3-.1h0z" fill="#bfbbbd"/><g fill="#aaa"><path d="M92.8 74.2l.4.8.4.7.7.7.2.1.2.2v-.1c.2.2.4.3.6.5h-.1.1l.2.1.1.1L95 76l-.4-1.1-.3-1.1-.2-.8-.2-.5c0-.1 0-.2.2-.3.1 0 .3 0 .3.1v.1-.3c0-.2 0-.3.1-.4s.2-.2.3-.2h.1a.68.68 0 0 0-.7-.7c-.2 0-.5.1-.6.3-.3.5-.5 1-.7 1.6-.1.3-.2.6-.2.9v.2l.1.1c-.2-.1-.1.2 0 .3zm10.4 8.3v.1c-.1.2-.2.2-.4.2h-.5c-.3 0-.6-.1-.9-.2s-.5-.2-.8-.4l-.7-.4a3.04 3.04 0 0 1-.7-.5c-.2-.2-.5-.4-.7-.6l-.5-.5v.2c0 .1 0 .2.1.4h0c.1.2.1.3.2.5h0c.1.3.3.5.4.8h0v.1c.2.3.4.5.6.8l.1.1c.2.3.5.5.8.7h0l.3.2c.2.1.3.1.5.2h0c.1 0 .2.1.2.2s.1.2.1.3v.1c0 .1-.1.3-.3.3.1.3 0 .6-.2.8-.2.1-.3.2-.5.3l-.6.2c-.4.2-.8.3-1.2.4h0c-.4.1-.8.2-1.2.2s-.8.1-1.2.1h-1.2c-.2 0-.4 0-.7-.1-.2 0-.4-.1-.7-.1h0l-1.2-.3c-.3-.1-.7-.2-1-.4-.4-.2-.7-.3-1-.6l-.9-.8h.1l-.5-.3c-.2-.2-.4-.3-.6-.5l-.5-.5c-.1-.1-.3-.3-.3-.4-.1-.1-.1-.3 0-.4h.3a.55.55 0 0 1 .5.3c-.1-.3-.5-.5-.8-.4s-.5.4-.4.7c.1.4.3.8.5 1.1l.6 1 .2.3c.3.6.6 1.1 1 1.6.4.6.9 1.1 1.5 1.5 1.2.9 2.6 1.4 4.1 1.5h.2c.7 0 1.3-.1 2-.3s1.4-.5 2.1-.9a6.42 6.42 0 0 0 1.3-1c.2-.2.5-.5.7-.8.5-.6.8-1.3 1-2 .1-.3.1-.6 0-.9.2 0 .3-.1.5-.2.3-.1.5-.4.7-.6.2-.3 0-.8-.4-1.1h0zm-9.5 4.4h0zM107 73.8c0 .1 0 .1-.1.2h0c-.1.1-.2.2-.4.2h-.1c-.2-.1-.3-.1-.5-.2s-.5-.2-.7-.4-.4-.3-.6-.5-.3-.4-.5-.6h0c-.2-.3-.4-.6-.6-.8l-.5-1-.3-1c-.1-.3-.2-.6-.2-.8h0c-.2-.1-.5 0-.7.2-.2 0-.4.2-.4.4v.1h.2c.1 0 .1.1.1.2v.5c0 .2.1.4.1.7h0c.1.2.1.5.3.7h0c0 .1.1.2.2.4.1.1.1.2.2.3l.4.7.2.3.1.1.3.4.3.3c.1.1.2.1.3.2l.4.3.7.4c.1.1.1.2.1.3l.2.1h.2l.3.1c.1 0 .2.1.2.3 0 .1-.1.2-.1.2h.1c.4 0 .8-.2 1.1-.6.1-.8 0-1.3-.3-1.7h0z"/><path d="M105.5 75.2h0zm-5.2 3.9c0 .3.1.5.3.7.2.1.4.2.6.2.3 0 .5-.1.7-.4.1-.2.2-.3.2-.5 0-.3-.1-.5-.4-.7-.1 0-.1-.1-.2-.1-.2-.1-.5-.1-.7 0-.3.1-.4.4-.5.6v.2zm2.6-1.4h0c.4 0 .7-.3.8-.7.1-.3 0-.5-.2-.7-.1-.1-.3-.2-.4-.3-.3-.1-.6 0-.8.3-.3.3-.3.9.1 1.2l.1.1c.1 0 .2.1.4.1zm-12 3.9a1.11 1.11 0 0 0 1.1-1.1 1.11 1.11 0 0 0-1.1-1.1 1.11 1.11 0 0 0-1.1 1.1c-.1.6.5 1.1 1.1 1.1z"/></g><path d="M87.2 81.4v-.6c0-.3.1-.6.2-.8.1-.5.3-1 .5-1.4l.7-1.3c.2-.4.5-.8.8-1.2.2-.2.4-.4.6-.5l.9-.6c.4-.2.9-.4 1.4-.6l.8-.4.6-.2.1-.1.4-.5.3-.4.2-.3c.1-.1.2-.3.3-.5.2-.2.3-.5.5-.7.5-.5 1.1-.8 1.7-1 .2-.1.4-.1.7-.2s.4-.1.6-.2c.3-.1.5-.1.8-.2.2 0 .5 0 .7.1h0l.6.1h.3l.4-.1h.4l.1-.1.5-.4.1-.2.1-.1c.3-.4.6-.7.9-1l.5-.4 1-.6c.4-.2.8-.3 1.3-.4.4-.1.7-.1 1.1-.1s.9.2 1.2.5.6.6.8 1 .4.8.4 1.3c.1.6-.4 1.1-1 1.2-.4 0-.8-.2-1-.5l-.2-.5-.2-.2-.3-.2-.1-.1h-.8c-.1 0-.2 0-.4.1l-.3.1-.4.2-.3.3-.8.9c-.5.7-1.1 1.2-1.9 1.5l-1 .3c-.4.1-.8.1-1.2.1h.2c-.3 0-.6 0-.9-.1h-.7c-.2 0-.3 0-.5.1-.2 0-.3.1-.5.2h0l-.8.4-.8.8c-.2.3-.4.6-.6.8s-.3.5-.5.7h0c-.1.2-.3.4-.5.5h.1c-.2.2-.5.3-.7.5l-.8.3-.3.1c-.1.1-.3.2-.4.3h0l-.5.4c-.3.2-.6.5-.9.7-.5.5-.9 1-1.3 1.5l-.6.9-.5.4c0 .1-.1.3-.1.4v.1c0 .2-.2.4-.4.5h-.1c-.3 0-.5-.2-.5-.6h0z" fill="#fff"/><g fill="#a2a2a5"><path d="M86.6 132h0zm-4.2 0h0zm65.2-16.1h0zM22.1 157.1h0zm-6.4-5.3h0c-.1 0 0 0 0 0zm113.6 18.4a3.98 3.98 0 0 0 2.1-.9c.4-.3.7-.7 1-1.1.7-1 .8-2.3.5-3.5-.3-.9-.9-1.7-1.7-2.3-1-.8-2.4-1-3.6-.5-.4.2-.8.4-1.2.7-.3.2-.5.5-.7.8-.1.1-.3.2-.4.4-.2.3-.4.6-.5 1-.3.9-.3 2 .1 2.9.4 1.1 1.2 1.9 2.3 2.3.5.2 1 .3 1.5.3.2-.1.4-.1.6-.1zm-1-3.1h-.1l-.2-.1-.1-.1-.1-.3-.1-.2-.1-.4v-.5c0-.2.1-.4.2-.6v-.1l.3-.1h.9l.2.1.3.3.3.4v.2l.1.4v.6c0 .1 0 .1-.1.2v.1h-.1l-.2.1h-.1l-.5.1h-.2l-.4-.1zm5.9 15.1c-.5-.5-1.1-.8-1.7-.9-.8-.1-1.6.1-2.4.5l-.9.6-.2.1a3.25 3.25 0 0 0-1 1.3c-.2.5-.4.9-.5 1.4-.1.6-.1 1.2.1 1.8s.6 1.2 1.1 1.6 1.2.7 1.8.9c.3.1.7.1 1 .1.7 0 1.4-.2 2.1-.5 1.1-.6 1.8-1.8 1.9-3 .1-.6 0-1.2-.1-1.8-.1-.8-.6-1.5-1.2-2.1h0zm-1.6 3.5c0 .1 0 .1-.1.2v.1l-.1.1-.1.2-.3.3h-.6l-.5-.1-.2-.1h-.1l-.2-.2V185s0-.1.1-.1l.1-.2.2-.2.3-.2.1-.1.2-.1h.3l.2.1c.1 0 .1.1.2.1l.3.3s0 .1.1.1v.7l.1.3zM86.7 76h0z"/><path d="M85.4 84.2c.1.7.3 1.5.5 2.2s.6 1.4.9 2.1c.2.5.5.9.9 1.3.5.5 1 .9 1.6 1.3 1.3.9 2.9 1.3 4.5 1.3h0c1.5.1 3-.2 4.4-.8.9-.4 1.6-1 2.3-1.7.5-.5 1-1.1 1.3-1.8.6-1 .9-2.2.9-3.4l1-.5 1.4-.9c1-.8 1.7-1.8 2.2-2.9.2-.5.4-1.1.4-1.6s.1-1 .1-1.4v-1.9l.7-.8c.9-1.1 1.5-2.4 2-3.7.3-.8.5-1.6.6-2.5 0-1.8-1.2-3.4-2.9-3.9-.9-.3-1.9-.3-2.8-.1a5.63 5.63 0 0 0-2.6 1.7c-.6.6-1.1 1.2-1.6 1.8-.9 0-1.7.1-2.5.2-.9.1-1.7.4-2.5.7-1.2.5-2.2 1.4-2.7 2.6l-.7.2c-.6.2-1.2.5-1.8.8l-.6.3-.9.7-1 .8-.8.8-1 .9c-.2.3-.5.7-.7 1.1l-.3.9c-.4 1.3-.6 2.7-.5 4.1 0 .7 0 1.4.2 2.1zm2.6-4.9c0-.2.1-.4.1-.6s.1-.3.2-.5h0c.2-.4.4-.7.6-1l.2-.3.7-.8.5-.4-.1.1c.4-.3.8-.5 1.2-.8.7-.4 1.5-.7 2.2-1l.7-.2.2-.5.6-1.1c.1-.2.3-.3.4-.5l.5-.4c.4-.3.8-.5 1.2-.7s.9-.4 1.4-.4c.5-.1.9-.1 1.4 0 .4 0 .8.1 1.3.2l.5.1s0-.1.1-.1l.6-.9c.2-.3.5-.5.8-.7l.8-.7.8-.5.2-.2.2-.1h.2c.1 0 .3-.1.4-.1h.3c.1 0 .3 0 .4.1s.3.1.4.3l.2.1.1.1.2.1.3.3c.1.1.1.2.2.3.1.2.2.5.2.7s0 .4-.1.7l-.3.6-1.4 2.4-1.3 2.3v.2c.1.5.2.9.1 1.4 0 .5-.1 1-.2 1.4-.1.5-.3 1-.6 1.4l-.6 1-.3.3c-.3.4-.6.8-1 1.1-.2.2-.4.3-.6.4l-.7.4c-.4 1.1-1 2.1-1.7 3.1-.4.5-.8.9-1.2 1.3-.1.1-.3.2-.5.4l-.4.3-.3.2-.7.3-.6.2-.6.1h-1.5c-.3 0-.6-.1-.9-.1l-.6-.2-.6-.4-.6-.3-.6-.6c-.2-.2-.3-.4-.4-.5s-.3-.4-.4-.7l-.7-1.7c-.3-.7-.5-1.5-.6-2.2l-.3-1.7V80c-.1-.1 0-.4 0-.7h0zm-24.8-1c.1.9.6 1.7 1.3 2.2.5.3 1 .5 1.6.6.3 0 .6.1.9.1h.2c.4 0 .7-.1 1.1-.2s.7-.3 1-.5a4.04 4.04 0 0 0 1.3-1.3c.2-.3.3-.5.4-.8.1-.2.2-.4.2-.6.1-.3.2-.7.2-1 .1-.6 0-1.1-.1-1.7s-.4-1.2-.9-1.7c-.4-.4-.8-.8-1.3-.9-.5-.2-1.1-.3-1.7-.3-.4 0-.7.1-1.1.2-.2.1-.5.2-.7.3-.4.2-.8.6-1.2.9-.5.5-.8 1.1-1 1.8-.1.4-.2.7-.2 1.1v.3c-.1.5-.1 1 0 1.5h0zm2.4-2.6h0c0 .1 0 0 0 0h0c0-.1 0-.2.1-.3l.3-.3.4-.3.2-.1.3-.1h.4l.6.2.2.1.5.5v.1l.1.2.2.8c.1.3.1.5.1.8v.2c0 .1-.1.2-.1.3l-.3.2-.5.5-.3.2-.3.1h-.3l-.6-.1-.3-.1-.3-.3h-.1l-.1-.1V78c0-.1-.1-.2-.1-.3l-.1-.3v-1.7zM98.1 59c.2.9.8 1.7 1.6 2.2.6.3 1.2.6 1.8.7h.8l1-.3c.8-.4 1.4-.9 1.9-1.6s.8-1.4.9-2.3c.1-.6 0-1.3-.2-1.9-.1-.4-.3-.8-.6-1.2-.2-.3-.5-.5-.7-.8-.6-.5-1.3-.7-2.1-.7-.6 0-1.1.1-1.7.3s-1.1.6-1.5 1c-.2.2-.4.4-.6.7-.3.4-.6 1-.7 1.5-.2.7-.2 1.5-.1 2.3.1 0 .2 0 .2.1zm2.1-2.1h0c0-.1 0-.2.1-.2v-.1l.4-.4.4-.3.1-.1.2-.1h.3l.4.1.3.1h.1l.4.4v.1l.1.1c0 .1.1.2.1.3s0 .2.1.2v.9l-.2.3-.4.4-.3.2-.4.2h-.2l-.5-.1-.3-.1-.2-.1-.3-.3-.2-.4c0-.1-.1-.1-.1-.2s-.1-.2-.1-.3v-.3c.1 0 .1-.2.2-.3h0zm-27 48.1c.3.3.7.5 1.1.6.3.1.7.2 1 .2.2 0 .4.1.6.1.6 0 1.2-.2 1.7-.5a2.36 2.36 0 0 0 .9-.8c.2-.2.3-.5.4-.7.2-.5.4-1 .4-1.5 0-.3.1-.5.1-.8v-.8c0-.3 0-.6-.1-.9-.2-.6-.5-1.1-1-1.5-.5-.3-1.1-.6-1.6-.7s-1.1-.1-1.6 0c-.7.1-1.3.5-1.7 1-.2.2-.4.4-.5.7-.2.3-.3.6-.4 1-.4.8-.6 1.8-.4 2.7.1.8.5 1.4 1.1 1.9h0zm1-3.2l.1-.3.2-.4c0-.1.1-.1.1-.2l.4-.4.3-.2h.6l.4.2.4.4v1.4c0 .1 0 .2-.1.3a.76.76 0 0 1-.2.4l-.1.2-.2.1-.3.1h-.4c-.2 0-.4 0-.6-.1l-.6-.3h-.1l-.1-.1v-.7c.2-.2.2-.3.2-.4h0zm8.3 6.5c.4.6 1 1 1.7 1.3.3.1.7.2 1.1.2.7 0 1.4-.2 2-.7 1.2-.9 1.8-2.3 1.6-3.8 0-.2-.1-.4-.2-.6l-.3-.8c-.1-.2-.2-.5-.4-.7-.3-.3-.6-.6-1-.8-.3-.2-.7-.2-1.1-.3h-.7c-.3 0-.5.1-.7.2-.3.1-.6.2-.8.4a1.96 1.96 0 0 0-.9.9c-.3.4-.5.9-.6 1.4v.2l-.2.4c-.2.4-.2.9-.1 1.3 0 .6.3 1 .6 1.4zm1.9-1.2h0zm2.3-1.2h0zm-2.5 0c0-.1.1-.3.1-.4v-.1l.6-.6.3-.1.2-.1h.5l.2.1.1.1s0 .1.1.1c.1.1.1.2.2.3l.2.3v.7l-.1.2-.3.3-.2.1-.2.2-.4.2h-.7c-.1 0-.2 0-.2-.1l-.3-.1-.1-.1v-.1c0-.1-.1-.2-.1-.3v-.5l.1-.1zm14.7-.7c-.4-.4-.9-.6-1.4-.8l-.8-.2c-1.6-.2-3.2.8-3.8 2.3-.2.5-.4 1.1-.4 1.7a3.21 3.21 0 0 0 .2 1.7c.2.6.6 1.1 1 1.5.1.1.2.2.3.2.4.3.8.5 1.2.6s.7.1 1.1.1h.3c.5 0 1-.2 1.4-.5.8-.6 1.4-1.5 1.6-2.4.3-.9.3-1.9 0-2.9 0-.5-.3-.9-.7-1.3zm-1.1 2.8c0 .1 0 .3-.1.4 0 .1 0 .2-.1.3 0 .1-.1.2-.1.3-.1.1-.1.2-.2.3l-.1.1-.1.2-.2.2h-.4l-.5-.1-.3-.1-.2-.1-.3-.2-.3-.3v-.6c0-.1 0-.4.1-.6s0-.2.1-.3l.2-.3.3-.3h.1l.3-.2c.1 0 .1-.1.2-.1h.4l.6.2.2.1h.1l.4.4v.1l.1.2v.2l-.2.2zm12.3-5.2c-.3-.3-.7-.6-1.1-.7l-1.2-.3c-.8-.1-1.6.2-2.2.7-.3.3-.6.6-.9 1-.2.2-.3.4-.5.6-.5.7-.7 1.6-.6 2.5.1 1.1.8 2.1 1.8 2.6.5.3 1.1.4 1.7.4h.5c.8 0 1.6-.2 2.2-.8.5-.5.8-1.2 1-1.9.1-.5.2-.9.2-1.4s0-.9-.1-1.4l-.3-.9c-.1 0-.3-.2-.5-.4zm-3.7 3.5h0zm2.6-.2c0 .1 0 .2-.1.3s-.1.2-.2.4l-.1.2-.2.2h-.7l-.9-.2-.3-.1-.3-.3v-.8c0-.1 0-.2.1-.3 0-.1.1-.2.1-.3.1-.1.1-.3.2-.4l.2-.2h.1l.2-.1h.3l.5.2.3.1.2.1.3.2.2.2v.1l.1.2v.5zm6.2-2.5c.6.3 1.2.4 1.8.4h.2c1.3 0 2.5-.8 3.1-1.9.5-.8.7-1.8.7-2.8 0-.8-.3-1.5-.7-2.1-.2-.4-.5-.7-.9-1-.5-.3-1-.6-1.6-.6-.7-.1-1.4 0-2 .3h0c-.4.1-.8.4-1.1.6-.5.4-.9.9-1.2 1.5s-.5 1.3-.6 2.1c0 .7.2 1.4.5 2 .6.6 1.1 1.1 1.8 1.5h0zm.7-3.6v-.5c0-.1 0-.1.1-.2.1-.2.1-.3.2-.5l.1-.2.2-.3.3-.3h.4a.9.9 0 0 1 .5.1h.2l.1.1c0 .1.1.1.1.2s.2.3.3.5l.1.3.1.2v.5l-.1.2c0 .1 0 .1-.1.2l-.2.3-.3.3h-.1l-.6.2h-1.1l-.2-.1-.1-.1-.2-.1-.1-.1.1.1-.2-.2c.4-.2.5-.4.5-.6h0zm6.5-6.3h.3c1.1 0 2.2-.6 2.8-1.6.2-.2.3-.5.4-.8.1-.2.1-.4.2-.6l.2-.7c.1-.5.2-1 .1-1.5-.1-.4-.2-.8-.4-1.2a3.16 3.16 0 0 0-1.4-1.4c-.4-.2-.8-.4-1.3-.4-.5-.1-.9 0-1.3.1l-.7.2c-.9.5-1.6 1.4-1.8 2.4-.1.2-.1.5-.2.7-.2.4-.2.9-.2 1.3 0 .8.3 1.6.9 2.2.7.8 1.5 1.2 2.4 1.3zm-.7-4.3c0-.1.1-.2.1-.3s.1-.2.1-.3c0 0 0-.1.1-.1l.1-.1h.6l.4.1.3.1.3.3v.1l.2.3.1.1v.4c0 .1-.1.3-.1.5 0 .1-.1.2-.1.2h0l-.4.4-.2.1-.1.1h-.1c-.1-.1-.2-.2-.3-.2l-.6-.4-.5-.5v-.4c.1-.1.1-.3.1-.4h0zm-.7-8.1c.4.5.9.9 1.5 1.1.4.2.8.2 1.3.3.2 0 .4 0 .6-.1.6-.1 1.1-.4 1.5-.8s.7-.8.9-1.3c.1-.5.2-.9.2-1.4s-.2-1.1-.4-1.5-.6-.7-.9-1c-.2-.2-.5-.3-.7-.5-.2-.1-.4-.2-.7-.2-.5-.1-1.1-.1-1.6.1-.6.2-1.2.6-1.5 1.1-.2.3-.4.6-.5 1-.1.2-.2.4-.2.6-.1.3-.1.6-.1.9s.1.7.2 1c0 .2.2.4.4.7zm3-3.3h0zm-.9-.1h0zm-.6.8v-.2c0-.1.1-.2.1-.3l.1-.1V78h1.3l.1.1.2.1.4.4v.9c0 .1 0 .1-.1.2h0l-.4.4-.2.1h-.8l-.2-.1-.3-.1-.1-.1c0-.1 0-.2-.1-.2v-1z"/><path d="M190.3 181.6c-.4-3.5-1-7-1.6-10.5-.3-1.7-.6-3.3-1-5-.4-1.9-.9-3.7-1.5-5.6-.3-.9-.7-1.7-1-2.6l-1-2.5c-.7-1.6-1.4-3.3-2.2-4.8-.4-.8-.9-1.7-1.4-2.5s-.9-1.4-1.3-2.1l-2.8-4.3c-2-3-4.4-5.7-7.1-8.1l-3.3-2.9.3-.6.5-.8 1.8-2.2c.9-1 1.7-2.1 2.5-3.1l2.3-3 1-1.4c.3-.4.6-.9.9-1.3.8-1 1.6-2 2.5-2.8.3-.3.6-.6.9-.8.2-.2.5-.3.7-.5.6-.3 1.1-.5 1.7-.8l1.4-.6c1-.4 2.1-.7 3.1-1 1.5-.4 2.9-1.2 3.9-2.5.4-.6.7-1.2.9-1.9.2-.8.2-1.6 0-2.4-.2-.6-.5-1.1-.9-1.5-.6-.5-1.4-.8-2.2-1-.7-.1-1.3-.2-2-.1l-1.7.3c-.3.1-.6.1-.8.1l1-1.7 1.7-2.7c.6-.9 1.1-2 1.3-3.1.2-.9.1-1.9-.1-2.8s-.7-1.7-1.4-2.2c-.6-.5-1.4-.7-2.2-.7-.4 0-.8.1-1.1.3-.3.1-.5.3-.7.4-.3.2-.6.5-.8.8-.5.5-.9.9-1.4 1.5-.3.3-.5.7-.8 1s-.4.7-.6 1c-.3.5-.6 1-.8 1.5 0-.1 0-.1-.1-.2-.2-.8-.4-1.6-.7-2.3-.3-.9-.7-1.7-1.1-2.5-.6-1-1.7-1.7-2.8-2-.8-.2-1.6-.1-2.4.1-.5.2-1 .4-1.4.7-.7.5-1.2 1.1-1.5 1.9-.3.7-.5 1.4-.6 2.2-.1.7 0 1.5.1 2.2s.2 1.4.4 2.2c.3 1.3.8 2.6 1.1 4 .2.9.4 1.9.5 2.8 0 .4.1.9.1 1.3v.6c-.1.3-.1.7-.2 1-.3 1-.7 2-1.1 3-.6 1.3-1.3 2.6-2 3.8-1.2 2-2.5 3.9-3.7 5.9l-1.7 2.9-.9 1.6c-.5-.3-1.1-.7-1.6-1s-1.2-.7-1.8-1.1a14.29 14.29 0 0 0-2-1.4c.2-.9.4-1.8.4-2.7 0-.8 0-1.6-.1-2.4-.1-1.2-.5-2.4-1.2-3.4l-2.4-3.3a9.13 9.13 0 0 1-.8-1.3h0c0-.7-.1-1.3-.3-2a7.2 7.2 0 0 0-1.5-2.7c-.8-1-1.9-1.7-3.1-1.9-.2 0-.4 0-.6-.1.2-.6.3-1.1.5-1.7.3-1.2.5-2.3.6-3.5.2-1.2.3-2.4.4-3.6 0-1.6 0-3.2-.1-4.7l-.4-4.8c-.1-1.6-.3-3.3-.5-4.9-.3-1.6-.8-3.2-1.4-4.7l-1.8-4.7-1.9-4.3c-.4-.7-.7-1.5-1.1-2.2l-1.4-2.4c-.9-1.4-1.8-2.7-2.9-3.9-.5-.6-1-1.2-1.6-1.8s-1.2-1.2-1.9-1.8c-1.1-1-2.2-2-3.4-3-1.3-1.1-2.7-2-4.2-2.9-1.3-.8-2.7-1.4-4.1-2.1l-2.2-1c-.7-.3-1.4-.7-2.1-1-1.5-.7-3-1.4-4.6-1.8-1.5-.4-3-.8-4.5-1l-2.3-.5-2.2-.5c-3.1-.8-6.3-1.1-9.5-1-.8 0-1.6.1-2.3.2l-2.3.1-2.2.3-2.3.4c-1.6.2-3.2.6-4.7 1.1s-3 1-4.5 1.8l-2.2 1.1-2.1 1c-.7.3-1.4.6-2 1s-1.2.8-1.8 1.1l-1 1c-.6.3-1.2.7-1.8 1.2-.8.6-1.6 1.3-2.4 2s-1.7 1.7-2.5 2.5-1.3 1.5-2 2.2c-1.1 1-2.1 2.1-3.1 3.3-.9 1.1-1.6 2.4-2.5 3.6-.4.6-.8 1.2-1.1 1.8s-.7 1.3-1.1 2c-.7 1.2-1.4 2.5-1.9 3.8l-.9 2.3-.7 1.9c-.4 1.4-.8 2.9-1.1 4.4-.3 1.6-.6 3.2-.8 4.7-.3 1.5-.4 3.1-.5 4.7s0 3.3.1 4.9.2 3.3.5 4.9c.1.8.3 1.7.4 2.5l.6 2.5c.2.8.5 1.5.8 2.3l.8 2.2c.6 1.5 1.2 2.9 1.9 4.3.4.8.8 1.5 1.3 2.2l1.4 2c.5.6.9 1.3 1.4 1.9.6.6 1.1 1.2 1.8 1.8.6.6 1.2 1.1 1.8 1.6.2.1.3.3.5.4-.2.1-.3.2-.5.4s-.4.4-.5.7c-.4.6-.7 1.3-.9 2.1-.1.3-.1.6-.1.9v.9c0 .8.2 1.6.4 2.3.3.6.6 1.3.9 1.9.5 1 1.1 1.9 1.6 2.8.3.5.5 1 .8 1.5 0 .1.1.3.1.4.1.4.2.7.2 1.1v.5c0 .4 0 .7-.1 1v-.1.2l-.2.2c-.3.5-.5 1.1-.7 1.6s-.4 1.1-.5 1.7c-.3 1.1-.3 2.3-.2 3.4-.1.6-.1 1.2 0 1.7.2.6.3 1.1.6 1.6 0 .1.1.2.1.3h0c-.4.4-.8.9-1.2 1.4-.9 1.1-1.6 2.2-2.4 3.3-.7 1.2-1.4 2.3-2 3.5-.3.6-.6 1.1-.8 1.7l-.7 1.6c-.4 1-.9 2-1.3 3.1l-1.8-.9c-1.3-.7-2.7-1.3-4-1.9s-2.8-1.4-4.2-2.1-2.6-1.2-4-1.9c-1.4-.6-2.8-1.3-4.2-1.9s-2.7-1-3.9-1.7c-1-.5-2.1-.9-3.2-1.3 0-.1-.1-.2-.1-.2-.1-.3-.1-.5-.2-.8v.2l-.4-2.6-1.2-6.6-.5-2.2-.6-2c-.3-.7-.6-1.4-1-2.1-.2-.3-.3-.5-.5-.8-.2-.2-.5-.5-.8-.6-.6-.2-1.2-.3-1.8-.1-.7.2-1.4.6-1.9 1.2-.4.6-.6 1.2-.6 1.9 0 .4 0 .8.1 1.2.1 1.4.2 2.8.4 4.1h0l.4 2.6.4 2.5.3 1.7-.4-.3c-.9-.6-1.9-1.2-2.9-1.8l.2.1c-1-.6-2.1-1.1-3.1-1.6s-2-1-3.1-1.3c-.7-.2-1.4-.4-2.1-.4-.6 0-1.1.2-1.6.5-.6.4-1.1 1-1.3 1.7-.1.4-.2.8-.1 1.3 0 .2.1.5.2.7.2.7.6 1.3 1.2 1.8l1.8 1.5c1.2.8 2.5 1.6 3.9 2.3l3.9 2 1.5.9.3.2-1.2 1.2c-.8.8-1.5 1.6-2.2 2.4-.4.5-.8.9-1.2 1.4s-.7.9-1 1.4c-.4.6-.7 1.3-.8 2-.2 1.1.2 2.3 1.1 3.1.6.5 1.3.7 2.1.8h.3c.6 0 1.1-.1 1.6-.4.8-.5 1.4-1 2-1.7.4-.4.8-.9 1.1-1.3s.8-.9 1.3-1.3l4.4-4.4c.2.1.5.3.7.4.5.3 1.1.5 1.6.7 2.8 1.3 5.6 2.7 8.4 4.1 1.3.7 2.6 1.3 3.9 2s2.8 1.4 4.2 2c2 .8 3.9 2 5.9 3-1 1.9-1.6 3.9-1.9 6-.6 2.5-1 5-1.2 7.6l-.2 5.6c-.1 1.7 0 3.5.1 5.2l.6 5.6c.1.9.3 1.9.4 2.8l.6 2.6c.2.9.4 1.8.7 2.6.1.4.3.8.4 1.2s.4 1.1.6 1.6c.7 1.5 1.5 3.1 2.3 4.6 1.8 3.2 3.6 6.5 5.6 9.6.9 1.4 2 2.8 3 4.2 1.2 1.5 2.3 3 3.6 4.4 1.2 1.3 2.5 2.6 3.8 3.8 1.4 1.2 2.8 2.4 4.3 3.5a111.74 111.74 0 0 0 4.3 3c1.5 1 2.9 2 4.4 2.9s3.2 1.9 4.9 2.8l4.5 2.4c1.6.8 3.2 1.6 4.8 2.3s3.1 1.3 4.7 1.9c1.8.7 3.6 1.2 5.4 1.5.8.1 1.7.2 2.5.2.9 0 1.7.1 2.6.2h.3c.4 0 .8-.1 1.1-.3h.1c1.2-.1 2.4-.3 3.6-.6h.5l2.5-.3c1.7-.2 3.4-.4 5.1-.5s3.4-.3 5.1-.5c1.6-.2 3.3-.3 4.9-.4 1.4-.1 2.7-.1 4.1-.1 1.5-.1 3.1-.1 4.6-.2h.1c1.9-.1 3.8-.1 5.7 0s3.8.1 5.7 0c.8 0 1.7-.1 2.5-.2l2.6-.5c.8-.2 1.6-.5 2.4-.8l.7-.2.3-.1c.6-.2 1.1-.4 1.7-.6s1.2-.5 1.8-.9c.3-.1.5-.3.8-.5l.8-.6c.5-.4.9-.7 1.3-1.1l2.4-2.2c2.7-2.4 5.4-4.8 7.9-7.4 1.2-1.3 2.4-2.7 3.5-4.2 1-1.4 2.1-2.8 3.1-4.2a62.92 62.92 0 0 0 5.2-9.1c.8-1.7 1.4-3.5 2-5.2s1.1-3.5 1.5-5.3c.7-3.5 1.2-7.1 1.5-10.7.1-1.7.2-3.5.2-5.2s.1-3.7.1-5.5c0-1.7-.1-3.5-.2-5.2-.6-1.9-.6-3.7-.8-5.5h0zM161.6 127c.4-.5.9-1 1.3-1.5 1-1.2 1.9-2.4 2.7-3.7s1.7-2.5 2.5-3.8 1.4-2.6 2.1-3.9 1.2-2.7 1.7-4.1c.5-1.5.8-3.1.7-4.6l-.3-2.2c-.1-.8-.3-1.5-.5-2.3-.4-1.3-.8-2.6-1.1-3.9-.2-.9-.4-1.7-.5-2.6v-.9c0-.3.1-.5.2-.8v-.1l.3-.4.2-.1h.8l.2.1.1.1c.1 0 .1.1.2.2l.1.1c0 .1.1.1.1.2.1.1.1.2.2.3s.2.3.2.5.2.5.3.7.1.2.2.3l.3.8 1.8 4.5c.2.5.3 1 .5 1.4s.3 1 .4 1.4l.3-.4c.1-.2.3-.4.4-.7l.5-.7c.2-.2.3-.5.5-.7.6-.9 1.3-1.8 1.9-2.7.2-.4.4-.8.7-1.2l.3-.5c.1-.2.3-.4.4-.6l.7-.9c.1-.2.3-.4.5-.6s.2-.3.3-.5c.2-.2.3-.4.6-.6.1-.1.3-.1.5-.1.3 0 .5.2.7.4.1.3.2.7.1 1l-.1.4c-.1.3-.2.5-.3.8-.1.2-.2.3-.3.5-.3.5-.5 1-.8 1.5l-2 3.2c-.1.3-.3.6-.4 1-.4.8-.7 1.6-1.1 2.5 0 .1-.1.2-.1.2h0l-.6 1.4c0 .1.1.2.1.3.4 0 .7-.1 1.1-.1.3 0 .6 0 .9.1h.3c.5-.1 1-.2 1.6-.2.6-.1 1.1-.1 1.7-.1h-.1l1.4-.2h.9c.2 0 .5.1.6.3.2.2.3.4.3.6.1.2.1.4 0 .6-.2.4-.6.8-1 .9l-.9.3c-.3.1-.6.1-.8.2l-1.3.2c-.4.1-.9.2-1.3.4s-.9.3-1.4.5-.9.5-1.4.7c-1.1.5-2.1 1.1-3.1 1.8-1 .8-1.8 1.8-2.6 2.8l-2 2.7c-.3.5-.7 1-1 1.4l-1 1.5-2.1 3.3c-.5.8-.9 1.6-1.4 2.5s-1.1 1.3-1.7 2l-.9 1c-.7-.6-1.5-1.1-2.2-1.6l-.1-.1v-.2zM145 106.6c.2.2.4.4.5.7l.1.1c.4.6.7 1.2.8 1.9s.2 1.4.4 2.1l.4 2.1c.1.4.2.8.4 1.2s.3.7.6 1.1c.1.2.3.4.5.6 0 .1.1.1.1.2.3-.2.5-.6.5-1v-.1c.1.3.3.5.4.8s.1.3.1.4.1.4.1.7c0 .5.1 1 .1 1.5 0 .3 0 .6-.1.9s-.2.9-.3 1.4c-.3.9-.5 1.8-.9 2.6l-.9 2.4c-.3.6-.5 1.1-.8 1.6-.6 1-1.2 1.9-1.9 2.8-1.4 1.6-2.8 3.1-4.3 4.6-1.7 1.6-3.5 3.2-5.4 4.6-.7.5-1.4 1-2.2 1.4-2.4 1.3-4.8 2.3-7.3 3.4s-4.7 2.4-7.1 3.4c-.8.3-1.6.6-2.5.8-.8.2-1.8.5-2.7.8s-1.8.7-2.8 1c-.9.4-1.6.7-2.4 1h-.1c-.3-.6-.6-1.1-1-1.7-.5-.8-1-1.5-1.6-2.2l-1.4-1.7c-.5-.6-1-1.2-1.4-1.8l-.5-.9c-.1-.2-.2-.5-.3-.7a6.6 6.6 0 0 1-.4-1.1c-.1-.4-.1-.7-.2-1.1 0-.5-.1-1-.1-1.5s.1-.9.1-1.4c.2-1.3.6-2.6.9-3.9.1-.6.2-1.2.2-1.8l.6-.5c.3-.2.7-.4 1-.6.5-.3 1.1-.5 1.7-.8 1.6-.6 3.2-1.1 4.9-1.6.9-.3 1.8-.5 2.7-.8s1.8-.7 2.7-1.1l2.8-1.1c.9-.4 1.7-.8 2.5-1.2s1.8-1 2.8-1.5 1.6-1 2.3-1.5c1.4-1 2.9-1.9 4.2-3l4-3.2c1.4-1.1 2.7-2.3 4-3.5 1-1.2 2-2.5 2.9-3.9.2-.2.4-.4.6-.7l.5-.4.3-.2.1-.1.4-.1h.2c.3.2.8.3 1.2.6h0zm-45.7 74.5l-1.9.5c-.6.2-1.2.4-1.7.6l-3.3 1.2-1.7.7c-.5.2-1.1.4-1.6.6-1.1.4-2.2.7-3.3 1-.7.2-1.3.3-2 .4-.2-.5-.5-1.1-.7-1.6l-.9-2.1c-.2-.6-.4-1.1-.6-1.7l-.6-1.8c-.2-.6-.3-1.3-.4-1.9a45.33 45.33 0 0 1-.3-5.2c0-2.1.1-4.1.2-6.2.1-1.4 0-2.9-.2-4.3-.1-.7-.2-1.4-.4-2.1s-.3-1.5-.5-2.2c-.4-1.4-.9-2.8-1.5-4.1-.6-1.2-1.3-2.4-1.8-3.6-.4-1-.7-2.1-1.1-3.2s-.9-2.2-1.3-3.4c-.3-.7-.5-1.4-.7-2.2-.1-.4-.2-.7-.2-1.1-.1-.4-.1-.7-.1-1.1s.1-.9.1-1.3.2-1.1.3-1.7l.3-.9c.1-.3.2-.5.4-.8.1-.2.2-.3.3-.5l.7-.7c.4-.3.7-.5 1.1-.8l.8-.4.6-.2c.6-.2 1.3-.3 1.9-.4 1-.1 1.9-.1 2.9-.1 1.3 0 2.6.1 3.9 0h.2l-.8.4.1-.1c-.4.2-.9.4-1.3.6s-.9.3-1.4.4l-.4.1c-.2 0-.3.1-.4.2l.4.1c.2 0 .4.1.7.1.7.1 1.3.1 2 .1s1.4-.1 2.2-.1h.3c.7-.2 1.4-.5 2.1-.7l2-.8c.8-.3 1.6-.6 2.5-.8.4-.1.8-.1 1.2-.2s.9-.1 1.3-.1l.7.1h.3l.1.1.2.1v.1c.1.1.2.3.3.4 0 .1.1.1.1.2v.9c-.1.7-.3 1.3-.5 2-.4 1.4-.7 2.9-.9 4.4-.1.8-.1 1.7-.1 2.5.1.9.2 1.7.4 2.5.4 1.7 1.2 3.3 2.3 4.7.9 1.2 2 2.4 2.9 3.6.4.6.8 1.2 1.2 1.9l.7 1.4c.1.2.2.5.2.7l.1.5v.4c0 1-.2 2-.3 2.9s-.2 2.1-.4 3.2l-.6 3.6-.3 2.1c-.1.7-.1 1.3-.1 2a33.85 33.85 0 0 0 1.5 7.7l.3 1.2-1.8.8c-.6.3-1.3.5-1.9.7-.6.3-1.2.5-1.8.7h0zm-46.4-67.4c-.7-1-1.3-2.1-2-3.1s-1.1-2.2-1.6-3.4c-.8-2-1.5-4-2.1-6-.4-1.5-.6-3.1-.8-4.7-.3-2.6-.5-5.3-.6-7.9 0-1.2.1-2.4.2-3.6.4-2.8.9-5.6 1.5-8.4v.1-.2c.5-1.7 1.1-3.4 1.8-5 0 .1-.1.2-.1.3.8-1.9 1.8-3.8 2.8-5.6l3-4.8a53.09 53.09 0 0 1 3.2-3.5c.6-.6 1.1-1.2 1.6-1.8l1.6-1.7-.1.1c1-1 2.1-2 3.2-2.8l.9-.6 1.8-1c.6-.3 1-.6 1.5-.9.7-.3 1.3-.6 2-.9s1.3-.6 2-.9 1.3-.7 2-1 1.3-.6 1.9-.9c1-.4 1.9-.7 2.9-1a80.73 80.73 0 0 1 6.8-1.2c1-.1 1.9-.1 2.9-.2s2.2-.2 3.3-.2 2.1.1 3.2.2c.9.1 1.8.3 2.8.5 1.6.5 3.2 1 4.9 1.3 1.5.3 3 .6 4.4 1 .8.2 1.6.5 2.4.8s1.8.8 2.6 1.3 1.8.9 2.7 1.4a125.98 125.98 0 0 1 5.2 2.6c.9.5 1.8 1.1 2.6 1.8 1.9 1.4 3.7 3 5.4 4.6l2.4 2.7 1.6 2.2c.6.8.9 1.4 1.3 2.1 1.3 2.4 2.5 4.9 3.6 7.4.8 2.1 1.6 4.2 2.2 6.3.2.9.4 1.8.5 2.6l.6 5.7c.2 1.9.3 3.8.4 5.7 0 1.7-.2 3.3-.4 5-.1 1-.3 1.9-.5 2.9 0-.1.1-.2.1-.2-.2.6-.3 1.2-.5 1.8l-.3.9c-.2.2-.5.3-.7.5-1.2 1.2-2.3 2.6-3.3 4-.3.4-.7.8-1.1 1.2-1.1 1.1-2.3 2.1-3.5 3.1s-2.3 1.9-3.5 2.8h0c-1 .8-2.1 1.5-3.2 2.2s-2.2 1.5-3.3 2.2c-1.5.8-2.9 1.6-4.5 2.3l-4.7 2c-1.6.6-3.1 1.1-4.6 1.6s-3 1.1-4.4 1.9c-.5.3-1 .6-1.5 1-.2-.3-.4-.6-.7-.9-.7-.7-1.6-1.1-2.6-1.2h-1.2c-.8 0-1.6.1-2.3.3-.8.2-1.6.5-2.4.8l-.2.1c-1.8 0-3.6-.1-5.4-.1-.9 0-1.8 0-2.7-.1s-2-.2-3-.2h-.2c-1.3 0-2.6.1-3.9.4l-.2.1h-1.4c-.8 0-1.6-.1-2.4-.2l-1.6-.3c-.5-.1-1-.1-1.5-.3-.7-.2-1.4-.5-2-.8l.2.1c-.8-.3-1.6-.7-2.4-1.1l-.9-.6-1.5-1.2-1.5-1c-.5-.4-1.1-.8-1.7-1.2-.5-.3-1.1-.5-1.7-.6l-.8-.8c-.9-1-1.8-2-2.6-3-.6-.7-1.2-1.8-1.9-2.8zm3.5 14.6c-.2-.3-.3-.6-.4-.9 0-.1-.1-.2-.1-.3s-.1-.4-.1-.7v-1.1c0-.1 0-.3.1-.4 0-.1 0-.2.1-.3l.1-.3c0-.1.1-.2.2-.2l.2-.2.2-.1h.1l.3-.1h.4l.2.1.3.2c.2.1.3.2.5.3.5.4.9.7 1.3 1.1s1.1.8 1.6 1.2 1 .8 1.6 1.2 1.2.7 1.9.9c1 .4 2 .8 3 1.1a9.83 9.83 0 0 0 1.6.5l1.6.3.6.1c-.1.1-.1.2-.2.3-1 1.4-1.7 3.1-1.9 4.9l-.3 2.3c-.1 1.1 0 2.2.3 3.2.2.7.4 1.4.7 2.1s.5 1.3.8 1.9c.6 1.5 1.1 3.1 1.7 4.7.1.4.3.7.4 1.1l-2.4-.4-2.7-.4c-.9-.1-1.8-.3-2.7-.5a35.23 35.23 0 0 1-4.2-1.5c-.3-.1-.5-.2-.8-.4s-.6-.4-.8-.6l-.4-.4c-.1-.1-.2-.2-.3-.4-.1-.3-.1-.6-.2-.9v-.7c0-.2 0-.7.1-1.1l.3-1.4c.2-.8.5-1.6.8-2.5v-.1l.3-1.2v.1c.1-.5.2-1 .4-1.6.1-.3.1-.5.2-.8s.1-.5.2-.8h0v-.2l.1-.4v-.3c0-.3.1-.7.1-1v.1-.6c0-.6-.1-1.1-.2-1.7h0c0-.3-.1-.5-.2-.8l-.1.4-.4.9c0 .1-.1.2-.2.4h0c-.1.4-.1.7-.2 1.1-.1.1-.1.2-.2.3-.1.2-.2.4-.3.7v-.1c0 .1-.1.1-.1.2 0-.2 0-.4-.1-.5-.3-1.1-.7-2.1-1.3-3.1-.5-1.1-1-1.9-1.5-2.7h0zm-15.9 37.6c-1.5-.6-2.8-1.3-4.2-2.1l-3.9-2.1-3.7-2-.6-.2-.8-.3-2.2-.8c-.7-.3-1.4-.6-2.1-.8s-1.5-.5-2.2-.7h.1l-1.1-.4-.4.4c-.2.2-.4.5-.6.7l-.9.9c-.3.3-.6.5-.9.8h0c-.3.3-.6.5-.9.8l-.5.5-.6.5-.1.1-.6.8c-.5.6-1 1.1-1.5 1.7l-.8.8c-.2.3-.5.5-.7.8-.2.2-.5.5-.8.6-.2.1-.3.2-.5.2s-.4-.1-.5-.2c-.4-.5 0-1.2.3-1.6.4-.6.8-1.1 1.2-1.6.6-.7 1.3-1.4 1.9-2.1l1.1-1.4c.4-.4.5-.8.8-1.1l.6-.9c.1-.1.1-.2.2-.3l.2-.3.5-.8v-.1c-.1-.1-.3-.1-.4-.2-.4-.2-.8-.4-1.1-.7l-.9-.6c-.4-.3-.7-.5-1.1-.7s-.7-.4-1-.6l-1-.6-1.1-.6h.1l-.2-.1a36.91 36.91 0 0 1-2.9-1.3c-.9-.5-1.7-1-2.5-1.5-.3-.2-.6-.5-.8-.7l-.5-.5c0-.1 0-.1-.1-.2v-.8l.1-.1v-.1l.1-.1c.4-.2.8-.2 1.2 0s.8.4 1.3.6l2.6 1.3c1.7.8 3.5 1.6 5.2 2.5l-.1-.1c1.1.6 2.2 1.1 3.3 1.6l.2.1h.1l.4.2.3.1c-.1-.1-.1-.3-.1-.4-.1-.4-.2-.7-.3-1.1h0c-.1-.5-.3-1.1-.3-1.6s-.2-1.2-.2-1.8l-.2-1.6-.3-1.9c0-.3-.1-.5-.1-.8l-.2-1.6c0-.3-.1-.5-.1-.8l-.1-.7c-.1-.4-.2-.7-.3-1l-.2-1c-.1-.4-.1-.9-.1-1.4 0-.2.2-.4.4-.6h.4c.1 0 .2 0 .3.1.3.2.5.4.7.7.1.3.3.7.3 1 .1.4.1.9.2 1.3s.1.7.1 1.1c.3 1.1.5 2.3.7 3.4l.8 4.3.4 2.2c.1 1 .4 1.9.9 2.8.5.6 1.2 1.1 1.9 1.3l1.7.8c.6.3 1.3.6 1.9.9.7.3 1.4.5 2.1.8l-.2-.1c1.6.6 3.1 1.4 4.7 2.1 1.3.6 2.7 1.2 3.9 1.9s2.8 1.4 4.2 2.1l4 1.9c1 .5 2.1 1 3.2 1.6.3.1.7.3 1 .4l1.6.8a2.36 2.36 0 0 1 .9.8c.1.2.2.5.2.7 0 .3-.1.5-.3.7s-.4.3-.6.3H50l-.4-.2-.9-.3-.7-.2-.3-.1c-.2-.1-.3-.2-.5-.3l-.1-.1-.9-.5c-.6-.3-1.3-.6-1.9-1-1.2-.4-2.4-1.1-3.8-1.6zm144.6 34.6c-.1 2.4-.4 4.7-.8 7-.3 2.1-.7 4.3-1.3 6.3 0-.1.1-.3.1-.4-.1.2-.1.3-.1.5v-.1l-.2.6-.1.2v.1c-.7 2.1-1.4 4.2-2.3 6.2s-2 4.2-3.2 6.2c-1.8 3-3.8 5.9-5.9 8.7-1.9 2.3-3.8 4.6-5.9 6.7l-3.1 3.2c-.4.4-.8.9-1.3 1.4l-2.4 1.7c-.8.6-1.4.9-2.2 1.3-.9.4-1.8.8-2.7 1.1l-.9.3-3.4.6c-2 .1-3.9 0-5.9 0-1.6 0-3.2-.1-4.9-.1s-3.3.1-4.9.2l-5.2.1c-1.7.1-3.4.2-5.1.4l-5 .5c-1.6.2-3.5.4-5.2.7-1.4.3-2.8.5-4.2.9-.1 0-.2 0-.3-.1-1 0-2 0-3 .1-1.3-.3-2.6-.5-3.9-.7-.3-.1-.7-.1-1-.2-1.3-.4-2.7-.8-4-1.3l-3.6-1.4c-2.5-1.1-5-2.4-7.4-3.6s-4.8-2.4-7.1-3.8c-1.6-1-3.2-2.1-4.8-3.1a49.06 49.06 0 0 1-4.4-3.1c-.9-.7-1.8-1.4-2.6-2.1s-1.7-1.6-2.5-2.4-1.6-1.6-2.3-2.5l-2.2-2.8c-1.5-1.9-2.9-3.9-4.2-5.9s-2.5-3.9-3.6-5.9l-2-3.5c-.3-.6-.7-1.3-1-2l-.6-1.5c-.2-.7-.5-1.4-.7-2.1l-.6-2c-.4-1.6-.7-3.2-1-4.8s-.4-3.1-.6-4.7l-.2-2.6v-7.5c0-1.2.1-2.4.2-3.6l.5-3.8.4-3.7c0-.5.1-1 .1-1.5h0c.8.3 1.6.5 2.4.6h1c.7 0 1.3-.1 1.9-.3s1.1-.5 1.5-.9l.5-.5c.3-.3.5-.7.6-1.1.1-.5.2-1 .1-1.5-.1-.4-.2-.8-.5-1.2-.2-.3-.4-.6-.7-.9-.8-.9-1.8-1.6-2.8-2.2l.1-.1c.1-.3.3-.6.4-.9l.9-2.1 1-2.4c.7-1.6 1.6-3.1 2.4-4.6l-.1.1.1-.2 1.7-2.9.5-.9c.1 0 .1.1.2.1.6.4 1.2.7 1.9.9h.3c.5.3 1.1.6 1.7.8 1.3.5 2.6.9 4 1.1l3.8.7c1.3.2 2.5.4 3.7.5h-.1l1.4.2c.3.7.5 1.4.7 2.1.3 1.2.5 2.4.7 3.6.1.8.1 1.5.2 2.3 0 1.1-.1 2.2-.1 3.3l-.1 3.1v4.4c0 .7 0 1.4.1 2.1 0 .7.1 1.5.2 2.2.1.8.3 1.5.5 2.2s.5 1.3.7 2c.3.7.5 1.4.9 2l.9 1.7c.3.5.6 1.1.9 1.6l.3.5.3 1.4 1.9 5.7c.2.8.6 1.5 1.1 2.2.3.3.8.5 1.2.5.3 0 .6-.1.9-.2h0c.6-.3.9-1 .8-1.7s-.2-1.4-.5-2l-1-3c-.2-.6-.5-1.1-.7-1.7.7-.1 1.4-.3 2.1-.5.1.2.2.5.3.7.2.5.4 1.1.6 1.7l-.1-.2.8 2.5c0 .3.1.5.1.8s.1.5.2.8c.1.4.3.7.6 1a1.3 1.3 0 0 0 1.3.5c.3 0 .5 0 .7-.1.7-.3 1.1-1 1.1-1.7 0-.6-.2-1.2-.4-1.8l-.3-.9-.6-2c-.2-.7-.4-1.3-.7-1.9-.1-.2-.1-.3-.2-.5.4-.1.8-.3 1.2-.5.2-.1.5-.2.7-.3 0 .1.1.1.1.2l.5 1.5.5 1.3v.2c.2.7.3 1.3.5 2 .1.8.7 1.5 1.4 1.9.9.4 2 0 2.4-1 .1-.3.2-.7.1-1v-.1c0-.1-.1-.3-.1-.4a9.83 9.83 0 0 0-.5-1.6c-.2-.6-.5-1.2-.7-1.8l-.7-1.7c-.1-.2-.2-.5-.3-.8.5-.2 1.1-.4 1.7-.6.1.4.3.7.5 1.1l.7 1.7.7 1.6c0 .2.1.4.2.6s.2.6.3.9c.1.2.1.4.2.6.2.3.4.6.7.9s.7.4 1.1.4a1.92 1.92 0 0 0 1.2-.4c.6-.5.9-1.3.6-2.1-.1-.2-.1-.4-.2-.6h0a.76.76 0 0 0-.2-.4c-.1-.3-.3-.6-.4-.9l-1.6-3.6c-.1-.2-.2-.5-.3-.7l.5-.1 1.3-.4.4-.1v.2a12.2 12.2 0 0 0 .7 1.7l.6 1.3c.4.9.9 1.8 1.3 2.7 0 .1.1.2.2.4.3.5.9.9 1.5.8.1 0 .3 0 .4-.1.7-.2 1.1-.7 1.2-1.4 0-.4 0-.8-.2-1.1l-.2-.3-.3-.7-1.4-2.8c-.3-.5-.5-1.1-.8-1.6l.8-.3c.1.3.2.5.3.8.4 1 .8 1.9 1.4 2.7l1.2 1.5-.1-.1c.3.5.7.9 1.1 1.2.2.1.4.2.7.2.4 0 .7-.1 1-.4s.4-.6.4-1h0v-.1c0-.1 0-.3-.1-.4-.1-.3-.2-.5-.3-.8-.2-.4-.3-.8-.5-1.2h0l-1.8-3.6s0-.1-.1-.1c-.3-.6-.5-1.3-.8-1.9v-.2c-.1-1-.2-2-.5-2.9-.2-.6-.3-1.3-.5-1.9-.2-.9-.4-1.7-.5-2.6 0-.4 0-.8-.1-1.2.1-1.1.2-2.2.4-3.3.3-1.6.6-3.2.7-4.8l.2-2.3.3-2.3V156c.6-.2 1.3-.4 1.9-.6 1.2-.4 2.4-.9 3.6-1.3l2-.6c.6-.2 1.3-.4 1.8-.6a61.5 61.5 0 0 0 3.8-1.6l4.1-2c1.4-.7 2.8-1.3 4.2-1.9s2.8-1.3 4.1-2c1.5-.8 2.9-1.8 4.2-2.8 1.2-.9 2.3-1.9 3.4-2.9s2.3-2.2 3.4-3.3 2.1-2.3 3.1-3.5a17.55 17.55 0 0 0 2.4-4.2c.2-.6.5-1.2.7-1.9l2.1 1.8c-.1-.1-.2-.1-.2-.2l1.6 1.2c1.4 1.1 3 2.1 4.4 3.2 1.2 1 2.4 2 3.6 3.1l3.5 3.2a41.95 41.95 0 0 1 3.9 4.5c1.1 1.4 2 2.8 3 4.3.9 1.3 1.8 2.7 2.6 4.1.9 1.5 1.6 3.1 2.3 4.7l2.1 5c.7 1.7 1.2 3.4 1.7 5.2.4 1.6.8 3.3 1 5l.6 4.9.4 4.3.3 4.5.2 4.6v4.2c.9 1.6.8 3.8.7 6.1h0z"/><path d="M179 97.1h0z"/></g><g fill="#fff"><path d="M63.5 43.2c-.4-.2-.7-.5-1-.9s-.5-.8-.6-1.3c-.1-1 .3-2 1-2.7.7-.8 1.6-1.3 2.6-1.6.4-.1.9-.1 1.3-.1l.4-.2h.1l.9-1.4c.4-.5.7-.9 1.2-1.3a3.49 3.49 0 0 1 3.1-1c.3 0 .6.1.9.3l.5-.6c1.2-1.2 3.1-1.2 4.3-.1a3.21 3.21 0 0 1 .6 3.7c0 .1-.1.1-.1.2.4.8.5 1.7.2 2.6-.6 1.5-2.4 2.3-3.9 1.7l-.2-.1c-.7.6-1.5 1-2.3 1.4-1 .4-2.1.5-3.1.2-.9.7-1.9 1.1-3 1.4-.2.1-.5.1-.8.1-.8.1-1.5 0-2.1-.3h0z"/><path d="M70.4 40.5l-.5-1.1-.7-1.8-.4-1c-.1-.3-.3-.7-.4-1 0-.6-.5-1-1-1h-.2c-.4.1-.6.5-.7.8v.4h-.3l-1 .3c-.2.1-.3.2-.5.3-.2 0-.3.1-.5.1-.1.1-.2.1-.3.2-.1 0-.1 0-.2.1-.3.1-.5.4-.5.7 0 .5.2 1 .4 1.5l.4 1 .2.7c.1.3.3.6.6.7.1.2.3.4.5.6.4.4 1.1.5 1.6.3.1 0 .2.1.3.1h.1c.2.1.4.1.6.1s.3-.1.5-.1c.1-.1.3-.2.4-.3.2.1.4.2.7.2.1 0 .3 0 .4-.1.5-.4.7-1.1.5-1.7h0zm3.8-2.4l-.1-.1c-.3-.2-.5-.5-.6-.8l-.3-.9c-.2-.5-.3-1-.4-1.5 0-.6.2-1.2.7-1.6l.3-.3c.6-.4 1.4-.4 2.1 0l.3.2c.1 0 .2.1.2.1.3 0 .6 0 .8.2.3.1.6.4.8.6.6.6.6 1.5.1 2.2.1.2.1.4.2.5.2.8-.3 1.5-1 1.8-.1 0-.2.1-.3.1-.2.2-.4.3-.6.4H76c-.7.1-1.4-.3-1.8-.9z"/></g><path d="M63.9 36.1c-1 .1-2.1-.4-2.8-1.1s-1.1-1.6-1.4-2.6c-.2-.7-.3-1.4-.4-2.1l-.9-1.5-1.2-2.4-2.1-4.7-2.2-5.3c-.7-1.5-1.3-3.1-1.8-4.7-.2-.5-.3-1-.3-1.6s.1-1.1.3-1.6.5-1 .9-1.4c.5-.4 1-.7 1.6-.8l2.2-.7c.5-.5 1.1-.9 1.9-.9h.3l1-.4c.5-.2 1-.3 1.6-.5a15.47 15.47 0 0 1 3.1-.6c1.5-.2 3 .4 4 1.6.5.8.8 1.7.8 2.7l.5 1.6.4 1.4c.1.4.3 1.1.6 1.6l.7 1.6 3.5 7.6c.7 1.4 1.2 2.9 1.6 4.5l.7 1 .6 1A2.73 2.73 0 0 1 78 29a2.75 2.75 0 0 1-1.3 3.4c-1 .6-2.3.5-3.3-.1-.2-.1-.3-.2-.5-.4-.9.5-1.8.9-2.8 1.3l-1.5.8-1.8 1.1c-.9.5-1.8.8-2.9 1h0z" fill="#878787"/><path d="M63.2 36.1c-.7-.2-1.2-.7-1.6-1.3-.2-.3-.3-.6-.5-.9l-.9-2c-.7-.2-1.2-.6-1.5-1.3s-.5-1.5-.7-2.3l-.5-2-.8-2.4-.7-2.2-2-4.2-1.1-2.1c-.5-.8-.9-1.6-1.3-2.5-.4-1-.6-2.1-.6-3.2 0-1.7.2-4.4 2.3-4.6.5 0 .9.1 1.3.4.2.2.5.5.6.8l.6.9L57 9.1c.4.7.8 1.5 1.1 2.3l1.4 3.5 1.4 3.4 2.8 6.6-.1-.2 1.9 4.4.9 2.2.6 1.6c.3.8.2 1.8-.3 2.5-.5.5-1.1.8-1.8.8l-.6.1c-.3-.1-.7-.1-1.1-.2z" fill="#7d7e7f"/><path d="M72.3 32c-.2-.3-.4-.5-.5-.9l-.2-.5L71 29l-1.3-3.6-2.1-6-.5-1.3c-.5-1.2-.9-2.5-1.3-3.7 0-.2-.1-.3-.2-.5l-1.4-3.6-2-4.8v.1l-1-2.1c-.2-.2-.1-.5.1-.6s.5-.1.6.1h0l.4.7.5.9.2.3c-.1-.5-.2-1-.1-1.5 0-.4.2-.8.4-1.1.3-.3.6-.5 1-.6.9-.2 1.8.3 2.2 1.2l.3 1h.1c.2.2.4.3.6.6l.9 1.5.9 1.9 1 2.6 1.8 4.9c.2.5.1 1.2-.2 1.6l.5 1.3 1.7 4c.8 1.7 1.3 3.6 1.6 5.5.1.8 0 1.7-.1 2.5s-.5 1.6-1.2 2c-.8.3-1.6.2-2.1-.3h0z" fill="#e0e1e2"/><path d="M95.3 32.2c-.5-.9-1.5-1.4-2.6-1.2l-1.8.6-2.3.9-4.5 1.5-1.6.6-.2-.6-.7-2.2-.9-2.3-.9-2.5-3.1-9.4c-1.1-3.1-2.2-6.4-3.6-9.6l-2-4.4c-.4-.8-.8-1.6-1.4-2.3C69.1.5 68.3.1 67.3 0h-.8l-2.1.3c-.8.2-1.5.3-2.3.5-1.6.5-3.2 1.1-4.7 1.7s-3.1 1.3-4.6 2c-.7.3-1.4.7-2.1 1.1-.8.6-1.8 1.4-1.6 2.5l.1.1c0 .3 0 .6.1.9.1.4.1.8.2 1.1l.6 2.1 1.3 4 1.3 5 1.5 4.8a59.55 59.55 0 0 0 1.6 4.5l1.7 4.2 1.7 4.4c.4 1.2.8 2.3 1.3 3.5a27.18 27.18 0 0 0-2.5 1.1l-2.7 1.3-1.2.6c-.6.3-1.2.7-1.8 1.1-.4.5-.6 1.1-.4 1.7.1.5.4.9.8 1.2.5.4 1.2.5 1.9.4l1.7-.3 2.7-.9 2.4-1c.8-.3 1.5-.5 2.3-.8 3.2-1.1 6.4-2.3 9.6-3.5l5.5-2.1 5.4-2.2 5.5-2 2.7-1.1c.8-.2 1.5-.6 2.2-1 .9-.6 1.2-1.9.7-3h0zM58.5 25c-.6-1.5-1.1-3-1.6-4.5l-1.5-4.4c-.6-1.5-1.2-3-2-4.4l-1-1.9L52 9l1.1-.3c1.3-.3 2.6-.7 3.9-1.2L60.5 6l1.7-.7 1.8-.6c.8-.3 1.7-.5 2.6-.7.1.2.2.5.3.7.6 1.5 1.1 3 1.7 4.6l1.6 4.7c.5 1.6 1 3.3 1.6 5l3.4 9.2.6 1.5-2 .7c-1.1.4-2.1.8-3.1 1.3-.6.2-1.2.3-1.7.5-.7.2-1.4.4-2.2.7-1.3.5-2.5 1-3.7 1.5l.2-.1-.7.3-.6-1.4-1.7-4c-.6-1.3-1.2-2.8-1.8-4.2zm6.4 16.2l-.9-2.7 3-1.5c1.8-.8 3.7-1.5 5.5-2.2l3-1.1 1.5-.6.9 2.4c.1.3.2.5.2.8l-3.3 1.3-9.9 3.6z" fill="#a2a2a5"/></svg>