<svg id="Layer_1" data-name="Layer 1" xmlns="http://www.w3.org/2000/svg" viewBox="0 0 588.65 141.48"><defs><style>.cls-1{fill:#0c99d5;}.cls-2{fill:#d1d2d4;}</style></defs><path class="cls-1" d="M275.38,4.86H191.53L168.1,90.62h-3.7L141.32,6.1V4.86H94v140H122.1V35.09h3.3l26.24,100.83h29.22L207.1,35.09h1.83V144.86h66.45a34,34,0,0,0,34-34v-15A28,28,0,0,0,293.06,70.4l.76-.38a28,28,0,0,0,15.61-25.1v-6A34,34,0,0,0,275.49,4.86Zm-9.09,22.61v.15a16.32,16.32,0,0,1,0,32.34,15.44,15.44,0,0,1-4.4,0H237.08V27.47ZM281,115.31a18.21,18.21,0,0,1-11.25,6,17.77,17.77,0,0,1-4.94,0h-27.7V85h32.64v.17A18.28,18.28,0,0,1,281,115.31Z" transform="translate(-6.53 -4.05)"/><polygon class="cls-1" points="28.15 0.81 0 0.81 0 112.7 0 140.85 28.15 140.85 79.1 140.85 79.1 112.7 28.15 112.7 28.15 0.81"/><polygon class="cls-1" points="395.62 28.96 395.62 0.81 337.09 0.81 308.94 0.81 308.94 28.96 308.94 140.85 337.09 140.85 337.09 92.44 387.78 92.44 387.78 64.29 337.09 64.29 337.09 28.96 395.62 28.96"/><path class="cls-1" d="M420.09,69.48a11.13,11.13,0,0,1-4.88-4.93,17.26,17.26,0,0,1-1.71-7.77V53.84h9.77v2.94a4.63,4.63,0,0,0,1.18,3.5,4.47,4.47,0,0,0,3.35,1.24,4.6,4.6,0,0,0,3.45-1.26,5,5,0,0,0,1.22-3.57V40.5a4.89,4.89,0,0,0-1.09-3.41,3.9,3.9,0,0,0-3-1.2A4.16,4.16,0,0,0,425.23,37a4.24,4.24,0,0,0-1.07,3.21h-9.24V4.74h26.79v9.59h-17V29a8.81,8.81,0,0,1,3.05-2.08,9.21,9.21,0,0,1,3.53-.72A9.8,9.8,0,0,1,441,32.77a20.94,20.94,0,0,1,1.29,7.73V56.69a16.63,16.63,0,0,1-1.72,7.82,11.49,11.49,0,0,1-4.95,4.95,18.69,18.69,0,0,1-15.49,0Z" transform="translate(-6.53 -4.05)"/><path class="cls-1" d="M452.28,67q-3.86-4-3.86-11.25V20q0-7.27,3.86-11.25t10.85-4q7,0,10.84,4T477.83,20V55.76Q477.83,63,474,67t-10.84,4Q456.14,71,452.28,67Zm14.49-7a6.42,6.42,0,0,0,1.29-4.28V20a6.37,6.37,0,0,0-1.31-4.28,5.08,5.08,0,0,0-7.25,0A6.37,6.37,0,0,0,458.19,20V55.72A6.42,6.42,0,0,0,459.48,60a5.13,5.13,0,0,0,7.29,0Z" transform="translate(-6.53 -4.05)"/><path class="cls-2" d="M495.34,4.71h7.73L518,69.32h-9.06L499.21,18l-9.73,51.36h-9.07ZM490,47.28h19.15v7.95H490Z" transform="translate(-6.53 -4.05)"/><path class="cls-2" d="M523.78,4.71h7.38l17.68,49.55-1.38,1.15V4.71h8V69.28H548l-17.6-48,1.38-1.16V69.28h-8Z" transform="translate(-6.53 -4.05)"/><path class="cls-2" d="M571.1,68.23a12,12,0,0,1-5.33-5.15A17.3,17.3,0,0,1,564,54.79v-3.2h8.44v2.89a6.59,6.59,0,0,0,7.29,7.29,7,7,0,0,0,5.24-1.87,7.46,7.46,0,0,0,1.82-5.42V48.84a6.77,6.77,0,0,0-1.15-4,9.52,9.52,0,0,0-2.89-2.69,47.53,47.53,0,0,0-4.8-2.42l-.18-.07a.67.67,0,0,1-.18-.07l-.62-.26a46.18,46.18,0,0,1-6.69-3.65,14.77,14.77,0,0,1-4.42-4.93,15.87,15.87,0,0,1-1.82-8V19a17,17,0,0,1,1.8-8.15,11.79,11.79,0,0,1,5.31-5.09,19.19,19.19,0,0,1,8.53-1.73,17.92,17.92,0,0,1,8.29,1.75A11.68,11.68,0,0,1,593.07,11a17.76,17.76,0,0,1,1.76,8.24v3.38h-8.44v-3a7.69,7.69,0,0,0-1.74-5.42,6.52,6.52,0,0,0-5-1.86,7.39,7.39,0,0,0-5.35,1.78,6.69,6.69,0,0,0-1.85,5.06v4a7,7,0,0,0,1.16,4.11A9,9,0,0,0,576.48,30a47.51,47.51,0,0,0,4.75,2.36l.58.26.58.27.46.2.47.2a43.48,43.48,0,0,1,6.22,3.31,12.76,12.76,0,0,1,4,4.56,16,16,0,0,1,1.64,7.77v5.91a17.54,17.54,0,0,1-1.8,8.29,11.9,11.9,0,0,1-5.26,5.15A18.54,18.54,0,0,1,579.68,70,19,19,0,0,1,571.1,68.23Z" transform="translate(-6.53 -4.05)"/><path class="cls-2" d="M433.72,117.84v27h-8.44v-27L412.39,80.25H421l8.53,27.82,8.09-27.82h8.57Z" transform="translate(-6.53 -4.05)"/><path class="cls-2" d="M450.16,80.25h8.44v64.61h-8.44Zm4.4,0h23.33v8H454.56Zm0,28.53h21.11v8H454.56Zm0,28.08h23.33v8H454.56Z" transform="translate(-6.53 -4.05)"/><path class="cls-2" d="M496.37,80.25h7.73L519,144.86H510L500.24,93.5l-9.73,51.36h-9.07ZM491,122.82h19.15v8H491Z" transform="translate(-6.53 -4.05)"/><path class="cls-2" d="M524.81,80.21h8.44v64.65h-8.44Zm4,29.33h11.91a8.37,8.37,0,0,0,3.89-.85,5.76,5.76,0,0,0,2.47-2.44,8.25,8.25,0,0,0,.84-3.87V95.81A9.24,9.24,0,0,0,547,91.7a5.87,5.87,0,0,0-2.47-2.6,7.9,7.9,0,0,0-3.89-.89H528.76v-8h11.16a20.9,20.9,0,0,1,8.84,1.71,12.29,12.29,0,0,1,5.62,5,15.45,15.45,0,0,1,1.93,7.93v7.56a16.22,16.22,0,0,1-1.93,8.15,12.56,12.56,0,0,1-5.62,5.18,20.29,20.29,0,0,1-8.84,1.77H528.76Zm11.11,6,8-2,10.3,31.37h-9.24Z" transform="translate(-6.53 -4.05)"/><path class="cls-2" d="M570.84,143.77a12,12,0,0,1-5.33-5.15,17.3,17.3,0,0,1-1.82-8.29v-3.2h8.44V130a6.59,6.59,0,0,0,7.29,7.29,7,7,0,0,0,5.24-1.87,7.46,7.46,0,0,0,1.82-5.42v-5.64a6.77,6.77,0,0,0-1.15-4,9.52,9.52,0,0,0-2.89-2.69,47.53,47.53,0,0,0-4.8-2.42l-.18-.07a.67.67,0,0,1-.18-.07l-.62-.26a46.18,46.18,0,0,1-6.69-3.65,14.77,14.77,0,0,1-4.42-4.93,15.87,15.87,0,0,1-1.82-8V94.56a17,17,0,0,1,1.8-8.15,11.79,11.79,0,0,1,5.31-5.09,19.19,19.19,0,0,1,8.53-1.73,17.92,17.92,0,0,1,8.29,1.75,11.68,11.68,0,0,1,5.15,5.16,17.76,17.76,0,0,1,1.76,8.24v3.38h-8.44v-3a7.69,7.69,0,0,0-1.74-5.42,6.52,6.52,0,0,0-5-1.86A7.39,7.39,0,0,0,574,89.59a6.69,6.69,0,0,0-1.85,5.06v4a7,7,0,0,0,1.16,4.11,9,9,0,0,0,2.89,2.69,47.51,47.51,0,0,0,4.75,2.36l.58.26.58.27.46.2.47.2a43.48,43.48,0,0,1,6.22,3.31,12.76,12.76,0,0,1,4,4.56,16,16,0,0,1,1.64,7.77v5.91a17.66,17.66,0,0,1-1.79,8.29,12,12,0,0,1-5.27,5.15,18.54,18.54,0,0,1-8.44,1.76A19,19,0,0,1,570.84,143.77Z" transform="translate(-6.53 -4.05)"/></svg>