<svg id="Layer_1" data-name="Layer 1" xmlns="http://www.w3.org/2000/svg" viewBox="0 0 366.44 241.77"><defs><style>.cls-1{fill:#c4c4c4;opacity:0.38;}.cls-2{fill:#f9f9f9;stroke:#515051;}.cls-10,.cls-13,.cls-14,.cls-2,.cls-3,.cls-4,.cls-5{stroke-miterlimit:10;}.cls-10,.cls-13,.cls-2,.cls-3,.cls-4,.cls-5{stroke-width:3px;}.cls-3{fill:#f2f4f5;stroke:#5d5c5e;}.cls-4{fill:#e9caff;stroke:#444;}.cls-14,.cls-5{fill:none;}.cls-5{stroke:#6cc90a;}.cls-10,.cls-6,.cls-9{fill:#fff;}.cls-6{opacity:0.76;}.cls-7{fill:#efefef;}.cls-11,.cls-8{fill:#e0e3e5;}.cls-9{opacity:0.79;}.cls-10{stroke:#4f4f4f;}.cls-11{opacity:0.4;}.cls-12{fill:#4f4f4f;}.cls-13{fill:#76ffff;stroke:#5e5e5e;}.cls-14{stroke:#606060;stroke-linecap:round;stroke-width:5px;}</style></defs><path class="cls-1" d="M420.24,602s-1.06,13,38.71,15.92,61.37,1.92,93.53,12,72,3.36,97.92-3.36S732,602.37,760.32,602Z" transform="translate(-412.94 -393.26)"/><path class="cls-2" d="M684.72,474S643,491.11,641,544.42c0,0-1.63,38.31,25.73,55.71h73.8s32.76-11,26.64-59.28S724.68,474,724.68,474Z" transform="translate(-412.94 -393.26)"/><rect class="cls-2" x="269.06" y="67.67" width="44.84" height="13.11" rx="6.3"/><path class="cls-2" d="M686.05,461.35l-9.37-14.58a3.58,3.58,0,0,1,.77-4.83c1.49-1.05,4.11-1.05,8.6,3.15,6.37,6,10,1.6,11.63-1.45a6.81,6.81,0,0,1,9.26-2.77,13.23,13.23,0,0,1,3,2.29c6.24,6.25,10.32-1.91,10.32-1.91s7.42-5.64,10.85,1.41a4.62,4.62,0,0,1-.23,4.43l-8.34,13.84Z" transform="translate(-412.94 -393.26)"/><ellipse class="cls-3" cx="161.83" cy="104.19" rx="107.23" ry="102.68"/><ellipse class="cls-4" cx="150.3" cy="104.19" rx="95.76" ry="102.68"/><ellipse class="cls-5" cx="150.3" cy="104.19" rx="71.76" ry="76.95"/><ellipse class="cls-6" cx="150.3" cy="104.19" rx="94.48" ry="101.31"/><path class="cls-7" d="M563.24,399.35a86.34,86.34,0,0,0-44.59,12.43c2.27,5.58-.89,12.48-7.36,15.73a14.46,14.46,0,0,1-12.61.44,101.42,101.42,0,0,0-26.92,69.49c0,54.18,41,98.1,91.48,98.1s91.48-43.92,91.48-98.1S613.76,399.35,563.24,399.35Z" transform="translate(-412.94 -393.26)"/><path class="cls-8" d="M596.58,399s60.64,6.57,77.58,74.62a9.85,9.85,0,0,1-2.29,9c-1,1-2,2.25-3.19,3.57a3.27,3.27,0,0,1-5.69-1.65C660.17,466.39,648,419.47,596.58,399Z" transform="translate(-412.94 -393.26)"/><ellipse class="cls-9" cx="156.4" cy="110.03" rx="71.66" ry="76.2"/><ellipse class="cls-10" cx="147.7" cy="105.32" rx="72.48" ry="78.03"/><path class="cls-11" d="M640.57,426.83C656.18,440,677.9,466.76,674,511.68a11.76,11.76,0,0,1-6.07,9.29l-.18.1a5.07,5.07,0,0,1-7.41-5.25c2.75-17.79,4.14-54.58-22.27-86.49A1.78,1.78,0,0,1,640.57,426.83Z" transform="translate(-412.94 -393.26)"/><circle class="cls-12" cx="144.34" cy="107.27" r="6.96"/><rect class="cls-12" x="568.22" y="451" width="3.11" height="67.37" rx="1.55" transform="translate(29.32 -645.67) rotate(39.8)"/><path class="cls-12" d="M567.77,508.92h0a2,2,0,0,1-2.72.28l-38.56-30.48a2,2,0,0,1-.29-2.8l2.58-3.1a2,2,0,0,1,2.85-.17l36,33.57A2,2,0,0,1,567.77,508.92Z" transform="translate(-412.94 -393.26)"/><line class="cls-13" x1="150.3" y1="27.24" x2="150.3" y2="38.92"/><line class="cls-13" x1="188.98" y1="42.47" x2="183.64" y2="51.83"/><line class="cls-13" x1="213.82" y1="73.07" x2="203.02" y2="78.86"/><line class="cls-13" x1="219.91" y1="109.19" x2="206.42" y2="109.19"/><line class="cls-13" x1="119.86" y1="33.83" x2="124.54" y2="44.99"/><line class="cls-13" x1="88.54" y1="61.19" x2="98.98" y2="68.39"/><line class="cls-13" x1="76.54" y1="100.31" x2="86.54" y2="100.38"/><line class="cls-13" x1="84.02" y1="139.59" x2="94.46" y2="134.91"/><line class="cls-13" x1="110.5" y1="171.15" x2="116.74" y2="161.55"/><line class="cls-13" x1="150.3" y1="183.35" x2="150.3" y2="170.15"/><line class="cls-13" x1="181.06" y1="174.71" x2="175.06" y2="163.43"/><line class="cls-13" x1="209.86" y1="147.59" x2="199.54" y2="140.39"/><rect class="cls-2" x="60.46" y="171.15" width="63.36" height="18.56" rx="6.04"/><rect class="cls-2" x="50.46" y="190.15" width="63.36" height="18.56" rx="6.04"/><rect class="cls-2" x="424.24" y="557.41" width="69.41" height="18.56" rx="6.04" transform="translate(-651.2 387.13) rotate(-68.04)"/><line class="cls-14" x1="2.5" y1="208.71" x2="363.94" y2="208.71"/></svg>