<svg width="584" height="588" viewBox="0 0 584 588" fill="none" xmlns="http://www.w3.org/2000/svg">
<g id="click">
<path id="Ellipse 13" d="M584 256C584 397.385 469.385 512 328 512C186.615 512 72 397.385 72 256C72 114.615 186.615 0 328 0C469.385 0 584 114.615 584 256Z" fill="#F7F7F7" fill-opacity="0.6"/>
<path id="Vector" d="M296.816 588C274.386 588.001 252.755 575.486 242.336 554.201L212.18 497.738L195.073 530.392C194.635 531.23 194.136 532.036 193.584 532.803C182.356 548.383 163.884 553.92 150.208 553.92C150.098 553.92 149.988 553.92 149.877 553.919C134.593 553.818 119.374 547.26 108.125 535.924C96.4416 524.152 90.0085 508.525 90.0085 491.919V232.962C90.0085 209.343 103.317 188.491 124.738 178.543C145.956 168.688 170.213 171.821 188.207 186.692L319.956 284.804C328.815 291.401 330.648 303.931 324.052 312.79C317.454 321.649 304.925 323.482 296.066 316.885L163.873 218.442C163.546 218.198 163.226 217.945 162.914 217.681C153.867 210.041 144.304 213.561 141.586 214.822C138.87 216.083 130.01 221.118 130.01 232.962V491.92C130.01 504.807 140.619 513.858 150.142 513.92C150.172 513.92 150.204 513.92 150.234 513.92C154.126 513.92 158.405 512.308 160.537 510.122L194.296 445.683C197.734 439.119 204.522 434.994 211.932 434.964C211.959 434.964 211.986 434.964 212.012 434.964C219.392 434.964 226.175 439.028 229.654 445.542L277.805 535.698C277.941 535.952 278.071 536.209 278.195 536.469C282.995 546.471 295.094 550.823 305.162 546.162C310.175 543.844 313.957 539.704 315.814 534.504C317.615 529.463 317.384 524.046 315.173 519.194L266.576 432.717C263.096 426.524 263.162 418.95 266.75 412.819C270.337 406.688 276.908 402.92 284.012 402.92H352.581C364.185 402.327 368.818 393.189 369.968 390.381C371.148 387.502 374.353 377.423 366.072 368.639C358.495 360.602 358.867 347.945 366.903 340.367C374.94 332.789 387.598 333.163 395.175 341.199C411.586 358.604 416.112 383.259 406.985 405.542C397.909 427.702 377.513 442.019 353.759 442.906C353.511 442.916 353.262 442.92 353.013 442.92H318.194L350.39 500.214C350.587 500.566 350.775 500.923 350.951 501.286C358.082 515.992 358.981 532.568 353.483 547.959C347.986 563.351 336.79 575.606 321.956 582.468C313.833 586.221 305.267 587.999 296.816 588ZM112.623 154.542C122.309 149.231 125.854 137.074 120.543 127.389L103.543 96.3888C98.2316 86.7037 86.0765 83.1586 76.3904 88.4697C66.7043 93.7807 63.1593 105.938 68.4703 115.623L85.4705 146.623C89.1085 153.257 95.9566 157.01 103.025 157.01C106.275 157.01 109.573 156.216 112.623 154.542ZM70.3293 200.024C74.7564 189.904 70.1413 178.111 60.0222 173.684L28.0219 159.683C17.9018 155.255 6.1097 159.871 1.68166 169.99C-2.74538 180.111 1.86966 191.904 11.9888 196.331L43.9891 210.331C46.5981 211.473 49.3181 212.013 51.9952 212.013C59.7002 212.012 67.0433 207.534 70.3293 200.024ZM194.982 135.331L205.982 102.331C209.475 91.8517 203.812 80.5246 193.333 77.0326C182.857 73.5375 171.526 79.2026 168.034 89.6817L157.034 122.682C153.541 133.161 159.204 144.488 169.683 147.98C171.781 148.68 173.913 149.012 176.01 149.012C184.383 149.012 192.189 143.711 194.982 135.331ZM247.912 186.079L274.912 166.078C283.788 159.503 285.653 146.978 279.079 138.102C272.504 129.226 259.978 127.361 251.103 133.935L224.103 153.935C215.227 160.51 213.362 173.036 219.936 181.912C223.86 187.209 229.902 190.009 236.023 190.009C240.16 190.009 244.333 188.73 247.912 186.079ZM29.4339 298.578L59.4342 286.578C69.6903 282.476 74.6784 270.835 70.5763 260.58C66.4733 250.323 54.8322 245.335 44.5791 249.438L14.5788 261.438C4.32269 265.54 -0.665362 277.181 3.43668 287.436C6.56471 295.256 14.0748 300.014 22.0119 300.014C24.4849 300.014 26.9979 299.552 29.4339 298.578Z" fill="#A3A3A3"/>
</g>
</svg>
