<svg width="206" height="50" viewBox="0 0 206 50" fill="none" xmlns="http://www.w3.org/2000/svg">
<g id="logo">
<path id="logo 1 (Traced)" fill-rule="evenodd" clip-rule="evenodd" d="M13.0443 0.394417C12.9759 0.611408 12.7249 1.5807 12.4867 2.54854C12.2484 3.51638 11.0359 8.13107 9.79205 12.8034C7.32408 22.0744 3.80261 35.3782 1.52052 44.0534C0.721607 47.0904 0.0397376 49.6708 0.00520049 49.7876C-0.0539204 49.988 0.295168 50 6.17164 50H12.4007L12.8417 48.21C13.4231 45.8501 16.8325 32.5234 17.0655 31.7002C17.1654 31.3471 17.3726 30.9106 17.5258 30.7301L17.8047 30.4021L23.2422 30.3857C29.2989 30.3674 29.7638 30.3204 31.3137 29.5689C32.8388 28.8295 33.968 27.5055 34.7421 25.5489C34.949 25.0263 35.6284 22.5728 36.2518 20.0967C36.8754 17.6206 37.9549 13.3829 38.6508 10.6796C39.8698 5.94478 39.9144 5.72633 39.8683 4.72318C39.8304 3.90085 39.7515 3.53932 39.4927 3.00413C39.0526 2.09369 37.826 0.942961 36.7285 0.41068L35.8816 0H24.5251H13.1685L13.0443 0.394417ZM49.1261 0.111529C48.1685 0.413592 47.2762 1.07427 46.7189 1.89405C46.3428 2.44733 44.9047 5.94248 44.1611 8.11032C43.6871 9.49223 42.2862 14.557 39.1703 26.1529C36.5009 36.0877 32.9202 49.0176 32.6084 49.8483C32.5633 49.9684 33.8858 50 38.9753 50H45.3994L45.517 49.5449C45.5816 49.2947 46.3629 46.3319 47.2531 42.9612C50.4505 30.8529 50.4214 30.9477 51.0515 30.6062C51.2557 30.4954 51.6438 30.4658 52.3305 30.5087C53.4181 30.5766 53.803 30.7199 53.803 31.057C53.803 31.1797 52.6158 35.4755 51.1648 40.6029C49.7138 45.7305 48.5265 49.9424 48.5265 49.9629C48.5265 49.9833 51.4406 50 55.0023 50C58.5639 50 61.478 49.9761 61.478 49.947C61.478 49.85 64.1015 39.9723 66.17 32.2816C67.292 28.1098 68.9911 21.7203 69.9461 18.0825C70.9009 14.4448 71.9456 10.5127 72.2677 9.34466C73.0672 6.44575 73.2503 5.48277 73.2718 4.06553C73.296 2.46602 73.1069 1.81954 72.3987 1.08046C71.3745 0.0118932 72.0348 0.0671116 59.979 0.0404126C54.1748 0.0275485 49.291 0.0595874 49.1261 0.111529ZM79.2911 0.212379C79.171 0.528519 76.6925 9.77755 72.2585 26.4563C70.0848 34.6329 67.795 43.2342 67.1704 45.5704C66.5456 47.9066 66.0346 49.8589 66.0347 49.909C66.0348 49.9591 68.8391 50 72.2662 50H78.4975L78.6339 49.4842C78.709 49.2005 79.8132 45.2002 81.0878 40.5947C82.3623 35.9891 84.5725 27.9066 85.9992 22.6335C89.1242 11.0845 89.234 10.7052 89.551 10.3637C89.8494 10.0422 90.8878 9.88265 91.8291 10.0137L92.444 10.0993L92.3701 10.567C92.2467 11.3478 86.2908 33.566 82.9934 45.546C82.3725 47.8019 81.8645 49.7271 81.8645 49.8239C81.8645 49.9756 82.7457 50 88.2169 50H94.5694L94.7471 49.3629C95.7011 45.9421 98.2024 36.8504 100.615 28.034C102.232 22.1268 104.064 15.4369 104.688 13.1675C105.312 10.8981 105.907 8.52245 106.011 7.88835C106.576 4.44333 106.297 2.50473 105.062 1.29163C104.537 0.775485 104.01 0.513956 102.911 0.225121C102.128 0.0190534 101.307 0.00400485 90.7215 0.0020631C80.0219 0.000121354 79.3671 0.0121359 79.2911 0.212379ZM112.701 0.212379C112.583 0.438956 111.62 3.92099 109.086 13.2888C106.716 22.0462 99.7586 47.6089 99.4251 48.7812C99.2645 49.3456 99.1331 49.8507 99.1331 49.9038C99.1331 49.9567 105.181 50 112.573 50H126.013L126.529 49.6939C127.23 49.2783 128.181 48.2363 128.571 47.4563C129.398 45.8046 130.323 42.7278 132.952 32.8883C134.36 27.6212 139.056 10.4062 139.938 7.28155C140.484 5.34745 140.539 5.03835 140.552 3.82087C140.564 2.61019 140.537 2.42682 140.259 1.88022C139.898 1.16893 139.213 0.603762 138.287 0.252913C137.625 0.00254856 137.491 0 125.216 0C113.525 0 112.806 0.0122573 112.701 0.212379ZM148.9 0.111893C147.596 0.521723 146.904 1.25231 145.817 3.36359C144.8 5.3392 144.631 5.84187 142.845 12.1966C141.423 17.2558 132.471 49.8238 132.471 49.9373C132.471 49.9729 135.34 49.988 138.847 49.9708L145.223 49.9393L145.374 49.4539C145.458 49.1869 146.472 45.3641 147.627 40.9587C150.18 31.2303 150.262 30.9396 150.531 30.7409C150.815 30.5306 153.227 30.5199 153.433 30.7282C153.512 30.8083 153.577 31.013 153.577 31.1833C153.577 31.3534 152.416 35.6331 150.999 40.6936C149.581 45.754 148.42 49.9187 148.42 49.9483C148.42 49.9779 151.318 49.988 154.859 49.9708L161.297 49.9393L163.078 43.3252C164.057 39.6875 166.124 31.9228 167.67 26.0704C169.217 20.218 170.83 14.1561 171.255 12.5995C172.976 6.30133 173.046 5.96529 173.056 4.00485C173.063 2.40959 173.039 2.19806 172.798 1.74114C172.457 1.09515 171.832 0.57682 171.047 0.288714C170.459 0.0726942 169.867 0.0595874 159.813 0.039199C153.976 0.0273058 149.065 0.0600728 148.9 0.111893ZM178.833 0.212379C178.799 0.329126 178.308 2.39078 177.743 4.79369C177.178 7.1966 176.687 9.25813 176.651 9.375C176.589 9.57536 176.938 9.58738 182.83 9.58738C186.264 9.58738 189.074 9.60704 189.074 9.63107C189.074 9.6551 184.244 18.6955 178.341 29.7209C172.438 40.7461 167.608 49.8193 167.608 49.8834C167.608 49.9566 170.001 50 174.021 50H180.434L180.603 49.7269C180.696 49.5767 186.046 39.105 192.492 26.4563C198.937 13.8076 204.613 2.68058 205.105 1.72937L206 0H192.448C179.646 0 178.893 0.0117718 178.833 0.212379ZM25.7149 10.0191C25.8615 10.1229 25.9815 10.3245 25.9815 10.4669C25.9815 10.6093 25.5549 12.3948 25.0336 14.4345C24.5122 16.4743 24.0166 18.4637 23.932 18.8553C23.8475 19.2471 23.694 19.6731 23.5907 19.8019C23.3654 20.0834 22.6782 20.2602 21.7937 20.2641C20.9961 20.2676 20.7049 20.0464 20.7049 19.4364C20.7049 19.2006 21.1388 17.0928 21.6691 14.7525C22.8329 9.61578 22.7142 9.8301 24.3977 9.8301C25.1546 9.8301 25.5229 9.88289 25.7149 10.0191ZM58.8697 10.211C58.9983 10.2803 59.0796 10.4654 59.0796 10.6888C59.0796 11.3125 56.9217 19.708 56.705 19.9273C56.4396 20.1959 54.4212 20.3216 54.0546 20.0924C53.8105 19.9397 53.9237 19.2499 54.8814 15.0511C55.8481 10.8131 55.983 10.4183 56.5727 10.0987C56.8888 9.92731 58.4881 10.0057 58.8697 10.211ZM125.98 10.2479C126.156 10.4261 126.151 10.5201 125.921 11.3801C125.42 13.2595 119.599 34.4894 118.777 37.4393C118.311 39.108 117.848 40.5689 117.747 40.6857C117.588 40.8693 117.332 40.8981 115.857 40.8981H114.149L114.312 40.3216C114.401 40.0045 115.687 35.3216 117.17 29.915C120.91 16.2716 122.255 11.4324 122.472 10.8296C122.736 10.0965 123.011 9.98847 124.523 10.0239C125.494 10.0467 125.832 10.0987 125.98 10.2479ZM158.975 10.2566C159.099 10.4075 158.918 11.2466 157.961 14.9592C157.321 17.4447 156.717 19.6035 156.62 19.7567C156.367 20.1539 156.037 20.2443 154.964 20.2104C153.99 20.1797 153.697 20.0267 153.697 19.5492C153.697 19.388 155.41 12.1411 155.742 10.8975C155.946 10.133 156.076 10.0728 157.528 10.0728C158.539 10.0728 158.857 10.1132 158.975 10.2566Z" fill="#9f57c0"/>
</g>
</svg>
