<svg id="Layer_1" data-name="Layer 1" xmlns="http://www.w3.org/2000/svg" viewBox="0 0 567.02 402.57"><defs><style>.cls-1,.cls-14{fill:#fcfcfc;}.cls-1,.cls-10,.cls-11,.cls-12,.cls-3,.cls-4,.cls-5{stroke:#444;}.cls-1,.cls-10,.cls-11,.cls-12,.cls-3,.cls-4,.cls-5,.cls-8{stroke-miterlimit:10;}.cls-1,.cls-3,.cls-4,.cls-5{stroke-width:3px;}.cls-2{fill:#f2f2f2;opacity:0.42;}.cls-11,.cls-12,.cls-3,.cls-8{fill:none;}.cls-15,.cls-4{fill:#f2f4f5;}.cls-5{fill:#f9f9f9;}.cls-6{fill:#e0e3e5;}.cls-7{fill:#b7b7b7;opacity:0.44;}.cls-8{stroke:#360659;}.cls-10,.cls-11,.cls-8{stroke-width:2px;}.cls-9{fill:#d8d8d8;opacity:0.45;}.cls-10,.cls-13{fill:#fff;}.cls-12{stroke-linecap:round;stroke-width:5px;}.cls-13{font-size:210.47px;font-family:OpenSans-Regular, Open Sans;}.cls-14{opacity:0.52;}.cls-16{fill:#e9caff;opacity:0.15;}</style></defs><path class="cls-1" d="M493.69,304.35s-89.89,36.76-94.18,151.58c0,0-3.52,82.51,55.41,120h159s70.56-23.78,57.38-127.68-91.5-143.89-91.5-143.89Z" transform="translate(-278.6 -227.62)"/><path class="cls-2" d="M288.56,578.79s-1.64,20.27,60.2,24.75,95.42,3,145.43,18.66,112,5.23,152.26-5.22,126.88-37.57,170.92-38.19Z" transform="translate(-278.6 -227.62)"/><path class="cls-3" d="M493.69,304.35s-89.89,36.76-94.18,151.58c0,0-3.52,82.51,55.41,120h159s70.56-23.78,57.38-127.68-91.5-143.89-91.5-143.89Z" transform="translate(-278.6 -227.62)"/><rect class="cls-4" x="209.23" y="48.49" width="96.58" height="28.24" rx="6.3"/><path class="cls-4" d="M496.55,277,476.36,245.6c-2.17-3.38-1.61-8.07,1.68-10.39s8.83-2.26,18.51,6.78c13.72,12.82,21.61,3.45,25-3.11a14.68,14.68,0,0,1,20-6,28,28,0,0,1,6.41,4.93c13.44,13.45,22.23-4.13,22.23-4.13s16-12.14,23.37,3a10.05,10.05,0,0,1-.49,9.56l-18,29.8Z" transform="translate(-278.6 -227.62)"/><ellipse class="cls-5" cx="423.57" cy="281.91" rx="72.47" ry="69.4"/><ellipse class="cls-5" cx="415.78" cy="281.91" rx="64.72" ry="69.4"/><path class="cls-6" d="M669,448.92c-12.53-101.23-89.8-142.31-89.8-142.31H501.76a192,192,0,0,0-31.92,21.88,15.36,15.36,0,0,1,4.41,2.76c8.79,8,6.7,24.82-4.68,37.58s-27.72,16.64-36.51,8.65a16.12,16.12,0,0,1-1.6-1.71c-11.21,20.86-19.61,47.39-20.83,80.64,0,0-3.34,80.39,52.69,116.9H614.46S681.56,550.15,669,448.92Z" transform="translate(-278.6 -227.62)"/><path class="cls-7" d="M547.77,570s110.33,23.1,111.62-104.67-47.88,42.93-47.88,42.93-9.29,33.48-82.94,45.26S547.77,570,547.77,570Z" transform="translate(-278.6 -227.62)"/><ellipse class="cls-8" cx="415.78" cy="281.91" rx="48.5" ry="52.01"/><ellipse class="cls-5" cx="415.78" cy="281.91" rx="63.85" ry="68.47"/><ellipse class="cls-9" cx="419.9" cy="285.86" rx="48.43" ry="51.5"/><ellipse class="cls-10" cx="414.02" cy="282.68" rx="48.99" ry="52.74"/><line class="cls-3" x1="415.78" y1="229.9" x2="415.78" y2="237.8"/><line class="cls-3" x1="441.92" y1="240.2" x2="438.31" y2="246.53"/><line class="cls-11" x1="458.71" y1="260.88" x2="451.41" y2="264.79"/><line class="cls-11" x1="462.82" y1="285.29" x2="453.71" y2="285.29"/><line class="cls-3" x1="415.78" y1="335.41" x2="415.78" y2="326.49"/><line class="cls-3" x1="436.57" y1="329.57" x2="432.51" y2="321.95"/><line class="cls-3" x1="456.03" y1="311.25" x2="449.06" y2="306.38"/><line class="cls-3" x1="395.2" y1="234.36" x2="398.37" y2="241.9"/><line class="cls-3" x1="374.04" y1="252.85" x2="381.09" y2="257.72"/><line class="cls-3" x1="365.93" y1="279.29" x2="372.68" y2="279.34"/><line class="cls-3" x1="370.98" y1="305.84" x2="378.04" y2="302.68"/><line class="cls-3" x1="388.88" y1="327.17" x2="393.1" y2="320.68"/><rect class="cls-5" x="92.62" y="292.76" width="98.52" height="28.86" rx="6.04"/><rect class="cls-5" x="77.08" y="322.3" width="98.52" height="28.86" rx="6.04"/><rect class="cls-5" x="294.79" y="509.49" width="107.94" height="28.86" rx="6.04" transform="translate(-546.18 423.8) rotate(-68.04)"/><line class="cls-12" x1="2.5" y1="351.16" x2="564.52" y2="351.16"/><path class="cls-6" d="M490.32,257.82s68.62,26.27,90.26,0l5.69-4.71-12.78,21.85-76.21,1L484,254.54Z" transform="translate(-278.6 -227.62)"/><text class="cls-13" transform="translate(202.68 292.76)">$</text><path class="cls-14" d="M430.29,439a22.6,22.6,0,0,0,1.77-3.55c2.6-6.81,12.72-27.06,40.49-24.75,33.3,2.78-.73,39.73-.73,39.73s-30.66,35.35-39.33,14.63C426,449.53,428.58,441.86,430.29,439Z" transform="translate(-278.6 -227.62)"/><path class="cls-15" d="M490.18,293.42h50.41s38,.84,41.39-6.43v8.67s-1.21,7.09-9.33,6.35l-75.85.05s-3-.11-5.57-3.55a4.7,4.7,0,0,1-.86-2.37Z" transform="translate(-278.6 -227.62)"/><rect class="cls-16" x="261.26" y="50.97" width="10.92" height="23.43"/><rect class="cls-16" x="275.95" y="50.97" width="4" height="23.43"/><rect class="cls-16" x="282.62" y="50.97" width="2" height="23.43"/></svg>