<svg id="Layer_1" data-name="Layer 1" xmlns="http://www.w3.org/2000/svg" viewBox="0 0 567.02 410.31"><defs><style>.cls-1{fill:#eaeaea;opacity:0.42;}.cls-2,.cls-7,.cls-9{fill:none;}.cls-12,.cls-2,.cls-5{stroke:#444;}.cls-2,.cls-9{stroke-linecap:round;}.cls-12,.cls-2,.cls-5,.cls-7,.cls-9{stroke-miterlimit:10;}.cls-12,.cls-2,.cls-5,.cls-7{stroke-width:5px;}.cls-3,.cls-4{fill:#e9caff;}.cls-3{opacity:0.15;}.cls-5{fill:#f9f9f9;}.cls-6{fill:#e0e3e5;}.cls-7{stroke:#360659;}.cls-10,.cls-8{fill:#fff;}.cls-9{stroke:#fff;stroke-width:19px;}.cls-10{opacity:0.37;}.cls-11{fill:#d4d5d6;opacity:0.84;}.cls-12{fill:#f7f7f7;}</style></defs><path class="cls-1" d="M293.67,558.94s-1.64,20.27,60.2,24.75,95.42,3,145.43,18.66,112,5.22,152.26-5.22,126.88-37.57,170.92-38.19Z" transform="translate(-283.71 -200.03)"/><line class="cls-2" x1="2.5" y1="358.91" x2="564.52" y2="358.91"/><rect class="cls-3" x="282.62" y="58.71" width="2" height="23.43"/><path class="cls-4" d="M414.78,299.85" transform="translate(-283.71 -200.03)"/><path class="cls-5" d="M409.74,271.77l124.82-66.58s7.4-6,14.14,0l126.85,68.28s4.52,1.28,5,11.31V390.42s-7.68,137-139.14,167.73c0,0-121-26.47-136.48-160.91V282.17S402,275.9,409.74,271.77Z" transform="translate(-283.71 -200.03)"/><path class="cls-6" d="M673.83,275.81,554.25,211.43c-6.36-5.63-13.33,0-13.33,0L500.52,233a14,14,0,0,1,3,3.62c6.76,11.71-4.92,31.11-26.1,43.34s-43.83,12.65-50.59.94a14.86,14.86,0,0,1-1.91-7.58l-1.69.9c-7.3,3.9-4.58,9.81-4.58,9.81V392.49c14.58,126.73,128.67,151.7,128.67,151.7,123.93-29,131.17-158.13,131.17-158.13V286.47C678.09,277,673.83,275.81,673.83,275.81Z" transform="translate(-283.71 -200.03)"/><path class="cls-2" d="M505.31,254.68,537,237.79s6.3-5.09,12,0l108,58.16s3.85,1.08,4.21,9.63v90s-6.53,116.68-118.49,142.85c0,0-103.07-22.55-116.24-137v-98s-2.45-5.34,4.14-8.86l8.13-4.33" transform="translate(-283.71 -200.03)"/><path class="cls-7" d="M442.73,261.88" transform="translate(-283.71 -200.03)"/><circle class="cls-8" cx="218.13" cy="92.22" r="7.6"/><circle class="cls-8" cx="201.13" cy="116.22" r="5.38"/><path class="cls-9" d="M489.27,379.84l21.83,39.79a9.38,9.38,0,0,0,13.58,3.18l82.71-57.62" transform="translate(-283.71 -200.03)"/><ellipse class="cls-10" cx="490.22" cy="460.62" rx="18.13" ry="25.8" transform="translate(-294.75 709.18) rotate(-85.04)"/><path class="cls-11" d="M620,422.72s-11.27,67.34-63,78.7c-27.68,6.08-24.94,12.84-16.43,17.81,10.5,6.13,22.17,2.26,34.09-.16,26.63-5.4,56.21-39.11,56.23-85.24C630.89,433.83,629.71,399.81,620,422.72Z" transform="translate(-283.71 -200.03)"/><path class="cls-12" d="M576.44,484.41l-3.26,5.75a15.42,15.42,0,0,0-1.41,7.93l-.1,22s-5.65,1.2-6.52,8.58v14.43a5.7,5.7,0,0,0,5,4.89l121.47-.11,42.22.11s4.13,0,5-5v-29.2s-.55-13.25-15.31-16.29l-20-.21-37.67-32.57s-2.5-2.82-7.92-2.5l-61,0s-8.9-.3-14.22,11.75" transform="translate(-283.71 -200.03)"/><path class="cls-12" d="M605,499.61" transform="translate(-283.71 -200.03)"/><path class="cls-12" d="M614.75,498.74h70.1a.14.14,0,0,0,.09-.24l-25.89-22.07a4,4,0,0,0-2.52-.92H599.67a3.15,3.15,0,0,0-3.15,3.15v16.93a4,4,0,0,0,4,4H605" transform="translate(-283.71 -200.03)"/><line class="cls-12" x1="346.24" y1="276.78" x2="346.24" y2="297.62"/><line class="cls-12" x1="357.04" y1="276.78" x2="357.04" y2="297.62"/><polyline class="cls-12" points="350.8 299.58 350.8 323.89 357.04 335.18"/><line class="cls-12" x1="389.01" y1="335.18" x2="282.2" y2="335.18"/><line class="cls-12" x1="398.13" y1="335.18" x2="453.71" y2="335.18"/><path class="cls-12" d="M736.27,506.05h-9.06s-6.08,1.81-5.43,6.58c0,0,.87,4.34,5,4.78h12.05" transform="translate(-283.71 -200.03)"/><line class="cls-12" x1="418.97" y1="299.58" x2="418.97" y2="334.09"/><path class="cls-12" d="M571.76,499.61h9.34a3.69,3.69,0,0,1,3.69,3.69v13.15a3.59,3.59,0,0,1-3.56,3.59l-9.56.08" transform="translate(-283.71 -200.03)"/><line class="cls-12" x1="300.21" y1="309.83" x2="288.01" y2="309.83"/><line class="cls-12" x1="358.83" y1="308.69" x2="367.08" y2="308.69"/><circle class="cls-12" cx="312.81" cy="341.91" r="16.72"/><circle class="cls-12" cx="312.81" cy="341.91" r="10.42"/><circle class="cls-12" cx="423.78" cy="341.91" r="16.72"/><circle class="cls-12" cx="423.78" cy="341.91" r="10.42"/></svg>