<svg width="508" height="454" viewBox="0 0 508 454" fill="none" xmlns="http://www.w3.org/2000/svg">
<ellipse cx="156" cy="436.5" rx="106" ry="15.5" fill="#ECECEC"/>
<ellipse cx="379.5" cy="449" rx="57.5" ry="5" fill="#ECECEC"/>
<path d="M209.306 86.987C211.936 89.497 214.126 94.987 214.656 98.627C215.276 102.907 213.236 106.817 211.976 110.777C210.306 115.997 212.736 117.867 215.786 121.987C218.436 125.557 220.146 130.217 217.056 134.067C213.966 137.917 208.056 139.917 207.596 145.707C207.256 150.177 212.536 152.927 211.736 157.597C211.026 161.757 206.286 166.357 203.546 169.317C202.016 170.977 201.126 172.677 198.936 171.607C197.596 170.957 195.936 168.907 194.936 167.797C191.166 163.457 189.616 157.337 187.666 152.017C183.536 140.757 183.436 129.177 184.336 117.317C184.766 111.677 184.146 106.067 188.206 101.607C191.371 98.3461 194.844 95.399 198.576 92.807C201.066 91.017 206.126 86.647 209.306 86.987Z" fill="#878686"/>
<path d="M184.556 70.7271C190.956 67.7271 201.056 70.5771 205.676 75.8271C210.106 80.8271 209.786 89.5071 209.786 95.7671C209.813 104.832 209.269 113.89 208.156 122.887C206.866 133.217 205.036 143.547 199.356 152.507C197.126 156.017 193.606 162.597 188.446 161.067C185.186 160.067 184.286 156.807 183.036 153.967C181.326 150.087 179.266 146.357 177.506 142.497C173.71 134.283 170.625 125.758 168.286 117.017C167.236 112.663 166.666 108.206 166.586 103.727C166.506 101.197 167.716 94.6771 165.966 92.7271C167.756 91.6571 166.616 90.2671 166.856 88.7271C166.986 87.8671 167.716 86.8371 167.856 85.8471C168.236 83.7171 168.086 83.0171 169.506 81.1871C171.066 79.1871 172.586 76.7772 174.596 75.1072C176.116 73.8672 178.486 72.0071 180.396 71.4871C182.306 70.9671 182.556 71.6571 184.556 70.7271Z" fill="#878686"/>
<path d="M174.346 75.8274C174.346 75.8274 153.196 81.3175 155.346 102.417C157.496 123.517 163.036 121.287 163.036 121.287C163.036 121.287 187.036 138.677 193.376 116.357C199.716 94.0375 189.586 71.6774 174.346 75.8274Z" fill="#603417"/>
<path d="M164.806 109.577C164.806 109.577 162.046 132.577 158.186 136.827C158.186 136.827 168.016 154.587 186.826 144.897C184.74 135.486 185.546 125.664 189.136 116.717C193.706 105.657 164.806 109.577 164.806 109.577Z" fill="#E18057"/>
<path d="M182.066 81.937C182.066 81.937 196.826 77.587 201.166 85.107C205.506 92.627 205.166 102.397 204.566 107.477C203.966 112.557 199.066 131.597 185.766 130.217C178.696 129.487 169.276 119.697 168.716 113.717C168.156 107.737 157.466 90.437 182.066 81.937Z" fill="#D8D7D6"/>
<g style="mix-blend-mode:multiply" opacity="0.32">
<path d="M192.836 148.407C192.836 148.407 183.266 170.347 187.886 185.407C192.506 200.467 201.416 214.017 203.236 219.347C205.056 224.677 214.326 261.727 214.326 261.727L227.926 260.567C227.926 260.567 224.196 218.497 220.996 207.937C217.796 197.377 204.276 158.387 192.836 148.407Z" fill="#999999"/>
</g>
<path d="M203.836 221.327C203.976 221.817 204.126 222.327 204.296 222.957C204.356 223.147 204.416 223.367 204.476 223.577C204.656 224.257 204.856 224.957 205.066 225.747L205.196 226.217L205.966 229.077C205.961 229.093 205.961 229.111 205.966 229.127C205.854 226.102 205.486 223.091 204.866 220.127C203.006 214.357 196.386 199.237 194.476 193.347C190.606 181.447 192.286 173.557 189.556 161.347C187.946 170.767 186.946 181.837 189.156 189.217C193.966 202.747 201.556 214.527 203.226 219.407C203.346 219.757 203.496 220.257 203.676 220.847L203.836 221.327Z" fill="#A5A4A3"/>
<path d="M214.806 420.797C213.446 418.187 204.406 418.027 202.886 417.727C197.206 416.597 185.096 411.947 185.306 405.917C185.306 405.827 171.926 410.997 171.926 410.997L170.096 421.997C169.426 425.667 173.606 427.777 175.096 427.857L176.266 427.917C181.816 428.217 185.786 428.917 191.336 429.237C194.526 429.407 208.666 429.727 211.706 429.317C213.696 429.047 217.136 425.297 214.806 420.797Z" fill="#7B7A7A"/>
<path d="M86.8361 437.347C87.2361 434.347 93.316 428.897 94.566 427.927C100.446 423.347 105.466 419.927 111.026 410.927C111.026 410.847 124.526 413.187 124.526 413.187L126.446 421.117C128.336 424.407 125.066 427.857 123.716 428.427L122.616 428.897C117.396 431.087 113.976 433.897 109.106 436.817C103.616 440.067 97.666 442.897 92.286 443.697C90.206 444.017 86.1361 442.457 86.8361 437.347Z" fill="#7B7A7A"/>
<path d="M177.756 232.697L132.866 217.017C132.866 217.017 119.766 238.917 120.246 255.887C120.726 272.857 115.066 313.217 115.066 322.697C115.066 332.177 108.826 410.947 108.826 410.947C114.611 413.258 120.901 414.007 127.066 413.117C127.066 413.117 138.796 332.747 138.306 326.267C137.816 319.787 153.786 260.577 153.786 260.577C153.786 260.577 163.246 313.507 164.336 320.057C165.426 326.607 171.136 412.057 171.136 412.057C171.136 412.057 182.416 413.147 188.486 408.057C188.486 408.057 187.826 330.647 186.376 323.847C184.926 317.047 179.926 241.217 177.756 232.697Z" fill="#666666"/>
<path d="M185.926 366.217C183.376 373.537 170.306 371.987 170.026 363.997C169.746 356.007 170.026 334.247 171.026 329.057C172.616 320.757 168.386 317.687 171.026 311.627C172.816 307.547 176.946 309.497 181.166 306.627C182.139 305.926 183.29 305.514 184.486 305.437C182.386 280.437 179.346 238.877 177.776 232.707L132.866 217.017C132.866 217.017 119.766 238.917 120.246 255.887C120.726 272.857 115.066 313.217 115.066 322.697C115.066 332.177 108.826 410.947 108.826 410.947C108.826 410.947 109.826 411.387 111.526 411.897C111.816 409.747 115.296 377.647 117.436 354.807C118.336 345.277 123.706 330.737 123.436 325.427C122.226 305.047 121.326 304.717 141.956 306.887C146.536 287.377 153.766 260.577 153.766 260.577C153.766 260.577 163.226 313.507 164.316 320.057C165.406 326.607 171.116 412.057 171.116 412.057C171.116 412.057 182.396 413.147 188.466 408.057C188.466 408.057 188.236 381.577 187.766 358.227C187.4 360.941 186.785 363.616 185.926 366.217Z" fill="#505050"/>
<path d="M178.486 223.607C178.416 217.017 202.196 163.547 198.556 158.817L191.956 146.817C191.956 146.817 165.016 137.357 163.956 137.357C162.896 137.357 148.666 153.007 148.666 153.007C148.666 153.007 135.296 202.167 131.556 214.527C127.816 226.887 112.636 236.357 111.176 294.967C111.176 294.967 147.176 308.437 191.986 296.427L178.486 223.607Z" fill="#CFCFCE"/>
<path d="M187.586 272.777C187.416 273.007 182.106 276.367 180.226 282.597C179.356 285.497 177.336 291.397 176.866 294.277C176.615 296.019 176.518 297.779 176.576 299.537C181.758 298.784 186.893 297.735 191.956 296.397L187.586 272.777Z" fill="#CFCFCE"/>
<g style="mix-blend-mode:multiply" opacity="0.32">
<path d="M184.406 143.217C183.076 151.367 176.856 169.817 173.906 183.427C170.686 198.287 161.146 233.337 159.606 252.307C159.056 259.137 156.456 272.787 155.986 301.307C157.766 301.307 159.566 301.217 161.396 301.127C157.396 247.217 175.886 179.937 186.066 143.757L184.406 143.217Z" fill="#999999"/>
</g>
<g style="mix-blend-mode:multiply" opacity="0.32">
<path d="M173.716 190.977C171.84 191.599 169.882 191.936 167.906 191.977C164.278 191.935 160.701 191.117 157.416 189.577C151.586 186.887 146.886 180.787 143.236 174.337C142.006 178.857 140.396 184.717 138.686 190.927C140.906 193.407 143.366 196.087 145.966 197.257C150.676 199.367 161.426 201.047 171.966 200.177C178.106 199.677 178.726 205.327 183.856 206.177C184.936 203.287 186.076 200.257 187.206 197.177C182.306 197.547 177.406 194.447 173.716 190.977Z" fill="#999999"/>
</g>
<g style="mix-blend-mode:multiply" opacity="0.32">
<path d="M139.066 241.217C142.816 230.807 140.516 220.287 143.426 210.137C146.106 200.797 149.956 191.827 150.426 182.017C150.896 172.207 149.596 162.117 149.316 152.237L148.586 153.037C148.586 153.037 135.216 202.197 131.476 214.557C127.736 226.917 112.556 236.387 111.096 294.997C117.371 297.093 123.82 298.626 130.366 299.577C128.586 276.367 134.966 252.537 139.066 241.217Z" fill="#999999"/>
</g>
<path d="M160.446 140.417C160.446 140.417 142.446 140.977 107.146 198.857C107.146 198.857 100.956 208.677 118.066 225.057C135.176 241.437 166.166 257.687 166.166 257.687L174.066 244.447C174.066 244.447 133.696 210.927 134.246 205.067C134.796 199.207 145.726 185.067 148.626 183.217C155.156 178.987 168.976 151.857 160.446 140.417Z" fill="#CFCFCE"/>
<g style="mix-blend-mode:multiply" opacity="0.32">
<path d="M138.256 235.807C128.606 227.567 110.476 216.887 110.166 202.807C109.986 194.757 118.236 185.197 120.636 178.247C116.456 184.157 111.966 190.967 107.146 198.877C107.146 198.877 100.956 208.697 118.066 225.077C135.176 241.457 166.166 257.707 166.166 257.707L167.626 255.257C156.746 247.597 148.196 244.287 138.256 235.807Z" fill="#999999"/>
</g>
<path d="M173.136 243.657L166.066 257.037C166.066 257.037 173.196 269.787 183.366 267.037C193.536 264.287 188.246 257.187 185.126 254.807C182.006 252.427 186.596 255.227 188.446 253.097C190.296 250.967 186.616 243.117 173.136 243.657Z" fill="#CCCCCB"/>
<path d="M166.456 110.777C169.596 114.887 169.546 117.087 173.286 121.717C176.346 125.497 178.116 127.407 183.866 129.457C186.681 130.299 189.7 130.147 192.416 129.027C193.676 128.337 196.496 132.227 197.726 137.337C199.386 144.177 195.276 152.777 187.896 152.037C178.336 151.087 166.356 144.927 162.616 135.547C160.066 128.997 163.576 116.817 166.456 110.777Z" fill="#7D7D7D"/>
<path d="M197.166 78.4871C196.516 78.4871 197.166 78.5771 196.796 78.4871C195.646 82.4871 194.136 85.6771 190.186 87.7771C186.636 89.6571 182.476 89.8971 178.976 91.6671C174.686 93.8271 172.976 96.6171 173.976 101.247C174.976 106.397 173.326 108.647 170.336 112.707C163.586 121.877 175.626 129.767 176.106 138.707C176.376 143.637 173.756 146.547 172.466 151.077C171.746 153.587 170.766 161.977 175.326 161.457C176.536 161.317 177.446 160.077 178.326 159.167C177.806 160.927 178.326 162.957 177.646 164.677C176.866 166.239 175.769 167.622 174.426 168.737C171.186 171.437 165.526 170.817 161.816 169.517C156.536 167.677 156.666 163.217 156.716 158.307C156.716 153.807 159.366 148.687 154.046 146.407C148.726 144.127 142.916 144.657 138.516 140.407C134.116 136.157 132.696 128.347 136.806 123.237C140.286 118.917 146.146 117.637 146.526 111.047C146.706 107.777 144.626 104.387 143.526 101.377C142.229 98.1387 142.014 94.5673 142.916 91.1971C144.019 87.411 145.58 83.774 147.566 80.3671C152.846 71.2071 161.466 63.5271 171.996 61.3671C175.936 60.5471 179.496 61.0971 183.406 61.9171C188.946 63.0671 196.706 65.3171 197.706 72.0071C198.006 74.3071 197.066 76.0971 197.166 78.4871Z" fill="#878686"/>
<path d="M186.976 71.947C187.286 77.567 192.976 84.687 197.176 88.397C200.556 91.397 206.466 91.857 208.066 96.187C212.936 93.677 216.686 91.337 216.336 85.287C216.108 80.256 214.491 75.3863 211.666 71.217C210.343 69.4427 208.631 67.9948 206.662 66.9843C204.693 65.9737 202.519 65.4274 200.306 65.387C194.906 65.107 192.436 67.327 188.856 70.667C188.226 71.217 187.266 71.677 186.976 71.947Z" fill="#878686"/>
<path d="M196.136 66.0773C192.151 64.8485 187.937 64.5494 183.818 65.2029C179.699 65.8564 175.785 67.4453 172.376 69.8473C165.006 74.7573 159.306 83.6173 159.296 92.6573C159.296 93.6573 159.416 94.6574 159.386 95.6074C161.246 95.6574 162.126 95.9574 162.576 94.1674C163.166 91.8974 163.006 89.4173 163.736 87.0673C165.056 82.8173 166.876 78.7374 170.146 75.6374C173.502 72.5902 177.399 70.1989 181.636 68.5873C184.826 67.2873 188.226 67.3873 191.516 66.8173C192.566 66.6373 195.736 67.2173 196.136 66.0773Z" fill="#CFCFCE"/>
<path d="M164.146 89.2175C158.976 86.9675 154.386 89.8175 152.016 94.2875C151.188 95.8637 150.784 97.628 150.844 99.4075C150.903 101.187 151.424 102.92 152.356 104.437C153.009 105.542 153.897 106.488 154.958 107.209C156.018 107.93 157.225 108.408 158.492 108.608C159.759 108.809 161.054 108.727 162.285 108.369C163.517 108.011 164.654 107.386 165.616 106.537C166.937 105.358 167.981 103.901 168.673 102.271C169.364 100.64 169.686 98.8771 169.616 97.1075C169.586 93.2175 167.576 90.6975 164.146 89.2175Z" fill="#CFCFCE"/>
<path d="M162.836 92.3273C159.386 90.8273 156.326 92.7173 154.756 95.6973C154.203 96.7486 153.934 97.9257 153.974 99.1128C154.014 100.3 154.363 101.456 154.986 102.467C155.422 103.201 156.014 103.83 156.72 104.309C157.426 104.789 158.229 105.106 159.072 105.24C159.915 105.374 160.778 105.32 161.597 105.083C162.417 104.846 163.175 104.43 163.816 103.867C164.694 103.079 165.387 102.107 165.846 101.019C166.304 99.9316 166.516 98.7563 166.466 97.5773C166.496 96.4303 166.16 95.3036 165.508 94.3599C164.855 93.4162 163.92 92.7044 162.836 92.3273Z" fill="#F0EFEF"/>
<path d="M428.966 251.957L429.026 252.257C429.566 255.147 429.206 258.017 430.106 260.817C431.106 264.027 433.336 265.157 436.476 265.947C440.476 266.947 445.476 270.587 446.316 274.877C447.026 278.587 446.496 283.757 444.536 287.057C442.986 289.677 440.646 291.967 439.626 294.847C438.226 298.767 440.996 299.037 443.526 300.847C444.608 301.719 445.483 302.82 446.09 304.07C446.697 305.32 447.02 306.688 447.036 308.077C447.116 309.817 447.156 311.207 446.166 312.637C445.176 314.067 444.096 314.937 443.716 316.637C443.276 318.208 443.469 319.888 444.256 321.317C445.256 322.747 446.586 322.617 447.716 323.727C451.586 327.517 449.416 335.277 443.796 335.907C441.316 336.187 439.796 334.277 438.196 332.707C435.845 330.584 433.745 328.198 431.936 325.597C428.836 320.827 426.686 315.167 423.986 310.097C422.606 307.507 421.636 304.287 419.186 302.507C416.386 300.507 413.186 300.037 410.936 296.997C407.776 292.667 405.936 286.847 404.086 281.887C402.269 276.866 401.619 271.497 402.186 266.187C402.996 260.577 406.926 255.137 411.186 251.637C413.186 250.007 415.516 248.827 417.646 247.397C419.396 246.217 422.566 244.167 424.746 245.287C426.926 246.407 428.476 249.737 428.966 251.957Z" fill="#878686"/>
<path d="M320.236 296.837L316.066 309.287C316.066 309.287 300.476 310.967 296.686 301.567C292.896 292.167 301.436 292.117 305.076 293.147C308.716 294.177 303.896 292.247 304.476 289.597C305.056 286.947 312.856 286.147 320.236 296.837Z" fill="#CCCCCB"/>
<path d="M416.836 262.297C416.836 262.297 414.446 282.057 416.896 286.417C416.896 286.417 404.636 299.297 390.296 287.417C394.057 280.017 395.414 271.626 394.176 263.417C392.506 253.217 416.836 262.297 416.836 262.297Z" fill="#D8D7D6"/>
<path d="M427.646 352.857H388.886C388.886 352.857 391.226 391.377 391.946 397.747C392.666 404.117 393.946 434.987 393.946 434.987H404.946C404.946 434.987 407.946 364.987 408.866 365.307C409.786 365.627 410.426 434.987 410.426 434.987L421.426 432.917C421.426 432.917 424.646 402.357 424.426 394.917C424.206 387.477 427.646 352.857 427.646 352.857Z" fill="#666666"/>
<g style="mix-blend-mode:multiply" opacity="0.32">
<path d="M402.386 287.907C402.386 287.907 388.306 290.227 381.756 293.137C375.206 296.047 362.836 306.487 359.676 306.247C356.516 306.007 319.336 295.617 319.336 295.617L314.066 309.397C314.066 309.397 350.396 325.397 358.226 325.397C365.506 325.397 389.406 312.537 393.896 309.397C398.386 306.257 405.786 291.407 402.386 287.907Z" fill="#999999"/>
</g>
<g style="mix-blend-mode:multiply" opacity="0.32">
<path d="M390.296 302.217C381.516 310.757 362.946 321.797 358.596 321.127C343.046 318.717 331.526 314.127 314.976 306.987L314.066 309.367C314.066 309.367 350.396 325.367 358.226 325.367C365.506 325.367 389.406 312.507 393.896 309.367C397.286 306.977 402.346 297.907 403.136 292.107C398.816 294.447 393.856 298.787 390.296 302.217Z" fill="#999999"/>
</g>
<path d="M417.186 286.347L395.066 287.907C395.066 287.907 381.476 312.317 381.476 330.267V373.707C381.476 373.707 397.006 391.907 438.256 373.707C438.256 373.707 438.256 336.827 436.556 323.477C434.856 310.127 424.956 289.507 417.186 286.347Z" fill="#CFCFCE"/>
<g style="mix-blend-mode:multiply" opacity="0.32">
<path d="M436.596 323.477C435.166 312.177 427.816 295.717 420.886 288.997C420.216 295.717 417.446 301.647 416.206 308.867C413.786 322.867 417.456 334.967 417.286 348.867C417.176 357.057 417.006 366.517 412.026 373.567C410.346 375.947 407.336 378.817 404.526 381.777C413.046 381.907 424.116 379.997 438.296 373.777C438.296 373.707 438.296 336.817 436.596 323.477Z" fill="#999999"/>
</g>
<path d="M437.566 368.127C429.956 372.127 418.796 372.968 410.326 372.978C402.766 372.978 394.576 369.797 387.766 367.687C383.766 366.457 378.646 367.307 379.086 372.687C379.416 376.757 382.766 380.207 386.316 381.967C394.536 386.057 404.956 386.517 414.016 386.517C421.756 386.517 429.556 385.877 436.116 381.717C437.344 380.95 438.38 379.912 439.145 378.683C439.911 377.455 440.387 376.068 440.536 374.627C440.884 372.95 440.949 371.226 440.726 369.527C440.196 367.217 439.626 367.047 437.566 368.127Z" fill="#F0EFEF"/>
<g style="mix-blend-mode:multiply" opacity="0.32">
<path d="M440.696 369.497C439.31 373.489 436.563 376.867 432.936 379.037C424.586 383.597 407.636 381.727 398.646 380.227C389.656 378.727 379.056 375.477 379.876 369.227C379.215 370.256 378.936 371.484 379.086 372.697C379.416 376.767 382.766 380.217 386.316 381.977C394.536 386.067 404.956 386.527 414.016 386.527C421.756 386.527 429.556 385.887 436.116 381.727C437.343 380.959 438.38 379.921 439.145 378.693C439.911 377.464 440.387 376.077 440.536 374.637C440.884 372.96 440.949 371.236 440.726 369.537C440.716 369.524 440.706 369.511 440.696 369.497Z" fill="#999999"/>
</g>
<path d="M399.256 295.327C399.256 295.327 394.256 338.037 395.186 370.067C395.186 370.067 399.256 330.997 399.256 295.327Z" fill="#878686"/>
<path d="M407.966 236.817C407.966 236.817 394.966 229.637 389.176 235.527C383.386 241.417 381.466 250.397 380.876 255.137C380.286 259.877 380.626 278.287 393.476 279.917C400.336 280.797 411.476 273.917 413.366 268.627C415.256 263.337 429.296 249.917 407.966 236.817Z" fill="#D8D7D6"/>
<path d="M408.796 229.867C406.866 231.027 397.976 235.167 397.686 237.177C397.206 240.497 396.406 238.297 397.686 241.407C398.756 244.047 408.816 252.777 408.816 255.717C408.816 256.767 407.896 258.987 408.986 259.587C410.466 260.387 411.366 257.687 412.266 256.977C414.616 255.147 418.396 257.177 417.146 260.407C416.226 262.797 412.386 264.317 410.426 265.357C411.206 266.257 411.586 267.897 412.676 268.637C414.276 269.717 416.516 268.287 417.776 267.047C421.776 263.107 423.466 256.547 423.876 251.167C424.464 245.08 422.648 239.004 418.816 234.237C416.516 231.327 413.356 228.567 409.506 230.177C408.996 230.387 409.236 229.607 408.796 229.867Z" fill="#878686"/>
<path d="M417.256 237.607C415.566 237.847 411.586 241.277 409.056 242.147C405.291 243.409 401.427 244.359 397.506 244.987C394.166 245.676 390.748 245.902 387.346 245.657C383.026 245.107 381.276 241.957 381.116 238.737C381.006 236.577 383.116 232.277 385.816 232.277C390.746 232.277 389.696 226.277 394.476 225.637C405.216 224.147 411.946 229.477 417.356 237.837C417.586 237.627 417.066 237.577 417.256 237.607Z" fill="#878686"/>
<path d="M417.406 220.688C416.906 217.688 419.406 213.998 421.406 212.028C422.688 210.898 424.203 210.065 425.843 209.588C427.483 209.111 429.209 209.002 430.896 209.267C438.266 210.487 440.576 217.588 436.806 223.628C434.806 226.888 429.926 229.308 425.986 228.478C423.25 227.697 420.754 226.243 418.726 224.248C417.116 222.708 417.746 222.758 417.406 220.688Z" fill="#636262"/>
<path d="M428.606 218.867C425.618 216.897 422.176 215.723 418.606 215.457C413.406 214.967 408.396 216.277 403.506 218.087C397.564 220.13 392.037 223.223 387.186 227.217C380.766 232.747 391.416 239.507 395.056 239.467C399.206 239.467 403.946 240.247 407.146 243.057C412.776 248.057 414.756 258.617 422.696 260.687C430.976 262.857 434.516 249.687 435.796 243.927C437.148 238.656 436.985 233.11 435.326 227.927C434.097 224.275 431.745 221.104 428.606 218.867Z" fill="#636262"/>
<path d="M412.466 231.647C405.696 227.647 396.816 224.507 390.306 223.997C381.616 223.307 380.776 232.067 381.706 233.907C383.346 237.117 387.856 239.137 391.706 240.057C405.036 243.207 414.776 258.617 422.706 260.687C424.096 261.057 426.846 261.557 427.976 261.167C432.886 259.447 434.876 251.897 431.376 248.047C424.906 240.867 418.836 235.437 412.466 231.647Z" fill="#636262"/>
<path d="M444.236 370.087L430.536 367.887C430.536 367.887 433.326 338.517 431.536 335.367C429.746 332.217 418.426 318.667 416.426 306.667C414.426 294.667 417.706 287.737 423.706 289.387C429.706 291.037 443.616 321.017 445.916 331.057C448.826 343.797 444.606 370.057 444.606 370.057L444.236 370.087Z" fill="#F0EFEF"/>
<path d="M432.126 365.887L443.786 367.887C443.786 367.887 447.436 381.527 439.606 386.207C431.776 390.887 430.536 383.287 430.936 379.897C431.336 376.507 430.306 381.067 427.866 380.897C425.426 380.727 423.636 373.947 432.126 365.887Z" fill="#CCCCCB"/>
<path d="M321.586 323.567C321.586 323.567 302.436 287.817 301.846 283.567C301.256 279.317 304.736 260.517 304.506 259.237C304.276 257.957 300.206 274.057 298.616 276.427C297.026 278.797 290.926 253.767 289.936 249.037C288.946 244.307 286.006 257.847 293.936 275.927C301.576 293.437 311.706 318.187 314.626 325.227C314.626 325.227 317.076 328.437 319.626 327.687C320.045 327.574 320.434 327.372 320.767 327.095C321.1 326.817 321.369 326.47 321.556 326.079C321.742 325.687 321.841 325.26 321.846 324.826C321.852 324.393 321.763 323.963 321.586 323.567Z" fill="#393529"/>
<path d="M235.336 446.707C272.483 446.707 302.596 419.558 302.596 386.067C302.596 352.577 272.483 325.427 235.336 325.427C198.19 325.427 168.076 352.577 168.076 386.067C168.076 419.558 198.19 446.707 235.336 446.707Z" fill="#F0EFEF"/>
<g style="mix-blend-mode:multiply" opacity="0.32">
<path d="M185.506 345.447C198.823 358.426 216.731 365.615 235.326 365.447C255.116 365.447 272.846 357.697 285.156 345.447C272.846 333.177 255.156 325.447 235.326 325.447C215.496 325.447 197.816 333.217 185.506 345.447Z" fill="#999999"/>
</g>
<g style="mix-blend-mode:multiply" opacity="0.32">
<path d="M283.616 418.837C265.236 427.577 233.406 429.147 216.156 416.647C193.236 400.037 178.726 369.747 186.396 344.647C175.066 355.407 168.066 369.997 168.066 386.077C168.066 419.567 198.176 446.717 235.316 446.717C263.466 446.717 287.546 431.107 297.576 408.987C293.49 413.009 288.774 416.336 283.616 418.837Z" fill="#999999"/>
</g>
<path d="M290.426 311.657C290.426 339.097 265.756 361.347 235.326 361.347C204.896 361.347 180.226 339.097 180.226 311.657C180.226 284.217 204.896 261.977 235.326 261.977C265.756 261.977 290.426 284.217 290.426 311.657Z" fill="#F0EFEF"/>
<g style="mix-blend-mode:multiply" opacity="0.32">
<path d="M281.726 336.067C270.306 342.797 256.276 346.397 243.006 345.157C209.626 342.047 182.836 314.037 193.536 279.527C193.536 279.467 193.536 279.397 193.536 279.337C185.076 287.978 180.3 299.565 180.216 311.657C180.216 339.097 204.886 361.347 235.316 361.347C256.706 361.347 275.196 350.347 284.316 334.277C283.466 334.877 282.666 335.517 281.726 336.067Z" fill="#999999"/>
</g>
<path d="M214.326 261.737L227.926 260.577C227.926 260.577 235.926 274.747 228.566 282.237C221.206 289.727 217.566 281.607 217.066 277.717C216.566 273.827 216.696 279.207 213.936 279.717C211.176 280.227 207.186 273.217 214.326 261.737Z" fill="#CCCCCB"/>
<path d="M440.206 441.977C439.306 440.237 433.296 440.127 432.286 439.977C429.486 439.417 427.086 437.577 424.666 434.977C423.836 434.097 425.426 413.907 425.466 412.877C425.466 412.817 410.206 412.297 410.206 412.297L410.516 442.767C410.076 445.207 412.846 446.607 413.796 446.657H414.576C418.256 446.857 420.896 447.337 424.576 447.537C426.696 447.647 436.086 447.857 438.106 447.537C439.466 447.457 441.756 444.957 440.206 441.977Z" fill="#505050"/>
<path d="M376.826 441.977C377.726 440.237 383.736 440.127 384.746 439.977C387.546 439.417 389.946 437.577 392.356 434.977C393.196 434.097 391.606 413.907 391.566 412.877C391.566 412.817 406.826 412.297 406.826 412.297L406.516 442.767C406.956 445.207 404.186 446.607 403.236 446.657H402.456C398.766 446.857 396.136 447.337 392.456 447.537C390.336 447.647 380.946 447.857 378.926 447.537C377.566 447.457 375.276 444.957 376.826 441.977Z" fill="#505050"/>
<path d="M418.826 269.547C414.826 269.897 410.736 272.897 406.946 274.277C403.156 275.657 398.786 277.507 394.756 277.737C391.446 277.927 388.146 278.317 386.836 281.917C385.366 285.977 387.736 290.137 391.306 292.107C395.906 294.647 400.676 294.847 405.906 294.847C410.956 294.847 416.486 294.647 421.236 292.697C426.236 290.697 427.186 283.767 426.336 279.007C425.736 275.717 424.946 271.007 421.416 269.687C420.589 269.369 419.683 269.32 418.826 269.547Z" fill="#7D7D7D"/>
<g style="mix-blend-mode:multiply" opacity="0.55">
<path d="M426.306 278.857C425.633 280.525 424.625 282.037 423.346 283.301C422.066 284.565 420.542 285.554 418.866 286.207C415.276 287.797 411.426 288.407 407.666 289.477C403.906 290.547 399.796 291.477 395.776 290.757C392.466 290.177 388.706 287.257 386.456 283.757C386.384 285.464 386.803 287.156 387.662 288.632C388.522 290.108 389.786 291.307 391.306 292.087C395.906 294.627 400.676 294.827 405.906 294.827C410.956 294.827 416.486 294.627 421.236 292.687C426.236 290.687 427.186 283.747 426.336 278.987L426.306 278.857Z" fill="#5E5F5F"/>
</g>
</svg>
