<svg width="584" height="589" viewBox="0 0 584 589" fill="none" xmlns="http://www.w3.org/2000/svg">
<g id="secure-shield">
<path id="Ellipse 10" d="M584 256C584 397.385 469.385 512 328 512C186.615 512 72 397.385 72 256C72 114.615 186.615 0 328 0C469.385 0 584 114.615 584 256Z" fill="#F7F7F7" fill-opacity="0.6"/>
<g id="shield">
<g id="Group">
<g id="Group_2">
<path id="Vector" d="M428.714 164.411C358.269 145.109 287.41 115.054 223.797 77.4963C220.418 75.5013 216.225 75.5013 212.847 77.4963C147.399 116.133 80.369 144.562 7.924 164.411C3.244 165.692 0 169.946 0 174.799V284.845C0 398.168 52.279 473.18 96.137 516.151C143.353 562.416 198.353 588.001 218.322 588.001C238.289 588.001 293.289 562.416 340.505 516.151C384.362 473.181 436.638 398.169 436.638 284.845V174.798C436.638 169.946 433.394 165.692 428.714 164.411ZM415.098 284.844C415.098 390.687 366.337 460.682 325.429 500.764C278.998 546.259 229.355 566.459 218.322 566.459C207.289 566.459 157.643 546.259 111.211 500.764C70.304 460.681 21.541 390.687 21.541 284.844V182.974C90.819 163.304 155.337 135.853 218.324 99.2502C279.738 134.882 347.475 163.698 415.098 182.97V284.844Z" fill="#A3A3A3"/>
<path id="Vector_2" d="M122.857 181.769C120.677 176.234 114.424 173.515 108.888 175.696C89.648 183.277 69.9 190.255 50.193 196.437C45.702 197.847 42.646 202.007 42.646 206.713V248.304C42.646 254.252 47.469 259.074 53.416 259.074C59.363 259.074 64.186 254.252 64.186 248.304V214.584C81.865 208.864 99.525 202.537 116.784 195.736C122.319 193.557 125.038 187.304 122.857 181.769Z" fill="#A3A3A3"/>
<path id="Vector_3" d="M143.316 183.812C144.761 183.812 146.228 183.521 147.635 182.907L147.833 182.821C153.282 180.433 155.736 174.09 153.348 168.643C150.958 163.194 144.579 160.729 139.136 163.115L138.962 163.19C133.51 165.571 131.048 171.909 133.429 177.359C135.196 181.405 139.161 183.812 143.316 183.812Z" fill="#A3A3A3"/>
<path id="Vector_4" d="M346.641 423.283C341.664 420.03 334.99 421.429 331.733 426.408C322.858 439.992 312.446 453 300.782 465.067C291.19 474.989 280.796 484.237 269.889 492.552C265.16 496.158 264.25 502.916 267.855 507.647C269.976 510.426 273.183 511.888 276.427 511.888C278.705 511.888 281 511.169 282.95 509.681C294.715 500.71 305.925 490.737 316.267 480.039C328.878 466.995 340.148 452.915 349.766 438.19C353.021 433.21 351.62 426.536 346.641 423.283Z" fill="#A3A3A3"/>
<path id="Vector_5" d="M244.877 509.443L244.259 509.807C239.112 512.788 237.353 519.376 240.333 524.523C242.33 527.973 245.945 529.899 249.664 529.899C251.494 529.899 253.352 529.432 255.049 528.447L255.762 528.028C260.895 525.022 262.619 518.425 259.613 513.292C256.605 508.161 250.007 506.44 244.877 509.443Z" fill="#A3A3A3"/>
<path id="Vector_6" d="M144.908 310.019C138.295 303.405 129.5 299.765 120.146 299.765C110.792 299.765 101.996 303.406 95.3799 310.019C81.7269 323.675 81.7269 345.895 95.3799 359.55L158.976 423.144C165.59 429.756 174.385 433.397 183.74 433.397C193.095 433.397 201.89 429.756 208.505 423.142L341.266 290.38C354.918 276.721 354.918 254.504 341.264 240.853C334.65 234.239 325.855 230.599 316.499 230.599C307.144 230.599 298.349 234.24 291.734 240.853L183.739 348.848L144.908 310.019ZM306.966 256.085C309.511 253.54 312.898 252.139 316.5 252.139C320.104 252.139 323.488 253.54 326.035 256.085C331.29 261.34 331.29 269.894 326.033 275.151L193.274 407.911C190.729 410.456 187.342 411.857 183.74 411.857C180.138 411.857 176.751 410.456 174.205 407.911L110.611 344.319C105.354 339.062 105.354 330.508 110.609 325.253C113.155 322.708 116.542 321.305 120.145 321.305C123.748 321.305 127.133 322.706 129.678 325.251L176.123 371.697C178.144 373.716 180.882 374.851 183.739 374.851C186.596 374.851 189.334 373.717 191.353 371.697L306.966 256.085Z" fill="#A3A3A3"/>
</g>
</g>
</g>
</g>
</svg>
