<svg width="712" height="476" viewBox="0 0 712 476" fill="none" xmlns="http://www.w3.org/2000/svg">
<ellipse cx="606" cy="471" rx="55" ry="4" fill="#ECECEC"/>
<ellipse cx="511.5" cy="472" rx="27.5" ry="2" fill="#ECECEC"/>
<ellipse cx="139.5" cy="458.5" rx="137.5" ry="4.5" fill="#ECECEC"/>
<path d="M583.136 91.8872C583.136 91.8872 562.016 100.087 566.726 121.557C571.436 143.027 576.926 140.067 576.926 140.067C576.926 140.067 603.726 155.067 607.576 131.337C611.426 107.607 598.316 85.7772 583.136 91.8872Z" fill="#CCCCCB"/>
<path d="M178.686 368.657H170.216V413.897H178.686V368.657Z" fill="#636364"/>
<path d="M128.206 366.577H119.736V411.817H128.206V366.577Z" fill="#878686"/>
<path d="M577.376 127.787C577.376 127.787 577.296 151.787 573.846 156.637C573.846 156.637 586.106 173.747 604.306 161.497C601.032 152.057 600.683 141.848 603.306 132.207C606.656 120.267 577.376 127.787 577.376 127.787Z" fill="#878686"/>
<path d="M289.766 357.277C287.416 357.597 281.636 366.757 280.996 367.837C279.791 369.792 277.921 371.247 275.729 371.934C273.538 372.621 271.172 372.494 269.066 371.577L268.846 371.497L264.326 383.657L278.576 391.557C281.186 393.057 283.916 390.457 284.366 389.387L284.726 388.517C286.456 384.377 288.076 381.517 289.796 377.417C290.796 375.047 294.846 364.417 295.356 361.967C295.746 360.337 293.816 356.717 289.766 357.277Z" fill="#392B38"/>
<path d="M241.266 413.937C241.266 413.777 236.576 398.727 228.266 386.577C227.506 385.467 221.596 379.687 179.626 374.577C157.146 371.847 135.476 370.667 135.256 370.657L135.616 362.067C135.836 362.067 157.736 363.267 180.436 366.067C227.736 371.817 232.436 378.727 234.256 381.327C243.376 394.637 248.256 410.487 248.456 411.157L241.266 413.937Z" fill="#878686"/>
<path d="M217.286 315.217L227.066 326.627C227.066 326.627 244.336 321.787 244.376 310.197C244.416 298.607 235.306 302.197 231.886 304.817C228.466 307.437 232.756 303.357 231.016 300.817C229.276 298.277 220.596 300.687 217.286 315.217Z" fill="#CCCCCB"/>
<path d="M140.366 327.867C140.366 327.867 150.596 351.867 164.066 351.067C172.476 350.567 187.816 351.417 196.156 349.317C204.496 347.217 209.806 341.667 227.016 326.627L217.286 315.217C217.286 315.217 190.766 334.817 187.636 336.097C184.506 337.377 151.716 332.567 140.366 327.867Z" fill="#F0EFEF"/>
<g style="mix-blend-mode:multiply">
<path d="M190.156 345.567C169.836 346.467 161.156 345.387 147.026 339.267C150.496 344.917 156.246 351.537 164.026 351.067C172.436 350.567 187.776 351.417 196.116 349.317C204.006 347.317 209.196 342.247 224.276 328.987C213.356 333.127 197.686 345.217 190.156 345.567Z" fill="#CFCFCE"/>
</g>
<path d="M292.886 410.217C292.886 410.217 464.666 297.217 467.946 303.877C471.226 310.537 347.526 410.217 347.526 410.217H343.206C343.206 410.217 466.716 306.977 464.846 306.327C462.976 305.677 295.436 411.817 295.436 411.817L292.886 410.217Z" fill="#595A5A"/>
<path d="M659.446 460.217C657.646 456.747 640.196 452.827 638.166 452.417C630.606 450.927 625.486 443.997 625.766 435.987C625.766 435.867 625.766 435.737 625.766 435.597L604.356 435.307L599.936 461.837C599.046 466.717 604.606 469.527 606.516 469.627L608.076 469.717C615.456 470.107 620.746 471.067 628.126 471.467C632.376 471.697 651.196 472.117 655.236 471.577C657.976 471.217 662.546 466.217 659.446 460.217Z" fill="#7B7A7A"/>
<path d="M541.776 462.307C541.016 458.477 525.346 449.847 523.506 448.887C516.666 445.357 513.686 437.277 516.186 429.657L516.306 429.297L495.876 424.647L484.186 447.297C481.976 451.737 486.526 455.977 488.336 456.607L489.816 457.127C496.816 459.567 501.606 461.957 508.586 464.397C512.586 465.797 530.586 471.397 534.586 472.047C537.306 472.457 543.066 468.927 541.776 462.307Z" fill="#7B7A7A"/>
<path d="M551.546 277.427H597.626C597.626 277.427 630.786 349.867 632.876 354.747C634.966 359.627 626.066 439.557 626.066 439.557H603.666C603.666 439.557 604.176 400.857 603.666 386.887C603.216 374.197 610.406 364.057 611.096 359.887C611.786 355.717 578.186 320.997 576.556 320.297C574.926 319.597 563.856 364.487 560.826 369.137C557.796 373.787 515.366 436.217 515.366 436.217L493.526 427.797C493.526 427.797 516.136 385.517 520.266 377.217C528.266 361.027 540.546 360.817 542.996 356.627C545.446 352.437 542.526 309.867 543.996 302.567C545.952 294.029 548.474 285.63 551.546 277.427Z" fill="#A5A4A3"/>
<path d="M530.916 372.467C541.246 364.467 546.126 364.307 547.686 358.467C552.036 342.267 545.296 311.467 558.416 298.557C563.506 293.557 576.496 295.057 582.296 294.217C589.536 293.217 596.606 292.047 603.616 290.497L597.616 277.407H551.546C548.498 285.615 545.999 294.017 544.066 302.557C542.556 309.857 545.466 352.427 543.066 356.617C540.666 360.807 528.306 361.017 520.266 377.217C516.136 385.527 493.526 427.837 493.526 427.837L498.236 429.657C503.176 420.997 519.606 381.217 530.916 372.467Z" fill="#878686"/>
<path d="M609.346 439.557C604.346 375.557 614.926 362.557 614.406 359.927C611.916 347.257 597.406 327.697 582.356 314.787C579.136 312.027 576.356 309.667 574.686 313.537C570.086 323.907 566.606 337.987 565.276 356.377C569.666 341.637 575.436 319.797 576.576 320.277C578.206 320.977 611.816 355.677 611.116 359.867C610.416 364.057 603.236 374.197 603.686 386.867C604.176 400.867 603.686 439.537 603.686 439.537L609.346 439.557Z" fill="#878686"/>
<path d="M675.116 289.657L665.226 302.657C665.226 302.657 674.416 319.877 686.756 317.197C699.096 314.517 693.156 305.677 689.546 302.657C685.936 299.637 691.296 303.237 693.616 300.797C695.936 298.357 691.296 289.767 675.116 289.657Z" fill="#CCCCCB"/>
<path d="M474.226 290.947L460.066 282.817C460.066 282.817 444.166 294.147 448.406 306.037C452.646 317.927 460.656 310.897 463.186 306.927C465.716 302.957 462.836 308.737 465.556 310.737C468.276 312.737 476.196 307.007 474.226 290.947Z" fill="#CCCCCB"/>
<path d="M605.306 160.477C605.306 160.477 595.566 203.817 600.096 217.777C604.626 231.737 614.146 244.617 620.566 256.637C624.966 264.907 644.826 283.177 665.226 302.687L675.116 289.687C675.116 289.687 642.306 253.167 640.206 250.147C638.106 247.127 617.636 177.117 605.306 160.477Z" fill="#F0EFEF"/>
<path d="M605.176 158.537C601.266 162.007 597.006 164.207 590.986 163.967C584.356 163.717 577.686 159.487 572.816 154.967C565.586 162.387 541.026 171.137 541.026 171.137C541.026 171.137 541.306 203.007 542.936 212.787C544.566 222.567 537.816 280.507 537.816 280.507C581.566 294.937 608.556 281.947 608.556 281.947C608.096 273.367 610.886 210.947 611.936 200.797C612.916 191.357 606.066 162.417 605.176 158.537Z" fill="#CFCFCE"/>
<g style="mix-blend-mode:multiply" opacity="0.32">
<path d="M555.676 285.108C555.346 283.358 553.466 282.297 553.296 280.237C553.186 279.047 553.906 275.827 555.686 275.957C550.036 275.547 544.416 265.867 549.876 261.897C552.554 260.018 555.529 258.601 558.676 257.707C560.936 257.037 563.756 255.707 566.126 255.767C564.816 254.097 562.686 252.818 561.126 251.288C558.759 248.878 556.69 246.192 554.966 243.288C552.706 239.668 550.126 235.527 549.756 231.177C549.126 223.797 555.326 221.387 559.626 217.047C557.626 216.737 554.546 216.047 552.966 214.737C551.126 213.187 552.296 211.407 553.256 209.557C555.256 205.627 555.066 202.318 554.406 198.008C553.406 191.348 555.186 184.328 557.816 178.258C558.545 176.359 559.642 174.624 561.044 173.152C562.446 171.679 564.126 170.498 565.986 169.677C569.516 168.007 571.756 167.558 575.396 168.568C578.856 169.568 582.916 169.707 586.486 170.267C590.024 170.941 593.64 171.113 597.226 170.777C598.416 170.617 607.426 168.407 607.076 166.777C606.186 162.707 605.456 159.598 605.196 158.508C601.286 161.978 597.026 164.177 591.006 163.938C584.376 163.688 577.706 159.457 572.836 154.938C565.606 162.358 541.046 171.108 541.046 171.108C541.046 171.108 541.326 202.978 542.956 212.758C544.586 222.538 537.836 280.478 537.836 280.478C543.659 282.463 549.622 284.011 555.676 285.108Z" fill="#999999"/>
</g>
<path d="M457.066 282.817L474.536 293.217C474.536 293.217 497.796 247.607 501.286 243.657C504.776 239.707 538.286 213.987 542.596 210.657C546.906 207.327 559.236 177.847 543.516 171.087C533.066 166.647 484.066 230.937 483.596 231.587C483.126 232.237 457.066 282.817 457.066 282.817Z" fill="#F0EFEF"/>
<path d="M589.486 97.4675C589.486 97.4675 605.486 90.6675 611.286 98.5175C617.086 106.367 618.066 117.367 618.066 123.127C618.066 128.887 615.066 150.877 600.066 151.057C592.066 151.157 580.216 141.427 578.806 134.797C577.396 128.167 563.066 110.217 589.486 97.4675Z" fill="#D8D7D6"/>
<path d="M608.246 96.2872C608.246 96.2872 606.476 109.747 589.076 112.767C589.076 112.767 587.386 117.197 590.076 127.317C590.076 127.317 589.376 133.017 585.886 128.717C582.396 124.417 584.256 116.187 578.676 117.797C573.096 119.407 575.416 125.577 580.416 131.507C579.451 133.496 578.331 135.405 577.066 137.217C577.066 137.217 562.066 124.877 566.066 102.537C570.066 80.1972 608.636 83.9872 608.246 96.2872Z" fill="#CCCCCB"/>
<path d="M577.386 88.837C577.386 88.837 604.486 110.907 617.386 108.697C617.386 108.697 622.566 90.847 604.386 85.777C598.476 84.157 584.246 81.967 577.386 88.837Z" fill="#CCCCCB"/>
<path d="M562.836 108.857C562.836 108.857 559.836 82.2773 572.436 75.1973C593.136 63.6173 613.066 87.2173 613.066 87.2173C613.066 87.2173 576.066 110.717 562.836 108.857Z" fill="#878686"/>
<path d="M615.336 88.777C613.929 86.7063 612.128 84.9326 610.036 83.557C609.218 83.1323 608.287 82.9782 607.376 83.117C594.266 95.837 581.376 101.537 563.036 103.617C562.319 104.4 561.908 105.415 561.876 106.477C561.705 109.168 561.965 111.868 562.646 114.477C563.006 115.537 563.743 116.428 564.716 116.981C565.689 117.534 566.831 117.71 567.926 117.477C576.786 115.777 601.456 109.867 614.926 94.947C615.686 94.1187 616.141 93.0559 616.216 91.9341C616.291 90.8123 615.98 89.6986 615.336 88.777Z" fill="#878686"/>
<path d="M603.476 151.327C602.476 150.907 599.956 152.067 598.706 152.127C596.442 152.274 594.173 152.301 591.906 152.207C588.226 151.987 584.846 150.837 581.496 150.117C580.843 149.675 580.103 149.379 579.326 149.247C579.126 149.137 579.156 149.117 578.926 149.107C578.938 149.082 578.945 149.055 578.945 149.027C578.945 149 578.938 148.972 578.926 148.947C578.016 148.797 577.256 147.757 576.276 147.597C576.116 147.357 575.376 146.457 575.046 146.367C574.046 146.107 573.716 147.267 573.296 148.057C572.296 149.997 570.626 152.057 569.936 154.177C568.426 158.787 575.836 162.177 578.876 163.987C584.046 167.137 590.456 167.067 596.116 166.517C599.756 166.167 606.226 164.627 606.926 160.367C607.356 157.627 607.146 152.877 603.476 151.327Z" fill="#909191"/>
<path d="M119.136 323.847C121.192 324.71 123.299 325.445 125.446 326.047C130.598 327.234 135.958 327.182 141.086 325.897C139.351 320.039 138.978 313.862 139.996 307.837C141.776 297.837 118.536 306.337 118.536 306.337C119.084 312.157 119.284 318.004 119.136 323.847Z" fill="#A4A49E"/>
<path d="M127.316 282.077C127.316 282.077 139.316 275.477 144.536 281.187C149.756 286.897 151.406 295.817 152.536 300.187C154.596 307.977 153.416 320.487 141.626 321.807C135.336 322.517 121.506 315.137 119.876 310.027C118.246 304.917 107.556 294.147 127.316 282.077Z" fill="#D8D7D6"/>
<path d="M131.866 287.267C132.206 290.607 131.266 292.487 130.276 295.497C129.793 296.921 129.629 298.433 129.796 299.927C129.936 301.207 130.606 302.727 130.346 304.047C130.086 305.367 129.116 306.537 127.906 305.567C127.056 304.887 126.606 303.117 125.906 302.247C123.676 299.637 120.746 299.577 118.846 302.597C116.476 306.357 120.746 306.857 121.366 309.897C121.496 310.567 121.116 313.477 120.676 313.957C119.676 315.067 115.596 314.667 114.486 314.147C110.416 312.207 108.996 307.557 106.916 303.577C105.656 301.147 103.976 298.507 103.976 295.667C104.164 292.378 105.228 289.198 107.056 286.457C112.826 277.667 130.766 276.217 131.866 287.267Z" fill="#CCCCCB"/>
<path d="M121.916 284.217C127.696 288.647 133.916 292.597 141.596 291.547C145.369 290.895 148.819 289.01 151.406 286.187C153.916 283.577 154.516 280.187 154.996 276.887C155.136 275.967 150.496 276.397 148.676 275.977C145.176 275.197 141.206 272.907 137.846 274.387C134.246 275.967 132.846 280.307 129.166 281.607C127.006 282.377 123.886 284.217 121.916 284.217Z" fill="#CCCCCB"/>
<path d="M102.226 292.507C102.226 292.507 90.3361 267.037 99.2861 259.717C113.456 248.147 135.546 269.717 135.546 269.717C135.546 269.717 112.916 291.927 102.226 292.507Z" fill="#878686"/>
<path d="M140.736 270.387C139.273 268.917 137.537 267.745 135.626 266.937C134.915 266.72 134.152 266.745 133.456 267.007C125.286 279.877 115.886 287.007 101.236 292.007C100.763 292.826 100.583 293.782 100.726 294.717C101.007 297.105 101.645 299.438 102.616 301.637C103.041 302.502 103.788 303.165 104.696 303.487C105.604 303.808 106.602 303.762 107.476 303.357C114.476 300.227 133.566 290.617 141.526 275.557C141.963 274.724 142.122 273.773 141.98 272.843C141.838 271.912 141.402 271.052 140.736 270.387Z" fill="#878686"/>
<path d="M102.296 255.217C102.296 256.404 101.944 257.564 101.285 258.551C100.626 259.537 99.6886 260.306 98.5922 260.761C97.4959 261.215 96.2895 261.334 95.1256 261.102C93.9617 260.87 92.8926 260.299 92.0535 259.46C91.2144 258.621 90.6429 257.552 90.4114 256.388C90.1799 255.224 90.2987 254.018 90.7529 252.921C91.207 251.825 91.976 250.888 92.9627 250.228C93.9494 249.569 95.1095 249.217 96.2961 249.217C97.8874 249.217 99.4136 249.849 100.539 250.975C101.664 252.1 102.296 253.626 102.296 255.217Z" fill="#878686"/>
<g style="mix-blend-mode:multiply" opacity="0.76">
<path d="M99.2962 257.897C98.3297 257.92 97.3725 257.704 96.5096 257.268C95.6466 256.832 94.9044 256.19 94.3487 255.399C93.7929 254.608 93.4408 253.692 93.3235 252.732C93.2062 251.773 93.3273 250.799 93.6762 249.897C92.7745 250.317 91.9914 250.955 91.3972 251.752C90.803 252.55 90.4163 253.482 90.272 254.466C90.1277 255.45 90.2302 256.455 90.5704 257.389C90.9106 258.324 91.4778 259.159 92.221 259.82C92.9641 260.481 93.8599 260.947 94.8277 261.176C95.7956 261.405 96.8051 261.389 97.7656 261.131C98.7261 260.873 99.6073 260.38 100.33 259.697C101.053 259.014 101.594 258.162 101.906 257.217C101.101 257.643 100.207 257.876 99.2962 257.897Z" fill="#878686"/>
</g>
<path d="M179.386 366.377C179.386 366.377 222.996 346.377 227.576 346.557C232.156 346.737 273.276 371.157 273.276 371.157L265.896 387.057C265.896 387.057 230.376 371.127 225.096 370.957C219.816 370.787 189.966 395.147 177.356 391.847C169.873 389.92 163.168 385.729 158.156 379.847L179.386 366.377Z" fill="#878686"/>
<path d="M286.596 377.037C284.116 376.757 275.846 384.627 274.916 385.567C273.183 387.242 270.906 388.238 268.5 388.376C266.094 388.514 263.719 387.783 261.806 386.317L261.606 386.177L253.856 397.427L266.376 409.217C268.646 411.417 272.106 409.467 272.846 408.487C273.036 408.217 273.236 407.957 273.436 407.687C276.266 403.917 278.646 401.447 281.436 397.687C283.066 395.517 289.956 385.687 291.096 383.337C291.906 381.707 290.876 377.507 286.596 377.037Z" fill="#392B38"/>
<path d="M167.646 365.917L140.366 389.047C140.366 389.047 154.286 410.277 169.156 404.587C184.026 398.897 213.936 376.277 218.536 377.917C223.136 379.557 256.616 402.217 256.616 402.217L268.226 384.777C268.226 384.777 235.226 359.777 224.366 356.667C213.506 353.557 177.266 374.437 167.646 365.917Z" fill="#A5A4A3"/>
<path d="M141.316 327.717C141.316 327.717 120.656 330.997 117.996 330.127C115.717 334.664 114.502 339.66 114.441 344.737C114.38 349.814 115.476 354.837 117.646 359.427C125.076 375.297 139.036 392.727 148.896 398.697C148.896 398.697 173.486 380.387 178.366 365.547C178.366 365.547 151.676 331.477 141.316 327.717Z" fill="#CFCFCE"/>
<path d="M201.116 348.507L210.116 360.507C210.116 360.507 227.646 356.747 228.416 345.187C229.186 333.627 219.866 336.617 216.276 339.037C212.686 341.457 217.276 337.637 215.666 334.967C214.056 332.297 205.316 334.217 201.116 348.507Z" fill="#CCCCCB"/>
<path d="M202.146 345.937L211.146 360.247C211.146 360.247 171.796 387.247 163.286 385.727C154.776 384.207 115.586 360.127 120.286 341.357C121.676 335.797 127.476 334.037 132.976 336.777C146.056 343.277 164.426 366.837 167.976 364.667C173.066 361.597 202.146 345.937 202.146 345.937Z" fill="#F0EFEF"/>
<path d="M164.986 376.317C145.066 376.157 131.166 358.217 121.446 342.397C119.136 360.397 155.316 382.497 163.346 383.927C170.286 385.167 198.266 366.927 207.016 361.067C207.066 361.067 178.696 376.427 164.986 376.317Z" fill="#CFCFCE"/>
<path d="M159.106 368.657H150.636V413.897H159.106V368.657Z" fill="#878686"/>
<path d="M217.866 413.937C217.866 413.777 213.186 398.197 204.866 385.627C204.106 384.477 198.196 378.507 156.226 373.227C133.746 370.397 108.376 369.227 108.156 369.167L108.516 360.277C108.736 360.277 134.336 361.517 157.036 364.377C204.336 370.377 209.036 377.467 210.856 380.157C219.986 393.937 224.856 410.337 225.056 411.027L217.866 413.937Z" fill="#878686"/>
<path d="M109.536 360.277H101.756V413.897H109.536V360.277Z" fill="white"/>
<path d="M278.866 454.607H269.736L257.076 411.817H266.206L278.866 454.607Z" fill="#F0EFEF"/>
<path d="M155.926 454.607H165.056L177.706 411.817H168.586L155.926 454.607Z" fill="#F0EFEF"/>
<g style="mix-blend-mode:multiply" opacity="0.75">
<path d="M271.656 430.217L266.206 411.817H257.076L262.526 430.217H271.656Z" fill="#CECECD"/>
</g>
<g style="mix-blend-mode:multiply" opacity="0.75">
<path d="M172.266 430.217L177.716 411.817H168.586L163.136 430.217H172.266Z" fill="#CECECD"/>
</g>
<path d="M134.436 451.007H284.686C292.79 451.067 300.835 449.63 308.416 446.767C320.576 442.037 334.476 432.177 334.476 411.817H345.986C345.986 411.817 347.576 458.647 286.456 458.647H134.456L134.436 451.007Z" fill="#F0EFEF"/>
<g style="mix-blend-mode:multiply" opacity="0.75">
<path d="M341.926 429.957C344.51 424.254 345.892 418.079 345.986 411.817H334.476C334.593 418.178 332.972 424.45 329.786 429.957H341.926Z" fill="#CECECD"/>
</g>
<path d="M325.046 412.427H128.776H106.286V423.507H128.776H325.046H347.526V412.427H325.046Z" fill="#636364"/>
<path d="M352.066 406.887H125.086V417.967H352.066V406.887Z" fill="#515150"/>
<path d="M249.836 456.067H240.396L227.306 411.817H236.746L249.836 456.067Z" fill="#878686"/>
<path d="M123.976 456.067H133.416L146.506 411.817H137.066L123.976 456.067Z" fill="#878686"/>
<path d="M242.276 430.487L236.746 411.817H227.306L232.836 430.487H242.276Z" fill="#878686"/>
<path d="M140.986 430.487L146.506 411.817H137.066L131.546 430.487H140.986Z" fill="#878686"/>
<path d="M101.756 452.347H257.136C265.514 452.409 273.83 450.921 281.666 447.957C294.246 443.067 308.666 432.877 308.666 411.817H320.566C320.566 411.817 322.166 460.217 258.966 460.217H101.756V452.347Z" fill="#878686"/>
<path d="M316.416 430.357C319.03 424.52 320.428 418.212 320.526 411.817H308.626C308.744 418.31 307.11 424.715 303.896 430.357H316.416Z" fill="#878686"/>
<path d="M328.736 406.887H101.756V417.967H328.736V406.887Z" fill="#878686"/>
<path d="M126.906 323.127C125.366 322.957 123.336 323.757 121.756 323.787C120.176 323.817 118.646 323.407 117.586 323.497C115.826 322.357 112.716 322.317 110.586 322.107C107.792 321.794 104.97 322.353 102.506 323.707C99.396 325.377 96.966 327.997 93.816 329.557C89.316 331.797 83.736 332.337 78.816 332.337C76.3679 332.403 73.9237 332.1 71.566 331.437C71.406 333.167 71.356 335.337 71.036 337.197C70.746 338.827 69.836 340.627 70.036 342.197C74.426 343.707 80.306 342.957 84.786 342.117C89.9005 341.278 94.7723 339.34 99.066 336.437C102.726 333.857 105.646 330.277 109.816 328.437C113.656 326.727 118.086 326.347 122.166 325.787C124.446 325.447 126.596 325.577 126.906 323.127Z" fill="#CCCCCB"/>
<g style="mix-blend-mode:multiply" opacity="0.76">
<path d="M118.946 323.587C115.428 323.991 111.933 324.579 108.476 325.347C100.966 327.437 96.8961 333.197 89.9261 336.477C86.9902 337.884 83.7939 338.664 80.5402 338.769C77.2866 338.874 74.0466 338.301 71.0261 337.087C71.0306 337.124 71.0306 337.161 71.0261 337.197C70.7361 338.827 69.8361 340.627 70.0261 342.197C74.4161 343.707 80.2961 342.957 84.7761 342.117C89.894 341.279 94.7694 339.341 99.0661 336.437C102.726 333.857 105.646 330.277 109.816 328.437C113.656 326.727 118.086 326.347 122.166 325.787C124.426 325.467 126.576 325.597 126.886 323.147C125.346 322.977 123.316 323.777 121.736 323.807C120.803 323.79 119.871 323.717 118.946 323.587Z" fill="#CCCCCB"/>
</g>
<path d="M125.296 325.217C123.216 324.507 120.036 325.297 117.946 325.767C115.347 326.237 112.808 326.995 110.376 328.027C105.516 330.327 103.266 335.157 100.436 339.407C97.8462 343.277 95.1562 346.527 91.0862 348.907C87.0162 351.287 82.3962 351.207 78.0862 352.437C78.5762 354.777 80.0862 357.237 80.8862 359.577C81.1162 360.267 81.3562 362.697 81.8862 363.057C83.0362 363.807 86.5262 362.057 87.5562 361.627C91.9459 359.855 96.0685 357.482 99.8062 354.577C103.276 351.827 105.896 347.177 107.596 343.167C109.816 337.967 110.296 333.097 115.086 329.457C116.906 328.025 119.054 327.07 121.336 326.677C122.756 326.477 124.966 327.087 125.296 325.217Z" fill="#CCCCCB"/>
<g style="mix-blend-mode:multiply" opacity="0.76">
<path d="M112.236 329.217C104.236 334.307 105.346 342.857 99.1762 348.787C93.9762 353.787 86.5762 356.847 79.5762 356.397C80.0562 357.457 80.5762 358.507 80.8862 359.527C81.1162 360.217 81.3562 362.647 81.8862 363.007C83.0362 363.757 86.5262 362.007 87.5562 361.577C91.9479 359.803 96.0736 357.431 99.8162 354.527C103.276 351.777 105.896 347.127 107.596 343.117C109.816 337.917 110.296 333.047 115.086 329.407C116.906 327.975 119.054 327.02 121.336 326.627C122.696 326.487 124.766 326.997 125.206 325.317C120.756 326.337 115.946 326.867 112.236 329.217Z" fill="#CCCCCB"/>
</g>
<path d="M136.826 321.907C131.936 321.347 129.596 320.407 125.346 319.657C122.796 319.197 120.346 317.547 117.936 317.817C115.146 318.137 113.936 324.527 115.436 327.957C116.706 330.957 120.586 332.327 123.366 332.667C126.951 333.024 130.567 332.92 134.126 332.357C136.446 332.047 139.656 331.787 141.246 329.937C141.899 329.037 142.288 327.973 142.371 326.864C142.454 325.755 142.227 324.645 141.716 323.657C140.146 321.217 139.066 322.217 136.826 321.907Z" fill="#CCCCCB"/>
<g style="mix-blend-mode:multiply" opacity="0.76">
<path d="M133.636 329.537C125.296 329.877 122.166 327.987 119.906 326.367C119.726 324.587 120.776 319.657 123.906 319.277C121.906 318.627 119.906 317.597 117.906 317.817C115.116 318.137 113.906 324.527 115.406 327.957C116.676 330.957 120.556 332.327 123.336 332.667C124.554 332.808 125.78 332.875 127.006 332.867C129.381 332.856 131.753 332.686 134.106 332.357C136.416 332.047 139.626 331.787 141.216 329.937C141.578 329.487 141.85 328.971 142.016 328.417C140.066 328.737 135.646 329.457 133.636 329.537Z" fill="#CCCCCB"/>
</g>
<g style="mix-blend-mode:multiply" opacity="0.32">
<path d="M597.916 174.727C597.416 180.557 599.306 186.877 599.916 192.677C600.916 202.977 601.036 213.427 601.036 223.867C601.036 242.727 597.676 261.327 597.676 280.117C597.676 281.497 597.676 282.907 597.676 284.267C596.556 284.267 595.536 284.047 594.406 283.987C593.216 260.607 596.316 237.487 597.406 214.417C597.845 207.62 597.938 200.804 597.686 193.997C597.396 189.647 595.236 178.137 597.916 174.727Z" fill="#055E6F"/>
</g>
</svg>
