<svg id="Layer_1" data-name="Layer 1" xmlns="http://www.w3.org/2000/svg" viewBox="0 0 649.23 723.64"><defs><style>.cls-1{fill:#fdfefe;}.cls-13,.cls-2,.cls-5{fill:#e5e5e5;}.cls-2{stroke:#787878;}.cls-11,.cls-12,.cls-2,.cls-24,.cls-25,.cls-26,.cls-31,.cls-35,.cls-4,.cls-8,.cls-9{stroke-miterlimit:10;}.cls-11,.cls-12,.cls-2,.cls-24,.cls-25,.cls-26,.cls-35,.cls-8,.cls-9{stroke-width:3px;}.cls-16,.cls-17,.cls-19,.cls-3,.cls-31,.cls-33{fill:#fff;}.cls-4{fill:#a09f9f;stroke-width:2px;}.cls-11,.cls-12,.cls-24,.cls-25,.cls-4,.cls-8,.cls-9{stroke:#585859;}.cls-6{fill:#59595a;}.cls-15,.cls-7{fill:#e0e0df;}.cls-10,.cls-12,.cls-14,.cls-18,.cls-21,.cls-24,.cls-25,.cls-26,.cls-7,.cls-8,.cls-9{opacity:0.8;}.cls-12,.cls-13,.cls-14,.cls-16,.cls-17,.cls-18,.cls-19,.cls-21,.cls-24,.cls-25,.cls-26,.cls-33,.cls-34,.cls-7,.cls-8,.cls-9{isolation:isolate;}.cls-11,.cls-35,.cls-8,.cls-9{fill:none;}.cls-11,.cls-12,.cls-35,.cls-9{stroke-linecap:round;}.cls-12,.cls-23{fill:#f4f4f5;}.cls-13{opacity:0.33;}.cls-14,.cls-28{fill:#f6f6f6;}.cls-16{opacity:0.84;}.cls-17{opacity:0.42;}.cls-18,.cls-20{fill:#585859;}.cls-19{opacity:0.36;}.cls-21{fill:#d3d3d3;}.cls-22{fill:#c23c2b;}.cls-24,.cls-26{fill:#ececec;}.cls-25{fill:#afaeaf;}.cls-26{stroke:#59595b;}.cls-27{fill:#cfcfce;}.cls-29{fill:#f2f2f3;}.cls-30{fill:#f7f7f7;}.cls-31{stroke:#59595a;}.cls-32{fill:#f9f9fa;}.cls-33{opacity:0.25;}.cls-34{fill:#ababab;opacity:0.44;}.cls-35{stroke:#6f6f71;}.cls-36{fill:#6f6f71;}.cls-37{opacity:0.2;}.cls-38{fill:#bcbcbc;}</style></defs><polygon class="cls-1" points="538.05 251.17 539.03 356.29 559.88 393.88 552.88 394.1 551.29 686.62 647.34 688.13 643.37 249.75 538.05 251.17"/><path class="cls-2" d="M243.42,360.73a30.71,30.71,0,0,0-42.27-41.26,29.79,29.79,0,0,0-51.7-19.21,24.16,24.16,0,0,0-46.14,8.45,16.73,16.73,0,0,0-21.7,7.49,31.11,31.11,0,0,0-46.48,36.13,28.37,28.37,0,0,0-1.72,52.9A23.69,23.69,0,0,0,30,417.45a24.19,24.19,0,0,0,.64,5.49,23,23,0,1,0-.32,44.33A18.07,18.07,0,0,0,32,471.5c-13.81,6.68-23.22,19.86-23.22,35,0,21.92,19.62,39.69,43.82,39.69A46.32,46.32,0,0,0,82,535.9a25.44,25.44,0,0,0,38,9.93,17.7,17.7,0,0,0,33.31-3.28c1.21,0,2.43.07,3.65.07a111.49,111.49,0,0,0,86.41-181.89Z" transform="translate(0.03 0)"/><path class="cls-3" d="M246,369.94a27.51,27.51,0,0,0-37.86-37,26.67,26.67,0,0,0-46.3-17.2,21.65,21.65,0,0,0-41.33,7.57,15,15,0,0,0-19.43,6.71,27.86,27.86,0,0,0-41.63,32.37,25.42,25.42,0,0,0-1.54,47.39,21.28,21.28,0,0,0-3,10.94,21,21,0,0,0,.58,4.92,20.58,20.58,0,1,0-.29,39.7,17.09,17.09,0,0,0,1.42,3.79c-12.37,6-20.8,17.79-20.8,31.38,0,19.63,17.57,35.55,39.25,35.55a41.41,41.41,0,0,0,26.4-9.25,22.78,22.78,0,0,0,34.06,8.89,15.86,15.86,0,0,0,29.84-2.94c1.08,0,2.17.06,3.27.06A99.84,99.84,0,0,0,246,369.94Z" transform="translate(0.03 0)"/><path class="cls-4" d="M157.15,493.62c-1.51,20.44-2.27,56.58-2.73,66.55-5-15.49-18-26.49-32.21-41.73a8,8,0,0,0-12,.34c-1.9,2.37-2.47,4.47-1.57,5.67,1.54,2.06,25.57,22.47,28.2,27.34,6,7,16.78,19.89,17.67,30.5,2.09,25.54-2.35,82.24-1.36,108h20.41c.24-6.86-.24-40.47-.37-43.76-.44-10.72-7-68,3.09-98.83C181.7,531,192.42,507,192.5,488.5c-6.87,12.37-9.37,27.58-15.29,40.64-5.06,11.17-13,23.39-15.32,35.41-.86-9.71,4-55.73,6-69.79a5.39,5.39,0,0,0-1.39-4.4h0A5.38,5.38,0,0,0,157.15,493.62Z" transform="translate(0.03 0)"/><path class="cls-5" d="M135.86,690.26s-6.39-11.64,2.21-13.45c0,0-7.57.37-11.41-10.47-.13-.38-.26-.77-.39-1.18-3.69-12,14.25-18.92,14.25-18.92s-6.88-15.48,9.83-17.94l5.65,2.21s.74-19.41,13.52-18.92,14.74,11.06,14.74,11.06,14-1.47,12.29,10.57c0,0,11.55,5.9,12.78,12.78,0,0,13.69,3.37,9.92,17.94s-10.9,10.95-10.9,10.95l5.41,4.53s3.93,13-8.36,12.78H137.82Z" transform="translate(0.03 0)"/><path class="cls-3" d="M144.19,690.26s-6.39-11.64,2.21-13.45c0,0-7.57.37-11.41-10.47-.13-.38-.26-.77-.39-1.18-3.69-12,14.25-18.92,14.25-18.92s-6.88-15.48,9.83-17.94l5.65,2.21s.74-19.41,13.52-18.92,14.74,11.06,14.74,11.06,14-1.47,12.29,10.57c0,0,11.55,5.9,12.78,12.78,0,0,13.69,3.37,9.92,17.94s-10.9,10.95-10.9,10.95l5.41,4.53s3.93,13-8.36,12.78H146.15Z" transform="translate(0.03 0)"/><path class="cls-6" d="M223.1,658.57c0-7.28-5.36-13.85-12.67-15.78a16.92,16.92,0,0,0-11.67-11.42,11,11,0,0,0,.13-1.63,10.58,10.58,0,0,0-10.57-10.57,10.36,10.36,0,0,0-2.23.24c-2.34-6.59-8-11.76-15.06-11.76-8.77,0-16.23,8.05-16.87,17.87a13.46,13.46,0,0,0-16.37,17.9,18.72,18.72,0,0,0-5.36,33,10.55,10.55,0,0,0,1,11.94h-6.84a1.92,1.92,0,1,0,0,3.84h94.54a1.92,1.92,0,1,0,0-3.84h-6.84a10.55,10.55,0,0,0-1.41-14.86,16.57,16.57,0,0,0,10.18-14.93Zm-16.91,12.49a1.92,1.92,0,0,0,0,3.84,6.73,6.73,0,0,1,0,13.46H188.27l10.2-25.51,10.88-5.44a1.92,1.92,0,0,0-1.72-3.44l-8.75,4.37v-8.42a1.92,1.92,0,0,0-3.84,0v11.16l-2.12,5.29-5.77-11.55a1.92,1.92,0,0,0-3.44,1.72l7.3,14.6-6.88,17.21h-8.31v-6.73a1.92,1.92,0,0,0-3.84,0v6.73h-8.11L158.53,667V655.69a1.92,1.92,0,1,0-3.84,0v8.42l-8.75-4.37a1.92,1.92,0,1,0-1.72,3.44L155,668.55l4.95,19.81H141.62a6.73,6.73,0,0,1,0-13.46,1.92,1.92,0,0,0,0-3.84,10.56,10.56,0,0,0-6.72,2.41,15.6,15.6,0,0,1-6.35-12c0-8.4,7.35-15.37,15.95-15.37a15.26,15.26,0,0,1,5.12.87,1.92,1.92,0,0,0,1.28-3.62,19.06,19.06,0,0,0-6.41-1.09,20.67,20.67,0,0,0-2.94.22,9.62,9.62,0,0,1,13.56-12.37,1.93,1.93,0,0,0,2.89-1.81c0-.46-.05-.94-.05-1.43,0-8.33,6-15.37,13.07-15.37,5.41,0,10.32,4.45,11.93,10.82a1.92,1.92,0,0,0,2.64,1.29,6.67,6.67,0,0,1,2.72-.57,6.74,6.74,0,0,1,6.73,6.73,8.24,8.24,0,0,1-.07,1c-.3,0-.59,0-.89,0A16.35,16.35,0,0,0,177.75,647a1.92,1.92,0,0,0,3.84,0,12.5,12.5,0,0,1,12.49-12.49c6.14,0,11.78,4.4,12.86,10.2a1.92,1.92,0,0,0,1.54,1.54c6.14,1.14,10.78,6.42,10.78,12.28,0,6.77-6,12.49-13.07,12.49Z" transform="translate(0.03 0)"/><circle class="cls-6" cx="173.93" cy="674.89" r="1.92"/><path class="cls-6" d="M173.9,668.16a1.92,1.92,0,0,0,1.92-1.92v-8.65a1.92,1.92,0,0,0-.56-1.36l-5.61-5.61,5.88-9.3a2,2,0,0,0,.3-1V628.76a1.92,1.92,0,0,0-3.84,0v11l-5.12,8.1-8.9-8.9a1.92,1.92,0,0,0-2.72,2.72L172,658.38v7.85A1.92,1.92,0,0,0,173.9,668.16Z" transform="translate(0.03 0)"/><polygon class="cls-5" points="454.91 303.75 453.64 551.21 536.49 547.75 536.49 252.54 526.59 256.32 520.02 264.51 528.09 268.71 454.91 303.75"/><polyline class="cls-7" points="646.76 34.75 531.72 250.61 449.44 302.2 449.44 316.41 537.86 279.5 552.31 279.5 647.91 108.63"/><polygon class="cls-8" points="538.05 251.17 538.05 688.13 647.34 688.13 646.97 686.56 646.97 251.17 538.05 251.17"/><polyline class="cls-8" points="537.19 548.56 453.64 551.21 453.64 301.74"/><polyline class="cls-8" points="647.91 73.78 557.77 239.11 548.85 251.17 527.06 251.17"/><path class="cls-8" d="M523.07,258.2,646.29,39.36l-.47-36.29-.87.69-82.31,65L432,301.74l11.44,6,81-38.5a.54.54,0,0,0,0-1l-3.12-1.51a3.26,3.26,0,0,1-1.13-5l5.26-6.61,12.56-5" transform="translate(0.03 0)"/><polygon class="cls-8" points="477.25 316.99 477.25 379.3 506.5 369.55 506.4 304.93 477.25 316.99"/><polyline class="cls-9" points="506.45 400.59 506.4 369.46 477.25 381.52 477.25 443.82 506.5 434.07 506.48 419.85"/><polyline class="cls-8" points="506.5 311.97 489.08 320.68 489.08 369.46"/><polyline class="cls-8" points="506.41 375.1 487.14 384.74 487.14 433.52"/><line class="cls-8" x1="553.68" y1="518.83" x2="553.68" y2="504.01"/><line class="cls-8" x1="539.03" y1="502.78" x2="539.03" y2="487.96"/><polyline class="cls-8" points="643.37 627.83 548.41 627.83 464 653.69"/><line class="cls-8" x1="597.65" y1="628.06" x2="612.47" y2="628.06"/><line class="cls-8" x1="618" y1="628.06" x2="637.09" y2="628.06"/><line class="cls-8" x1="548.41" y1="627.83" x2="596.67" y2="627.83"/><line class="cls-8" x1="580.54" y1="659.24" x2="616.21" y2="659.24"/><line class="cls-8" x1="592.65" y1="659.07" x2="592.65" y2="644.25"/><line class="cls-8" x1="578.56" y1="674.95" x2="578.56" y2="660.13"/><g class="cls-10"><line class="cls-11" x1="581.49" y1="643.72" x2="581.49" y2="628.89"/><line class="cls-11" x1="608.45" y1="643.88" x2="642.37" y2="643.88"/><line class="cls-11" x1="549.38" y1="643.88" x2="600.16" y2="643.88"/><line class="cls-11" x1="608.23" y1="643.88" x2="608.23" y2="629.31"/><line class="cls-11" x1="627.54" y1="659.07" x2="627.54" y2="644.25"/><line class="cls-11" x1="594.72" y1="659.29" x2="609.54" y2="659.29"/><line class="cls-11" x1="615.07" y1="659.29" x2="634.16" y2="659.29"/><line class="cls-11" x1="605.52" y1="675.12" x2="643.37" y2="675.12"/><line class="cls-11" x1="548.41" y1="675.12" x2="597.23" y2="675.12"/><line class="cls-11" x1="548.41" y1="659.07" x2="593.74" y2="659.07"/><line class="cls-11" x1="605.3" y1="675.12" x2="605.3" y2="660.55"/><line class="cls-11" x1="624.61" y1="688.13" x2="624.61" y2="675.48"/><line class="cls-11" x1="561.11" y1="688.13" x2="561.11" y2="675.48"/><line class="cls-11" x1="589.72" y1="688.13" x2="589.72" y2="675.48"/></g><polyline class="cls-12" points="630.45 239.11 644.41 239.11 646.76 75.89 557.77 239.11 610.65 239.11"/><line class="cls-8" x1="536.8" y1="502.78" x2="454.9" y2="521.74"/><line class="cls-8" x1="536.8" y1="519.05" x2="454.23" y2="532.09"/><line class="cls-8" x1="536.8" y1="535.25" x2="454.23" y2="541.57"/><line class="cls-8" x1="522.25" y1="492.44" x2="522.25" y2="506.15"/><line class="cls-9" x1="494.68" y1="500.88" x2="494.68" y2="508.93"/><line class="cls-9" x1="477.25" y1="516.57" x2="477.25" y2="510.44"/><line class="cls-9" x1="461.62" y1="511.01" x2="461.62" y2="518.83"/><line class="cls-9" x1="507.56" y1="509.55" x2="507.56" y2="520.31"/><line class="cls-8" x1="484.32" y1="514.93" x2="484.32" y2="527.6"/><line class="cls-9" x1="465.95" y1="520.31" x2="465.95" y2="527.3"/><line class="cls-8" x1="530.51" y1="521.26" x2="530.51" y2="535.25"/><line class="cls-9" x1="499.36" y1="525.57" x2="499.36" y2="535.25"/><line class="cls-9" x1="477.25" y1="539.81" x2="477.25" y2="532.09"/><line class="cls-8" x1="458.89" y1="531.36" x2="458.89" y2="541.21"/><line class="cls-8" x1="519.67" y1="536.56" x2="519.67" y2="548.12"/><line class="cls-9" x1="495.51" y1="547.9" x2="495.51" y2="541.57"/><line class="cls-9" x1="480.02" y1="539.81" x2="480.02" y2="546.87"/><line class="cls-9" x1="465.95" y1="541.21" x2="465.95" y2="546.87"/><line class="cls-8" x1="557.91" y1="302.27" x2="615.51" y2="302.27"/><line class="cls-8" x1="545.43" y1="320.26" x2="603.03" y2="320.26"/><line class="cls-8" x1="539.03" y1="285.13" x2="596.63" y2="285.13"/><line class="cls-8" x1="575.03" y1="320.25" x2="575.03" y2="303.43"/><line class="cls-8" x1="548.85" y1="301.96" x2="548.85" y2="285.13"/><line class="cls-8" x1="601.11" y1="301.96" x2="601.11" y2="285.13"/><path class="cls-13" d="M210,338.67a17.2,17.2,0,0,0-16,10.84,29,29,0,0,0-16.71-5.24c-15.3,0-27.71,11.5-27.71,25.69a24.28,24.28,0,0,0,4.89,14.56A24.9,24.9,0,1,0,189.37,393c8.49-3.84,14.55-11.57,15.46-20.7A17.22,17.22,0,1,0,210,338.67Z" transform="translate(0.03 0)"/><polygon class="cls-14" points="559.05 240.72 551.61 249.75 645.34 249.75 645.56 240.16 629.18 240.59 628.97 238.26 612.33 238.37 612.21 240.37 559.05 240.72"/><polygon class="cls-3" points="435.87 297.99 494.73 192.69 509.16 164.2 536.49 119.48 558.51 78.92 563.91 69.82 646.32 4.16 646.76 34.75 524.01 253.35 521.01 258.15 515.37 265.59 508.95 263.91 508.23 260.91 435.87 297.99"/><polygon class="cls-15" points="434.49 301.74 443.38 306.37 522.06 268.65 522.06 268.65 515.37 265.59 508.95 263.91 434.49 301.74"/><polygon class="cls-16" points="644 173.56 619.67 213.23 616.85 217.59 626.06 230.59 644.49 201.55 644 173.56"/><rect class="cls-8" x="573.13" y="515.99" width="51.78" height="52.55"/><line class="cls-8" x1="623.1" y1="539.32" x2="588.88" y2="539.32"/><polygon class="cls-17" points="573.13 534.57 573.13 560.89 624.91 515.99 599.02 515.99 573.13 534.57"/><circle class="cls-18" cx="624.43" cy="239.29" r="1.3"/><polyline class="cls-9" points="584.36 499.24 574.23 499.24 574.23 385.17 623.8 385.17 623.8 499.24 596.63 499.24"/><polyline class="cls-8" points="576.07 392.1 617.19 392.1 617.19 493.26"/><line class="cls-8" x1="596.63" y1="392.1" x2="596.63" y2="488.01"/><line class="cls-8" x1="579.36" y1="421.02" x2="611.58" y2="421.02"/><line class="cls-8" x1="580.06" y1="456.61" x2="612.28" y2="456.61"/><polygon class="cls-19" points="603.03 392.1 574.23 442.2 576.07 463.52 617.19 399.46 617.19 392.1 603.03 392.1"/><polygon class="cls-19" points="602.48 423.07 573.68 473.17 575.53 494.49 616.64 430.43 616.64 423.07 602.48 423.07"/><circle class="cls-20" cx="591.05" cy="499.34" r="1.25"/><polygon class="cls-21" points="478.89 317.97 504.81 307.73 504.81 311.13 487.14 320.25 487.14 369.46 487.14 374.13 478.89 377.01 478.89 317.97"/><polygon class="cls-21" points="478.89 382.24 504.81 372 504.81 375.4 487.14 384.52 487.14 433.73 487.14 438.4 478.89 441.28 478.89 382.24"/><circle class="cls-20" cx="505.82" cy="406.06" r="1.42"/><line class="cls-9" x1="432.03" y1="301.74" x2="508.18" y2="262.73"/><path class="cls-22" d="M253.36,392.9a21.43,21.43,0,0,0,8.48,3.59,38.75,38.75,0,0,0-4.91,4.31c3.24,1.32,3.78,4.08,7,5.76-1.81.77-3.09,2.77-5.13,2.93a14.74,14.74,0,0,1,3.37,4.09,34.39,34.39,0,0,0-3.77,6.51c1.91-1.11,4-1.74,6-2.67,1.54,2.28,1,5.46.68,8.05a12.18,12.18,0,0,0,1.63-7.23c1.49,1.25,3.39,2.09,5,1.23-.39-.72-3.44-4.36-3.27-5,.41-1.66,3.87-.61,5-1.63-1-.16-2.12-1.08-3.12-1.29,1-1.9,3.81-.51,5.63-2.22-.57-.32-1-1.24-2.06-1.56.69-1.74,2.49-2,3.46-3.71-1.43-.4-2.85-.55-4.32-1a8.64,8.64,0,0,1,2.38-3.71c-1.69.07-3.77.33-5.47-.71a15.35,15.35,0,0,1,1.49-4.45c-1.48.13-2.87,1.12-4.43.78.63-2.74,1.53-5.46,2.16-8.19-.15.65-5,1.38-5.83.37a64.18,64.18,0,0,1,3.66-6c-.2-.32-.58-.88-.76-1.21-1.57.08-3.42.21-4.87.24,1.29,0,1-5.49,1.32-6.43-4,3.92-5.56,5.86-11.53.93,3.17,4.86,1.32,6.3-.42,9.85,2-.07,4.67,1.3,6.32,2.78C256.49,387.69,253.92,393.35,253.36,392.9Z" transform="translate(0.03 0)"/><polygon class="cls-5" points="177.23 443.31 175.96 690.78 258.8 687.32 258.8 392.11 248.9 395.89 242.33 404.08 250.4 408.28 177.23 443.31"/><polygon class="cls-23" points="277.86 378.68 405.83 148.05 533.84 379.24 350.42 380.16 335.57 380.16 277.86 378.68"/><polygon class="cls-1" points="260.34 390.74 551.29 389.32 551.29 686.62 259.51 688.13 260.34 390.74"/><polygon class="cls-7" points="175.84 460.78 264.26 423.86 278.7 423.86 404.44 199.14 519.65 392.38 549.8 392.44 549.79 402.76 559.88 393.88 404.44 114.95 258.12 394.98 175.84 446.57 175.84 460.78"/><polygon class="cls-8" points="260.37 390.74 260.37 687.69 369.65 687.69 551.29 686.62 551.29 390.74 260.37 390.74"/><polyline class="cls-8" points="259.51 688.13 175.96 690.78 175.96 441.31"/><path class="cls-8" d="M245.38,397.77,405.8,112.88,562.31,395.26l-11,.06v-4.58H538.85l-133-242.69L280.06,378.68l-8.92,12.06h-21.8L405,114.29a.32.32,0,0,0-.48-.41L285,208.34l-130.63,233,11.44,6,81-38.5a.54.54,0,0,0,0-1l-3.12-1.51a3.26,3.26,0,0,1-1.13-5l5.26-6.61,12.56-5" transform="translate(0.03 0)"/><path class="cls-9" d="M368.37,513.69A39.69,39.69,0,0,1,408.06,474h0a39.69,39.69,0,0,1,39.69,39.69v174H368.36V528.28" transform="translate(0.03 0)"/><path class="cls-9" d="M460.82,599.92v87.55H355.3V502.38A43.66,43.66,0,0,1,399,458.72h18.19a43.66,43.66,0,0,1,43.66,43.66V591.1" transform="translate(0.03 0)"/><polygon class="cls-8" points="199.57 456.56 199.57 518.87 228.81 509.12 228.71 444.5 199.57 456.56"/><polyline class="cls-9" points="228.76 540.16 228.71 509.03 199.57 521.09 199.57 583.39 228.81 573.64 228.79 559.42"/><polygon class="cls-21" points="201.2 521.81 227.12 511.57 227.12 514.97 209.45 524.09 209.45 573.3 209.45 577.97 201.2 580.85 201.2 521.81"/><polyline class="cls-8" points="228.81 451.54 211.4 460.25 211.4 509.03"/><polyline class="cls-8" points="228.72 514.67 209.45 524.31 209.45 573.09"/><polyline class="cls-8" points="355.33 627.16 260.37 627.16 175.96 653.02"/><line class="cls-8" x1="460.85" y1="630.91" x2="551.29" y2="630.91"/><path class="cls-24" d="M435.15,424c0,9.85-8.12,16.21-17.84,17.84-17.42,2.92-25.51-8-25.51-17.84s10.49-19.08,25.51-17.84C427.13,407,435.15,414.15,435.15,424Z" transform="translate(0.03 0)"/><line class="cls-8" x1="309.61" y1="627.39" x2="324.43" y2="627.39"/><circle class="cls-25" cx="409.67" cy="424" r="17.84"/><line class="cls-8" x1="329.96" y1="627.39" x2="349.05" y2="627.39"/><line class="cls-8" x1="260.37" y1="627.16" x2="308.63" y2="627.16"/><line class="cls-8" x1="292.5" y1="658.57" x2="328.17" y2="658.57"/><line class="cls-8" x1="276" y1="658.4" x2="276" y2="643.58"/><line class="cls-8" x1="261.35" y1="642.35" x2="261.35" y2="627.53"/><line class="cls-8" x1="304.61" y1="658.4" x2="304.61" y2="643.58"/><line class="cls-8" x1="469.31" y1="659.8" x2="469.31" y2="645.78"/><line class="cls-9" x1="502.8" y1="659.8" x2="502.8" y2="645.78"/><line class="cls-8" x1="290.52" y1="674.28" x2="290.52" y2="659.46"/><g class="cls-10"><line class="cls-11" x1="293.45" y1="643.05" x2="293.45" y2="628.23"/><line class="cls-11" x1="320.41" y1="643.22" x2="354.33" y2="643.22"/><line class="cls-11" x1="261.35" y1="643.22" x2="312.12" y2="643.22"/><line class="cls-11" x1="320.19" y1="643.22" x2="320.19" y2="628.64"/><line class="cls-11" x1="339.51" y1="658.4" x2="339.51" y2="643.58"/><line class="cls-11" x1="306.68" y1="658.62" x2="321.5" y2="658.62"/><line class="cls-11" x1="327.03" y1="658.62" x2="346.12" y2="658.62"/><line class="cls-11" x1="317.48" y1="674.45" x2="355.33" y2="674.45"/><line class="cls-11" x1="260.37" y1="674.45" x2="309.19" y2="674.45"/><line class="cls-11" x1="260.37" y1="658.4" x2="305.7" y2="658.4"/><line class="cls-11" x1="317.26" y1="674.45" x2="317.26" y2="659.88"/><line class="cls-11" x1="336.57" y1="687.46" x2="336.57" y2="674.81"/><line class="cls-11" x1="273.07" y1="687.46" x2="273.07" y2="674.81"/><line class="cls-11" x1="301.68" y1="687.46" x2="301.68" y2="674.81"/></g><line class="cls-8" x1="489.4" y1="645.08" x2="489.4" y2="630.91"/><line class="cls-8" x1="516.37" y1="645.25" x2="550.29" y2="645.25"/><line class="cls-9" x1="460.85" y1="645.25" x2="508.08" y2="645.25"/><line class="cls-9" x1="516.15" y1="645.25" x2="516.15" y2="631.79"/><line class="cls-8" x1="535.46" y1="660.44" x2="535.46" y2="645.61"/><line class="cls-9" x1="502.64" y1="660.66" x2="517.46" y2="660.66"/><line class="cls-9" x1="522.99" y1="660.66" x2="542.08" y2="660.66"/><line class="cls-9" x1="513.44" y1="676.49" x2="551.29" y2="676.49"/><line class="cls-9" x1="460.85" y1="676.49" x2="505.15" y2="676.49"/><line class="cls-8" x1="460.85" y1="660.44" x2="501.66" y2="660.44"/><line class="cls-8" x1="513.22" y1="676.49" x2="513.22" y2="661.92"/><line class="cls-8" x1="532.53" y1="686.18" x2="532.53" y2="676.85"/><line class="cls-8" x1="469.03" y1="686.18" x2="469.03" y2="676.85"/><line class="cls-8" x1="497.64" y1="686.94" x2="497.64" y2="676.85"/><polyline class="cls-9" points="306.68 608.8 296.55 608.8 296.55 494.74 346.12 494.74 346.12 608.8 318.95 608.8"/><polyline class="cls-8" points="298.39 501.67 339.51 501.67 339.51 602.83"/><line class="cls-8" x1="318.95" y1="501.67" x2="318.95" y2="597.58"/><line class="cls-8" x1="301.68" y1="530.59" x2="333.89" y2="530.59"/><line class="cls-8" x1="302.38" y1="566.18" x2="334.59" y2="566.18"/><polyline class="cls-9" points="352.76 378.68 534.98 378.68 405.83 148.05 280.09 378.68 332.96 378.68"/><polyline class="cls-8" points="296.55 250.55 241.53 246.03 245.41 313.86 299.56 259.1"/><polyline class="cls-9" points="237.65 246.03 215.59 255.33 218.34 329.69 245.41 313.86"/><polyline class="cls-9" points="206.1 263.37 218.16 193.27 251.32 258.59 299.56 259.1 269.04 197.29 218.16 189.76"/><line class="cls-8" x1="259.11" y1="642.35" x2="177.22" y2="661.31"/><line class="cls-8" x1="259.11" y1="658.62" x2="176.55" y2="671.66"/><line class="cls-8" x1="259.11" y1="674.81" x2="176.55" y2="681.14"/><line class="cls-8" x1="244.57" y1="632" x2="244.57" y2="645.72"/><line class="cls-9" x1="217" y1="640.45" x2="217" y2="648.5"/><line class="cls-9" x1="199.57" y1="656.14" x2="199.57" y2="650.01"/><line class="cls-9" x1="183.94" y1="650.58" x2="183.94" y2="658.4"/><line class="cls-9" x1="229.88" y1="649.12" x2="229.88" y2="659.88"/><line class="cls-8" x1="206.64" y1="654.5" x2="206.64" y2="667.17"/><line class="cls-9" x1="188.27" y1="659.88" x2="188.27" y2="666.87"/><line class="cls-8" x1="252.83" y1="660.83" x2="252.83" y2="674.81"/><line class="cls-9" x1="221.68" y1="665.14" x2="221.68" y2="674.81"/><line class="cls-9" x1="199.57" y1="679.38" x2="199.57" y2="671.66"/><line class="cls-8" x1="181.2" y1="670.93" x2="181.2" y2="680.78"/><line class="cls-8" x1="241.99" y1="676.13" x2="241.99" y2="687.69"/><line class="cls-9" x1="217.83" y1="687.46" x2="217.83" y2="681.14"/><line class="cls-9" x1="202.33" y1="679.38" x2="202.33" y2="686.43"/><line class="cls-9" x1="188.27" y1="680.78" x2="188.27" y2="686.43"/><rect class="cls-8" x="485.97" y="485.69" width="38.35" height="52.55"/><line class="cls-8" x1="522.99" y1="509.03" x2="497.64" y2="509.03"/><circle class="cls-8" cx="379.78" cy="586.45" r="5.61"/><path class="cls-8" d="M395.61,589h-8a2.43,2.43,0,0,1-2.43-2.43h0a2.43,2.43,0,0,1,2.43-2.43h8a2.43,2.43,0,0,1,2.43,2.43h0A2.43,2.43,0,0,1,395.61,589Z" transform="translate(0.03 0)"/><line class="cls-8" x1="280.23" y1="441.84" x2="337.83" y2="441.84"/><line class="cls-8" x1="267.74" y1="459.83" x2="325.35" y2="459.83"/><line class="cls-8" x1="261.35" y1="424.7" x2="318.95" y2="424.7"/><line class="cls-8" x1="297.35" y1="459.82" x2="297.35" y2="442.99"/><line class="cls-8" x1="271.17" y1="441.53" x2="271.17" y2="424.7"/><line class="cls-8" x1="323.43" y1="441.53" x2="323.43" y2="424.7"/><ellipse class="cls-26" cx="429.09" cy="700.78" rx="40.22" ry="3.99"/><ellipse class="cls-26" cx="485.97" cy="718.12" rx="61.75" ry="4.02"/><ellipse class="cls-26" cx="500.71" cy="704.77" rx="15.44" ry="2.01"/><polygon class="cls-27" points="251.13 390.62 270.92 389.32 277.86 378.68 297.44 343.96 405.85 144.76 542.74 389.36 552.44 389.32 552.88 394.1 556.43 394.12 559.88 393.88 405.83 116.2 251.13 390.62"/><polygon class="cls-28" points="280.64 380.32 273.92 389.32 542.26 389.32 537.27 379.73 280.64 380.32"/><polygon class="cls-3" points="158.18 437.56 217.04 332.26 245.41 316.06 301.46 259.54 280.83 218.49 286.22 209.39 400.52 118.33 246.32 392.92 243.32 397.72 237.68 405.16 231.26 403.48 230.54 400.48 158.18 437.56"/><polygon class="cls-15" points="156.8 441.31 165.69 445.94 244.37 408.22 244.37 408.22 237.68 405.16 231.26 403.48 156.8 441.31"/><polygon class="cls-29" points="243.08 247.72 246.8 310.45 295.94 260.5 250.24 259.98 244.1 247.72 243.08 247.72"/><polygon class="cls-30" points="216.92 256.3 240.18 246.5 243.86 313.12 219.74 327.1 216.92 256.3"/><polygon class="cls-27" points="219.05 191.51 252.33 257.2 298.05 257.56 267.92 198.52 219.05 191.51"/><path class="cls-3" d="M219,198.07,207.2,263.83h6.72l-.12-9,22.37-9a.53.53,0,0,1,.67.27h0a1.77,1.77,0,0,0,2.4.73l.74-.39-.11-2.13,2.6.21Z" transform="translate(0.03 0)"/><line class="cls-9" x1="211.4" y1="263.37" x2="220.11" y2="207.85"/><polygon class="cls-16" points="423.41 230.95 348.8 355.48 340.16 369.16 377.6 369.16 440.24 259.19 423.41 230.95"/><polygon class="cls-19" points="325.35 501.67 296.55 551.77 298.39 573.09 339.51 509.03 339.51 501.67 325.35 501.67"/><polygon class="cls-19" points="324.8 532.64 296 582.74 297.84 604.06 338.96 540 338.96 532.64 324.8 532.64"/><polygon class="cls-17" points="485.97 504.28 485.97 530.59 524.33 485.69 505.15 485.69 485.97 504.28"/><circle class="cls-18" cx="346.75" cy="378.86" r="1.3"/><circle class="cls-20" cx="368.23" cy="519.55" r="1.59"/><circle class="cls-20" cx="461.03" cy="595.69" r="1.35"/><circle class="cls-20" cx="313.37" cy="608.91" r="1.25"/><polygon class="cls-21" points="201.2 457.54 227.12 447.3 227.12 450.7 209.45 459.82 209.45 509.03 209.45 513.7 201.2 516.58 201.2 457.54"/><circle class="cls-20" cx="228.14" cy="545.63" r="1.42"/><line class="cls-9" x1="154.35" y1="441.31" x2="230.5" y2="402.3"/><path class="cls-31" d="M605.53,676.8a5.48,5.48,0,0,0-2.15.44A9.15,9.15,0,0,0,587,669.8a5.47,5.47,0,0,0-9.24-2.29,7.28,7.28,0,0,0-12.63-2.75,6.82,6.82,0,0,0,.08-.79,7.34,7.34,0,0,0-14.68-.1,7.86,7.86,0,0,0,.18,1.68,5.46,5.46,0,0,0-7.56-.12,7.33,7.33,0,1,0-14.64.66,8,8,0,0,0,.17,1.29,5.5,5.5,0,0,0-9.35,3.93c0,.12,0,.23,0,.35a5.68,5.68,0,0,0-1.87-.35,5.5,5.5,0,0,0-5.5,5.5c0,.12,0,.23,0,.35a5.68,5.68,0,0,0-1.87-.35,5.5,5.5,0,1,0,0,11h95.41a5.51,5.51,0,0,0,0-11Z" transform="translate(0.03 0)"/><path class="cls-6" d="M605.53,675a11,11,0,0,0-18.2-8.32,7.36,7.36,0,0,0-5.64-2.69,7.56,7.56,0,0,0-1.57.18c-.17,0-1.59.53-1.64.55a9.17,9.17,0,0,0-7.8-4.4,9,9,0,0,0-4.07,1,9.16,9.16,0,0,0-17.8,1.17,6.79,6.79,0,0,0-4.47.15,9.13,9.13,0,0,0-17.57,1.64,7.35,7.35,0,0,0-9,5.11l0,.13a7.41,7.41,0,0,0-7.34,5.5,7.34,7.34,0,1,0-.23,14.67h95.41a7.33,7.33,0,1,0,0-14.66Zm0,11H510.12a3.67,3.67,0,1,1,1.24-7.1,1.84,1.84,0,0,0,2.35-1.1,1.88,1.88,0,0,0,.11-.74s0-.19,0-.24a3.61,3.61,0,0,1,4.91-3.43h.06a3.68,3.68,0,0,1,2.37,3.42h3.67a7.35,7.35,0,0,0-3.58-6.28,3.67,3.67,0,0,1,3.58-2.89,3.7,3.7,0,0,1,3.67,3.67h3.67a7.33,7.33,0,0,0-1.74-4.69,5.58,5.58,0,0,1-.09-.81,5.48,5.48,0,0,1,10.87-1,7.28,7.28,0,0,0-1.7,4.64h3.67a3.67,3.67,0,1,1,7.34,0h3.67a7.27,7.27,0,0,0-1.74-4.69,5.56,5.56,0,0,1-.09-.82,5.5,5.5,0,0,1,11,0h0a9.11,9.11,0,0,0-1.83,5.5h3.67a5.52,5.52,0,0,1,1.28-3.5l0,0a5.43,5.43,0,0,1,9.14,1.22,7.29,7.29,0,0,0-1.29,4.14H578a3.65,3.65,0,0,1,1-2.52h0a3.58,3.58,0,0,1,5.06-.18,3.5,3.5,0,0,1,.79,1.08,10.9,10.9,0,0,0-1.37,5.3h3.67a7.34,7.34,0,0,1,14.68,0,7.47,7.47,0,0,1-.26,1.82,1.83,1.83,0,0,0,1.32,2.23,1.81,1.81,0,0,0,1.17-.09,3.67,3.67,0,1,1,2.87,6.75A3.38,3.38,0,0,1,605.53,686Z" transform="translate(0.03 0)"/><path class="cls-6" d="M532.14,676.8a5.5,5.5,0,0,0-5.5,5.5h3.67a1.83,1.83,0,0,1,3.66,0h3.67A5.5,5.5,0,0,0,532.14,676.8Z" transform="translate(0.03 0)"/><path class="cls-6" d="M550.49,675a5.5,5.5,0,0,0-5.5,5.5h3.67a1.83,1.83,0,0,1,3.66,0H556A5.5,5.5,0,0,0,550.49,675Z" transform="translate(0.03 0)"/><path class="cls-6" d="M568.83,676.8a5.5,5.5,0,0,0-5.5,5.5H567a1.83,1.83,0,1,1,3.66,0h3.67A5.49,5.49,0,0,0,568.83,676.8Z" transform="translate(0.03 0)"/><path class="cls-6" d="M594.52,676.8a5.5,5.5,0,0,0-5.5,5.5h3.67a1.83,1.83,0,0,1,3.66,0H600A5.49,5.49,0,0,0,594.52,676.8Z" transform="translate(0.03 0)"/><rect class="cls-6" x="557.86" y="673.13" width="3.67" height="3.67"/><rect class="cls-6" x="537.67" y="673.13" width="3.67" height="3.67"/><rect class="cls-6" x="579.87" y="678.63" width="3.67" height="3.67"/><polygon class="cls-32" points="212.73 460.78 212.73 512.74 227.12 508.06 227.12 454.06 212.73 460.78"/><polygon class="cls-32" points="210.81 525.22 211.17 577.9 227.36 572.87 227.36 517 210.81 525.22"/><path class="cls-3" d="M82.86,522.76l40.92-29.52,1.31,6.12s2,12.21-11.49,22.54S87.54,526.84,82.86,522.76Z" transform="translate(0.03 0)"/><polygon class="cls-33" points="267.92 198.52 240.4 233.65 251.13 255.16 280.09 222.36 267.92 198.52"/><polygon class="cls-34" points="243.08 247.72 244.2 266.49 295.94 260.5 250.24 259.98 244.1 247.72 243.08 247.72"/><path class="cls-11" d="M84.67,524.21a24.78,24.78,0,0,0,26.59-.67c14-9.13,14.92-20,13.32-28" transform="translate(0.03 0)"/><circle class="cls-20" cx="123.48" cy="490.54" r="1.71"/><polygon class="cls-3" points="142.68 458.46 132.88 468.07 131.04 473.31 133.19 481.59 137.78 485.54 144.94 486.02 151.1 484.93 152.25 487.82 156.27 493.71 160.14 495.53 166.15 494.92 171.05 490.82 173.19 485.19 145.2 455.58 142.68 458.46"/><path class="cls-11" d="M172.86,487.48s-2.16,9.15-11.52,8c-7.11-.83-8.82-6.71-9.23-9.49a1.34,1.34,0,0,0-1.55-1.13c-3.5.64-15.57,5.62-18.86-7.64-1.56-6.29,1.47-11,9-16.5" transform="translate(0.03 0)"/><circle class="cls-20" cx="144.67" cy="457.63" r="1.69"/><path class="cls-35" d="M194,349.51a29,29,0,0,0-16.71-5.24c-15.3,0-27.71,11.5-27.71,25.69a24.28,24.28,0,0,0,4.89,14.56,24.85,24.85,0,0,0-11.5,21" transform="translate(0.03 0)"/><circle class="cls-36" cx="144.12" cy="412.89" r="2.14"/><path class="cls-11" d="M645.53,240.16" transform="translate(0.03 0)"/><line class="cls-11" x1="645.56" y1="240.16" x2="644.41" y2="80.21"/><path class="cls-3" d="M400,103.62c-10.06-1.13-20.2,4.28-26.13,12.48-4.11,5.69-6.39,12.49-10.08,18.46a45.15,45.15,0,0,1-9.38,10.87c-8.43,7.08-19.08,10.82-28.78,16.06-8.84,4.77-17.45,11.61-20.75,20.93a24.9,24.9,0,0,0,14.62-1.26c6.29-2.4,11.72-6.58,17.25-10.44a212.74,212.74,0,0,1,43.83-23.55c10-4,20.66-7.33,28.71-14.51a52.7,52.7,0,0,0,10-12.58C417.12,111.47,408.9,104.63,400,103.62Z" transform="translate(0.03 0)"/><path class="cls-3" d="M393.4,121.67c1.69,18.17,3,36.36,3.72,54.57.39,9.11.49,18.22.59,27.33q0,6.83,0,13.66c0,4.55-.12,9.1-.22,13.65a.1.1,0,0,1-.1.1.09.09,0,0,1-.1-.09l-.95-13.62q-.5-6.79-1-13.59c-.72-9.06-1.64-18.1-2.5-27.14-1.81-18.07-3.84-36.1-6.38-54a3.5,3.5,0,1,1,6.94-1A.88.88,0,0,0,393.4,121.67Z" transform="translate(0.03 0)"/><path class="cls-3" d="M410,124.36c.38,3.9.64,7.82.86,11.73s.37,7.82.4,11.73-.06,7.83-.18,11.73-.4,7.8-.74,11.69a.1.1,0,0,1-.12.09.11.11,0,0,1-.09-.09c-.48-3.87-1-7.73-1.5-11.57s-1.12-7.68-1.66-11.51-1.18-7.63-1.82-11.44-1.36-7.59-2.08-11.37a3.5,3.5,0,0,1,6.88-1.3C409.92,124.15,409.94,124.26,410,124.36Z" transform="translate(0.03 0)"/><path class="cls-3" d="M411.66,113.6c1.2,1.52,2.29,3.12,3.35,4.73s2,3.25,2.92,5,1.62,3.47,2.34,5.23a52.8,52.8,0,0,1,1.78,5.42.1.1,0,0,1-.07.12.1.1,0,0,1-.11,0c-1.23-1.44-2.43-2.86-3.69-4.22s-2.52-2.7-3.78-4-2.52-2.59-3.82-3.82-2.65-2.41-4-3.57a3.52,3.52,0,0,1,4.6-5.33,3.31,3.31,0,0,1,.45.47Z" transform="translate(0.03 0)"/><path class="cls-3" d="M375.72,147.51c.21,10,.49,20,.57,30.07.08,5,0,10,0,15s-.07,10-.16,15.06a.1.1,0,0,1-.11.1.11.11,0,0,1-.1-.08q-1.08-7.47-2.07-14.93c-.63-5-1.33-9.95-1.89-14.93-1.2-10-2.19-19.93-3.26-29.9a3.5,3.5,0,0,1,7-.74C375.71,147.3,375.71,147.41,375.72,147.51Z" transform="translate(0.03 0)"/><path class="cls-3" d="M342.34,162.83c0,1.22,0,2.45,0,3.68s0,2.45-.08,3.69-.2,2.49-.3,3.73-.28,2.5-.49,3.77a.11.11,0,0,1-.13.09.11.11,0,0,1-.07-.06c-.62-1.12-1.17-2.25-1.73-3.38s-1.07-2.26-1.54-3.41-.89-2.3-1.32-3.45-.86-2.31-1.24-3.47a3.54,3.54,0,0,1,6.73-2.2A4,4,0,0,1,342.34,162.83Z" transform="translate(0.03 0)"/><g class="cls-37"><path class="cls-38" d="M365,142.68c3.57-1.34,5.45-3.93,6.83-7.44a74.07,74.07,0,0,0,2.07-7.45,38.69,38.69,0,0,1,3.58-7.92.83.83,0,0,0-1.12-1.13c-8.61,3.74-4.63,17.67-11.77,23.24-.33.25,0,.85.41.7Z" transform="translate(0.03 0)"/></g><g class="cls-37"><path class="cls-38" d="M316.27,179c4.92-1,11.52-3.74,14.4-8.08A.59.59,0,0,0,330,170c-2.42.87-4.48,2.56-6.72,3.79-2.48,1.36-5.05,2.54-7.6,3.78-.8.39-.21,1.54.58,1.37Z" transform="translate(0.03 0)"/></g><path class="cls-3" d="M349.19,161.49c-3.35-.09-6.52,1.45-9.44,3.1-11.24,6.33-21.49,14.8-33.83,18.57-6.63,2-13.68,2.63-20.12,5.22S271.41,198.59,274,203.84c.38,1.9,2.73,2.65,4.67,2.53s3.93-.73,5.76-.09a6.9,6.9,0,0,1,2.43,1.65c2.53,2.49,4,5.83,6.14,8.67s5.39,5.35,8.91,4.88,5.91-3.6,6.8-6.91.52-6.81.34-10.24-.12-7,1.5-10c2.47-4.58,7.81-6.66,12.69-8.46,7.23-2.67,14.45-5.56,20.82-9.88a41.37,41.37,0,0,0,11.45-11.27A8.12,8.12,0,0,0,349.19,161.49Z" transform="translate(0.03 0)"/><g class="cls-37"><path class="cls-38" d="M297.45,207.12c-1.1,4.15-6.18-3.18-6.9-4.09a7.78,7.78,0,0,0-2.8-2.55c-2.92-1.32-6.35.64-9.26,1.23-.89.18-.83,1.31-.22,1.75,2.14,1.59,3.8,0,6.08-.27,4-.44,6.35,5.13,9.47,7,2.5,1.49,6.93-.2,4.46-3.29a.5.5,0,0,0-.83.22Z" transform="translate(0.03 0)"/></g><g class="cls-37"><path class="cls-38" d="M339.74,174.58a16.77,16.77,0,0,0,5.87-3c1.48-1.17,3.62-2.91,3.9-4.89a.72.72,0,0,0-1-.8c-1.63.81-2.74,2.69-4.08,3.89a41.14,41.14,0,0,1-5.06,3.85.52.52,0,0,0,.4,1Z" transform="translate(0.03 0)"/></g><path class="cls-3" d="M250.56,381.72c-9.66-3-20.65.37-28,7.29-5.12,4.8-8.65,11.05-13.4,16.22a45.35,45.35,0,0,1-11.28,8.88c-9.62,5.36-20.79,7-31.3,10.31-9.59,3-19.34,8.09-24.35,16.61a24.86,24.86,0,0,0,14.59,1.54c6.64-1.16,12.76-4.23,18.92-7a213.76,213.76,0,0,1,47.51-14.8c10.6-2,21.67-3.28,30.94-8.8a52.79,52.79,0,0,0,12.17-10.46C265.92,392.68,259.15,384.41,250.56,381.72Z" transform="translate(0.03 0)"/><path class="cls-3" d="M233.92,397.76a383.07,383.07,0,0,1,3.53,42.07c.22,7,.09,14.06-.13,21.07l-.21,5.26-.28,5.25c-.23,3.5-.53,7-.84,10.47a.12.12,0,0,1-.11.1.11.11,0,0,1-.1-.11l-.13-5.24-.2-5.24-.22-5.23-.3-5.23c-.41-7-1.09-13.9-1.78-20.82-1.46-13.83-3.42-27.59-6.13-41.19a3.5,3.5,0,0,1,6.87-1.37Z" transform="translate(0.03 0)"/><path class="cls-3" d="M249.82,397.46c.27,3.91.41,7.83.53,11.75s.15,7.83.06,11.74-.28,7.82-.51,11.72-.62,7.78-1.08,11.66a.1.1,0,0,1-.2,0c-.37-3.88-.75-7.76-1.17-11.62s-.9-7.7-1.34-11.54-1-7.67-1.49-11.49-1.14-7.62-1.75-11.42a3.5,3.5,0,1,1,6.91-1.12C249.8,397.25,249.81,397.36,249.82,397.46Z" transform="translate(0.03 0)"/><path class="cls-3" d="M264.48,396.42c.25,1.93.37,3.86.45,5.78s.08,3.84-.05,5.76-.39,3.81-.68,5.69a52,52,0,0,1-1.25,5.56.1.1,0,0,1-.13.07.09.09,0,0,1-.07-.08c-.32-1.87-.62-3.71-1-5.52s-.77-3.6-1.19-5.37-.83-3.52-1.32-5.25-1-3.43-1.59-5.11a3.52,3.52,0,1,1,6.83-1.57Z" transform="translate(0.03 0)"/><path class="cls-3" d="M170.63,429.38c0,2.34,0,4.69,0,7s0,4.7,0,7-.19,4.71-.27,7.07-.27,4.72-.46,7.08a.12.12,0,0,1-.11.1.12.12,0,0,1-.1-.08c-.63-2.29-1.21-4.58-1.77-6.87s-1.11-4.59-1.6-6.89-.92-4.61-1.37-6.91-.88-4.61-1.28-6.92a3.51,3.51,0,1,1,6.92-1.19A4.75,4.75,0,0,1,170.63,429.38Z" transform="translate(0.03 0)"/><path class="cls-3" d="M185.12,428.92c-.08,1.22-.21,2.44-.32,3.66s-.22,2.45-.4,3.68-.42,2.46-.63,3.69-.49,2.47-.81,3.7a.1.1,0,0,1-.13.08.11.11,0,0,1-.07-.06c-.52-1.17-1-2.34-1.43-3.51s-.87-2.35-1.24-3.54-.69-2.36-1-3.55-.65-2.37-.93-3.56A3.54,3.54,0,1,1,185,427.9,4,4,0,0,1,185.12,428.92Z" transform="translate(0.03 0)"/><g class="cls-37"><path class="cls-38" d="M208.7,413.75c4.09-.5,6.66-3,8.84-6.37,2.93-4.49,4.66-9.07,8.57-12.94a.83.83,0,0,0-.8-1.37C215.9,395.2,217,409.14,208.49,413c-.37.17-.2.84.21.79Z" transform="translate(0.03 0)"/></g><g class="cls-37"><path class="cls-38" d="M152.88,437.78c5.13.13,12-1,15.9-4.53.49-.43-.05-1.05-.57-1-2.64.37-5.13,1.54-7.71,2.23s-5.2,1.22-7.81,1.81a.75.75,0,0,0,.19,1.47Z" transform="translate(0.03 0)"/></g></svg>