<svg id="Layer_1" data-name="Layer 1" xmlns="http://www.w3.org/2000/svg" viewBox="0 0 740.25 809.75"><defs><style>.cls-1,.cls-4{fill:#e4e4e4;}.cls-1,.cls-5{stroke:#707071;}.cls-1,.cls-17,.cls-19,.cls-22,.cls-23,.cls-5,.cls-7{stroke-linecap:round;}.cls-1,.cls-15,.cls-16,.cls-17,.cls-18,.cls-19,.cls-21,.cls-22,.cls-23,.cls-24,.cls-27,.cls-5,.cls-6,.cls-7{stroke-miterlimit:10;}.cls-1,.cls-15,.cls-17,.cls-18,.cls-21,.cls-22,.cls-27,.cls-5,.cls-7{stroke-width:3px;}.cls-2{fill:#707071;}.cls-27,.cls-29,.cls-3,.cls-30{fill:#fff;}.cls-4{opacity:0.33;}.cls-10,.cls-21,.cls-22,.cls-23,.cls-24,.cls-25,.cls-29,.cls-30,.cls-4{isolation:isolate;}.cls-15,.cls-16,.cls-17,.cls-18,.cls-19,.cls-21,.cls-22,.cls-23,.cls-24,.cls-5,.cls-7{fill:none;}.cls-6{fill:#9f9f9f;stroke-width:2px;}.cls-18,.cls-21,.cls-22,.cls-23,.cls-24,.cls-6,.cls-7{stroke:#59595a;}.cls-8{fill:#59595a;}.cls-9{fill:#e5e7e5;}.cls-10{fill:#fdfeff;opacity:0.83;}.cls-11{fill:#e5e5e5;}.cls-12{fill:#f3f3f3;}.cls-13{fill:#f5f5f7;}.cls-14{fill:#f7f8f8;}.cls-15,.cls-16,.cls-17,.cls-19,.cls-27{stroke:#5c5c5b;}.cls-20{opacity:0.68;}.cls-21,.cls-22,.cls-23,.cls-24{opacity:0.8;}.cls-25{fill:#b6b6b6;opacity:0.19;}.cls-26{fill:#dcdbdb;}.cls-28{fill:#5c5c5b;}.cls-29{opacity:0.64;}.cls-30{opacity:0.34;}.cls-31{fill:#fdfefe;}.cls-32{opacity:0.2;}.cls-33{fill:#bcbcbc;}</style></defs><path class="cls-1" d="M701.69,446.72a37.06,37.06,0,1,0-10-72.73,38.37,38.37,0,0,0-4.39-28.55,45.76,45.76,0,0,0-2.77-85.31,50.16,50.16,0,0,0-74.94-58.27,26.95,26.95,0,0,0-35-12.08,39,39,0,0,0-74.4-13.63,48,48,0,0,0-83.36,31A49.54,49.54,0,0,0,347.32,271c-.16,0-.31,0-.46,0-10.56,0-19.52,7.5-22.84,17.94a35.77,35.77,0,0,0-13.33,68.67,180.63,180.63,0,0,0-2.46,29.61C308.23,486.49,368.7,577,468,577c2,0,13.93,4,15.88,3.89,3,12.57,24.28,7.93,37.78,7.93a28.55,28.55,0,0,0,25.94-16.64,41,41,0,0,0,61.32-16,74.64,74.64,0,0,0,47.54,16.64c39,0,70.67-28.65,70.67-64,0-24.47-15.17-45.72-37.44-56.49a30.39,30.39,0,0,0,2.56-6.82A35.56,35.56,0,0,0,701.69,446.72Z" transform="translate(0 0)"/><circle class="cls-2" cx="507.91" cy="360.5" r="3.45"/><path class="cls-3" d="M357.47,280.13a45.48,45.48,0,0,1-5.12-21.08c0-24.51,19.13-44.37,42.72-44.37a41.27,41.27,0,0,1,21.19,5.85c.7-23.13,19-41.66,41.4-41.66a40.63,40.63,0,0,1,30.5,13.91c5.28-12.11,17-20.54,30.63-20.54,17.86,0,32.46,14.47,33.54,32.74a22.53,22.53,0,0,1,9.55-2.14,23.19,23.19,0,0,1,20.62,13,41.9,41.9,0,0,1,23.72-7.36c23.9,0,43.27,20.12,43.27,44.94A46.69,46.69,0,0,1,647.14,268c15.39,5.59,26.44,20.79,26.44,38.68a41,41,0,0,1-24.05,37.73,35.31,35.31,0,0,1,4.69,17.65,36.29,36.29,0,0,1-.89,7.93,31,31,0,0,1,8.66-1.24c17.65,0,32,14.86,32,33.19s-14.31,33.19-32,33.19a31.06,31.06,0,0,1-8.22-1.11,27.46,27.46,0,0,1-2.21,6.11c19.21,9.65,32.29,28.68,32.29,50.6,0,31.66-27.29,57.33-61,57.33a62.93,62.93,0,0,1-41-14.91c-5.61,12.59-17.88,21.34-32.12,21.34a34.38,34.38,0,0,1-20.76-7,24.59,24.59,0,0,1-22.38,14.9c-11.64,0-21.37-8.38-24-19.65q-2.52.09-5.07.09c-85.61,0-155-72.08-155-161A164.24,164.24,0,0,1,357.47,280.13Z" transform="translate(0 0)"/><path class="cls-4" d="M402.58,238.11a27.76,27.76,0,0,1,25.78,17.48,46.71,46.71,0,0,1,26.95-8.44C480,247.15,500,265.7,500,288.57a39.16,39.16,0,0,1-7.89,23.49,40.16,40.16,0,1,1-56.32,13.72c-13.69-6.2-23.47-18.65-24.93-33.38a27.77,27.77,0,1,1-8.27-54.29Z" transform="translate(0 0)"/><path class="cls-5" d="M428.35,255.59a46.71,46.71,0,0,1,26.95-8.44C480,247.15,500,265.7,500,288.57a39.16,39.16,0,0,1-7.89,23.49,40.07,40.07,0,0,1,18.54,33.8" transform="translate(0 0)"/><path class="cls-6" d="M487.74,488c2.06,28,3.26,74.35,4,97.47a2.09,2.09,0,0,0,4,.8c9.75-20.47,28.22-36.74,48.31-58.25,5.71-6.12,14.63-5.64,19.7,1,2.77,3.63,3.55,6.81,2.16,8.66-2.49,3.32-41.23,36.23-45.48,44.08-9.68,11.26-23.12,37.74-24.55,54.86-3.38,41.18-.16,127-1.76,168.45H461.23c-.38-11.07.39-65.26.59-70.57.71-17.29,11.21-109.58-5-159.38-8.71-26.89-26-65.57-26.13-95.42,11.08,19.94,15.1,44.47,24.66,65.54,3.47,7.67,7.8,15.65,11.9,23.77,2.94,5.81,11.71,3.37,11.18-3.12-2.25-27.57-6.08-61.92-8-76.1a8.67,8.67,0,0,1,2.24-7.09h0A8.73,8.73,0,0,1,487.74,488Z" transform="translate(0 0)"/><polygon class="cls-3" points="513.88 431.88 529.68 447.36 532.66 455.82 529.18 469.17 521.79 475.54 510.24 476.31 500.3 474.56 498.45 479.22 491.97 488.72 485.72 491.65 476.04 490.66 468.13 484.05 464.67 474.98 509.81 427.23 513.88 431.88"/><path class="cls-3" d="M608,535.06l-66-47.6-2.12,9.87s-3.17,19.69,18.53,36.36S600.48,541.64,608,535.06Z" transform="translate(0 0)"/><path class="cls-7" d="M605.11,537.4s-20.32,13.64-42.88-1.09-24.07-32.26-21.48-45.16" transform="translate(0 0)"/><circle class="cls-8" cx="542.57" cy="483.1" r="2.76"/><path class="cls-7" d="M462.4,478.08s3.48,14.75,18.58,13c11.47-1.34,14.22-10.83,14.89-15.3a2.14,2.14,0,0,1,2.5-1.81c5.65,1,25.11,9.07,30.41-12.32,2.51-10.14-2.37-17.67-14.51-26.61" transform="translate(0 0)"/><path class="cls-7" d="M200.17,492" transform="translate(0 0)"/><circle class="cls-8" cx="507.91" cy="429.95" r="2.72"/><path class="cls-9" d="M417,806.09s-9.29-16.92,3.21-19.55c0,0-11,.54-16.58-15.21-.19-.55-.38-1.12-.56-1.71-5.36-17.5,20.71-27.5,20.71-27.5s-10-22.5,14.28-26.07l8.21,3.21s1.07-28.21,19.64-27.5,21.43,16.07,21.43,16.07,20.36-2.14,17.86,15.36c0,0,16.78,8.57,18.57,18.57,0,0,19.9,4.9,14.41,26.07s-15.84,15.91-15.84,15.91l7.86,6.59s5.71,18.93-12.14,18.57H419.81Z" transform="translate(0 0)"/><path class="cls-3" d="M404.51,804.75s-9.29-15.06,3.21-17.4c0,0-11,.48-16.58-13.54-.19-.49-.38-1-.56-1.52-5.36-15.58,20.71-24.48,20.71-24.48s-10-20,14.28-23.21l8.21,2.86s1.07-25.12,19.64-24.48,21.43,14.31,21.43,14.31,20.36-1.91,17.86,13.67c0,0,16.78,7.63,18.57,16.53,0,0,19.9,4.37,14.41,23.21s-15.84,14.17-15.84,14.17l7.86,5.87s5.71,16.85-12.14,16.53H407.36Z" transform="translate(0 0)"/><path class="cls-8" d="M543.74,760c0-10.58-7.8-20.13-18.41-22.93a24.59,24.59,0,0,0-17-16.59,15.37,15.37,0,0,0-15.18-17.72,15.23,15.23,0,0,0-3.24.34c-3.4-9.57-11.61-17.1-21.89-17.1-12.74,0-23.59,11.7-24.51,26a19.56,19.56,0,0,0-23.79,26c-11.19,4-19,14.55-19,26.21,0,8.14,4.24,16.25,11.22,21.75a15.34,15.34,0,0,0,1.52,17.35h-9.94a2.79,2.79,0,0,0,0,5.58H541a2.79,2.79,0,0,0,0-5.58H531a15.33,15.33,0,0,0-2-21.59c8.59-3.75,14.76-12.18,14.76-21.71Zm-24.57,18.15a2.79,2.79,0,0,0,0,5.58,9.77,9.77,0,1,1,0,19.54h-26L508,766.24l15.81-7.9a2.8,2.8,0,0,0-2.5-5l-12.71,6.36V747.46a2.79,2.79,0,1,0-5.58,0v16.22l-3.08,7.69-8.39-16.78a2.8,2.8,0,0,0-5,2.5l10.61,21.22-10,25H475.05v-9.77a2.79,2.79,0,0,0-5.58,0v9.77H457.69l-7.77-31.06V755.85a2.79,2.79,0,1,0-5.58,0v12.24l-12.71-6.36a2.8,2.8,0,1,0-2.5,5l15.61,7.8,7.2,28.8H425.36a9.77,9.77,0,0,1,0-19.54,2.79,2.79,0,1,0,0-5.58,15.34,15.34,0,0,0-9.76,3.51c-5.74-4.45-9.23-11-9.23-17.47,0-12.2,10.68-22.34,23.18-22.34a22.34,22.34,0,0,1,7.45,1.27,2.79,2.79,0,0,0,1.86-5.26,28,28,0,0,0-13.59-1.26,14,14,0,0,1,19.7-18,2.79,2.79,0,0,0,4.2-2.62c-.05-.67-.08-1.37-.08-2.08,0-12.11,8.7-22.34,19-22.34,7.87,0,15,6.46,17.34,15.72a2.79,2.79,0,0,0,3.84,1.87A9.79,9.79,0,0,1,503,718.19a10,10,0,0,1-.11,1.44c-.43,0-.86,0-1.29,0a23.77,23.77,0,0,0-23.74,23.74,2.79,2.79,0,0,0,5.58,0,18.17,18.17,0,0,1,18.15-18.15c8.93,0,17.13,6.39,18.68,14.82a2.79,2.79,0,0,0,2.24,2.24c8.93,1.65,15.66,9.32,15.66,17.85,0,9.79-8.7,18.1-19,18.1Z" transform="translate(0 0)"/><circle class="cls-8" cx="472.25" cy="786.55" r="2.79"/><path class="cls-8" d="M472.25,776.77A2.79,2.79,0,0,0,475,774V761.41a2.75,2.75,0,0,0-.82-2l-8.15-8.15,8.54-13.51a2.81,2.81,0,0,0,.43-1.49V719.53a2.79,2.79,0,0,0-5.58,0v16L462,747.25,449.1,734.32a2.79,2.79,0,0,0-4,3.95l24.32,24.32V774A2.77,2.77,0,0,0,472.25,776.77Z" transform="translate(0 0)"/><rect class="cls-10" x="5.53" y="464.52" width="342.47" height="342.47"/><polygon class="cls-9" points="349.33 464.99 347.99 808.25 453.92 806.42 455.13 532.81 349.33 464.99"/><polygon class="cls-9" points="195.92 124.11 195.84 460.47 305.22 460.45 300.17 197.37 195.92 124.11"/><polygon class="cls-11" points="193.51 115.04 193.86 166.45 300.17 232.31 300.17 197.37 231.83 149.02 193.51 115.04"/><polygon class="cls-3" points="3.78 115.04 3.78 462.82 195.84 460.47 193.51 115.04 3.78 115.04"/><polygon class="cls-3" points="1.5 112.35 95.59 30.35 181.62 112.35 1.5 112.35"/><rect class="cls-12" x="66.52" y="206.44" width="85.19" height="85.69"/><rect class="cls-11" x="40.82" y="555.25" width="89.9" height="89.9"/><polygon class="cls-3" points="3.78 460.47 346.35 464.99 347.99 808.25 3.78 808.25 3.78 460.47"/><rect class="cls-13" x="43.62" y="555.25" width="89.9" height="89.9"/><rect class="cls-14" x="217.24" y="555.25" width="89.9" height="89.9"/><polygon class="cls-15" points="347.99 464.99 347.99 808.25 455.13 807.97 455.13 532.81 347.99 464.99"/><polygon class="cls-16" points="343.82 464.99 3.78 464.99 3.78 808.25 347.99 808.25 347.99 464.99 343.82 464.99"/><polyline class="cls-17" points="395.59 755.08 395.59 563.07 364.86 548.98 364.86 803.25 395.59 802.06 395.59 781.75"/><polyline class="cls-17" points="78.8 556.81 130.72 556.81 130.72 647.32 40.21 647.32 40.21 556.81 52.24 556.81"/><line class="cls-17" x1="85.46" y1="570.89" x2="85.46" y2="632.97"/><line class="cls-17" x1="56.59" y1="601.93" x2="118.67" y2="601.93"/><polyline class="cls-15" points="427.81 627.22 428.01 580.89 411.81 573.63"/><polyline class="cls-15" points="452.33 530.63 347.99 462.82 347.99 806.08"/><polygon class="cls-18" points="343.82 462.82 3.78 462.82 3.78 806.08 347.99 806.08 347.99 462.82 343.82 462.82"/><polyline class="cls-16" points="395.59 560.89 364.86 546.81 364.86 803.25 395.59 799.89"/><line class="cls-19" x1="85.46" y1="568.72" x2="85.46" y2="630.8"/><line class="cls-19" x1="56.59" y1="599.76" x2="118.67" y2="599.76"/><polyline class="cls-17" points="306.52 632.2 306.52 645.01 216.01 645.01 216.01 554.5 306.52 554.5 306.52 613.39"/><line class="cls-17" x1="261.26" y1="568.59" x2="261.26" y2="630.67"/><line class="cls-17" x1="232.4" y1="599.63" x2="294.48" y2="599.63"/><polyline class="cls-15" points="411.81 619.05 435.81 626.64 435.81 574.85 411.81 561.65 411.81 569.45 411.81 621.22 435.81 628.82 435.81 577.02 411.81 563.83 411.81 571.63"/><polyline class="cls-15" points="427.81 697.23 428.01 648.1 411.81 643.63"/><line class="cls-16" x1="411.81" y1="633.84" x2="411.81" y2="641.63"/><polyline class="cls-15" points="411.81 689.05 435.81 696.65 435.81 639.26 411.81 631.66 411.81 639.46 411.81 691.23 435.81 698.83 435.81 647.03"/><g class="cls-20"><line class="cls-21" x1="138.72" y1="743.6" x2="177.29" y2="743.6"/><line class="cls-21" x1="200.18" y1="768.05" x2="284.87" y2="768.05"/><line class="cls-21" x1="185.84" y1="791.82" x2="270.7" y2="791.82"/><path class="cls-22" d="M245.49,791.82" transform="translate(0 0)"/><path class="cls-22" d="M185.84,791.82" transform="translate(0 0)"/><path class="cls-22" d="M173.39,791.82" transform="translate(0 0)"/><path class="cls-22" d="M106.86,791.82" transform="translate(0 0)"/><line class="cls-21" x1="134.26" y1="767.71" x2="187.5" y2="767.71"/><line class="cls-21" x1="4.91" y1="722.07" x2="140.74" y2="722.07"/><line class="cls-21" x1="17.61" y1="765.45" x2="17.61" y2="744.4"/><line class="cls-22" x1="67.92" y1="765.45" x2="67.92" y2="744.4"/><line class="cls-21" x1="47.8" y1="743.35" x2="47.8" y2="722.07"/><line class="cls-21" x1="88.29" y1="743.6" x2="139.23" y2="743.6"/><line class="cls-22" x1="4.91" y1="743.6" x2="75.84" y2="743.6"/><line class="cls-21" x1="87.96" y1="746.3" x2="87.96" y2="723.86"/><line class="cls-21" x1="116.97" y1="766.41" x2="116.97" y2="744.14"/><line class="cls-22" x1="67.67" y1="766.74" x2="89.93" y2="766.74"/><line class="cls-22" x1="98.23" y1="766.74" x2="126.91" y2="766.74"/><line class="cls-22" x1="316.66" y1="741.54" x2="345.34" y2="741.54"/><line class="cls-21" x1="291.71" y1="768.05" x2="348.39" y2="768.05"/><line class="cls-21" x1="269.31" y1="791.82" x2="325.98" y2="791.82"/><line class="cls-22" x1="83.89" y1="790.51" x2="162.12" y2="790.86"/><line class="cls-22" x1="4.91" y1="790.51" x2="71.44" y2="790.51"/><line class="cls-21" x1="4.91" y1="766.41" x2="66.2" y2="766.41"/><line class="cls-21" x1="83.56" y1="793.17" x2="83.56" y2="768.63"/><line class="cls-21" x1="112.57" y1="805.07" x2="112.57" y2="791.06"/><line class="cls-21" x1="17.19" y1="805.07" x2="17.19" y2="791.06"/><line class="cls-21" x1="60.16" y1="806.21" x2="60.16" y2="791.06"/><line class="cls-21" x1="140.74" y1="721.87" x2="348.33" y2="721.87"/><line class="cls-21" x1="190.25" y1="743.41" x2="300.2" y2="743.41"/><line class="cls-21" x1="218.92" y1="766.21" x2="218.92" y2="743.95"/><line class="cls-21" x1="277.73" y1="766.21" x2="277.73" y2="743.95"/><line class="cls-21" x1="260.93" y1="791.42" x2="260.93" y2="769.15"/><line class="cls-21" x1="314.14" y1="791.42" x2="314.14" y2="769.15"/><line class="cls-21" x1="325.34" y1="743.81" x2="325.34" y2="721.55"/><line class="cls-21" x1="288.93" y1="743.81" x2="288.93" y2="721.55"/><line class="cls-21" x1="244.13" y1="743.81" x2="244.13" y2="721.55"/><line class="cls-21" x1="137.71" y1="743.81" x2="137.71" y2="721.55"/><line class="cls-21" x1="190.92" y1="746.61" x2="190.92" y2="724.35"/><line class="cls-21" x1="137.71" y1="788.62" x2="137.71" y2="766.35"/><path class="cls-21" d="M190.62,767.71" transform="translate(0 0)"/><path class="cls-21" d="M168.36,767.71" transform="translate(0 0)"/><line class="cls-21" x1="185.51" y1="793.17" x2="185.51" y2="766.21"/><line class="cls-21" x1="214.52" y1="804.88" x2="214.52" y2="790.86"/><line class="cls-21" x1="162.12" y1="806.02" x2="162.12" y2="790.86"/></g><path class="cls-23" d="M185.84,453" transform="translate(0 0)"/><path class="cls-23" d="M173.39,453" transform="translate(0 0)"/><path class="cls-23" d="M106.86,453" transform="translate(0 0)"/><line class="cls-24" x1="277.73" y1="427.37" x2="277.73" y2="405.1"/><line class="cls-24" x1="260.93" y1="452.57" x2="260.93" y2="430.31"/><path class="cls-24" d="M190.62,428.87" transform="translate(0 0)"/><path class="cls-24" d="M168.36,428.87" transform="translate(0 0)"/><line class="cls-24" x1="214.52" y1="463.04" x2="214.52" y2="452.02"/><line class="cls-21" x1="112.57" y1="465.23" x2="112.57" y2="452.21"/><line class="cls-21" x1="17.19" y1="464.23" x2="17.19" y2="452.21"/><line class="cls-21" x1="60.16" y1="465.36" x2="60.16" y2="452.21"/><line class="cls-22" x1="83.89" y1="451.67" x2="183.3" y2="452.02"/><line class="cls-22" x1="4.91" y1="451.67" x2="71.44" y2="451.67"/><line class="cls-21" x1="83.56" y1="454.33" x2="83.56" y2="429.78"/><line class="cls-22" x1="98.23" y1="427.9" x2="126.91" y2="427.9"/><line class="cls-21" x1="134.26" y1="428.87" x2="193.72" y2="428.87"/><line class="cls-21" x1="17.61" y1="426.6" x2="17.61" y2="405.55"/><line class="cls-22" x1="67.92" y1="426.6" x2="67.92" y2="405.55"/><line class="cls-21" x1="116.97" y1="427.56" x2="116.97" y2="405.3"/><line class="cls-22" x1="67.67" y1="427.9" x2="89.93" y2="427.9"/><line class="cls-21" x1="4.91" y1="427.56" x2="66.2" y2="427.56"/><line class="cls-21" x1="138.72" y1="404.75" x2="177.29" y2="404.75"/><line class="cls-21" x1="4.91" y1="383.22" x2="140.74" y2="383.22"/><line class="cls-21" x1="47.8" y1="404.5" x2="47.8" y2="383.22"/><line class="cls-21" x1="88.29" y1="404.75" x2="139.23" y2="404.75"/><line class="cls-22" x1="4.91" y1="404.75" x2="75.84" y2="404.75"/><line class="cls-21" x1="87.96" y1="407.45" x2="87.96" y2="385.02"/><line class="cls-21" x1="140.74" y1="383.03" x2="197.75" y2="383.03"/><line class="cls-21" x1="137.71" y1="404.96" x2="137.71" y2="382.7"/><line class="cls-21" x1="137.71" y1="449.77" x2="137.71" y2="427.51"/><line class="cls-21" x1="162.12" y1="464.17" x2="162.12" y2="452.02"/><polygon class="cls-15" points="195.84 117.21 195.84 460.47 300.17 462.36 300.17 185.03 195.84 117.21"/><polyline class="cls-17" points="35.78 115.04 3.78 115.04 3.78 460.45 195.84 460.47 195.84 117.21 193.51 115.04 73.08 115.04"/><polygon class="cls-25" points="297.67 280.71 253.33 322.37 250.81 331.22 249.32 377.79 297.67 404.75 297.67 280.71"/><polyline class="cls-17" points="109.11 295.06 63.85 295.06 63.85 204.55 154.36 204.55 154.36 295.06 142.32 295.06"/><line class="cls-17" x1="109.11" y1="218.63" x2="109.11" y2="280.71"/><line class="cls-17" x1="80.24" y1="249.67" x2="142.32" y2="249.67"/><polygon class="cls-15" points="259.66 219.82 259.66 269.09 275.66 274.16 275.85 227.24 259.66 219.82"/><polyline class="cls-15" points="259.66 219.5 259.66 211.7 283.65 224.9 283.65 276.69 259.66 269.09"/><polyline class="cls-7" points="195.84 332.23 347.99 332.23 347.99 462.82"/><polyline class="cls-7" points="350.86 332.23 452.33 437.39 454.93 531.37"/><line class="cls-7" x1="213.92" y1="332.23" x2="213.92" y2="460.45"/><line class="cls-7" x1="231.31" y1="332.23" x2="231.31" y2="460.45"/><circle class="cls-7" cx="222.62" cy="369.09" r="8.69"/><circle class="cls-7" cx="222.62" cy="432.23" r="8.69"/><line class="cls-7" x1="259.57" y1="332.23" x2="259.57" y2="460.45"/><line class="cls-7" x1="276.96" y1="332.23" x2="276.96" y2="460.45"/><circle class="cls-7" cx="268.26" cy="369.09" r="8.69"/><circle class="cls-7" cx="268.26" cy="432.23" r="8.69"/><line class="cls-7" x1="305.22" y1="332.23" x2="305.22" y2="460.45"/><line class="cls-7" x1="322.6" y1="332.23" x2="322.6" y2="460.45"/><circle class="cls-7" cx="313.91" cy="369.09" r="8.69"/><circle class="cls-7" cx="313.91" cy="432.23" r="8.69"/><line class="cls-7" x1="364.71" y1="346.58" x2="364.71" y2="473.69"/><line class="cls-7" x1="377.75" y1="359.62" x2="377.75" y2="482.16"/><ellipse class="cls-7" cx="371.08" cy="385.13" rx="4.56" ry="7.35"/><ellipse class="cls-7" cx="371.08" cy="446.21" rx="4.56" ry="10.43"/><line class="cls-7" x1="394.99" y1="377.79" x2="394.99" y2="492.21"/><line class="cls-7" x1="408.03" y1="390.83" x2="408.03" y2="500.37"/><ellipse class="cls-7" cx="401.35" cy="407.64" rx="4.56" ry="7.35"/><ellipse class="cls-7" cx="401.35" cy="468.72" rx="4.56" ry="10.43"/><line class="cls-7" x1="423.24" y1="408.22" x2="423.24" y2="511.41"/><line class="cls-7" x1="436.29" y1="421.26" x2="436.29" y2="520.21"/><ellipse class="cls-7" cx="429.61" cy="438.07" rx="4.56" ry="7.35"/><ellipse class="cls-7" cx="429.61" cy="486.11" rx="4.56" ry="10.43"/><polyline class="cls-26" points="2.18 115.45 11.85 113.43 33.09 113.61 102.31 48.83 170.79 113.52 190.14 113.43 96.09 18.75 1.5 103.07 2.18 115.45 2.18 115.45"/><line class="cls-16" x1="452.33" y1="437.39" x2="305.22" y2="414.99"/><polygon class="cls-15" points="1.5 101.66 96.24 16.75 229.62 150.95 324.31 210.23 331.72 202.82 245.27 113.49 97.06 1.93 1.5 84.58 1.5 92.55 1.5 101.66"/><polyline class="cls-15" points="107.26 9.6 237.45 142.72 328.29 202.62"/><line class="cls-17" x1="2.18" y1="115.45" x2="98.71" y2="32.8"/><polyline class="cls-16" points="364.86 556.68 387.25 568.59 387.64 798.86"/><polygon class="cls-27" points="366.38 559.35 366.88 801.94 386.37 798.86 385.53 568.92 366.38 559.35"/><polygon class="cls-28" points="384.9 673.27 377.79 671.31 377.79 675.04 384.9 677.77 384.9 673.27"/><path class="cls-11" d="M1.5,86.58V99.2L96.36,14.61,230.46,150c.27.27.85.25,1.17.45l92.52,58,5.84-5.51-10.88-4.48-83-54.54L106.53,11.1,97.26,3.9Z" transform="translate(0 0)"/><polygon class="cls-3" points="136.42 35.22 240.43 140.91 317.89 193 243.79 115.04 136.42 35.22"/><polygon class="cls-29" points="66.52 249.28 66.52 275.09 151.71 239.2 151.71 206.44 136.42 206.44 66.52 249.28"/><polygon class="cls-29" points="45.04 602.67 45.04 628.47 130.23 592.59 130.23 559.82 114.94 559.82 45.04 602.67"/><polygon class="cls-29" points="218.66 602.67 218.66 628.47 303.85 592.59 303.85 559.82 288.56 559.82 218.66 602.67"/><circle class="cls-28" cx="61.85" cy="115.04" r="3.49"/><circle class="cls-28" cx="68.82" cy="557.12" r="2.62"/><circle class="cls-28" cx="306.36" cy="623.51" r="2.51"/><ellipse class="cls-28" cx="396.07" cy="773.27" rx="2.05" ry="4.11"/><circle class="cls-28" cx="127.86" cy="295.15" r="2.86"/><polygon class="cls-3" points="413.09 575.73 413.09 617.82 426.19 621.85 426.19 581.27 413.09 575.73"/><polygon class="cls-3" points="413.36 645.79 413.36 688.26 426.46 692.29 426.46 649.18 413.36 645.79"/><polygon class="cls-30" points="246.84 161.73 195.89 232.31 197.75 304.29 271.92 177.51 246.84 161.73"/><polygon class="cls-31" points="261.06 222.15 261.33 267.96 274.02 272.01 274.47 228.18 261.06 222.15"/><line class="cls-15" x1="3.78" y1="808.25" x2="498.67" y2="806.99"/><path class="cls-3" d="M327.09,321.77c-4.6-2.4-10-2.4-15.23-2.09-19.91,1.17-39.9,6-59.6,2.86-10.59-1.68-20.79-5.64-31.48-6.4s-26.93,4.42-26.93,13.46c-.77,2.89,2,5.54,4.76,6.69s6,1.64,8.07,3.77a10.54,10.54,0,0,1,2.26,3.94c1.82,5.18,1.63,10.83,2.66,16.22s3.85,11.08,9.06,12.82c5,1.68,10.66-1,14.14-5s5.34-9.11,7.41-14,4.59-9.84,8.9-12.94c6.53-4.69,15.36-3.95,23.37-3.14,11.85,1.19,23.83,2.07,35.62.39a64.23,64.23,0,0,0,23.56-7.9A12.64,12.64,0,0,0,327.09,321.77Z" transform="translate(0 0)"/><path class="cls-3" d="M227.69,360.24c-.81,12.83-1.27,25.69-1.69,38.56-.16,6.43-.43,12.88-.54,19.33l-.29,19.35a.11.11,0,0,1-.1.11.1.1,0,0,1-.1-.1c-.36-3.21-.72-6.42-1-9.63l-.86-9.66c-.52-6.44-1.07-12.89-1.37-19.35-.71-12.92-.95-25.86-1-38.81a3.5,3.5,0,1,1,7,0Z" transform="translate(0 0)"/><path class="cls-3" d="M217.32,339.64c-.24,11.25-.4,22.5-.77,33.75-.14,5.62-.42,11.25-.63,16.87s-.52,11.26-.83,16.89a.1.1,0,0,1-.11.09.11.11,0,0,1-.1-.09q-.75-8.41-1.41-16.84c-.4-5.61-.88-11.22-1.22-16.84-.76-11.22-1.3-22.46-1.93-33.69v0a3.5,3.5,0,1,1,7-.39A2.53,2.53,0,0,1,217.32,339.64Z" transform="translate(0 0)"/><path class="cls-3" d="M207.39,326c-.07,12-.06,24-.26,36-.06,6-.26,12-.39,18s-.35,12-.58,18a.1.1,0,0,1-.2,0q-.89-9-1.67-17.92c-.48-6-1-11.95-1.46-17.93-.93-12-1.64-23.92-2.43-35.88a3.5,3.5,0,1,1,7-.46A2.09,2.09,0,0,1,207.39,326Z" transform="translate(0 0)"/><path class="cls-3" d="M244,344.53c-.51,9.86-1,19.72-1.85,29.56-.37,4.92-.91,9.83-1.38,14.75s-1.08,9.81-1.71,14.71a.1.1,0,0,1-.11.09.08.08,0,0,1-.09-.09l-.54-14.8c-.13-4.93-.36-9.85-.48-14.77-.3-9.85-.49-19.68-.84-29.51a3.5,3.5,0,0,1,7-.25A1.61,1.61,0,0,1,244,344.53Z" transform="translate(0 0)"/><path class="cls-3" d="M264.15,329.61c-.09,2.3-.25,4.6-.38,6.9s-.25,4.61-.45,6.91-.46,4.62-.69,6.92-.54,4.62-.87,6.93a.1.1,0,0,1-.11.08.09.09,0,0,1-.09-.08c-.5-2.28-.94-4.56-1.38-6.84s-.84-4.56-1.19-6.85-.65-4.57-1-6.86-.62-4.57-.88-6.86a3.51,3.51,0,0,1,7-.79A4.87,4.87,0,0,1,264.15,329.61Z" transform="translate(0 0)"/><path class="cls-3" d="M330.24,331.91c-.06,2-.2,4-.32,6s-.27,4-.5,5.95-.54,4-.83,5.94-.68,3.94-1.11,5.9a.09.09,0,0,1-.12.08c-.05,0-.08,0-.08-.08-.41-2-.76-3.92-1.14-5.87s-.73-3.9-1.05-5.85l-1.84-11.61a3.51,3.51,0,1,1,6.94-1.11,3.48,3.48,0,0,1,.05.63Z" transform="translate(0 0)"/><path class="cls-3" d="M309.62,331.82c-.28,4.19-.56,8.38-.76,12.59s-.37,8.4-.54,12.62-.33,8.43-.42,12.66-.2,8.46-.28,12.71a.1.1,0,0,1-.11.1.11.11,0,0,1-.1-.09c-.74-4.18-1.38-8.38-2-12.59s-1.08-8.44-1.44-12.67-.68-8.48-.91-12.73-.41-8.51-.49-12.77a3.51,3.51,0,0,1,7-.13C309.63,331.62,309.62,331.72,309.62,331.82Z" transform="translate(0 0)"/><g class="cls-32"><path class="cls-33" d="M224.4,350.34c-3.1,5.59-6-3.12-6.32-4.32a45.47,45.47,0,0,1-1.09-4.58c-.45-2.27-.76-4.68-2.23-6.56-3-3.86-8.91-2.74-13-4.54-.79-.35-1.9.43-1.31,1.31,2,3.1,5.23,2.39,8.42,3.27,5.9,1.64,5.53,9.44,7.62,14.24,1,2.26,2.36,5.26,5.23,5.32a3.37,3.37,0,0,0,3.56-3.89c-.05-.45-.66-.72-.91-.25Z" transform="translate(0 0)"/></g><g class="cls-32"><path class="cls-33" d="M305.22,333.28c5.82.68,14,0,18.46-4.29a.71.71,0,0,0-.69-1.17c-2.81.61-5.39,2.07-8.18,2.84a51.07,51.07,0,0,1-9.59,1.59.52.52,0,0,0,0,1Z" transform="translate(0 0)"/></g><path class="cls-3" d="M260.94,332.19c-.1,1.59-.27,3.19-.4,4.78s-.28,3.19-.48,4.79-.49,3.19-.72,4.79-.56,3.2-.9,4.81a.11.11,0,0,1-.13.08.14.14,0,0,1-.08-.07c-.49-1.57-.91-3.14-1.34-4.7s-.82-3.14-1.16-4.71-.63-3.15-.93-4.72-.6-3.15-.85-4.72a3.52,3.52,0,0,1,7-1.11A3.42,3.42,0,0,1,260.94,332.19Z" transform="translate(0 0)"/><path class="cls-3" d="M325.56,350.55c-.1,1.59-.27,3.19-.4,4.78s-.28,3.19-.48,4.78-.49,3.2-.72,4.8-.56,3.2-.9,4.8a.1.1,0,0,1-.13.08.08.08,0,0,1-.08-.07c-.49-1.56-.91-3.13-1.34-4.7s-.82-3.13-1.16-4.7-.63-3.15-.93-4.72-.6-3.15-.85-4.72a3.52,3.52,0,0,1,7-1.11A3.42,3.42,0,0,1,325.56,350.55Z" transform="translate(0 0)"/><path class="cls-3" d="M274.2,325.11c.32,10.22.56,20.43.42,30.65,0,5.1-.25,10.21-.42,15.31s-.5,10.2-.86,15.29a.12.12,0,0,1-.11.1.11.11,0,0,1-.1-.1l-1.38-15.23-1.43-15.2c-1-10.12-1.92-20.22-3.1-30.3a3.5,3.5,0,0,1,7-.82C274.19,324.91,274.2,325,274.2,325.11Z" transform="translate(0 0)"/><path class="cls-3" d="M333.56,349.61c.4,11,.65,21.95.44,32.91-.06,5.49-.32,11-.56,16.44s-.65,11-1.12,16.4a.12.12,0,0,1-.12.1.11.11,0,0,1-.09-.1q-.53-8.19-1.12-16.37c-.37-5.45-.87-10.89-1.29-16.32-.92-10.87-1.87-21.72-3.12-32.53a3.5,3.5,0,0,1,6.95-.81Z" transform="translate(0 0)"/><path class="cls-3" d="M288,324.06c.17,3.65.24,7.31.31,11s.08,7.31,0,11-.26,7.31-.43,10.95-.48,7.29-.83,10.93a.1.1,0,0,1-.11.09.11.11,0,0,1-.1-.09L285.42,357,284,346.22l-1.41-10.77L281,324.72a3.51,3.51,0,1,1,6.94-1C288,323.83,288,324,288,324.06Z" transform="translate(0 0)"/><path class="cls-3" d="M353.36,426.59c-1.44,16.05-2.36,32.15-3,48.28-.29,8.07-.65,16.14-.79,24.22q-.1,6.06-.16,12.13l-.07,12.14a.09.09,0,0,1-.1.1.1.1,0,0,1-.1-.09c-.39-4-.78-8.06-1.1-12.1s-.59-8.08-.85-12.13c-.49-8.09-1-16.19-1.14-24.3-.45-16.22-.24-32.46.36-48.69a3.5,3.5,0,1,1,7,.26A1.15,1.15,0,0,1,353.36,426.59Z" transform="translate(0 0)"/><path class="cls-3" d="M354.79,401.28c-1.06-15.81.39-31.54.44-47.42,0-6.85,1.32-13.64,1.28-20.46,0-6-2.46-11.22-8.67-12.76-13.48-3.36-24.59.66-38,.48-7.16-.09-16.14-.92-23.39-1.52-7.42-.61-15-.82-22.28.91-3.49.83-6.32,2.61-9.34,4.52-2.35,1.48-6.49,3.46-7.17,6.48-1.44,6.37,12.7,5,16.27,4.82,7.24-.33,14.39-1.54,21.58-2.35,6.09-.68,14.06-2.16,19.91.29,6.74,2.82,3.09,9.89,5.65,15.11,3.12,6.35,10.85,7.62,17.1,8.55,2.66.4,5.84.6,8,2.37,2.69,2.19,2.64,5.92,2.83,9.09q.69,11.64.85,23.3c.12,8.16-.31,16.34,0,24.49.22,6.41,1.3,13.84,6.56,18.19,6.62,5.48,6.25-2.83,7.66-8.17C356.19,419,355.35,409.67,354.79,401.28Z" transform="translate(0 0)"/><g class="cls-32"><path class="cls-33" d="M313.11,332.78c2.9,1.74,1.73,6.31,2.72,9a8.51,8.51,0,0,0,3,3.88c3.51,2.6,8.62,3,12.7,1.7a.85.85,0,0,0,0-1.63c-5.33-1.19-11.69-.06-13.49-6.7-.8-2.95-1.44-5.82-4.72-6.79a.28.28,0,0,0-.21.51Z" transform="translate(0 0)"/></g></svg>