<svg width="945" height="89" viewBox="0 0 945 89" fill="none" xmlns="http://www.w3.org/2000/svg">
<g id="snow" clip-path="url(#clip0)">
<path id="Vector" d="M943.25 13.1899C939.17 18.6599 932.86 26.2699 926.11 30.5199C925.121 31.0665 924.079 31.5121 923 31.8498C921.08 32.4998 918.87 33.0998 917.51 33.5098C883.22 43.8398 845.12 48.8299 807.31 47.9399C793.41 47.6199 778.99 46.3799 767.31 41.4399C765.25 40.5599 763.23 38.5899 765.18 37.6199C752.834 39.3017 740.295 38.93 728.07 36.5199C725.086 36.0292 722.134 35.3614 719.23 34.5199C717.48 33.9199 716.08 33.1798 715.56 32.1998C715.365 31.8734 715.244 31.5084 715.204 31.1302C715.164 30.752 715.207 30.3697 715.33 30.0098C715.674 29.3298 716.161 28.7325 716.759 28.2594C717.356 27.7863 718.049 27.4487 718.79 27.2699C719.481 27.0295 720.195 26.8619 720.92 26.7699L718.85 27.0299C709.29 28.2769 699.669 29.0113 690.03 29.2298C685.16 29.3398 679.93 29.2299 675.65 27.8999C676.026 28.2723 676.269 28.7581 676.341 29.2822C676.413 29.8063 676.311 30.3396 676.05 30.7999C675 32.5299 672.31 33.5899 669.7 34.3699C658.11 37.8299 647.54 36.8598 635.39 36.4498C622.23 36.0098 609.16 36.3998 595.99 35.4498C593.18 35.2598 585.19 34.4499 576.67 33.0899C561.67 30.6199 545.02 26.2399 552.32 19.7999C552.966 19.3471 553.698 19.0307 554.47 18.8699C561.072 17.1586 567.8 15.9749 574.59 15.3299C573.31 15.4599 572.01 15.5598 570.69 15.6398C557.48 16.3798 542.49 14.6399 529.41 15.1099C514 15.6799 498.57 14.1099 482.98 14.9999L481.77 15.0698C487.59 15.9098 493.89 16.9598 498.2 19.4798C499.1 19.9881 499.933 20.6062 500.68 21.3198C476.47 25.1798 450.93 28.8999 426.9 24.5799C421.19 23.5799 415.69 22.0899 409.9 21.1799C387.07 17.6199 361.04 22.9698 340.24 16.6698C337.31 16.7198 334.39 16.6699 331.5 16.5499C329.433 16.4499 327.377 16.2998 325.33 16.0998C323.63 15.9398 321.95 15.7499 320.33 15.5199H320.15C320.15 15.5199 320.15 15.5199 320.15 15.5899C320.228 15.6686 320.285 15.766 320.314 15.8728C320.344 15.9795 320.346 16.0921 320.32 16.1998C320.13 16.8898 319.23 17.2599 318.43 17.5299C309.3 20.43 299.973 22.6658 290.52 24.2199C290.474 24.229 290.426 24.229 290.38 24.2199C288 24.6199 285.67 24.9499 283.46 25.2199C281.85 25.4099 280.31 25.5499 278.87 25.6499C244.12 27.9899 213.67 29.0799 180 24.9599C177.64 24.6899 175.24 24.3699 172.84 24.0199L170.39 23.6698C156.49 33.7398 137.12 36.9698 118.58 38.6698C91.5607 41.1281 64.3754 41.1616 37.35 38.7699C24.56 37.6299 11.59 35.8799 0.0400391 31.2199C0.190039 30.1399 0.350042 28.8999 0.500042 27.5599C1.31252 20.6442 1.77644 13.6921 1.89004 6.72985C20.91 5.49651 39.9434 4.44986 58.99 3.58986C111.91 1.20986 164.91 0.336533 217.99 0.969867C244.503 1.2832 271 1.96986 297.48 3.02986C317.97 3.84986 341.33 2.91986 362.12 5.83986C365.73 5.63986 369.37 5.57986 372.94 5.58986C413.04 5.72986 453.17 1.41985 493.46 0.519854C544.95 -0.620145 596.46 0.179864 647.94 1.27986C698.55 2.35986 749.16 3.72985 799.81 3.85985C825.06 3.91985 850.32 3.67986 875.55 2.92986C887.89 2.55652 900.223 2.05987 912.55 1.43987C920.11 1.04987 935.47 0.329847 941.78 3.69985C945.78 5.89985 945.55 10.1099 943.25 13.1899Z" fill="#F4F4F4"/>
<path id="Vector_2" d="M320.32 16.2301C320.13 16.9201 319.23 17.2901 318.43 17.5601C309.3 20.4602 299.972 22.6961 290.52 24.2501C290.474 24.2593 290.426 24.2593 290.38 24.2501C288.13 24.5601 285.89 24.8601 283.64 25.1401L283.46 25.2301C281.85 25.4201 280.31 25.5601 278.87 25.6601C275.87 25.6601 272.87 26.0601 269.92 26.2401C253.2 27.2401 236.45 27.9601 219.69 27.6701C212.49 27.5501 205.29 27.0701 198.11 26.8001C193.34 26.6201 188.68 26.0701 183.94 25.6901C181.407 25.4901 178.883 25.2434 176.37 24.9501C175.179 24.8378 173.999 24.6339 172.84 24.3401C172.055 23.9345 171.17 23.7611 170.29 23.8401C169.987 23.9393 169.705 24.0954 169.46 24.3001C167.517 25.6623 165.482 26.8885 163.37 27.9701C149.64 35.1001 133.77 37.2801 118.54 38.6801C91.5206 41.1384 64.3354 41.1719 37.31 38.7801C24.52 37.6401 11.55 35.8901 0 31.2301C0.15 30.1501 0.309999 28.9101 0.459999 27.5701C4.44119 28.8625 8.49068 29.9341 12.59 30.7801C19.49 32.0801 26.37 33.4801 33.28 34.7801C48.5 37.6301 63.64 37.3501 79.05 36.7801C84.47 36.5668 89.8767 36.2335 95.27 35.7801C106.13 34.8801 117.14 34.7801 128.01 33.0501C134.725 31.959 141.337 30.3133 147.78 28.1301C150.44 27.2601 153.09 26.9801 155.78 26.0101C159.04 24.8301 162.23 23.4701 165.57 22.5301C165.798 22.4751 166.015 22.3803 166.21 22.2501C166.89 21.7001 166.48 20.6001 165.93 19.9301C165.38 19.2601 164.71 18.4201 165.04 17.6201C169.233 20.0748 173.949 21.4973 178.8 21.7701C205.57 23.9901 232.8 25.1301 259.8 23.4001C271.32 22.6601 282.8 20.5301 294.28 20.1001C303.079 19.7848 311.796 18.2777 320.19 15.6201C320.261 15.7027 320.31 15.8019 320.333 15.9085C320.356 16.0151 320.351 16.1257 320.32 16.2301V16.2301Z" fill="#E0E0E0"/>
<path id="Vector_3" d="M500.68 21.3801C476.47 25.2401 450.93 28.9601 426.9 24.6401C421.19 23.6401 415.69 22.1501 409.9 21.2401C394.84 18.8901 379.52 20.3401 364.36 19.9601C357.17 19.7901 350.27 18.5601 343.18 17.7501C334.822 16.8969 326.418 16.5829 318.02 16.8101C318.72 16.8101 320.39 15.3301 321.13 15.0101C322.373 14.4694 323.681 14.0897 325.02 13.8801C327.48 13.5101 329.9 14.1701 332.37 14.3301C338.67 14.7601 344.88 15.9801 351.13 16.8201C359.2 17.9101 367.06 17.1601 375.19 16.9601C386.55 16.6901 398.19 16.2801 409.19 18.9601C419.97 21.5701 430.88 23.8901 441.97 24.5301C447.497 24.7562 453.033 24.384 458.48 23.4201C461.21 22.9801 463.93 22.4201 466.64 21.9401C477.05 19.9401 487.72 22.4701 498.14 19.5401C499.061 20.0441 499.914 20.6624 500.68 21.3801Z" fill="#E0E0E0"/>
<path id="Vector_4" d="M718.8 26.75L718.5 26.81C716.422 27.3219 714.32 27.7258 712.2 28.02C709.94 28.17 707.64 28.29 705.37 28.47C700.27 28.87 695.157 29.13 690.03 29.25C685.16 29.36 679.93 29.25 675.65 27.92C676.026 28.2924 676.269 28.7782 676.341 29.3023C676.413 29.8264 676.311 30.3597 676.05 30.82C675 32.55 672.31 33.61 669.7 34.39C658.11 37.85 647.54 36.88 635.39 36.47C622.23 36.03 609.16 36.42 595.99 35.47C593.265 35.4489 590.545 35.235 587.85 34.83C584.63 34.1452 581.365 33.6941 578.08 33.48C576.701 33.5222 575.331 33.2414 574.08 32.66C574.61 32.97 576.57 32.49 577.23 32.46C578.51 32.41 579.79 32.38 581.08 32.38C583.475 32.3123 585.871 32.4562 588.24 32.81C592.77 33.64 597.58 33.62 602.24 33.86C606.13 34.06 610 34.38 613.88 34.69C617.35 34.97 620.99 34.63 624.51 34.69C632.4 34.82 640.28 35.2 648.16 35.17C652.1 35.17 656.04 35.04 659.96 34.75C663.36 34.49 667.85 34.64 670.96 32.94C672.494 32.0543 674.084 31.2693 675.72 30.59C675.426 30.4954 675.169 30.3099 674.987 30.0601C674.805 29.8103 674.707 29.5091 674.707 29.2C674.707 28.8909 674.805 28.5897 674.987 28.3399C675.169 28.0901 675.426 27.9046 675.72 27.81C679.29 26.7 683.15 27.11 686.85 27.19C693.907 27.4588 700.973 27.2416 708 26.54C712.66 25.98 717 24.16 721.73 24.21C721.533 24.8677 721.153 25.4557 720.634 25.9054C720.115 26.3551 719.479 26.6481 718.8 26.75V26.75Z" fill="#E0E0E0"/>
<path id="Vector_5" d="M925.87 30.2202C924.94 30.8102 923.98 31.3501 923 31.8501C921.08 32.5001 918.87 33.1001 917.51 33.5101C883.22 43.8401 845.12 48.8302 807.31 47.9402C793.41 47.6202 778.99 46.3802 767.31 41.4402C765.25 40.5602 763.23 38.5901 765.18 37.6201C752.834 39.302 740.295 38.9303 728.07 36.5201C723.65 35.6401 718.36 35.4501 715.23 31.7701C716.151 31.7167 717.067 31.9396 717.86 32.4102C721.351 33.9371 725.065 34.8926 728.86 35.2401C731.108 35.6189 733.381 35.8394 735.66 35.9001C737.88 35.8201 740.13 35.1501 742.38 34.9901C744.635 34.8301 746.899 34.8502 749.15 35.0501C751.39 35.2501 753.93 36.2501 756.15 36.1301C757.95 36.0201 759.78 34.8801 761.5 34.3901C763.728 33.7999 766.003 33.4018 768.3 33.2001C767.241 34.2597 766.338 35.4653 765.62 36.7802C765.489 36.984 765.413 37.2183 765.4 37.4601C765.4 37.9001 765.81 38.2201 766.19 38.4601C766.914 38.7949 767.682 39.0272 768.47 39.1501C773.97 40.2801 779.81 41.2201 785.19 42.7701C790.19 44.2201 795.6 44.5701 800.87 44.8501C808.995 45.2921 817.142 45.068 825.23 44.1801C831.16 43.5301 836.99 42.1802 842.94 41.6902C848.89 41.2002 854.87 41.8001 860.83 41.6001C868.219 41.2385 875.549 40.1022 882.7 38.2101C889.8 36.4601 896.91 34.7001 903.87 32.4801C910.41 30.4001 917.46 29.4801 923.72 26.6201C926.19 25.4401 928.19 28.7302 925.87 30.2202Z" fill="#E0E0E0"/>
<path id="Vector_6" d="M91.6999 15.5199C93.1399 15.9699 93.9599 17.4599 92.5499 18.5199C91.6284 18.9829 90.668 19.3644 89.6799 19.6599C86.3899 21.1399 80.5599 21.9699 77.5799 19.0099C77.1545 18.5412 76.9139 17.934 76.9029 17.3012C76.8918 16.6683 77.1111 16.0531 77.5199 15.5699C72.8899 15.4899 67.8099 15.2899 64.5199 12.9799C64.8046 13.1535 65.0501 13.3844 65.2409 13.6578C65.4318 13.9313 65.5638 14.2414 65.6287 14.5685C65.6935 14.8955 65.6898 15.2325 65.6177 15.5581C65.5456 15.8837 65.4068 16.1907 65.2099 16.4599C62.7899 18.8699 58.7899 18.6999 55.4799 18.8799C48.1938 19.1923 40.895 18.7499 33.6999 17.5599C29.7899 16.8199 17.1799 15.0099 17.0399 10.8999C16.8599 7.98988 22.3999 7.08987 25.5699 7.10987L71.7799 6.69987C79.6899 6.62987 94.3799 5.46987 101.21 9.51987C108.04 13.5699 99.4999 15.0499 91.6999 15.5199ZM133.24 17.5199C126.79 15.7599 117.81 14.8499 111.47 17.4099C111.135 17.5113 110.842 17.7177 110.633 17.9986C110.425 18.2796 110.312 18.6201 110.312 18.9699C110.312 19.3197 110.425 19.6602 110.633 19.9411C110.842 20.222 111.135 20.4285 111.47 20.5299C118.35 23.1799 127.86 25.4399 133.91 20.0399C134.093 19.8515 134.224 19.619 134.29 19.3649C134.357 19.1108 134.356 18.8439 134.289 18.5901C134.221 18.3363 134.089 18.1043 133.905 17.9168C133.722 17.7292 133.492 17.5925 133.24 17.5199V17.5199ZM42.9499 24.5199C42.1461 24.6437 41.333 24.6972 40.5199 24.6799C39.6699 24.5899 39.5199 25.9699 40.3199 26.1599C40.9712 26.3383 41.653 26.3758 42.3199 26.2699C42.5859 26.1983 42.8342 26.0725 43.0493 25.9004C43.2644 25.7283 43.4417 25.5137 43.5699 25.2699C43.629 25.1788 43.6575 25.0713 43.6512 24.9629C43.645 24.8546 43.6043 24.751 43.5352 24.6673C43.466 24.5837 43.372 24.5243 43.2667 24.4977C43.1614 24.4712 43.0505 24.479 42.9499 24.5199ZM204.61 7.30988C199.47 5.14988 193.77 5.37986 188.29 5.53986C183.29 5.68986 177.89 5.59989 173.44 8.15989C173.16 8.33357 172.937 8.58419 172.796 8.88172C172.656 9.17925 172.604 9.51104 172.647 9.83726C172.691 10.1635 172.827 10.4703 173.04 10.7208C173.254 10.9714 173.535 11.1551 173.85 11.2499C178.85 12.2499 184 11.5599 189.02 11.6799C194.28 11.7999 199.67 12.2999 204.61 10.2199C204.939 10.1379 205.231 9.94821 205.44 9.68091C205.649 9.41362 205.763 9.08413 205.763 8.74488C205.763 8.40563 205.649 8.07611 205.44 7.80881C205.231 7.54152 204.939 7.35181 204.61 7.26987V7.30988ZM171.72 11.4699C170.433 10.8238 168.997 10.5337 167.56 10.6299C166.004 10.7051 164.466 10.9945 162.99 11.4899C162.843 11.5372 162.714 11.6299 162.623 11.7548C162.532 11.8797 162.483 12.0303 162.483 12.1849C162.483 12.3394 162.532 12.49 162.623 12.6149C162.714 12.7398 162.843 12.8326 162.99 12.8799C164.468 13.3705 166.005 13.6598 167.56 13.7399C168.997 13.836 170.433 13.546 171.72 12.8999C171.854 12.8295 171.966 12.7239 172.045 12.5943C172.123 12.4648 172.164 12.3163 172.164 12.1649C172.164 12.0135 172.123 11.865 172.045 11.7354C171.966 11.6059 171.854 11.5002 171.72 11.4299V11.4699ZM144.54 12.8799C142.59 12.5999 140.54 13.0499 138.68 12.4299C137.35 11.9899 136.81 14.0499 138.11 14.5099C139.185 14.8726 140.322 15.0135 141.453 14.9241C142.584 14.8347 143.685 14.5169 144.69 13.9899C144.806 13.9345 144.902 13.8437 144.963 13.7307C145.025 13.6176 145.049 13.4881 145.032 13.3605C145.015 13.2329 144.959 13.1138 144.87 13.0203C144.782 12.9268 144.666 12.8637 144.54 12.8399V12.8799ZM276.44 12.4299C273.28 10.5599 269.05 10.5899 265.44 10.8999C262.76 11.1399 258.7 11.1999 257.37 13.8999C257.293 14.0452 257.263 14.2109 257.284 14.3741C257.306 14.5372 257.378 14.6896 257.49 14.8099C259.49 16.9299 263.41 16.2999 266.07 16.3999C269.5 16.5399 273.24 16.7999 276.4 15.3099C276.655 15.1626 276.867 14.9517 277.016 14.6977C277.165 14.4438 277.245 14.1556 277.249 13.8612C277.253 13.5669 277.181 13.2766 277.039 13.0187C276.897 12.7607 276.691 12.5441 276.44 12.3899V12.4299ZM239.94 8.28986C237.18 7.72986 234.34 8.62988 231.57 8.42988C230.27 8.33988 230.13 10.0199 230.97 10.6399C233.66 12.6399 237.55 11.8199 240.16 9.99988C240.76 9.51988 240.79 8.41988 239.94 8.24988V8.28986ZM447.72 9.28986C443.47 8.09986 437.98 9.59987 433.61 9.76987C428.663 10.0983 423.698 10.0415 418.76 9.59986C417.81 9.48986 417.76 10.7699 418.33 11.2099C422.57 14.4099 428.47 14.8599 433.61 14.7699C438 14.6899 444.98 14.7699 448.26 11.3299C448.416 11.1783 448.529 10.9881 448.587 10.7787C448.646 10.5692 448.647 10.3481 448.592 10.1377C448.538 9.92729 448.428 9.73523 448.275 9.58103C448.121 9.42683 447.93 9.31601 447.72 9.25986V9.28986ZM451.06 14.7299C447.77 13.9799 443.06 13.4799 440.33 15.7899C439.68 16.3399 440.24 17.3599 440.99 17.3799C444.14 17.4899 448.47 18.2099 451.27 16.3799C451.43 16.2923 451.56 16.1586 451.644 15.996C451.727 15.8335 451.759 15.6496 451.737 15.4684C451.714 15.2872 451.637 15.117 451.517 14.9799C451.396 14.8429 451.237 14.7453 451.06 14.6999V14.7299ZM415.3 10.6699C414.3 9.98987 409.65 11.5299 411.73 12.8699C412.77 13.4199 416.92 12.1099 415.3 10.6399V10.6699ZM558.01 6.66987C552.93 5.33987 548.18 7.01989 543.14 7.40989C541.67 7.47989 541.14 9.75988 542.77 10.0899C547.89 11.3599 553.04 10.5599 558.01 9.16987C558.297 9.1021 558.553 8.93934 558.736 8.70792C558.92 8.47651 559.019 8.19001 559.019 7.89487C559.019 7.59974 558.92 7.31324 558.736 7.08182C558.553 6.85041 558.297 6.68765 558.01 6.61988V6.66987ZM623.19 15.1699C618.02 12.7399 611.73 13.3199 606.19 13.2299C600.65 13.1399 594.36 12.7299 589.48 15.5999C589.169 15.7747 588.94 16.0643 588.841 16.4066C588.742 16.7488 588.781 17.1162 588.95 17.4299C586.16 17.5699 580.57 18.5699 582.49 22.1399C583.82 24.6299 588.35 24.4099 590.75 24.7399C593.977 25.342 597.311 24.9371 600.3 23.5799C600.479 23.473 600.632 23.3268 600.747 23.1524C600.861 22.9779 600.935 22.7798 600.962 22.5728C600.989 22.3659 600.968 22.1555 600.902 21.9575C600.836 21.7595 600.726 21.5791 600.58 21.4299C599.961 20.8339 599.292 20.2919 598.58 19.8099C601.45 19.9899 604.34 19.9799 607.04 20.1199C612.37 20.4099 618.46 21.2899 623.28 18.5199C623.554 18.3308 623.776 18.0763 623.927 17.7795C624.077 17.4828 624.152 17.1531 624.143 16.8205C624.134 16.4878 624.042 16.1626 623.876 15.8744C623.709 15.5862 623.474 15.344 623.19 15.1699ZM620.68 21.3799C617.97 19.7399 614.36 20.7699 611.86 22.3799C611.603 22.4488 611.383 22.6171 611.25 22.8478C611.117 23.0785 611.081 23.3526 611.15 23.6099C611.219 23.8671 611.387 24.0865 611.618 24.2196C611.849 24.3528 612.123 24.3888 612.38 24.3199C613.99 24.4499 623.69 24.7099 620.67 21.3799H620.68ZM700.09 7.63987C691.19 5.26987 681.91 7.17989 672.85 6.68989C662.25 6.11989 651.73 4.56989 641.2 6.68989C640.734 6.75808 640.304 6.98187 639.981 7.32496C639.658 7.66805 639.46 8.11029 639.42 8.57987C637.353 8.68818 635.396 9.54894 633.92 10.9999C633.808 11.1235 633.729 11.2729 633.69 11.4347C633.651 11.5965 633.653 11.7656 633.696 11.9265C633.738 12.0874 633.821 12.2351 633.935 12.3561C634.049 12.4772 634.192 12.5679 634.35 12.6199C646.43 15.5199 657.96 17.6199 670.72 16.7499C669.27 19.8199 675.18 21.2999 677.36 21.1799C679.846 21.0272 682.254 20.2499 684.36 18.9199C686.36 18.0399 685.04 15.4999 683.36 15.2999C682.54 15.1999 681.8 14.8199 680.91 14.7699C679.44 14.6399 679.34 14.8599 680.68 14.1299C687.03 14.8999 693.95 13.0499 700.12 12.1299C702.47 11.8399 702.19 8.19987 700.08 7.63987H700.09ZM657.09 21.4599C655.77 21.0699 654.28 21.4599 652.94 21.0099C652.608 20.9349 652.26 20.979 651.958 21.1344C651.655 21.2899 651.417 21.5469 651.284 21.8604C651.152 22.1739 651.134 22.5239 651.234 22.8492C651.334 23.1745 651.545 23.4544 651.83 23.6399C652.78 24.2445 653.895 24.5381 655.02 24.4799C655.55 24.4222 656.062 24.2502 656.519 23.9757C656.977 23.7012 657.369 23.3307 657.67 22.8899C657.74 22.7595 657.78 22.6152 657.788 22.4674C657.795 22.3197 657.77 22.172 657.713 22.0352C657.657 21.8984 657.571 21.7759 657.461 21.6764C657.352 21.5769 657.222 21.5029 657.08 21.4599H657.09ZM860.86 19.0199C854.383 20.7909 847.667 21.53 840.96 21.2099C843.35 23.0299 844.72 25.3399 842.85 27.8799C839.45 32.4799 830.57 30.5199 825.85 30.2899C818.73 30.0599 814.29 30.6599 806.32 30.2899C802.53 30.4999 798.18 30.5199 794.62 29.0199C795.75 29.9499 794.1 30.7899 793.32 31.1799C792.895 31.4551 792.442 31.6863 791.97 31.8699C790.878 32.0921 789.742 31.9146 788.77 31.3699C787.23 30.6099 788.37 28.4199 789.88 28.7399C790.62 28.8899 791.36 28.6199 792.12 28.7399C792.88 28.8599 793.68 28.7399 794.44 28.9399C792.649 28.1795 791.105 26.9366 789.98 25.3499C789.756 25.0453 789.623 24.6835 789.597 24.3066C789.57 23.9296 789.651 23.5528 789.83 23.2199C785.19 23.2199 781.22 23.0199 779.59 22.9599C769.98 22.6399 758.08 23.0299 747.87 20.2899C744.05 20.0799 739.29 19.9099 736.11 17.4599C732.54 16.6499 728.94 13.8799 730.78 10.5399C730.833 10.4494 730.907 10.3722 730.994 10.3144C731.082 10.2565 731.182 10.2194 731.286 10.2059C731.39 10.1924 731.496 10.2028 731.595 10.2365C731.695 10.2701 731.785 10.326 731.86 10.3999C732.73 11.2799 733.4 12.2099 734.28 12.9799C734.304 12.9385 734.324 12.895 734.34 12.8499C733.07 11.7599 731.66 9.84987 733.23 8.32987C739.36 3.50987 748.04 7.76988 754.95 8.08988C761.1 8.08988 767.32 8.66988 773.26 8.83988C773.424 8.8416 773.582 8.89749 773.71 8.99882C773.839 9.10014 773.93 9.24118 773.97 9.39988H774.67C774.805 8.76155 775.172 8.19621 775.701 7.81367C776.23 7.43112 776.881 7.25869 777.53 7.32987C780.72 7.71987 783.94 7.95987 786.98 8.60987C793.12 8.07987 799.27 7.94987 805.44 7.51987C808.519 7.15469 811.638 7.32384 814.66 8.01987C819.753 7.17168 824.899 6.67053 830.06 6.51987C839.89 5.45987 849.77 3.21988 859.14 6.80988C863.58 6.90988 867.37 8.19987 867.82 12.6699C868.25 16.6399 863.89 18.1399 860.85 19.0199H860.86ZM859.99 13.1199C857.469 13.2104 854.955 13.4408 852.46 13.8099C852.642 14.1142 852.751 14.4564 852.78 14.8099C855.222 14.4445 857.63 13.8792 859.98 13.1199H859.99ZM741.39 19.3399C739.076 18.7918 736.694 18.5863 734.32 18.7299C732.32 18.7299 730.04 18.1699 728.17 19.0599C727.969 19.1844 727.823 19.3816 727.763 19.6107C727.704 19.8398 727.735 20.083 727.85 20.2899C728.85 22.4799 731.77 23.2899 733.96 23.4999C736.653 23.7891 739.37 23.2297 741.73 21.8999C741.96 21.7551 742.144 21.5472 742.26 21.3009C742.375 21.0547 742.418 20.7804 742.382 20.5107C742.346 20.241 742.234 19.9873 742.058 19.7798C741.882 19.5722 741.65 19.4195 741.39 19.3399V19.3399ZM830.77 34.9999C830.52 34.9999 830.28 34.9999 830.04 34.9999C829.04 34.6099 827.82 34.9999 826.74 34.5399C825.21 33.8599 823.86 35.9999 825.4 36.8399C825.81 37.2187 826.297 37.5042 826.827 37.6766C827.358 37.8491 827.92 37.9044 828.474 37.8388C829.028 37.7733 829.562 37.5883 830.037 37.2967C830.513 37.0052 830.92 36.6139 831.23 36.1499C831.33 36.0595 831.4 35.9405 831.431 35.809C831.461 35.6775 831.451 35.5398 831.401 35.4145C831.351 35.2892 831.263 35.1822 831.151 35.1081C831.038 35.0339 830.905 34.9962 830.77 34.9999V34.9999ZM704.9 14.0699C704.45 13.1399 703.42 13.0699 702.51 12.9999C702.131 13.0196 701.762 13.1256 701.43 13.3099C701.214 13.3641 701.022 13.4889 700.885 13.6647C700.748 13.8404 700.673 14.057 700.673 14.2799C700.673 14.5028 700.748 14.7193 700.885 14.8951C701.022 15.0708 701.214 15.1957 701.43 15.2499C702.049 15.5843 702.729 15.7916 703.43 15.8599C703.91 15.9099 704.15 15.6899 704.55 15.5799C704.695 15.5282 704.826 15.4407 704.928 15.3255C705.031 15.2103 705.103 15.0711 705.138 14.9207C705.173 14.7702 705.17 14.6135 705.128 14.4648C705.086 14.3161 705.008 14.1803 704.9 14.0699Z" fill="white"/>
<path id="Vector_7" d="M364.01 55.1399C364.48 61.2599 257.28 65.0099 246.68 64.9199L213.68 64.6699C193.85 64.5199 174.95 61.3199 157.08 52.2899C155.36 51.4299 153.47 50.1199 152.96 48.4299C152.814 47.9779 152.783 47.4968 152.87 47.0299C153.193 45.8197 153.97 44.7808 155.04 44.1298C158.27 41.7998 162.35 41.0499 166.28 40.4199C205.34 34.1699 245.11 33.9999 284.64 35.2299C309.93 36.0099 336.12 37.5799 358.64 49.2299C360.442 50.04 362.021 51.2754 363.24 52.8299C363.686 53.5234 363.951 54.3176 364.01 55.1399V55.1399Z" fill="#F4F4F4"/>
<path id="Vector_8" d="M364.01 55.14C364.48 61.26 257.28 65.01 246.68 64.92L213.68 64.67C193.85 64.52 174.95 61.32 157.08 52.29C155.36 51.43 153.47 50.12 152.96 48.43C152.997 48.3501 153.041 48.2732 153.09 48.2C154.47 46.2 157.2 48.53 159 49.3C164.544 51.677 170.304 53.5155 176.2 54.79C182.08 56.07 188.41 56.49 194.39 57.09C208.68 58.52 223.05 60.72 237.39 61.24C244.723 61.5066 252.057 61.4133 259.39 60.96C267.93 60.42 276.39 59.39 284.96 58.72C292.87 58.09 300.34 58.94 308.19 58.66C325.605 58.0388 342.96 56.2616 360.14 53.34C361.173 53.1666 362.203 52.9866 363.23 52.8C363.684 53.5013 363.952 54.3065 364.01 55.14V55.14Z" fill="#E0E0E0"/>
<path id="Vector_9" d="M295.73 35.77C287.33 35.62 278.88 36 271.14 35.7C251.52 34.94 231.81 33.78 212.24 35.88C201.504 36.9843 190.879 38.9914 180.48 41.88C179.66 42.11 178.71 42.47 178.72 43.05C178.73 43.63 179.79 44.05 180.72 44.26C196.023 47.8132 211.691 49.5518 227.4 49.44C239.68 49.36 252.47 48.03 262.29 43.33C263.29 44.33 265.29 44.66 267.06 44.87C276.64 46 287.34 47.23 297.01 46.47L292.94 48.81C292.68 48.96 292.4 49.16 292.49 49.37C292.58 49.58 292.86 49.64 293.13 49.71C300.589 51.5665 308.408 51.3973 315.78 49.22C316.132 49.1579 316.453 48.9781 316.69 48.71C316.95 48.27 316.25 47.84 315.64 47.57L310.32 45.18C313.09 46.42 325.08 43.36 328.01 42.8C327.87 42.8 324.73 40.7 324.24 40.49C315.63 36.84 305.71 35.94 295.73 35.77Z" fill="#F9F9F9"/>
<path id="Vector_10" d="M764.69 58.4002C765.06 63.1902 681.03 66.1302 672.69 66.0702L646.8 65.8702C631.25 65.7502 616.44 63.2502 602.43 56.1702C601.09 55.4902 599.6 54.4702 599.2 53.1702C599.086 52.8149 599.062 52.437 599.13 52.0702C599.383 51.1199 599.996 50.3056 600.84 49.8002C603.37 47.9802 606.56 47.3902 609.65 46.8902C640.26 41.9902 671.44 41.8902 702.42 42.8202C722.25 43.4402 742.77 44.6602 760.42 53.8202C761.838 54.4477 763.078 55.4166 764.03 56.6402C764.396 57.1613 764.623 57.767 764.69 58.4002V58.4002Z" fill="#F4F4F4"/>
<path id="Vector_11" d="M764.69 58.4002C765.06 63.1902 681.03 66.1302 672.69 66.0702L646.8 65.8702C631.25 65.7502 616.44 63.2502 602.43 56.1702C601.09 55.4902 599.6 54.4702 599.2 53.1702C599.233 53.1081 599.27 53.048 599.31 52.9902C600.39 51.4402 602.53 53.2502 603.94 53.8502C608.284 55.7155 612.798 57.1556 617.42 58.1502C621.502 58.9428 625.636 59.4374 629.79 59.6302C634.05 59.9302 638.2 60.5402 642.42 61.0602C650.67 62.0602 658.98 63.0602 667.32 63.2702C675.98 63.4902 684.62 62.6903 693.24 61.9703C697.39 61.6203 702.05 60.7102 706.24 61.1102C710.279 61.4137 714.334 61.4672 718.38 61.2702C733.692 60.8511 748.951 59.2901 764.03 56.6002C764.402 57.1329 764.63 57.7532 764.69 58.4002V58.4002Z" fill="#E0E0E0"/>
<path id="Vector_12" d="M711.19 43.2099C704.6 43.0999 697.98 43.3899 691.91 43.1599C676.54 42.5599 661.08 41.6599 645.75 43.3099C637.333 44.1576 629.002 45.7199 620.85 47.9799C620.2 48.1599 619.46 48.4499 619.46 48.8999C619.46 49.3499 620.31 49.6799 621.02 49.8399C633.014 52.6287 645.296 53.9948 657.61 53.9099C667.24 53.8399 677.26 52.7999 684.96 49.1199C685.72 49.8999 687.29 50.1199 688.7 50.3299C696.21 51.2199 704.59 52.1799 712.18 51.5799L708.98 53.4099C708.78 53.5299 708.56 53.6899 708.63 53.8599C708.7 54.0299 708.93 54.0699 709.13 54.1199C714.978 55.577 721.109 55.4458 726.89 53.7399C727.164 53.6875 727.413 53.547 727.6 53.3399C727.8 52.9899 727.26 52.6499 726.78 52.4399L722.61 50.5699C724.78 51.5699 734.18 49.1399 736.48 48.6999C736.36 48.6999 733.9 47.0599 733.48 46.8999C726.77 44.0499 718.99 43.3499 711.19 43.2099Z" fill="white"/>
<path id="Vector_13" d="M593.4 38.5199C593.63 41.9999 542.79 44.1399 537.76 44.0899L522.09 43.9499C512.68 43.8699 503.72 42.0399 495.25 36.9499C494.329 36.4959 493.615 35.7098 493.25 34.7499C493.2 34.4857 493.2 34.2142 493.25 33.9499C493.375 33.2979 493.73 32.7123 494.25 32.2999C495.806 31.1305 497.646 30.3985 499.58 30.1799C518.1 26.6199 536.97 26.5299 555.72 27.1799C567.72 27.6299 580.13 28.5199 590.79 35.1799C591.678 35.6682 592.428 36.3734 592.97 37.2299C593.21 37.6213 593.357 38.0627 593.4 38.5199V38.5199Z" fill="#F4F4F4"/>
<path id="Vector_14" d="M554.19 40.8698C556.4 40.6598 558.61 40.4498 560.82 40.2898C562.452 40.1805 564.092 40.2475 565.71 40.4898C567.794 40.5979 569.885 40.5007 571.95 40.1998C576.27 39.8798 580.567 39.3764 584.84 38.6898C585.6 38.5698 592.84 36.8998 593.03 37.1598C593.266 37.5657 593.403 38.0213 593.43 38.4898C593.66 41.9698 542.82 44.1098 537.79 44.0598L522.12 43.9198C512.71 43.8398 503.75 42.0098 495.28 36.9198C494.359 36.4657 493.645 35.6796 493.28 34.7198L493.35 34.5798C494 33.4598 495.35 34.7798 496.15 35.2098C498.745 36.5545 501.482 37.6044 504.31 38.3398C508.45 39.4098 512.74 39.1598 516.96 39.6098C520.049 39.939 523.117 40.4398 526.15 41.1098C527.524 41.5236 528.933 41.8115 530.36 41.9698C531.78 42.0198 533.25 42.0298 534.69 42.0698C541.209 42.0769 547.721 41.6762 554.19 40.8698V40.8698Z" fill="#E0E0E0"/>
<path id="Vector_15" d="M561.02 27.45C557.02 27.37 553.02 27.58 549.36 27.45C540.05 27.02 530.7 26.36 521.42 27.56C516.299 28.1896 511.254 29.3285 506.36 30.96C505.97 31.09 505.52 31.29 505.52 31.63C505.52 31.97 506.03 32.19 506.46 32.31C513.665 34.328 521.118 35.321 528.6 35.26C534.43 35.26 540.49 34.46 545.15 31.78C545.778 32.3266 546.577 32.6377 547.41 32.66C551.96 33.31 557.03 34.01 561.62 33.57L559.69 34.91C559.56 34.99 559.43 35.1 559.47 35.23C559.51 35.36 559.65 35.38 559.78 35.42C563.298 36.4801 567.063 36.3819 570.52 35.14C570.691 35.0931 570.842 34.9912 570.95 34.85C571.07 34.6 570.74 34.35 570.45 34.2L567.93 32.84C569.24 33.54 574.93 31.84 576.32 31.48C576.25 31.48 574.76 30.28 574.53 30.17C570.46 28.06 565.75 27.52 561.02 27.45Z" fill="white"/>
<path id="Vector_16" d="M675.1 79.1002C674.62 85.2102 781.65 88.9502 792.24 88.8702L825.24 88.6202C845.04 88.4702 863.91 85.2702 881.75 76.2602C883.46 75.4002 885.35 74.0902 885.86 72.4102C886.006 71.9548 886.037 71.4704 885.95 71.0002C885.625 69.7937 884.848 68.7588 883.78 68.1102C880.55 65.7902 876.49 65.0402 872.56 64.4102C833.56 58.1702 793.86 58.0002 754.4 59.2202C729.14 60.0102 703.01 61.5702 680.56 73.1702C678.757 73.9744 677.181 75.2109 675.97 76.7702C675.483 77.4583 675.183 78.2612 675.1 79.1002V79.1002Z" fill="#F4F4F4"/>
<path id="Vector_17" d="M675.1 79.0999C674.62 85.2099 781.65 88.9499 792.24 88.8699L825.24 88.6199C845.04 88.4699 863.91 85.2699 881.75 76.2599C883.46 75.3999 885.35 74.0899 885.86 72.4099C885.823 72.3268 885.779 72.2465 885.73 72.1699C884.35 70.1699 881.62 72.5099 879.83 73.2699C874.297 75.6467 868.547 77.4819 862.66 78.7499C856.66 80.0699 850.18 79.9499 844.04 80.6399C837.11 81.4099 830.21 82.3899 823.31 83.3299C819.83 83.7965 816.343 84.1866 812.85 84.4999C801.406 85.4997 789.901 85.61 778.44 84.8299C772.95 84.4599 767.39 83.9799 761.97 83.1899C756.55 82.3999 750.83 82.8599 745.25 82.8699C733.583 82.8699 721.933 82.3599 710.3 81.3399C704.487 80.8332 698.69 80.1899 692.91 79.4099C690.02 79.0199 687.13 78.6099 684.25 78.1499C683.4 78.0199 676.25 76.3499 675.97 76.7699C675.483 77.4579 675.183 78.2609 675.1 79.0999V79.0999Z" fill="#E0E0E0"/>
<path id="Vector_18" d="M743.27 59.7599C751.65 59.6199 760.08 59.9899 767.81 59.6899C787.4 58.9299 807.08 57.7799 826.62 59.8799C837.338 60.9686 847.946 62.959 858.33 65.8299C859.15 66.0699 860.09 66.4299 860.09 67.0099C860.09 67.5899 859.02 68.0099 858.09 68.2099C842.811 71.7598 827.166 73.4951 811.48 73.3799C799.22 73.2999 786.48 71.9699 776.65 67.2799C775.65 68.2799 773.65 68.6099 771.89 68.8199C762.32 69.9499 751.64 71.1799 741.99 70.4199L746.05 72.7499C746.31 72.8999 746.59 73.0999 746.5 73.3199C746.41 73.5399 746.13 73.5799 745.86 73.6499C738.415 75.5069 730.608 75.3378 723.25 73.1599C722.899 73.1013 722.578 72.925 722.34 72.6599C722.08 72.2099 722.78 71.7799 723.39 71.5099L728.7 69.1299C725.94 70.3699 713.96 67.3099 711.04 66.7499C711.18 66.7499 714.32 64.6599 714.8 64.4499C723.4 60.8299 733.3 59.9299 743.27 59.7599Z" fill="white"/>
<path id="Vector_19" d="M90.19 67.33C89.94 71.71 146.7 74.39 152.31 74.33L169.8 74.15C180.3 74.05 190.3 71.76 199.8 65.29C200.844 64.673 201.622 63.689 201.98 62.53C202.046 62.1999 202.046 61.8601 201.98 61.53C201.845 60.726 201.439 59.9922 200.83 59.45C199.12 57.79 196.96 57.25 194.88 56.8C174.2 52.33 153.15 52.21 132.22 53.08C118.83 53.64 104.97 54.76 93.06 63.08C92.0496 63.7264 91.2148 64.6127 90.63 65.66C90.3719 66.1812 90.2223 66.7493 90.19 67.33V67.33Z" fill="#F4F4F4"/>
<path id="Vector_20" d="M90.19 67.33C89.94 71.71 146.7 74.39 152.31 74.33L169.8 74.15C180.3 74.05 190.3 71.7599 199.8 65.2899C200.844 64.6729 201.622 63.6889 201.98 62.53C201.963 62.4741 201.939 62.4205 201.91 62.37C201.18 60.95 199.74 62.6 198.79 63.16C195.923 64.8297 192.864 66.1459 189.68 67.08C186.94 67.88 183.84 67.71 181 68.22C176.94 68.95 172.88 69.7 168.8 70.33C160.8 71.54 152.72 72.26 144.67 71.41C142.67 71.19 141.07 70.41 139.14 69.99C136.582 69.5768 133.987 69.4426 131.4 69.59C126.4 69.59 121.34 70 116.32 69.65C114.04 69.48 90.71 65.59 90.68 65.65C90.4033 66.1704 90.2365 66.7423 90.19 67.33V67.33Z" fill="#E0E0E0"/>
<path id="Vector_21" opacity="0.64" d="M126.36 53.5201C130.81 53.4201 135.28 53.6801 139.36 53.4701C149.75 52.9201 160.18 52.0901 170.54 53.6001C176.287 54.3974 181.928 55.8295 187.36 57.8701C187.79 58.0401 188.29 58.3001 188.29 58.7101C188.29 59.1201 187.72 59.4201 187.24 59.5701C179.25 62.1007 170.911 63.3528 162.53 63.2801C156.02 63.2201 149.25 62.2801 144.05 58.9101C143.381 59.5843 142.479 59.9777 141.53 60.0101C136.46 60.8201 130.8 61.7001 125.67 61.1601L127.83 62.8301C127.97 62.9401 128.12 63.0801 128.07 63.2301C128.02 63.3801 127.87 63.4301 127.73 63.4801C123.818 64.8103 119.558 64.686 115.73 63.1301C115.528 63.068 115.355 62.9371 115.24 62.7601C115.11 62.4401 115.48 62.1401 115.8 61.9401L118.62 60.2301C117.15 61.1201 110.8 58.9301 109.25 58.5301C109.33 58.5301 110.99 57.0301 111.25 56.8801C115.82 54.2301 121.08 53.5901 126.36 53.5201Z" fill="white"/>
<path id="Vector_22" d="M576.73 13.8C574.819 14.6862 572.803 15.3247 570.73 15.7C557.52 16.44 542.53 14.7 529.45 15.17C514.04 15.74 498.61 14.17 483.02 15.06C482.006 14.6833 481.063 14.139 480.23 13.45C480.73 13.79 482.5 13.54 483.12 13.56L486.53 13.68L493.1 13.89C494.762 14.0462 496.434 14.0663 498.1 13.95C500.24 13.71 502.4 13.54 504.56 13.43C513.24 12.98 521.92 13.51 530.56 13.85C535.67 14.06 540.8 14.22 545.91 14.04C551.02 13.86 555.91 12.97 560.91 12.84C566.201 12.7051 571.494 13.0263 576.73 13.8V13.8Z" fill="#E0E0E0"/>
<path id="Vector_23" opacity="0.53" d="M165.74 20.4801C173.35 20.4801 179.52 19.2847 179.52 17.8101C179.52 16.3355 173.35 15.1401 165.74 15.1401C158.129 15.1401 151.96 16.3355 151.96 17.8101C151.96 19.2847 158.129 20.4801 165.74 20.4801Z" fill="#E0E0E0"/>
<path id="Vector_24" opacity="0.53" d="M280.25 18.88C280.25 20.71 268.05 22.19 253 22.19C237.95 22.19 225.76 20.71 225.76 18.88C225.76 17.05 237.95 15.52 253 15.52C268.05 15.52 280.25 17.05 280.25 18.88Z" fill="#E0E0E0"/>
<path id="Vector_25" opacity="0.52" d="M617.29 20.26C636.648 20.26 652.34 18.9706 652.34 17.38C652.34 15.7894 636.648 14.5 617.29 14.5C597.932 14.5 582.24 15.7894 582.24 17.38C582.24 18.9706 597.932 20.26 617.29 20.26Z" fill="#E0E0E0"/>
<path id="Vector_26" opacity="0.52" d="M490.6 16.7401C490.6 18.4501 482.28 19.8401 472.01 19.8401C461.74 19.8401 453.42 18.4501 453.42 16.7401C453.42 15.0301 461.74 13.6401 472.01 13.6401C482.28 13.6401 490.6 15.0301 490.6 16.7401Z" fill="#E0E0E0"/>
</g>
<defs>
<clipPath id="clip0">
<rect width="944.89" height="88.87" fill="white"/>
</clipPath>
</defs>
</svg>
