<svg xmlns="http://www.w3.org/2000/svg" viewBox="0 0 1123.24 261.72"><defs><style>.cls-1{isolation:isolate;}.cls-13,.cls-17,.cls-19,.cls-2,.cls-24,.cls-3{fill:#757576;}.cls-2{opacity:0.2;}.cls-3{opacity:0.16;}.cls-4{fill:#f8f9fa;}.cls-21,.cls-22,.cls-23,.cls-25,.cls-28,.cls-36,.cls-39,.cls-41,.cls-42,.cls-5,.cls-8,.cls-9{fill:none;}.cls-20,.cls-21,.cls-28,.cls-5{stroke:#757576;}.cls-12,.cls-18,.cls-20,.cls-21,.cls-22,.cls-23,.cls-25,.cls-28,.cls-36,.cls-39,.cls-41,.cls-42,.cls-5,.cls-7,.cls-8{stroke-miterlimit:10;}.cls-28,.cls-41,.cls-42,.cls-5,.cls-7,.cls-8{stroke-width:2px;}.cls-6{fill:#ddd;}.cls-20,.cls-27,.cls-33,.cls-7{fill:#fff;}.cls-41,.cls-7,.cls-8{stroke:#8c8c8c;}.cls-10{fill:#ebebeb;}.cls-11,.cls-12{fill:#f6f6f6;}.cls-12,.cls-23{stroke:#d6d6d6;}.cls-13{opacity:0.11;}.cls-14{fill:#dcdbdb;}.cls-15{fill:#a9a8a9;}.cls-16{fill:#bfbfbf;}.cls-17{opacity:0.17;}.cls-18,.cls-34,.cls-35{fill:#dadadb;}.cls-18{stroke:#787878;}.cls-19{opacity:0.15;}.cls-22{stroke:#d84598;}.cls-23,.cls-25,.cls-36,.cls-39{stroke-width:3px;}.cls-25,.cls-36{stroke:#abacac;}.cls-25,.cls-28,.cls-36,.cls-39,.cls-41,.cls-42{stroke-linecap:round;}.cls-26,.cls-40{fill:#abacac;}.cls-27{opacity:0.51;}.cls-29,.cls-35,.cls-36,.cls-37,.cls-38{mix-blend-mode:multiply;}.cls-30{fill:#f7f8f8;}.cls-31{fill:#d2d2d1;}.cls-32{fill:#e0e0e0;}.cls-37{fill:#a1b6c7;}.cls-38{fill:#aec3ce;}.cls-39{stroke:#ababab;}.cls-40{opacity:0.49;}.cls-42{stroke:#8d8d8d;}</style></defs><g class="cls-1"><g id="Layer_1" data-name="Layer 1"><ellipse class="cls-2" cx="1068.19" cy="193.34" rx="55.05" ry="8.93"/><polygon class="cls-3" points="210.25 206.86 0 212.45 49.21 182.22 161.61 181.26 205.48 203.62 210.25 206.86"/><ellipse class="cls-2" cx="312.2" cy="122.49" rx="58.44" ry="10.98"/><path class="cls-4" d="M334.44,429.36h526.2a21,21,0,0,1,15.75,7.11L960,531.23a10.19,10.19,0,0,1-7.64,16.93H220.91A10.59,10.59,0,0,1,213,530.52l84-94.29a20.52,20.52,0,0,1,15.32-6.87Z" transform="translate(49.99 -287.66)"/><path class="cls-5" d="M592.56,429.36H865.75a9.66,9.66,0,0,1,7.26,3.28l45.36,51.44" transform="translate(49.99 -287.66)"/><polygon class="cls-6" points="188.67 174.55 196.4 203.62 205.48 203.62 214.22 173.04 188.67 174.55"/><polygon class="cls-6" points="103.07 179.74 110.8 208.81 119.89 208.81 128.62 178.23 103.07 179.74"/><path class="cls-7" d="M36.48,371.77V466a2.08,2.08,0,0,0,2.21,2.08l149.84-8.84a2.67,2.67,0,0,0,2.51-2.66V365a2.23,2.23,0,0,0-2.32-2.23L38.88,369.26A2.5,2.5,0,0,0,36.48,371.77Z" transform="translate(49.99 -287.66)"/><path class="cls-8" d="M50.6,389.23l.51,56.85a7.52,7.52,0,0,0,8,7.29l111.49-6.78a7.49,7.49,0,0,0,7-7.48V384.38a7.51,7.51,0,0,0-7.81-7.5l-112,4.65A7.5,7.5,0,0,0,50.6,389.23Z" transform="translate(49.99 -287.66)"/><polygon class="cls-9" points="183.37 90.73 183.37 133.44 227.59 158.5 227.59 88.9 183.37 90.73"/><path class="cls-10" d="M52.77,424.32l80-8.81a1.61,1.61,0,0,1,1.11.27l39.38,27a1.64,1.64,0,0,1-.82,3L59.82,452.64a7.51,7.51,0,0,1-8-7.29L51.31,426A1.64,1.64,0,0,1,52.77,424.32Z" transform="translate(49.99 -287.66)"/><path class="cls-9" d="M133.38,488.76" transform="translate(49.99 -287.66)"/><path class="cls-11" d="M133.38,336.75l56.07,23.66a.6.6,0,0,1-.2,1.15L35.48,368.75l-38.6-23.39Z" transform="translate(49.99 -287.66)"/><path class="cls-10" d="M.25,347.13c-1.25-.76-1.4.49-1.37,1.95L0,452.68a1.83,1.83,0,0,0,1.09,1.63l31.64,14.1a1.85,1.85,0,0,0,2.59-1.68l.19-97" transform="translate(49.99 -287.66)"/><polygon class="cls-6" points="63 171.31 69.67 183.94 77.36 183.94 80.54 178.23 63 171.31"/><polygon class="cls-12" points="511.75 193.54 546.79 181.54 615.43 178.18 640.39 193.54 640.39 206.98 606.32 227.14 542 229.06 507.92 209.38 511.75 193.54"/><polygon class="cls-12" points="535.27 197.34 557.11 189.86 599.88 187.76 615.43 197.34 615.43 205.71 594.2 218.27 554.11 219.47 532.88 207.21 535.27 197.34"/><polygon class="cls-12" points="756.08 147.46 760.88 164.26 734.96 178.18 670.15 178.18 640.39 160.9 640.39 147.46 659.22 147.26 659.22 156.5 679.68 168.38 724.23 168.38 742.05 158.81 738.75 147.26 756.08 147.46"/><polyline class="cls-12" points="789.2 256.42 785.84 243.94 742.05 225.7 677.36 225.7 640.39 245.86 640.39 256.42 657.67 257.85 657.67 249.74 686.05 234.26 735.72 234.26 769.34 248.27 771.91 257.85 789.2 256.42 785.84 243.94"/><polygon class="cls-12" points="493.51 256.42 497.36 246.06 467.12 225.7 419.12 229.06 373.04 246.06 367.17 256.42 382.53 255.79 387.01 247.88 422.22 234.89 458.89 232.32 482 247.88 479.06 255.79 493.51 256.42"/><polygon class="cls-12" points="513.2 150.82 513.2 162.82 489.68 180.58 439.27 180.58 416.24 164.74 422.95 147.26 436.19 147.54 431.6 159.48 447.34 170.3 481.76 170.3 497.83 158.16 497.83 149.97 513.2 150.82"/><polygon class="cls-12" points="294.31 216.97 336.57 219.09 375.37 206.61 379.53 196.57 361.51 184.79 322.99 184.79 320.62 178.18 374 178.18 398.95 194.5 393.19 208.42 339.44 225.7 280.88 222.77 294.31 216.97"/><polygon class="cls-12" points="771.91 193.54 797.84 178.18 845.84 178.18 888.55 193.54 892.88 208.9 867.43 229.06 815.6 225.7 774.6 210.38 771.91 193.54"/><polygon class="cls-12" points="786.75 196.01 806.31 184.42 842.54 184.42 874.78 196.01 878.04 207.6 858.84 222.82 819.72 220.28 788.78 208.72 786.75 196.01"/><path class="cls-12" d="M863.52,531.6l30.72-18.24,47.41-2.88L960,531.23a10.19,10.19,0,0,1-7.64,16.93H869.76Z" transform="translate(49.99 -287.66)"/><polygon class="cls-12" points="933.67 243.11 953.27 231.47 983.52 229.64 1004.72 253.68 937.66 253.68 933.67 243.11"/><polygon class="cls-12" points="857.75 143.7 867.84 166.74 909.6 180.18 947.91 177.49 918.12 143.7 857.75 143.7"/><polygon class="cls-12" points="874.36 150.42 880.73 164.97 907.1 173.46 931.3 171.76 912.49 150.42 874.36 150.42"/><ellipse class="cls-13" cx="852.65" cy="178.18" rx="128.73" ry="22.92"/><polygon class="cls-14" points="197.72 97.15 203 101.47 203 149.59 194.47 145.03 194.47 97.15 197.72 97.15"/><polygon class="cls-15" points="217.51 101.11 203 101.47 203 149.59 217.51 149.59 217.51 101.11"/><polygon class="cls-14" points="198.74 90.31 217.51 101.11 203 101.47 197.72 97.15 194.47 95.89 191 90.85 198.74 90.31"/><path class="cls-16" d="M129,379h12.43a3.06,3.06,0,0,1,3.06,3v47.83a3.05,3.05,0,0,1-2.85,3l-12.43.83a3.06,3.06,0,0,1-3.26-3.05V382A3.06,3.06,0,0,1,129,379Z" transform="translate(49.99 -287.66)"/><polyline class="cls-14" points="140.84 93.01 153.97 103.45 164.96 106.15"/><polygon class="cls-14" points="160.28 138.01 175.94 146.29 175.94 93.88 177.81 91.54 153.97 92.62 171.44 106.69 160.28 138.01"/><polygon class="cls-14" points="138.13 93.01 122.66 133.87 135.62 146.29 153.97 103.45 138.13 93.01"/><polygon class="cls-15" points="155.06 152.23 135.62 146.29 153.97 103.45 171.03 107.82 155.06 152.23"/><ellipse class="cls-11" cx="896.99" cy="96.52" rx="110.24" ry="30.42"/><ellipse class="cls-17" cx="896.99" cy="99.92" rx="31.68" ry="4.9"/><path class="cls-18" d="M758.36,416.68l-1.86,46a3.44,3.44,0,0,0,3.43,3.57h0a3.42,3.42,0,0,0,3.28-2.44l13.09-43.56a3.43,3.43,0,0,0-2.55-4.34l-11.24-2.43A3.42,3.42,0,0,0,758.36,416.68Z" transform="translate(49.99 -287.66)"/><path class="cls-18" d="M840.79,423.6h11.48a3.42,3.42,0,0,1,3.41,3.79L850.28,479a3.43,3.43,0,0,1-3.41,3.07H846a3.43,3.43,0,0,1-3.41-3.09l-5.19-51.62A3.43,3.43,0,0,1,840.79,423.6Z" transform="translate(49.99 -287.66)"/><path class="cls-18" d="M929.53,418.42l1.85,46A3.43,3.43,0,0,1,928,468h0a3.44,3.44,0,0,1-3.28-2.45L911.58,422a3.42,3.42,0,0,1,2.56-4.34l11.23-2.44A3.44,3.44,0,0,1,929.53,418.42Z" transform="translate(49.99 -287.66)"/><path class="cls-18" d="M957.24,395.18c0,16.69-49.77,30.42-110.24,30.42s-110.25-13.73-110.25-30.42v-11s-3.07,29.7,112.49,30.42c0,0,95.76-1.08,108-28.44Z" transform="translate(49.99 -287.66)"/><path class="cls-19" d="M747,381.09,774,398a8,8,0,0,0,6.36.9l16.5-4.7a2.22,2.22,0,0,0,.57-4l-28-17.66a5.18,5.18,0,0,0-4.32-.56l-17.67,5.54A2,2,0,0,0,747,381.09Z" transform="translate(49.99 -287.66)"/><path class="cls-9" d="M736.75,384.18" transform="translate(49.99 -287.66)"/><path class="cls-20" d="M753.39,381.09l27,16.89a8,8,0,0,0,6.36.9l16.5-4.7a2.23,2.23,0,0,0,.58-4l-28-17.66a5.18,5.18,0,0,0-4.32-.56l-17.67,5.54A2,2,0,0,0,753.39,381.09Z" transform="translate(49.99 -287.66)"/><path class="cls-21" d="M757.44,379.68l23.48,13.67a8.3,8.3,0,0,0,6,.93l11.59-2.54" transform="translate(49.99 -287.66)"/><path class="cls-22" d="M411.36,269.52" transform="translate(49.99 -287.66)"/><path class="cls-21" d="M936.1,504.18l24.61,27.91a9.67,9.67,0,0,1-7.26,16.07H373.32" transform="translate(49.99 -287.66)"/><path class="cls-5" d="M289.38,548.16H218.85a9.68,9.68,0,0,1-7.22-16.11l88.6-99.45a9.7,9.7,0,0,1,7.23-3.24H528.12" transform="translate(49.99 -287.66)"/><path class="cls-23" d="M255.88,545.51" transform="translate(49.99 -287.66)"/><circle class="cls-24" cx="414.31" cy="259.85" r="1.87"/><circle class="cls-24" cx="981.52" cy="211.33" r="1.53"/><circle class="cls-24" cx="585.49" cy="141.7" r="1.66"/><path class="cls-25" d="M232.92,353.36" transform="translate(49.99 -287.66)"/><circle class="cls-26" cx="380.36" cy="45.82" r="1.15"/><path class="cls-27" d="M55.45,468.24c.18,1.44,6.65,27.17,6.65,27.17h3.75s-4.29-22.14-3.57-22.14,9.36-.72,9.36-.72l1-5.59Z" transform="translate(49.99 -287.66)"/><path class="cls-28" d="M831.36,349.66a4.61,4.61,0,0,0-1.79,3.64v28.51a4.62,4.62,0,0,0,2.6,4.15,47.75,47.75,0,0,0,23.63,4.41l.36,0c1.53-.21,12.61-1.75,18.09-4.17a4.56,4.56,0,0,0,2.68-4.19v-6.3" transform="translate(49.99 -287.66)"/><path class="cls-6" d="M849.84,333.58s5.78-3.93,13.6-19.44c1-2,.14,16.16-9.47,21.18C851,336.84,849.84,333.58,849.84,333.58Z" transform="translate(49.99 -287.66)"/><g class="cls-29"><path class="cls-6" d="M863.44,314.14c-.71,1.4-1.4,2.71-2.07,3.92,0,.4,0,.81,0,1.2a25.67,25.67,0,0,1-.84,7.16,19.89,19.89,0,0,1-3.11,6.08q-.28.38-.6.75C863.75,326.58,864.33,312.37,863.44,314.14Z" transform="translate(49.99 -287.66)"/></g><path class="cls-6" d="M855.21,333.53s-5.71-4-13.28-19.7c-1-2-.4,16.16,9.13,21.35C854,336.77,855.21,333.53,855.21,333.53Z" transform="translate(49.99 -287.66)"/><g class="cls-29"><path class="cls-6" d="M847.14,331.41a16.88,16.88,0,0,1-1.17-4.34c-.32-2.34-.68-4.72-.85-7.1-1-1.81-2.08-3.85-3.19-6.14-.83-1.73-.53,11.54,5.68,18.56C847.44,332.07,847.28,331.75,847.14,331.41Z" transform="translate(49.99 -287.66)"/></g><path class="cls-11" d="M851.22,329.48s3.46-2.89,8.13-14.32c.6-1.46.09,11.91-5.66,15.6C851.94,331.88,851.22,329.48,851.22,329.48Z" transform="translate(49.99 -287.66)"/><g class="cls-29"><path class="cls-11" d="M859.35,315.16c-.42,1-.83,2-1.23,2.89,0,.3,0,.59,0,.88a22.63,22.63,0,0,1-.5,5.28,15.91,15.91,0,0,1-1.86,4.47c-.11.19-.24.38-.36.56C859.54,324.33,859.89,313.86,859.35,315.16Z" transform="translate(49.99 -287.66)"/></g><path class="cls-11" d="M854.44,329.45s-3.42-3-8-14.52c-.57-1.48-.24,11.91,5.46,15.73C853.69,331.83,854.44,329.45,854.44,329.45Z" transform="translate(49.99 -287.66)"/><g class="cls-29"><path class="cls-11" d="M849.61,327.89a14.84,14.84,0,0,1-.7-3.2c-.19-1.73-.41-3.48-.51-5.23-.6-1.34-1.24-2.84-1.91-4.53-.49-1.27-.31,8.5,3.4,13.67C849.79,328.37,849.69,328.13,849.61,327.89Z" transform="translate(49.99 -287.66)"/></g><path class="cls-30" d="M848.57,339.38s8.69-5.91,20.46-29.25c1.5-3,.21,24.32-14.25,31.86C850.37,344.29,848.57,339.38,848.57,339.38Z" transform="translate(49.99 -287.66)"/><g class="cls-29"><path class="cls-30" d="M869,310.13c-1.06,2.11-2.1,4.07-3.11,5.91,0,.6,0,1.2,0,1.8a38.18,38.18,0,0,1-1.26,10.77,30.17,30.17,0,0,1-4.67,9.14c-.29.39-.6.76-.92,1.13C869.49,328.85,870.37,307.47,869,310.13Z" transform="translate(49.99 -287.66)"/></g><path class="cls-30" d="M856.65,339.31s-8.6-6.09-20-29.65c-1.45-3-.61,24.32,13.73,32.13C854.77,344.18,856.65,339.31,856.65,339.31Z" transform="translate(49.99 -287.66)"/><g class="cls-29"><path class="cls-30" d="M844.5,336.12a26,26,0,0,1-1.75-6.53c-.48-3.52-1-7.1-1.28-10.68-1.53-2.73-3.13-5.8-4.8-9.25-1.25-2.59-.8,17.36,8.55,27.92C845,337.11,844.72,336.62,844.5,336.12Z" transform="translate(49.99 -287.66)"/></g><path class="cls-10" d="M846.15,351.46s12.74-7.25,30-35.85c2.2-3.66.31,29.8-20.89,39A6.61,6.61,0,0,1,846.15,351.46Z" transform="translate(49.99 -287.66)"/><g class="cls-29"><path class="cls-31" d="M876.14,315.61q-2.34,3.87-4.56,7.23c0,.74,0,1.48,0,2.21,0,4.43-.29,9-1.84,13.2a35,35,0,0,1-6.84,11.2c-.43.48-.88.94-1.34,1.39C876.81,338.55,878.1,312.35,876.14,315.61Z" transform="translate(49.99 -287.66)"/></g><path class="cls-10" d="M858,351.36s-12.6-7.45-29.28-36.33c-2.14-3.69-.9,29.8,20.11,39.38A6.64,6.64,0,0,0,858,351.36Z" transform="translate(49.99 -287.66)"/><path class="cls-31" d="M840.2,347.46a27.07,27.07,0,0,1-2.57-8c-.72-4.31-1.51-8.7-1.89-13.09-2.24-3.35-4.59-7.11-7-11.33-1.84-3.18-1.18,21.28,12.52,34.22A18.91,18.91,0,0,1,840.2,347.46Z" transform="translate(49.99 -287.66)"/><path class="cls-32" d="M848.75,345.65s8.41-5,19.79-24.95c1.46-2.54.21,20.74-13.79,27.18C850.49,349.83,848.75,345.65,848.75,345.65Z" transform="translate(49.99 -287.66)"/><g class="cls-29"><path class="cls-32" d="M868.54,320.7q-1.54,2.7-3,5c0,.52,0,1,0,1.54a29.16,29.16,0,0,1-1.22,9.19,24.71,24.71,0,0,1-4.52,7.79c-.27.33-.57.65-.88,1C869,336.67,869.84,318.44,868.54,320.7Z" transform="translate(49.99 -287.66)"/></g><path class="cls-32" d="M856.57,345.59s-8.32-5.19-19.32-25.28c-1.41-2.57-.6,20.73,13.27,27.4A4.31,4.31,0,0,0,856.57,345.59Z" transform="translate(49.99 -287.66)"/><g class="cls-29"><path class="cls-32" d="M844.82,342.87a19.5,19.5,0,0,1-1.69-5.57c-.48-3-1-6.06-1.25-9.11q-2.22-3.49-4.63-7.88c-1.22-2.22-.78,14.8,8.26,23.81C845.26,343.71,845,343.3,844.82,342.87Z" transform="translate(49.99 -287.66)"/></g><path class="cls-10" d="M830.52,352.3v28.51a4.63,4.63,0,0,0,2.53,4.15,45.88,45.88,0,0,0,23.12,4.41c.12,0,.23,0,.35,0,1.49-.21,12.33-1.75,17.69-4.17a4.57,4.57,0,0,0,2.62-4.19v-30.9s1.07-5.17-21.34-4c-19.93,1-19.27-.58-23.23,2.58A4.66,4.66,0,0,0,830.52,352.3Z" transform="translate(49.99 -287.66)"/><path class="cls-33" d="M834.51,350.3a15.16,15.16,0,0,0,6,2.93,42.37,42.37,0,0,0,6.5,1.22c.54.1,1.11.12,1.66.17l1.68.17c1.13,0,2.25.17,3.4.23s2.29.18,3.45.24,2.33.16,3.52.37a31.32,31.32,0,0,1-3.4,1.1c-1.15.28-2.33.48-3.5.65s-2.38.19-3.57.25-2.4-.05-3.6-.2a21,21,0,0,1-7-2,14,14,0,0,1-3.07-2.08A7.21,7.21,0,0,1,834.51,350.3Z" transform="translate(49.99 -287.66)"/><line class="cls-28" x1="926.83" y1="74.06" x2="926.83" y2="62.41"/><ellipse class="cls-24" cx="926.84" cy="77.16" rx="1.1" ry="1.12"/><path class="cls-21" d="M878,355c45.82,3.69,79.29,15.36,79.29,29.2,0,16.8-49.36,30.42-110.24,30.42S736.75,401,736.75,384.18c0-14.85,38.59-27.22,89.62-29.89" transform="translate(49.99 -287.66)"/><path class="cls-10" d="M1005,437.36v40.31a6.49,6.49,0,0,0,3.67,5.86,67.35,67.35,0,0,0,33.43,6.25l.5,0c2.16-.29,17.83-2.47,25.58-5.9a6.46,6.46,0,0,0,3.8-5.92v-43.7s1.54-7.3-30.87-5.66c-28.82,1.47-27.86-.81-33.59,3.66A6.53,6.53,0,0,0,1005,437.36Z" transform="translate(49.99 -287.66)"/><path class="cls-10" d="M1041.79,424.67c8.65-14.08,2.23-19.47,4.29-40.47s2.7-29.69,9-26.35,16.69,23.24,11.43,39-9.57,18.67-5.6,30.46.41,16.4-4,19.85C1052,451,1031.52,441.37,1041.79,424.67Z" transform="translate(49.99 -287.66)"/><g class="cls-29"><path class="cls-10" d="M1064.18,370.46c0,.36,0,.71,0,1.06,0,6.29-1.06,17.18-3,23.11-4.77,14.76-7.52,15.62-7.15,26.61.11,3.18.47,6.34.45,9.52,0,3.65-.41,7.64-2.24,10.81a10.34,10.34,0,0,1-5.13,4.5c3.8,2.05,7.88,2.53,9.72,1.09,4.41-3.45,8-8.06,4-19.85s.34-14.7,5.6-30.46C1069.37,388.15,1067.49,378.2,1064.18,370.46Z" transform="translate(49.99 -287.66)"/></g><path class="cls-10" d="M1045.49,442s6.44-5.42,5.15-22.77,9.18-26.86,4.25-51.71" transform="translate(49.99 -287.66)"/><path class="cls-34" d="M1067.37,435.94c-2.84-9.71,1.82-11.86,4-24.59s3.2-18-1-17-13.61,11-13,21.19,2.64,12.57-1.61,18.89-2.89,9.62-.84,12.37C1057.09,449.83,1070.73,447.47,1067.37,435.94Z" transform="translate(49.99 -287.66)"/><path class="cls-35" d="M1062.89,400.31c-.06.21-.13.42-.18.63a56.13,56.13,0,0,0-2,14.12c.44,9.49,1.93,10.44-.07,16.88-.57,1.85-1.3,3.66-1.8,5.54a13.61,13.61,0,0,0-.42,6.75,6.33,6.33,0,0,0,2.3,3.48c-2.57.6-5.06.23-5.91-.92-2-2.75-3.41-6.05.84-12.37s2.17-8.73,1.61-18.89C1057,409.93,1059.68,404.35,1062.89,400.31Z" transform="translate(49.99 -287.66)"/><path class="cls-34" d="M1062.38,445.56s-2.92-4.24.64-14.28-1.09-17.34,5.84-31.22" transform="translate(49.99 -287.66)"/><path class="cls-10" d="M1037.79,425.51c-8.92-13.91-2.61-19.42-5.07-40.37s-3.26-29.64-9.46-26.18-16.24,23.55-10.68,39.21,9.93,18.49,6.17,30.35-.09,16.4,4.39,19.77C1028.08,452,1048.37,442,1037.79,425.51Z" transform="translate(49.99 -287.66)"/><g class="cls-29"><path class="cls-10" d="M1014.36,371.74c0,.36,0,.71,0,1.06.08,6.29,1.38,17.15,3.41,23.05,5.05,14.67,7.82,15.47,7.66,26.47,0,3.18-.35,6.35-.27,9.53.1,3.64.55,7.63,2.45,10.76a10.23,10.23,0,0,0,5.21,4.4c-3.76,2.13-7.83,2.68-9.69,1.28-4.48-3.37-8.14-7.91-4.39-19.77s-.61-14.69-6.17-30.35C1009.51,389.53,1011.2,379.55,1014.36,371.74Z" transform="translate(49.99 -287.66)"/></g><path class="cls-10" d="M1034.41,442.88s-6.54-5.29-5.58-22.67-9.69-26.68-5.23-51.62" transform="translate(49.99 -287.66)"/><path class="cls-34" d="M1009.4,436.16c2.84-9.71-1.82-11.86-4-24.59s-3.19-18,1.05-17,13.6,11,13,21.19-2.64,12.57,1.61,18.89,2.88,9.62.84,12.37C1019.68,450,1006,447.68,1009.4,436.16Z" transform="translate(49.99 -287.66)"/><g class="cls-29"><path class="cls-34" d="M1013.88,400.53l.18.63a56.51,56.51,0,0,1,2,14.12c-.43,9.49-1.92,10.44.07,16.87.58,1.86,1.3,3.67,1.8,5.55a13.38,13.38,0,0,1,.42,6.75,6.27,6.27,0,0,1-2.3,3.48c2.58.6,5.06.23,5.92-.92,2-2.75,3.41-6.05-.84-12.37s-2.18-8.73-1.61-18.89C1019.8,410.14,1017.08,404.57,1013.88,400.53Z" transform="translate(49.99 -287.66)"/></g><path class="cls-34" d="M1014.38,445.78s2.93-4.24-.64-14.28,1.09-17.34-5.83-31.22" transform="translate(49.99 -287.66)"/><path class="cls-34" d="M1032.31,430.84c6.29-12.61.44-16.7.62-34.68s.07-25.41,5.64-23,15.9,18.48,12.61,32.26-6.73,16.56-2.48,26.27,1.57,13.9-1.91,17.15C1042.94,452.4,1024.83,445.78,1032.31,430.84Z" transform="translate(49.99 -287.66)"/><g class="cls-29"><path class="cls-34" d="M1047.27,383.14c0,.3.07.6.1.9.49,5.34.38,14.66-.81,19.84-2.94,12.89-5.22,13.82-4.08,23.13.33,2.69.87,5.34,1.09,8.05.25,3.09.22,6.52-1.1,9.34a8.69,8.69,0,0,1-4,4.2c3.38,1.46,6.87,1.56,8.33.2,3.48-3.25,6.17-7.44,1.91-17.15s-.8-12.5,2.48-26.27C1053,397.78,1050.66,389.47,1047.27,383.14Z" transform="translate(49.99 -287.66)"/></g><path class="cls-34" d="M1036.74,445.25s5.06-5.08,2.67-19.72,5.79-23.49-.25-44.22" transform="translate(49.99 -287.66)"/><path class="cls-28" d="M1007.48,432.21a6.53,6.53,0,0,0-2.52,5.15v40.31a6.49,6.49,0,0,0,3.67,5.86,67.35,67.35,0,0,0,33.43,6.25l.5,0c2.16-.29,17.83-2.47,25.58-5.9a6.46,6.46,0,0,0,3.8-5.92V469" transform="translate(49.99 -287.66)"/><path class="cls-10" d="M1008.5,435v12.24c0,.76,1.34,1.45,3.45,1.78a183.42,183.42,0,0,0,31.48,1.9l.47,0c2-.09,16.79-.75,24.09-1.79,2.19-.31,1.48-1.41,1.48-2.18l-.61-14.32s1.22,2.57-29.29,3.07c-27.14.44-27.86-2.88-29.77-3.06C1008.27,432.46,1008.5,434.37,1008.5,435Z" transform="translate(49.99 -287.66)"/><path class="cls-33" d="M1010.5,435.74c2.54,2.26,5.68,3.28,8.79,4.06a53.13,53.13,0,0,0,9.61,1.27c.81.09,1.63.05,2.44.07s1.64.06,2.46.06l5-.07c.82,0,1.65-.09,2.48-.1s1.68,0,2.51-.08c1.67-.07,3.35-.15,5.06-.1-1.59.6-3.22,1.08-4.85,1.56s-3.31.74-5,1-3.39.41-5.08.58-3.43.12-5.15,0a32.67,32.67,0,0,1-10.16-2,20.91,20.91,0,0,1-4.63-2.44A11.06,11.06,0,0,1,1010.5,435.74Z" transform="translate(49.99 -287.66)"/><circle class="cls-24" cx="1122.05" cy="176.17" r="1.12"/><path class="cls-10" d="M242.4,360.82v46.25a7.44,7.44,0,0,0,4.2,6.72A77.28,77.28,0,0,0,285,421a5.7,5.7,0,0,0,.58-.06c2.48-.33,20.45-2.84,29.35-6.76a7.42,7.42,0,0,0,4.35-6.8V357.21s1.77-8.38-35.41-6.49c-33.06,1.68-32-.94-38.53,4.19A7.5,7.5,0,0,0,242.4,360.82Z" transform="translate(49.99 -287.66)"/><path class="cls-28" d="M245.29,354.91a7.5,7.5,0,0,0-2.89,5.91v46.25a7.44,7.44,0,0,0,4.2,6.72A77.28,77.28,0,0,0,285,421a5.7,5.7,0,0,0,.58-.06c2.48-.33,20.45-2.84,29.35-6.76a7.42,7.42,0,0,0,4.35-6.8V397.12" transform="translate(49.99 -287.66)"/><circle class="cls-24" cx="369.36" cy="103.53" r="1.28"/><path class="cls-10" d="M269.57,331.5s-.42-28.44-13.69-39.82c0,0,23.59,3.8,33.5,26.55,0,0-11.38,27.81-13.7,34.76Z" transform="translate(49.99 -287.66)"/><g class="cls-29"><path class="cls-10" d="M263.74,303A35.42,35.42,0,0,1,282,333.71c0,1-.05,2-.14,3,3.66-9.2,7.48-18.52,7.48-18.52-9.91-22.75-33.5-26.55-33.5-26.55A31.24,31.24,0,0,1,263.74,303Z" transform="translate(49.99 -287.66)"/></g><path class="cls-36" d="M263.72,302.94c5.61,12.76,5.85,28.56,5.85,28.56L275.68,353c1-2.93,3.56-9.56,6.22-16.25.19-.46.38-.93.56-1.4.09-.22.17-.43.26-.64l.24-.6c3.3-8.25,6.42-15.87,6.42-15.87-9.91-22.75-33.5-26.55-33.5-26.55.42.36.82.74,1.22,1.13l.51.54c.21.23.43.45.63.68s.34.41.51.62l.57.69" transform="translate(49.99 -287.66)"/><path class="cls-11" d="M298.12,362.57S318.45,329,361,322c0,0-64.15-15.38-77.1,40.87Z" transform="translate(49.99 -287.66)"/><path class="cls-37" d="M298.12,346.3c5.85-5.07,12-10.05,18.77-13.84s14.33-7.07,22-8.4a91,91,0,0,1,16.27-1.8c1.67,0,3.32,0,5-.08L361,322s-64.15-15.38-77.1,40.87h.48C288.76,357.16,292.64,351.06,298.12,346.3Z" transform="translate(49.99 -287.66)"/><path class="cls-36" d="M334.57,330.6A91.3,91.3,0,0,1,361,322s-64.15-15.38-77.1,40.87h.48l13.74-.31s6.69-11.05,20.42-21.79" transform="translate(49.99 -287.66)"/><path class="cls-11" d="M274.06,365.19s-20.33-33.6-62.88-40.56c0,0,64.15-15.37,77.1,40.88Z" transform="translate(49.99 -287.66)"/><path class="cls-37" d="M274.06,348.92c-5.85-5.07-12-10.05-18.77-13.84s-14.33-7.07-22-8.4a90.05,90.05,0,0,0-16.27-1.8c-1.67,0-3.31,0-5-.09l-.89-.16s64.15-15.37,77.1,40.88h-.47C283.42,359.78,279.54,353.67,274.06,348.92Z" transform="translate(49.99 -287.66)"/><path class="cls-36" d="M237.61,333.21a91.91,91.91,0,0,0-26.43-8.58s64.15-15.37,77.1,40.88h-.47l-13.75-.31s-6.69-11.06-20.42-21.8" transform="translate(49.99 -287.66)"/><path class="cls-33" d="M310.68,357.36a6.26,6.26,0,0,1-1.64,3.1,9.54,9.54,0,0,1-6.07,3,7.25,7.25,0,0,1-3.45-.5,21.22,21.22,0,0,1,2.79-1.77c.91-.47,1.77-.94,2.65-1.35s1.75-.84,2.68-1.25S309.53,357.77,310.68,357.36Z" transform="translate(49.99 -287.66)"/><path class="cls-10" d="M289.27,362.78s9.38-47.08,25.17-73.84c0,0-43.81,19.59-38.76,74.16Z" transform="translate(49.99 -287.66)"/><path class="cls-38" d="M285.74,332.49c2.82-12.64,8-23.93,16.93-33.56a31,31,0,0,1,10.24-7.29q.76-1.38,1.53-2.7s-43.81,19.59-38.76,74.16l6.37-.15C281.65,359.49,281.9,349.72,285.74,332.49Z" transform="translate(49.99 -287.66)"/><path class="cls-39" d="M314.44,289.16s-43.81,19.59-38.76,74.16l13.59-.32s3.45-17.33,9.69-36.94c1.18-3.68,2.45-7.45,3.82-11.2" transform="translate(49.99 -287.66)"/><path class="cls-10" d="M279.55,355.59s-20.63-19.58-20-37c0,0-13.2,19.92-3.18,42.62,0,0,28.15,10.48,34.83,13.49Z" transform="translate(49.99 -287.66)"/><g class="cls-29"><path class="cls-10" d="M262.54,332a35.39,35.39,0,0,0,10.18,34.27c.75.7,1.54,1.34,2.34,2-9.25-3.55-18.69-7.06-18.69-7.06-10-22.7,3.18-42.62,3.18-42.62A31.24,31.24,0,0,0,262.54,332Z" transform="translate(49.99 -287.66)"/></g><path class="cls-36" d="M262.51,331.93c5.58,12.78,17,23.66,17,23.66l11.65,19.06c-2.81-1.27-9.43-3.86-16.15-6.43l-1.42-.54-.64-.25-.6-.23c-8.31-3.17-16-6-16-6-10-22.7,3.18-42.62,3.18-42.62,0,.55,0,1.11,0,1.66,0,.25,0,.5.06.74s0,.62.06.93.08.53.11.79.08.59.13.89" transform="translate(49.99 -287.66)"/><path class="cls-33" d="M246.6,355.7c2.62,3,6.16,4.56,9.68,5.85l1.34.47,1.37.38a23.57,23.57,0,0,0,2.75.7c.93.17,1.84.44,2.78.6l2.83.43c.93.19,1.89.24,2.84.36s1.9.23,2.86.32c1.92.13,3.83.3,5.76.41,1,0,1.94.06,2.91.12s1.94.16,2.92.15c1.94.06,3.9.11,5.88.3-1.92.48-3.86.82-5.81,1.17s-3.92.44-5.89.6a29.46,29.46,0,0,1-3,.09h-3c-2-.12-4-.24-6-.54a39.88,39.88,0,0,1-11.54-3.4,24.84,24.84,0,0,1-5.11-3.25A13,13,0,0,1,246.6,355.7Z" transform="translate(49.99 -287.66)"/><path class="cls-40" d="M311.16,356.64c0,1.7-16.55,7.68-31.92,7.68s-32.64-6.92-32.64-8.62,17.27-1.42,32.64-1.42S311.16,354.94,311.16,356.64Z" transform="translate(49.99 -287.66)"/><path class="cls-10" d="M246.61,357.72v15.53c0,1,1.49,1.84,3.84,2.26a178.74,178.74,0,0,0,34.95,2.4l.52,0c2.27-.11,18.65-.95,26.76-2.27,2.43-.4,1.64-1.78,1.64-2.76l-.68-18.17s1.36,3.26-32.52,3.89c-30.14.57-31-3.65-33.07-3.88C246.35,354.52,246.61,357,246.61,357.72Z" transform="translate(49.99 -287.66)"/><path class="cls-33" d="M248.83,358.69a16.09,16.09,0,0,0,4.43,3.31,27.18,27.18,0,0,0,5,2.05c.87.24,1.72.52,2.62.69a26.74,26.74,0,0,0,2.67.51c.91.1,1.8.27,2.7.39l2.74.19a25.19,25.19,0,0,0,2.75.11l2.76.07,5.55-.16c.93-.06,1.86-.14,2.79-.18s1.88-.05,2.81-.16c1.88-.15,3.75-.32,5.68-.35-1.78.69-3.6,1.24-5.43,1.8s-3.72.85-5.6,1.21a24.41,24.41,0,0,1-2.85.38l-2.86.3c-1,0-1.93,0-2.9,0a25.36,25.36,0,0,1-2.89-.08,33.14,33.14,0,0,1-11.36-2.59,21.27,21.27,0,0,1-5-3A12.24,12.24,0,0,1,248.83,358.69Z" transform="translate(49.99 -287.66)"/><path class="cls-28" d="M104,439.56,86.9,434.34a1.2,1.2,0,0,1-.75-1.62l17.43-40.67a1.2,1.2,0,0,1,1.39-.69l14.79,3.79a1.2,1.2,0,0,1,.83,1.57l-15.14,42.1A1.21,1.21,0,0,1,104,439.56Z" transform="translate(49.99 -287.66)"/><polygon class="cls-28" points="138.13 93.01 122.66 133.87 135.62 146.29 153.97 103.45 138.13 93.01"/><path class="cls-28" d="M131.89,379h6.63a5.91,5.91,0,0,1,6,5.85v42.42a5.9,5.9,0,0,1-5.55,5.84l-6.63.44a5.91,5.91,0,0,1-6.36-5.84V384.82A5.91,5.91,0,0,1,131.89,379Z" transform="translate(49.99 -287.66)"/><path class="cls-28" d="M110.28,425.67,124.11,433a1.25,1.25,0,0,0,1.83-1.1h0" transform="translate(49.99 -287.66)"/><path class="cls-28" d="M166.19,388.8l-11.92.3a1.3,1.3,0,0,0-1.27,1.3V436a1.3,1.3,0,0,0,1.3,1.3h11.92a1.3,1.3,0,0,0,1.3-1.3V390.1A1.3,1.3,0,0,0,166.19,388.8Z" transform="translate(49.99 -287.66)"/><line class="cls-28" x1="194.08" y1="144.49" x2="202.47" y2="149.31"/><line class="cls-28" x1="195.34" y1="97.15" x2="202.59" y2="101.14"/><line class="cls-28" x1="217.13" y1="100.89" x2="199.67" y2="90.85"/><path class="cls-11" d="M35.48,369.78.25,347.13Z" transform="translate(49.99 -287.66)"/><path class="cls-41" d="M36.48,369.78.25,347.13l-1.4-.78a.83.83,0,0,1,.36-1.56l44.08-2.36" transform="translate(49.99 -287.66)"/><line class="cls-41" x1="241.03" y1="74.38" x2="210.25" y2="60.43"/><polyline class="cls-41" points="202.59 57.2 183.37 49.09 125.96 52.71"/><path class="cls-41" d="M50.59,342" transform="translate(49.99 -287.66)"/><line class="cls-41" x1="50.24" y1="165.93" x2="48.84" y2="58.69"/><line class="cls-42" x1="86.47" y1="180.91" x2="60.79" y2="171.31"/><line class="cls-42" x1="128.62" y1="179.3" x2="123.89" y2="194.8"/><polyline class="cls-42" points="103.07 180.91 110.8 208.81 119.89 208.81"/><polyline class="cls-42" points="79.44 179.3 77.36 183.94 69.67 183.94"/><line class="cls-42" x1="63.91" y1="173.04" x2="66.34" y2="177.62"/><line class="cls-42" x1="188.67" y1="174.55" x2="193.33" y2="192.08"/><polyline class="cls-42" points="195.39 199.85 196.4 203.62 205.48 203.62 214.22 173.04"/><polygon class="cls-27" points="206.4 179.9 197.47 180.93 201.4 200.3 197.47 200.3 191.33 175.84 206.4 175.33 206.4 179.9"/></g></g></svg>