<svg width="1742" height="534" viewBox="0 0 1742 534" fill="none" xmlns="http://www.w3.org/2000/svg">
<g id="winter bkg cneter" clip-path="url(#clip0)">
<g id="trees&#39;">
<path id="Vector" d="M827.27 568.458C827.658 568.977 832.505 568.458 833.295 568.458C835.437 568.458 837.566 568.458 839.695 568.38C843.55 568.315 847.192 567.964 850.968 568.782C852.675 569.258 854.44 569.512 856.216 569.536C857.617 569.257 858.97 568.785 860.232 568.133C862.579 567.408 865.111 567.481 867.409 568.341C869.524 568.951 871.506 569.913 873.688 570.342C875.027 570.615 879.847 571.538 880.73 569.848C881.855 567.678 878.053 565.195 876.848 563.856C874.29 560.853 870.568 560.021 866.579 559.956C862.074 559.759 857.622 558.928 853.364 557.486C852.025 557.071 849.736 556.512 850.231 554.757C850.459 553.99 852.106 553.34 852.735 552.95C851.243 551.308 849.42 549.981 847.38 549.05C844.635 547.633 841.944 546.684 840.511 543.851C840.11 543.058 839.039 541.394 839.828 540.575C840.618 539.756 842.975 540.666 844.099 539.951C843.403 539.119 841.716 537.715 842.238 536.48C842.761 535.245 845.264 536.012 846.375 535.908C845.029 534.747 843.524 533.772 841.904 533.01C840.23 532.243 833 532.022 834.768 528.59C836.669 528.252 838.931 529.63 840.752 529.89C843.524 530.319 846.335 530.644 849.107 531.021C852.159 531.424 854.837 532.841 857.823 533.244C859.343 533.317 860.859 533.473 862.361 533.711C863.834 534.088 861.518 528.954 861.237 528.629C859.73 527.122 857.681 526.242 855.52 526.172C852.722 525.782 845.304 526.848 843.537 524.274C845.492 522.766 849.789 526.419 851.463 523.728C850.874 522.363 849.482 522.337 848.183 521.986C845.109 521.383 842.123 520.414 839.293 519.101C836.91 517.801 835.276 515.786 832.746 514.564C831.096 513.753 829.83 512.357 829.211 510.664C831.313 509.988 835.089 512.211 836.803 510.469C837.686 509.573 837.432 508.689 838.57 508.13C839.146 507.857 840.284 508.208 840.926 508.13C842.265 507.909 843.296 507.168 844.715 507.233C847.112 507.363 849.656 508.637 852.132 508.715C854.609 508.793 857.689 508.39 855.439 505.569C853.511 503.138 850.298 503.723 847.714 502.215C846.402 501.325 844.856 500.815 843.256 500.746C840.913 500.424 838.646 499.703 836.562 498.614C835.584 498.108 832.318 497.952 832.251 496.665C832.251 495.755 836.388 496.665 835.156 494.702C834.5 493.688 831.554 492.934 830.336 492.778C828.475 492.544 826.48 492.973 825.382 491.088C824.851 490.068 824.086 489.178 823.146 488.488C823.24 488.553 826.52 487.071 826.4 486.383C826.038 484.121 821.727 486.227 822.504 482.99C822.905 481.313 823.843 479.22 822.999 477.556C822.437 476.49 821.178 475.879 820.723 474.775C820.201 473.272 819.947 471.694 819.973 470.108C819.826 471.928 817.738 473.358 817.296 475.307C816.854 477.257 817.363 479.922 816.64 481.911C815.609 484.693 813.841 484.667 811.284 485.473C810.012 485.876 807.268 486.162 806.879 487.708C808.553 488.852 810.99 487.825 812.811 488.306C811.873 490.139 808.62 491.426 806.866 492.349C805.518 492.911 804.215 493.571 802.97 494.325C801.497 495.456 803.265 495.118 804.215 495.508C804.496 495.612 802.22 496.574 802.1 496.626C801.109 496.99 800.212 497.562 799.194 497.926C796.958 498.471 794.773 499.197 792.661 500.096C791.966 500.446 791.348 500.923 790.84 501.5C790.666 501.669 790.947 501.968 790.746 502.124C789.849 502.865 787.065 502.722 786.034 503.021C785.003 503.32 783.356 504.321 784.614 505.621C785.873 506.921 789.756 504.867 790.76 504.503C794.616 503.112 798.498 503.021 802.515 502.332C802.22 503.307 800.989 503.905 800.654 504.932C802.247 506.349 804.456 504.633 806.197 504.646C808.285 504.646 808.499 505.946 807.12 507.246C806.29 508.026 805.259 508.468 804.724 509.508C804.296 510.313 804.403 511.249 803.787 512.003C802.341 513.732 798.592 515.305 796.477 516.098C794.843 516.709 792.46 516.683 790.987 517.775C787.319 520.622 795.165 519.881 796.423 520.531C796.303 522.428 791.068 524.066 789.421 524.43C784.454 525.47 779.527 525.405 774.841 527.589C773.984 527.992 769.686 529.37 770.69 531.073C771.454 532.373 776.314 531.71 777.92 531.801C779.875 531.931 781.308 530.943 783.155 530.8C785.003 530.657 785.003 531.775 786.342 532.815C789.113 534.933 793.558 533.283 796.865 533.893C797.762 534.062 799.543 533.971 799.703 535.102C799.824 535.921 797.775 538.404 797.293 539.184C796.217 540.753 794.893 542.148 793.371 543.318C788.986 547.233 783.474 549.755 777.572 550.545C775.765 550.792 773.689 551.13 773.489 553.249C775.35 554.822 783.035 551 783.49 553.093C783.985 555.381 775.135 555.693 773.502 556.096C772.228 556.38 770.979 556.763 769.767 557.24C768.428 557.785 767.37 559.384 769.419 559.839C771.467 560.294 773.783 557.772 775.885 559.644C775.47 561.581 771.347 561.23 771.065 563.648C773.02 565.351 777.76 564.051 780.049 563.986C781.844 563.844 783.634 564.303 785.123 565.286C788.283 566.95 791.523 566.495 794.897 566.794L801.203 567.301C801.926 567.301 806.826 568.146 807.161 567.691C804.516 571.237 801.501 574.508 798.164 577.453C789.756 584.771 779.808 589.048 770.463 587.241C801.661 593.216 833.612 594.566 865.226 591.245C855.239 588.489 845.358 584.836 836.615 578.701C834.634 577.362 830.925 573.319 827.27 568.458Z" fill="#ECEBEB"/>
<path id="Vector_2" d="M1165.64 486.838C1165.24 487.371 1160.4 486.838 1159.6 486.838C1157.47 486.838 1155.35 486.812 1153.21 486.76C1146.01 486.436 1138.79 486.693 1131.63 487.527C1128.86 487.757 1126.1 488.161 1123.38 488.736C1121.25 489.32 1117.63 490.893 1117.67 487.215C1117.67 485.265 1120.64 483.12 1122.33 482.496C1124.86 481.586 1127.84 482.366 1130.44 482.041C1135.06 481.495 1132.94 479.896 1135.12 477.245C1136.04 476.393 1137.24 475.886 1138.51 475.815C1139.94 475.529 1141.28 475.074 1142.7 474.736C1146.03 474.088 1149.05 472.42 1151.32 469.978C1152.53 468.678 1155.13 467.222 1155.17 465.312C1153.94 465.026 1151.65 467.352 1150.71 468.119C1149.64 469.117 1148.38 469.899 1147 470.42C1146.05 470.554 1145.11 470.749 1144.19 471.005C1143.34 471.395 1143.12 472.032 1142.11 472.188C1141.36 472.318 1140.61 472.071 1139.85 472.188C1137.96 472.591 1136.21 473.891 1134.16 473.267C1132.82 472.864 1133.09 471.902 1133.1 470.836C1134.99 470.407 1136.65 469.185 1138.55 468.678C1140.45 468.171 1142.26 468.015 1143.76 466.611C1145.58 464.909 1146.34 461.646 1148.34 459.384C1146.13 459.228 1143.91 459.995 1141.74 459.852C1139.36 456.836 1145.01 456.654 1146.61 455.432C1147.27 454.938 1147.48 453.639 1147.95 453.314C1150.23 451.923 1153.11 452.17 1155.42 450.948C1155.86 450.714 1159.89 447.269 1158.1 446.944C1156.3 446.619 1153.94 447.997 1152.11 448.244C1150.29 448.491 1148.16 448.92 1146.2 449.063C1144.78 449.229 1143.4 449.592 1142.1 450.142C1140.89 450.558 1139.6 450.324 1138.43 450.818C1135.69 451.988 1132.62 455.601 1129.47 453.652C1128.26 452.898 1128.31 452.729 1126.88 452.781C1126.16 452.833 1125.45 452.754 1124.76 452.547C1123.64 452.196 1122.97 451.741 1123.42 450.532C1124.2 448.53 1125.73 448.751 1127.44 448.608C1130.63 448.335 1132.79 445.605 1135.83 445.241C1136.73 445.137 1141.19 445.098 1140.88 443.512C1139.45 443.135 1129.31 445.267 1129.94 442.342C1130.24 441.043 1132.69 440.718 1133.76 440.77C1135.27 440.77 1136.25 441.147 1136.97 439.73C1137.24 439.21 1137.12 438.833 1137.6 438.43C1137.97 438.138 1138.4 437.928 1138.87 437.814C1139.33 437.699 1139.81 437.683 1140.28 437.767C1142.15 437.841 1144.02 437.577 1145.79 436.987C1147.51 436.389 1150.55 435.531 1151.69 434.179C1152.26 433.503 1152.19 432.515 1152.64 431.787C1151.83 431.787 1149.21 432.034 1150.45 430.708C1151.03 430.085 1153.28 430.046 1154.15 429.513C1155.02 428.98 1155.96 428.213 1156 427.251C1156 426.055 1152.56 427.134 1152.23 427.121C1151.27 427.121 1150.55 426.094 1149.56 425.821C1146.68 424.976 1143.61 427.03 1140.73 427.121C1138.06 427.199 1135.18 426.796 1137.41 423.975C1139.36 421.544 1142.57 422.116 1145.15 420.608C1146.47 419.727 1148.01 419.223 1149.61 419.152C1151.95 418.829 1154.22 418.107 1156.3 417.021C1157.28 416.501 1160.55 416.358 1160.62 415.071C1160.62 414.161 1156.47 415.071 1157.71 413.108C1159.25 410.69 1164.4 412.315 1165.3 409.858C1164.18 409.117 1161.43 408.883 1161.46 407.05C1161.49 405.218 1166.48 404.568 1167.98 403.658C1167.58 401.786 1164.39 402.098 1164.03 400.135C1163.56 397.535 1167.24 398.77 1168.31 396.937C1169.05 395.637 1168.19 393.415 1168.45 391.998C1168.78 390.152 1169.06 387.877 1169.52 386.135C1174.55 387.786 1171.49 394.961 1174.25 398.354C1175.32 399.654 1177.12 399.745 1178.26 400.954C1179.6 402.462 1179.11 403.086 1181.61 403.879C1182.95 404.282 1185.63 404.568 1186.01 406.102C1184.34 407.258 1181.9 406.232 1180.08 406.7C1181.02 408.532 1184.27 409.832 1186.03 410.742C1187.37 411.314 1188.68 411.978 1189.92 412.731C1191.4 413.862 1189.63 413.524 1188.68 413.901C1188.4 414.018 1190.67 414.98 1190.79 415.032C1191.78 415.396 1192.68 415.968 1193.7 416.332C1195.93 416.877 1198.11 417.603 1200.22 418.502C1200.92 418.849 1201.54 419.326 1202.05 419.906C1202.21 420.075 1201.95 420.374 1202.13 420.53C1203.03 421.271 1205.83 421.128 1206.86 421.414C1207.89 421.7 1209.54 422.714 1208.28 424.014C1207.02 425.314 1203.14 423.26 1202.13 422.896C1198.28 421.505 1194.4 421.401 1190.38 420.725C1190.66 421.7 1191.9 422.298 1192.24 423.325C1190.65 424.755 1188.42 423.026 1186.7 423.052C1184.59 423.052 1184.39 424.352 1185.77 425.652C1186.6 426.432 1187.63 426.874 1188.17 427.914C1188.6 428.72 1188.49 429.656 1189.11 430.396C1190.55 432.138 1194.3 433.711 1196.42 434.504C1198.05 435.115 1200.5 435.089 1201.91 436.168C1205.57 439.028 1197.72 438.274 1196.47 438.937C1196.59 440.822 1201.83 442.472 1203.47 442.836C1208.44 443.876 1213.35 443.811 1218.05 445.982C1218.91 446.385 1223.19 447.763 1222.2 449.479C1221.44 450.779 1216.57 450.103 1214.97 450.207C1213.02 450.337 1211.59 449.349 1209.74 449.206C1207.89 449.063 1207.89 450.181 1206.55 451.221C1203.78 453.327 1199.34 451.689 1196.03 452.3C1195.12 452.469 1193.35 452.378 1193.19 453.509C1193.07 454.327 1195.12 456.81 1195.59 457.59C1196.67 459.153 1197.99 460.547 1199.51 461.724C1203.9 465.628 1209.41 468.148 1215.31 468.951C1217.13 469.185 1219.2 469.523 1219.4 471.655C1217.54 473.228 1209.86 469.406 1209.4 471.499C1208.95 473.592 1217.76 474.099 1219.39 474.502C1220.67 474.775 1221.92 475.157 1223.13 475.646C1224.47 476.192 1225.52 477.777 1223.47 478.245C1221.43 478.713 1219.11 476.179 1217.01 478.05C1217.42 479.987 1221.55 479.636 1221.81 482.054C1219.87 483.757 1215.12 482.457 1212.84 482.392C1211.05 482.248 1209.26 482.707 1207.77 483.692C1204.61 485.356 1201.37 484.888 1197.98 485.187C1195.89 485.382 1193.79 485.551 1191.69 485.707C1190.97 485.707 1186.07 486.539 1185.73 486.097C1188.37 489.645 1191.39 492.912 1194.73 495.846C1203.14 503.164 1213.07 507.441 1222.43 505.647C1191.23 511.622 1159.28 512.972 1127.67 509.651C1137.65 506.895 1147.54 503.242 1156.28 497.107C1158.27 495.755 1161.98 491.712 1165.64 486.838Z" fill="#ECEBEB"/>
<path id="Vector_3" d="M666.85 529.293C674.107 529.813 681.577 532.114 688.847 533.283C694.934 534.263 701.053 535.069 707.203 535.701C710.148 536.013 712.478 536.026 715.142 537.274L723.296 541.07C725.004 541.932 726.799 542.625 728.651 543.137C731.182 543.748 733.832 543.8 736.39 544.255C739.174 544.749 741.598 546.256 744.208 547.244C749.095 549.09 753.46 551.846 758.641 553.12C760.931 553.679 766.393 553.861 766.795 550.52C767.036 548.57 764.746 546.724 763.541 545.437C761.646 543.346 759.968 541.078 758.534 538.665C756.594 535.264 753.89 532.332 750.622 530.086C746.096 527.187 741.035 524.379 737.876 519.908C735.305 516.281 742.535 517.425 744.356 517.711C748.372 518.335 751.358 521.714 755.468 522.507C756.981 522.793 758.534 522.767 760.047 523.027C760.701 523.248 761.38 523.392 762.069 523.456C762.368 523.372 762.647 523.228 762.887 523.034C763.126 522.84 763.322 522.6 763.462 522.329C763.601 522.058 763.682 521.762 763.698 521.459C763.714 521.157 763.665 520.854 763.555 520.571C762.859 519.388 760.168 519.583 758.963 518.738C758.253 518.231 752.764 515.501 753.42 514.539C753.808 513.941 755.374 514.786 755.91 514.968C757.833 515.666 759.857 516.065 761.908 516.151C764.586 516.151 766.219 517.711 768.816 518.296C770.651 518.712 771.682 518.101 773.449 517.984C775.216 517.867 777.291 518.803 779.273 518.816C779.675 516.541 775.524 514.37 773.917 513.018C772.012 511.503 769.968 510.159 767.812 509.002C765.335 507.624 762.203 507.702 759.779 506.259C758.618 505.488 757.785 504.332 757.436 503.009C756.794 501.639 755.831 500.432 754.625 499.486C754.9 499.498 755.175 499.442 755.422 499.322C755.669 499.202 755.88 499.023 756.035 498.802C756.191 498.58 756.286 498.324 756.311 498.057C756.336 497.79 756.29 497.521 756.178 497.277C755.581 496.299 754.624 495.579 753.5 495.262C751.719 494.547 749.202 494.703 747.85 493.286C747.355 492.753 746.31 491.011 747.007 490.348C747.703 489.685 750.153 490.751 750.822 490.946C752.097 491.446 753.397 491.88 754.718 492.246C755.878 492.308 757.04 492.308 758.199 492.246C756.472 490.27 753.701 489.49 751.586 487.891C750.18 486.825 749.082 485.383 747.569 484.447C744.998 482.848 742.428 482.237 740.071 480.17C737.394 477.791 734.622 475.464 731.744 473.281C732.674 474.213 733.79 474.951 735.024 475.452C736.258 475.952 737.583 476.204 738.92 476.192C740.728 476.151 742.533 476.37 744.275 476.842C746.31 477.336 748.506 477.011 750.581 477.622C752.657 478.233 754.357 479.351 756.392 479.273C757.476 479.273 758.762 478.467 758.507 477.44C758.253 476.413 756.968 476.309 756.03 475.945C754.477 475.36 754.692 474.204 753.741 473.255C752.566 472.341 751.132 471.797 749.631 471.695L750.019 470.72C750.18 470.33 754.732 471.084 755.562 469.745C756.727 467.86 751.331 467.145 749.832 466.495C747.341 465.312 744.329 465.845 742.16 463.895C742.043 463.803 741.963 463.675 741.932 463.531C741.932 463.232 742.267 463.05 742.575 462.972L746.458 461.933C745.614 460.49 742.133 459.489 740.687 458.657C739.844 458.176 736.55 457.942 736.483 456.863C736.349 455.03 740.58 457.825 741.41 456.018C741.523 455.728 741.551 455.413 741.491 455.108C741.049 452.508 737.876 452.872 736.135 451.728C734.127 450.429 731.53 449.61 729.642 448.154C729.213 447.829 728.772 447.361 728.879 446.854C729.053 445.996 730.311 446.022 731.182 446.243C734.319 447.048 737.514 447.622 740.741 447.959C742.736 448.167 747.73 449.259 749.497 448.193C751.586 446.893 750.166 444.995 748.761 444.007C746.217 442.213 744.275 443.175 741.598 442.434C741.384 442.394 741.193 442.278 741.062 442.109C740.727 441.589 741.45 441.043 741.625 440.445C741.678 440.207 741.661 439.958 741.576 439.728C741.491 439.498 741.341 439.296 741.143 439.146C739.67 437.846 737.581 438.327 735.787 438.171C734.081 438.03 732.426 437.529 730.941 436.702L737.487 434.921C735.265 433.504 732.453 434.193 730.392 432.555C729.548 431.892 729.187 431.138 728.116 430.67C726.777 430.124 725.572 430.228 724.42 429.37C724.36 429.33 724.308 429.278 724.269 429.218C724.23 429.157 724.204 429.09 724.193 429.019C724.193 428.746 724.581 428.694 724.862 428.72C726.966 428.89 729.084 428.811 731.168 428.486C731.515 428.458 731.837 428.299 732.065 428.044C732.132 427.852 732.137 427.645 732.079 427.45C732.022 427.255 731.905 427.082 731.744 426.953C730.983 426.288 730.062 425.818 729.066 425.588C723.577 423.911 716.32 423.456 717.914 416.02C718.033 415.655 718.06 415.267 717.994 414.89C717.726 413.863 716.253 413.811 715.169 413.98C714.942 414.447 714.585 414.843 714.138 415.124C712.799 415.812 712.598 411.562 712.639 410.769C712.718 409.446 712.527 408.12 712.076 406.869C711.933 406.374 711.69 405.911 711.361 405.507C711.033 405.103 710.625 404.767 710.162 404.516C710.01 404.452 709.844 404.425 709.68 404.438C709.398 404.503 709.238 404.776 709.117 405.036C708.678 406.045 708.553 407.157 708.756 408.234C708.89 408.91 709.144 409.534 709.238 410.236C709.259 410.567 709.203 410.898 709.073 411.204C708.943 411.51 708.743 411.784 708.488 412.004C708.184 412.234 707.851 412.426 707.497 412.576C706.863 412.906 706.331 413.395 705.958 413.993C705.703 414.396 707.591 415.046 707.819 415.968C707.901 416.532 707.811 417.106 707.558 417.62C707.306 418.133 706.903 418.563 706.399 418.854C703.722 420.778 700.656 420.765 698.688 423.781C699.357 424.431 700.442 424.132 701.365 423.95C703.36 423.56 704.15 424.86 702.704 426.056C701.014 427.087 699.13 427.785 697.161 428.109C696.838 428.131 696.529 428.249 696.278 428.447C696.054 428.741 695.933 429.096 695.93 429.461C695.703 430.377 695.258 431.229 694.63 431.947C694.002 432.665 693.209 433.229 692.315 433.595C690.521 434.297 688.677 434.875 686.799 435.324C684.908 435.785 683.231 436.847 682.032 438.34C685.112 439.431 683.197 439.483 681.537 440.445C678.324 442.317 684.643 442.967 685.728 443.11C689.578 443.494 693.458 443.494 697.309 443.11C696.854 444.813 694.818 445.996 693.292 446.75C691.56 447.441 689.934 448.359 688.459 449.48H692.783C694.566 449.601 696.354 449.628 698.139 449.558C698.139 450.325 697.309 450.858 696.572 451.117C693.895 452.235 691.217 452.118 688.446 452.651C685.942 453.132 683.626 454.211 681.149 454.757C678.926 455.251 675.673 456.291 674.281 458.15C674.095 458.373 673.978 458.643 673.942 458.928C673.907 459.213 673.955 459.502 674.08 459.762C674.923 461.244 679.435 459.008 680.68 459.008C681.055 461.608 675.499 461.608 673.986 461.777C672.157 461.836 670.349 462.178 668.631 462.791C666.288 463.648 663.958 464.558 661.669 465.507C661.215 465.639 660.822 465.919 660.557 466.3C660.505 466.439 660.505 466.591 660.557 466.729C660.617 466.876 660.726 466.999 660.865 467.08C661.674 467.537 662.626 467.69 663.543 467.509C668.028 467.067 672.312 467.236 676.717 465.975C677.186 466.872 676.383 467.86 675.767 468.666C675.151 469.472 674.803 470.863 675.767 471.266C676.059 471.363 676.372 471.39 676.677 471.344C678.882 471.164 681.047 470.669 683.104 469.875C683.76 469.615 684.777 469.03 685.527 469.277C685.697 469.329 685.854 469.416 685.987 469.532C686.12 469.648 686.226 469.789 686.298 469.948C686.371 470.107 686.407 470.278 686.406 470.452C686.404 470.625 686.365 470.796 686.29 470.954C685.835 471.669 685.125 471.487 684.442 471.734C683.412 472.246 682.438 472.86 681.537 473.567C681.069 473.879 680.533 474.411 680.828 474.866C680.917 474.976 681.028 475.067 681.155 475.134C681.281 475.201 681.42 475.243 681.564 475.256C682.543 475.425 683.551 475.335 684.483 474.996C685.152 474.736 685.821 474.36 686.397 474.035C687.841 473.292 689.427 472.85 691.056 472.735C691.332 472.693 691.614 472.725 691.873 472.826C692.099 472.952 692.269 473.153 692.353 473.392C692.437 473.632 692.428 473.892 692.328 474.126C691.793 475.542 688.472 476.348 687.16 476.842C685.192 477.57 683.371 478.662 681.39 479.286C678.712 480.157 675.941 480.989 673.209 481.886C672.669 481.981 672.153 482.181 671.693 482.474C671.233 482.766 670.838 483.145 670.532 483.589C670.486 483.684 670.463 483.789 670.463 483.894C670.463 484 670.486 484.104 670.532 484.2C670.595 484.312 670.688 484.406 670.8 484.473C671.968 485.084 673.334 485.237 674.615 484.902C675.954 484.694 679.81 483.979 679.971 486.201C679.971 487.15 678.967 487.748 678.056 488.086C673.377 489.683 668.596 490.986 663.744 491.986C660.383 493.026 656.795 493.598 653.368 494.391C651.87 494.603 650.424 495.074 649.097 495.782C647.664 496.679 646.419 497.927 645 498.81C645.736 498.368 651.105 500.331 652.417 500.461C654.545 500.828 656.65 501.31 658.723 501.904C663.034 502.84 667.372 503.698 671.71 504.504C674.508 505.011 677.306 505.505 680.118 505.96C682.367 506.337 685.607 506.259 687.495 507.676C687.415 509.327 684.978 510.171 684.924 511.822C684.924 512.628 685.5 513.356 685.513 514.175C685.513 515.397 684.295 516.242 683.171 516.775C681.436 517.618 679.614 518.281 677.735 518.751C675.593 519.297 672.942 519.986 672.487 522.091C672.452 522.382 672.375 522.666 672.259 522.936C672.02 523.289 671.659 523.547 671.241 523.664C669.218 524.489 667.094 525.062 664.922 525.367C664.025 525.497 661.883 526.394 662.244 527.694C662.606 528.994 665.832 529.215 666.85 529.293Z" fill="#ECEBEB"/>
<path id="Vector_4" d="M1108.83 566.223C1101.55 566.353 1093.95 568.251 1086.63 569.017C1080.5 569.65 1074.35 570.127 1068.18 570.447C1065.22 570.59 1062.89 570.447 1060.15 571.578L1051.79 574.932C1050.05 575.705 1048.22 576.297 1046.35 576.7C1043.79 577.181 1041.14 577.09 1038.55 577.415C1035.74 577.753 1033.2 579.131 1030.52 580.015C1025.54 581.587 1021.03 584.096 1015.79 585.097C1013.48 585.539 1008 585.422 1007.76 582.107C1007.64 580.157 1010.04 578.442 1011.31 577.22C1013.31 575.228 1015.1 573.051 1016.66 570.72C1018.79 567.428 1021.65 564.647 1025.04 562.583C1029.73 559.983 1034.95 557.383 1038.37 553.12C1041.14 549.623 1033.85 550.377 1032.01 550.52C1027.99 550.936 1024.79 554.147 1020.64 554.706C1019.11 554.914 1017.56 554.81 1016.03 554.979C1015.37 555.171 1014.69 555.281 1014 555.304C1013.7 555.207 1013.43 555.051 1013.2 554.846C1012.97 554.641 1012.79 554.392 1012.66 554.115C1012.53 553.837 1012.47 553.537 1012.47 553.234C1012.47 552.93 1012.53 552.63 1012.66 552.353C1013.44 551.209 1016.1 551.534 1017.36 550.754C1018.1 550.299 1023.73 547.868 1023.13 546.854C1022.77 546.243 1021.16 546.997 1020.61 547.153C1018.65 547.746 1016.61 548.031 1014.56 547.998C1011.88 547.92 1010.17 549.298 1007.55 549.779C1005.68 550.091 1004.69 549.428 1002.94 549.22C1000.99 548.986 999.044 549.831 997.076 549.74C996.795 547.439 1001.09 545.489 1002.71 544.229C1004.7 542.818 1006.81 541.586 1009.03 540.55C1011.59 539.25 1014.71 539.627 1017.23 538.249C1018.43 537.542 1019.33 536.433 1019.76 535.129C1020.48 533.794 1021.51 532.641 1022.77 531.763C1022.49 531.757 1022.22 531.685 1021.99 531.552C1021.75 531.419 1021.55 531.229 1021.4 531.001C1021.26 530.773 1021.18 530.513 1021.17 530.246C1021.16 529.98 1021.21 529.714 1021.34 529.475C1022 528.527 1023.01 527.862 1024.16 527.616C1025.98 526.992 1028.47 527.291 1029.9 525.939C1030.44 525.432 1031.58 523.755 1030.92 523.04C1030.27 522.325 1027.75 523.287 1027.08 523.443C1025.76 523.857 1024.42 524.204 1023.06 524.483C1021.9 524.461 1020.75 524.378 1019.6 524.236C1021.43 522.351 1024.24 521.727 1026.44 520.246C1027.9 519.258 1029.11 517.88 1030.64 517.022C1033.32 515.566 1035.9 515.085 1038.37 513.122C1041.2 510.886 1044.08 508.716 1047.07 506.688C1046.09 507.569 1044.93 508.248 1043.67 508.681C1042.42 509.115 1041.08 509.295 1039.74 509.21C1037.95 509.072 1036.15 509.194 1034.39 509.573C1032.33 509.95 1030.16 509.573 1028.04 510.015C1024.7 510.795 1022.78 511.315 1019.38 510.717C1015.98 510.119 1016.44 509.028 1018.77 507.091C1023.95 502.788 1019.26 504.712 1016.76 502.307C1021.9 498.407 1028.81 496.978 1034.05 493.39C1035.23 492.584 1035.11 492.207 1035.85 490.985C1036.76 489.258 1038.25 487.883 1040.07 487.085C1044.08 485.084 1049.1 485.643 1050.21 480.443C1045.97 481.878 1041.49 482.565 1037 482.471C1033.73 482.471 1030.31 486.071 1026.8 485.071C1024.5 484.356 1024.47 483.628 1025.46 482.159C1026.45 480.69 1032.38 479.559 1033.75 479.078C1035.8 478.404 1037.79 477.533 1039.66 476.478C1039.7 475.77 1039.8 475.065 1039.96 474.373C1040.46 473.687 1041.17 473.177 1041.99 472.917C1043.96 472.02 1046.36 472.085 1048.42 471.474C1049.48 471.284 1050.45 470.807 1051.24 470.098C1052.03 469.389 1052.59 468.478 1052.87 467.47C1053.17 466.534 1052.99 465.507 1053.72 464.714C1054.67 463.661 1056.31 463.895 1057.27 462.855C1056.04 461.881 1052.18 462.31 1050.38 461.92C1050.04 461.842 1049.65 461.738 1049.5 461.426C1049.45 461.232 1049.46 461.027 1049.52 460.837C1049.59 460.646 1049.71 460.48 1049.88 460.36C1050.69 459.731 1051.65 459.311 1052.68 459.138C1055.89 458.358 1063.21 458.137 1062.81 453.86C1062.56 451.039 1065.21 451.806 1065.85 449.467C1066.49 447.127 1063.32 444.839 1063.76 442.395C1066.35 441.719 1068.95 444.553 1069.04 440.419C1069.04 438.781 1068.18 435.467 1071.1 436.364C1071.77 438.846 1071.29 441.68 1071.45 444.228C1071.45 443.994 1072.4 445.294 1072.45 445.424C1073.15 447.101 1072.32 449.051 1073.1 450.922C1073.54 452.268 1074.27 453.505 1075.25 454.549C1077.49 456.33 1082.72 454.627 1083.06 458.449C1083.06 459.216 1077.51 458.878 1077.97 461.049C1078.18 462.115 1083.32 463.206 1084.27 463.44C1084.59 463.475 1084.89 463.607 1085.13 463.817C1085.34 464.126 1085.44 464.489 1085.43 464.857C1085.6 465.784 1085.99 466.658 1086.58 467.408C1087.17 468.158 1087.93 468.763 1088.8 469.173C1090.53 469.973 1092.32 470.651 1094.16 471.201C1096.02 471.765 1097.64 472.918 1098.75 474.476C1095.61 475.399 1097.52 475.555 1099.12 476.608C1102.23 478.649 1095.88 478.961 1094.78 479.039C1090.92 479.219 1087.04 479.014 1083.22 478.428C1083.58 480.157 1085.55 481.444 1087.05 482.328C1088.74 483.117 1090.31 484.127 1091.72 485.331L1087.39 485.123C1085.61 485.15 1083.82 485.077 1082.04 484.902C1081.97 485.682 1082.79 486.201 1083.51 486.552C1086.19 487.852 1088.79 487.852 1091.54 488.515C1094.01 489.126 1096.26 490.335 1098.71 491.024C1100.89 491.635 1104.06 492.844 1105.4 494.781C1105.57 495.013 1105.67 495.286 1105.7 495.57C1105.72 495.855 1105.66 496.139 1105.52 496.393C1104.59 497.836 1100.17 495.366 1098.96 495.288C1098.44 497.888 1104 498.212 1105.55 498.407C1107.39 498.571 1109.2 499.009 1110.9 499.707C1113.19 500.695 1115.46 501.727 1117.71 502.801C1118.15 502.954 1118.52 503.253 1118.76 503.646C1118.81 503.79 1118.81 503.944 1118.76 504.088C1118.69 504.226 1118.57 504.34 1118.43 504.413C1117.6 504.814 1116.65 504.916 1115.75 504.699C1111.31 504.01 1107.01 503.958 1102.68 502.45C1102.16 503.321 1102.91 504.348 1103.49 505.193C1104.06 506.038 1104.3 507.442 1103.34 507.793C1103.04 507.864 1102.73 507.864 1102.43 507.793C1100.24 507.488 1098.11 506.875 1096.1 505.973C1095.45 505.674 1094.48 505.037 1093.71 505.245C1093.55 505.297 1093.39 505.38 1093.25 505.49C1093.12 505.601 1093.01 505.736 1092.93 505.888C1092.85 506.04 1092.8 506.207 1092.78 506.377C1092.77 506.548 1092.79 506.72 1092.84 506.883C1093.27 507.624 1093.98 507.481 1094.65 507.767C1095.65 508.328 1096.59 508.99 1097.45 509.742C1097.9 510.08 1098.4 510.652 1098.09 511.107C1098 511.214 1097.88 511.3 1097.75 511.36C1097.62 511.42 1097.47 511.454 1097.33 511.458C1096.34 511.576 1095.34 511.432 1094.42 511.042C1093.79 510.725 1093.17 510.369 1092.58 509.976C1091.17 509.17 1089.61 508.656 1088 508.469C1087.72 508.397 1087.44 508.397 1087.17 508.469C1086.93 508.582 1086.74 508.778 1086.64 509.018C1086.54 509.258 1086.54 509.526 1086.63 509.768C1087.1 511.224 1090.37 512.199 1091.64 512.758C1093.57 513.603 1095.32 514.786 1097.26 515.527C1099.94 516.528 1102.62 517.516 1105.29 518.504C1105.83 518.631 1106.33 518.86 1106.77 519.177C1107.21 519.494 1107.58 519.892 1107.87 520.35C1107.91 520.445 1107.94 520.549 1107.94 520.655C1107.94 520.761 1107.91 520.865 1107.87 520.961C1107.8 521.072 1107.7 521.162 1107.58 521.221C1106.38 521.776 1105 521.855 1103.74 521.441C1102.4 521.156 1098.61 520.246 1098.39 522.442C1098.27 523.391 1099.3 524.054 1100.19 524.444C1104.77 526.311 1109.47 527.887 1114.25 529.163C1117.55 530.385 1121.11 531.139 1124.47 532.114C1125.95 532.416 1127.37 532.965 1128.66 533.738C1130 534.7 1131.16 536.026 1132.57 536.988C1131.86 536.507 1126.39 538.171 1125.07 538.288C1122.92 538.53 1120.8 538.894 1118.7 539.38C1114.33 540.082 1109.95 540.68 1105.58 541.278C1102.75 541.642 1099.94 541.967 1097.1 542.279C1094.84 542.526 1091.61 542.279 1089.63 543.579C1089.63 545.229 1092.01 546.178 1091.96 547.855C1091.96 548.661 1091.3 549.363 1091.25 550.169C1091.16 551.391 1092.33 552.314 1093.43 552.912C1095.13 553.846 1096.93 554.609 1098.79 555.187C1100.9 555.837 1103.5 556.668 1103.84 558.8C1103.85 559.093 1103.91 559.381 1104.01 559.658C1104.24 560.013 1104.58 560.284 1104.99 560.425C1106.96 561.36 1109.05 562.05 1111.2 562.479C1112.08 562.648 1114.18 563.662 1113.69 564.949C1113.19 566.236 1109.87 566.197 1108.83 566.223Z" fill="#ECEBEB"/>
</g>
<g id="OBJECTS">
<path id="Vector_5" d="M1161.09 504.017C1158.8 502.097 1159.44 501.257 1159.44 498.157L1061 524.697C1061.17 526.637 1061.39 528.667 1062.54 530.237C1064.52 532.927 1068.35 533.237 1071.68 533.237L1436.05 536.787C1447.2 536.887 1455.94 530.167 1445.28 522.307C1441.99 520.036 1439.39 516.9 1437.77 513.247C1435.65 508.222 1435.65 502.552 1435.65 495.794L1435.65 495.247C1435.68 480.607 1432.56 469.437 1425.43 457.247C1420.67 449.097 1420.41 438.807 1418.54 429.807C1417.16 423.157 1413.52 417.347 1412.3 410.747C1411.38 405.807 1412.3 400.517 1410.97 395.657C1410.12 392.497 1407.25 390.677 1405.25 388.277C1404.85 387.81 1404.48 387.312 1404.16 386.787C1402.36 383.787 1403.48 379.327 1400.71 376.867C1400.16 376.406 1399.49 376.114 1398.78 376.027C1398.07 375.94 1397.35 376.062 1396.71 376.377C1396.14 376.757 1396.77 380.847 1396.62 381.627C1396.35 383.027 1395.63 383.837 1395.18 385.197C1394.14 388.307 1395.31 391.837 1395.23 395.027C1395.05 402.247 1392.56 409.227 1391.51 416.337C1390.57 422.677 1391.94 429.037 1392.18 435.337C1392.63 447.087 1387.97 459.387 1385.38 470.547C1382.53 482.857 1371.88 472.547 1363.79 478.037C1360.07 480.547 1361.47 485.317 1358.4 488.967C1353.71 494.517 1342.66 495.827 1335.85 495.407C1335.28 495.38 1334.72 495.286 1334.17 495.127C1327.57 493.307 1323.9 483.557 1322.57 476.557C1321.62 471.517 1321.4 467.187 1318.99 462.717C1316.58 458.247 1311.14 456.437 1308.99 452.087C1308.61 451.327 1308.18 449.517 1307.56 447.827C1306.66 445.387 1305.36 443.237 1303.22 444.827C1302.18 445.607 1302.71 447.437 1302.63 448.527C1302.28 453.107 1299.62 456.947 1298.77 461.417C1297.44 468.437 1299.2 474.877 1293.65 480.527C1291.22 482.977 1285.69 486.187 1281.28 485.977C1280.5 485.947 1279.72 485.778 1279 485.477C1267.56 480.767 1269.54 461.537 1264 453.477C1262.36 451.127 1260.67 449.727 1259.46 447.127C1258.03 444.127 1257.63 440.657 1255.19 438.127H1253.5C1244.89 438.627 1247.49 446.357 1245.71 452.357C1244.53 456.307 1242.5 458.637 1242.11 462.827C1241.72 467.017 1240.04 470.217 1239.11 474.387C1238.23 478.247 1240.58 482.397 1239.23 486.077C1233.69 501.087 1228.51 503.757 1213.29 503.957C1203.17 504.117 1193.12 505.317 1183.04 505.957C1177.23 506.327 1170.25 508.257 1164.5 506.017C1163.26 505.545 1162.11 504.869 1161.09 504.017Z" fill="white"/>
<path id="Vector_6" opacity="0.42" d="M1334.12 495.147C1334.67 495.306 1335.23 495.4 1335.8 495.427C1342.61 495.847 1353.66 494.537 1358.35 488.987C1361.42 485.337 1360.02 480.567 1363.74 478.057C1371.83 472.567 1382.48 482.877 1385.33 470.567C1387.92 459.407 1392.58 447.107 1392.13 435.357C1391.89 429.057 1390.52 422.697 1391.46 416.357C1392.51 409.247 1395 402.267 1395.18 395.047C1395.26 391.857 1394.09 388.327 1395.13 385.217C1395.58 383.857 1396.3 383.047 1396.57 381.647C1396.72 380.867 1396.09 376.777 1396.66 376.397C1397.3 376.082 1398.02 375.96 1398.73 376.047C1399.44 376.134 1400.11 376.426 1400.66 376.887C1403.43 379.347 1402.31 383.807 1404.11 386.807C1404.43 387.332 1404.8 387.83 1405.2 388.297C1405.36 391.747 1405.47 395.077 1404.54 397.577C1403 401.767 1399.99 401.797 1399.99 407.127C1399.99 410.547 1401.18 413.817 1401.23 417.377C1401.33 425.817 1397.05 432.757 1396.31 440.797C1395.57 448.837 1398.82 456.327 1397.58 464.687C1396.25 473.587 1396.58 477.417 1388.19 481.217C1384.8 482.747 1382.48 482.027 1379.7 485.547C1377.37 488.477 1377.62 491.907 1375.48 494.897C1369.86 502.777 1359.41 501.597 1350.92 502.057C1345.03 502.377 1340.73 504.547 1336.81 499.967C1335.62 498.543 1334.71 496.908 1334.12 495.147Z" fill="#DBDBDB"/>
<path id="Vector_7" opacity="0.42" d="M1281.21 486.027C1285.62 486.237 1291.15 483.027 1293.58 480.577C1299.13 474.927 1297.37 468.487 1298.7 461.467C1299.55 456.997 1302.21 453.157 1302.56 448.577C1302.64 447.487 1302.11 445.657 1303.15 444.877C1305.29 443.287 1306.59 445.437 1307.49 447.877C1306.56 449.966 1306.1 452.236 1306.15 454.523C1306.19 456.811 1306.75 459.059 1307.77 461.107C1310.95 467.527 1310.14 468.707 1307.11 474.747C1305.53 477.877 1304.56 482.417 1301.16 484.487C1298 486.407 1289.54 486.907 1285.75 487.157C1284.15 487.369 1282.53 486.965 1281.21 486.027Z" fill="#DBDBDB"/>
<path id="Vector_8" opacity="0.42" d="M1164.55 506.027C1170.27 508.247 1177.25 506.317 1183.06 505.947C1193.14 505.307 1203.19 504.107 1213.31 503.947C1228.53 503.747 1233.71 501.077 1239.25 486.067C1240.6 482.387 1238.25 478.237 1239.13 474.377C1240.06 470.207 1241.74 467.007 1242.13 462.817C1242.52 458.627 1244.55 456.297 1245.73 452.347C1247.51 446.347 1244.91 438.617 1253.52 438.117C1253.46 438.189 1253.4 438.27 1253.36 438.357C1249.65 444.687 1251.57 453.107 1250.23 460.017C1249.7 462.777 1247.38 465.617 1247.77 468.597C1248.21 472.017 1251.23 474.597 1251.87 478.227C1252.66 482.707 1250.51 486.127 1250.26 490.297C1249.91 496.107 1253.44 497.447 1247.89 501.807C1242.34 506.167 1234.57 511.347 1227.32 512.217C1222.84 512.711 1218.32 512.461 1213.92 511.477C1208.2 510.317 1204.25 510.747 1198.44 511.477C1190.73 512.477 1184.56 510.947 1177.56 508.807C1173.56 507.567 1169.27 508.247 1165.38 506.417C1165.06 506.297 1164.8 506.157 1164.55 506.027Z" fill="#DBDBDB"/>
</g>
<g id="OBJECTS_2">
<path id="Vector_9" d="M639.021 503.017C641.311 501.097 640.671 500.257 640.671 497.157L739.111 523.697C738.941 525.637 738.721 527.667 737.571 529.237C735.591 531.927 731.761 532.237 728.431 532.237L364.061 535.787C352.911 535.887 344.171 529.167 354.831 521.307C358.121 519.036 360.719 515.9 362.341 512.247C364.464 507.222 364.462 501.552 364.461 494.794L364.461 494.247C364.431 479.607 367.551 468.437 374.681 456.247C379.441 448.097 379.701 437.807 381.571 428.807C382.951 422.157 386.591 416.347 387.811 409.747C388.731 404.807 387.811 399.517 389.141 394.657C389.991 391.497 392.861 389.677 394.861 387.277C395.264 386.81 395.628 386.312 395.951 385.787C397.751 382.787 396.631 378.327 399.401 375.867C399.948 375.406 400.618 375.114 401.328 375.027C402.038 374.94 402.758 375.062 403.401 375.377C403.971 375.757 403.341 379.847 403.491 380.627C403.761 382.027 404.481 382.837 404.931 384.197C405.971 387.307 404.801 390.837 404.881 394.027C405.061 401.247 407.551 408.227 408.601 415.337C409.541 421.677 408.171 428.037 407.931 434.337C407.481 446.087 412.141 458.387 414.731 469.547C417.581 481.857 428.231 471.547 436.321 477.037C440.041 479.547 438.641 484.317 441.711 487.967C446.401 493.517 457.451 494.827 464.261 494.407C464.83 494.38 465.394 494.286 465.941 494.127C472.541 492.307 476.211 482.557 477.541 475.557C478.491 470.517 478.711 466.187 481.121 461.717C483.531 457.247 488.971 455.437 491.121 451.087C491.501 450.327 491.931 448.517 492.551 446.827C493.451 444.387 494.751 442.237 496.891 443.827C497.931 444.607 497.401 446.437 497.481 447.527C497.831 452.107 500.491 455.947 501.341 460.417C502.671 467.437 500.911 473.877 506.461 479.527C508.891 481.977 514.421 485.187 518.831 484.977C519.615 484.947 520.387 484.778 521.111 484.477C532.551 479.767 530.571 460.537 536.111 452.477C537.751 450.127 539.441 448.727 540.651 446.127C542.081 443.127 542.481 439.657 544.921 437.127H546.611C555.221 437.627 552.621 445.357 554.401 451.357C555.581 455.307 557.611 457.637 558.001 461.827C558.391 466.017 560.071 469.217 561.001 473.387C561.881 477.247 559.531 481.397 560.881 485.077C566.421 500.087 571.601 502.757 586.821 502.957C596.941 503.117 606.991 504.317 617.071 504.957C622.881 505.327 629.861 507.257 635.611 505.017C636.851 504.545 638.004 503.869 639.021 503.017Z" fill="white"/>
<path id="Vector_10" opacity="0.42" d="M465.991 494.147C465.444 494.306 464.88 494.4 464.311 494.427C457.501 494.847 446.451 493.537 441.761 487.987C438.691 484.337 440.091 479.567 436.371 477.057C428.281 471.567 417.631 481.877 414.781 469.567C412.191 458.407 407.531 446.107 407.981 434.357C408.221 428.057 409.591 421.697 408.651 415.357C407.601 408.247 405.111 401.267 404.931 394.047C404.851 390.857 406.021 387.327 404.981 384.217C404.531 382.857 403.811 382.047 403.541 380.647C403.391 379.867 404.021 375.777 403.451 375.397C402.808 375.082 402.088 374.96 401.378 375.047C400.668 375.134 399.998 375.426 399.451 375.887C396.681 378.347 397.801 382.807 396.001 385.807C395.678 386.332 395.314 386.83 394.911 387.297C394.751 390.747 394.641 394.077 395.571 396.577C397.111 400.767 400.121 400.797 400.121 406.127C400.121 409.547 398.931 412.817 398.881 416.377C398.781 424.817 403.061 431.757 403.801 439.797C404.541 447.837 401.291 455.327 402.531 463.687C403.861 472.587 403.531 476.417 411.921 480.217C415.311 481.747 417.631 481.027 420.411 484.547C422.741 487.477 422.491 490.907 424.631 493.897C430.251 501.777 440.701 500.597 449.191 501.057C455.081 501.377 459.381 503.547 463.301 498.967C464.492 497.543 465.404 495.908 465.991 494.147Z" fill="#DBDBDB"/>
<path id="Vector_11" opacity="0.42" d="M518.901 485.027C514.491 485.237 508.961 482.027 506.531 479.577C500.981 473.927 502.741 467.487 501.411 460.467C500.561 455.997 497.901 452.157 497.551 447.577C497.471 446.487 498.001 444.657 496.961 443.877C494.821 442.287 493.521 444.437 492.621 446.877C493.554 448.966 494.013 451.236 493.965 453.523C493.916 455.811 493.362 458.059 492.341 460.107C489.161 466.527 489.971 467.707 493.001 473.747C494.581 476.877 495.551 481.417 498.951 483.487C502.111 485.407 510.571 485.907 514.361 486.157C515.963 486.369 517.585 485.965 518.901 485.027Z" fill="#DBDBDB"/>
<path id="Vector_12" opacity="0.42" d="M635.561 505.027C629.841 507.247 622.861 505.317 617.051 504.947C606.971 504.307 596.921 503.107 586.801 502.947C571.581 502.747 566.401 500.077 560.861 485.067C559.511 481.387 561.861 477.237 560.981 473.377C560.051 469.207 558.371 466.007 557.981 461.817C557.591 457.627 555.561 455.297 554.381 451.347C552.601 445.347 555.201 437.617 546.591 437.117C546.654 437.189 546.708 437.27 546.751 437.357C550.461 443.687 548.541 452.107 549.881 459.017C550.411 461.777 552.731 464.617 552.341 467.597C551.901 471.017 548.881 473.597 548.241 477.227C547.451 481.707 549.601 485.127 549.851 489.297C550.201 495.107 546.671 496.447 552.221 500.807C557.771 505.167 565.541 510.347 572.791 511.217C577.268 511.711 581.796 511.461 586.191 510.477C591.911 509.317 595.861 509.747 601.671 510.477C609.381 511.477 615.551 509.947 622.551 507.807C626.551 506.567 630.841 507.247 634.731 505.417C635.051 505.297 635.311 505.157 635.561 505.027Z" fill="#DBDBDB"/>
</g>
<g id="long tree">
<path id="Vector_13" d="M1625.4 360.033C1609.34 373.136 1586.23 350.315 1602.46 337.077C1610.85 330.227 1617.76 322.017 1624.25 313.458C1613.75 313.851 1601.9 301.85 1607.64 288.612C1616.53 268.108 1630.14 250.068 1636.14 228.338C1637.08 224.565 1639.44 221.299 1642.72 219.216C1638.77 201.884 1634.16 183.158 1629.08 164.352C1620.15 186.307 1613.69 209.735 1602.44 230.419C1592.45 248.808 1564.42 232.421 1574.42 214.031C1590.39 184.575 1596.61 149.708 1614.15 121.241C1614.66 120.451 1615.23 119.7 1615.85 118.992C1599.91 68.4351 1581.99 27 1567.49 27C1549.63 27 1526.58 89.8162 1508.44 155.141L1519.47 190.063L1506.28 163.07C1496.9 197.7 1488.99 232.365 1484.09 258.121C1477.87 290.738 1475.81 321.567 1477.64 349.1L1515.27 400.411L1480.31 372C1489.72 430.891 1519.68 469.851 1567.57 469.851C1628.37 469.851 1660.28 407.193 1657.92 320.51C1647.83 334.456 1638.47 349.314 1625.4 360.033Z" fill="#DCDBDB"/>
<path id="Vector_14" d="M1656.54 298.038L1627.82 327.821L1655.19 285.295C1654.09 276.394 1652.67 267.336 1650.92 258.121C1650.57 256.288 1650.2 254.398 1649.8 252.497L1629.55 284.788L1648.01 243.59C1642.79 218.362 1635.47 187.465 1627.05 156.985L1601.05 201.12L1622.42 140.733C1611.17 102.143 1598.45 66.0396 1586.43 45.2771C1579.43 33.2312 1572.65 26.2916 1566.52 27.1239L1566.4 27.2364C1546.9 45.1421 1549.02 76.0384 1549.01 99.9727C1549.01 110.725 1548.47 119.554 1542.62 128.698C1537.24 137.089 1530.25 144.625 1525.65 153.555C1518.64 167.13 1523.85 185.047 1525.88 199.23C1528.75 219.138 1521.89 235.986 1513.05 253.611C1504.4 270.887 1493.17 290.041 1503.47 309.116C1512.74 326.268 1522.46 342.273 1520.28 362.856C1518.56 379.153 1509.64 390.862 1512.41 408.205C1515.78 429.575 1534.9 445.951 1548.74 461.011C1563.48 477.084 1590.85 469.008 1607.22 458.84C1645.88 434.861 1663.38 373.732 1656.54 298.038Z" fill="#EAEAEA"/>
<path id="Vector_15" d="M1581.95 66.7701C1583.18 81.9989 1580.04 99.1848 1589.83 112.22C1598.82 124.255 1604.98 135.356 1608.23 150.214C1610.48 160.741 1609.55 171.381 1607.87 181.931L1622.49 140.721C1611.24 102.132 1598.52 66.0277 1586.5 45.2652C1580.51 34.9627 1574.69 28.3943 1569.3 27.2695C1576.67 38.7193 1580.8 52.3398 1581.95 66.7701Z" fill="#F9F9FA"/>
<path id="Vector_16" d="M1604.73 199.792C1602.48 213.649 1609.69 219.869 1617.82 229.946C1629.26 244.106 1634.25 259.414 1633.57 275.745L1647.98 243.567C1642.77 218.339 1635.44 187.443 1627.03 156.962L1605.91 192.796C1605.53 195.147 1605.16 197.475 1604.73 199.792Z" fill="#F9F9FA"/>
<path id="Vector_17" d="M1656.54 298.037L1627.82 327.82L1655.19 285.294C1654.09 276.394 1652.67 267.336 1650.92 258.121C1650.57 256.287 1650.2 254.398 1649.8 252.497L1633.36 278.681C1632.76 285.596 1631.34 292.415 1629.12 298.993C1622.3 319.576 1622.7 334.647 1625.58 356.051C1627.38 369.402 1629.56 383.045 1626.63 396.395C1623.99 408.463 1615.52 417.113 1612.18 428.382C1609.63 437.043 1607.53 445.951 1602.16 453.419C1598.9 457.935 1595.36 462.244 1591.57 466.32C1597.03 464.388 1602.27 461.884 1607.2 458.851C1645.88 434.861 1663.38 373.732 1656.54 298.037Z" fill="#F9F9FA"/>
<path id="Vector_18" d="M1622.39 285.148L1570.34 342.734L1567.52 190.097L1565.11 319.553L1530.74 279.097L1564.95 329.001L1563.34 415.661L1509.71 348.886L1563.14 426.819L1561.07 538.696H1573.98L1570.56 354.386L1622.39 285.148Z" fill="#7D7D7D"/>
</g>
<g id="snowtree">
<path id="Vector_19" d="M1441.6 376.937L1409.04 412.957L1407.27 317.467L1405.78 398.458L1384.26 373.145L1405.66 404.365L1404.66 458.578L1371.11 416.806L1404.53 465.56L1403.24 535.542H1411.31L1409.18 420.247L1441.6 376.937Z" fill="#7D7D7D"/>
<path id="Vector_20" d="M1452.03 414.926H1407.36H1362.68L1318 498.44H1407.36H1496.71L1452.03 414.926Z" fill="#F9F9FA"/>
<path id="Vector_21" d="M1480.49 484.445C1469.66 484.445 1464.08 479.994 1455.27 474.852C1442.45 467.374 1427.84 473.941 1414.74 476.788C1403.55 479.229 1391.2 474.893 1380.57 472.037C1373.91 470.247 1367.72 468.839 1362.4 464.331C1358.44 460.971 1358.48 454.348 1359.09 449.808C1360.24 441.061 1361.18 431.606 1358.21 423.299L1318.02 498.44H1496.71L1488.81 483.664C1486.06 484.154 1483.28 484.415 1480.49 484.445Z" fill="#DCDBDB"/>
<path id="Vector_22" d="M1495.38 487.423C1493.67 484.494 1493.68 481.166 1490.42 479.555C1485.25 477.008 1481.58 480.425 1477.35 482.492H1477.29C1471.29 482.394 1465.3 482.199 1459.3 482.175C1456.63 482.175 1454.18 482.988 1451.72 483.452C1449.28 483.151 1446.84 482.866 1444.34 482.704C1442.07 481.573 1440.1 479.872 1437.56 479.53C1432.2 478.814 1426.58 480.954 1421.03 482.549H1406.27C1404.38 481.621 1402.48 480.564 1400.34 480.287C1395.96 479.709 1393.12 481.296 1389.19 482.101C1387.76 482.372 1386.31 482.522 1384.85 482.549H1382.64C1380.16 482.526 1377.69 482.117 1375.32 481.337C1371.69 479.945 1369.79 478.432 1365.56 478.798C1361.86 479.124 1358.45 479.88 1354.68 479.929C1351.33 479.97 1349.33 479.115 1346.45 478.497C1343 477.814 1338.43 479.441 1335.2 480.385C1333.65 480.84 1332.28 481.8 1330.7 482.191C1329.44 482.492 1326.69 481.809 1325.82 482.15C1322.98 483.257 1318.02 494.632 1318.03 498.366V498.44C1318.03 498.513 1318.03 498.61 1318.03 498.676C1318.63 505.762 1327.22 500.685 1333.66 498.44H1341.02C1344.93 500.108 1348.27 502.833 1352.8 503.183C1358.5 503.614 1362.34 501.71 1367.4 499.929C1372.45 498.147 1376.92 500.449 1381.94 501.434C1388.39 502.687 1393.23 501.987 1399.58 500.946C1405.66 499.945 1410.46 500.946 1416.42 502.077C1421.71 503.102 1426.38 500.864 1431.5 500.116C1440.52 498.798 1449.2 503.183 1458.21 501.352C1462.9 500.392 1466.16 499.229 1470.8 500.205C1474.77 501.019 1478.04 501.58 1482.2 500.954C1486.97 500.23 1496.84 503.72 1498.97 496.829C1500.18 492.874 1497.1 490.376 1495.38 487.423Z" fill="#F7F7F7"/>
<path id="Vector_23" d="M1470.83 450.06L1452.03 414.926H1362.68L1343.88 450.06C1344.15 449.555 1351.87 449.783 1353.32 449.246C1358.2 447.318 1362.6 444.364 1367.31 442.143C1369.92 440.914 1372.62 441.272 1375.53 441.647C1379.33 442.127 1383.26 442.322 1386.86 443.534C1392.79 445.706 1399.27 445.869 1405.3 443.998C1409.5 442.835 1415.74 439.157 1420.41 440.841C1424.67 442.371 1426.5 446.537 1431.41 446.789C1435.7 446.984 1440.58 447.196 1444.79 446.602C1447.2 446.124 1449.69 446.444 1451.89 447.513C1455.15 448.986 1458.5 451.215 1462.23 451.24C1465.14 451.321 1467.77 450.06 1470.83 450.06Z" fill="#DCDBDB"/>
<path id="Vector_24" d="M1442.51 371.119H1407.36H1372.21L1337.05 436.822H1407.36H1477.65L1442.51 371.119Z" fill="#F9F9FA"/>
<path id="Vector_25" d="M1449.7 418.059C1440.33 416.789 1427.01 416.431 1418.53 412.2C1413.44 409.67 1410.76 407.603 1404.81 408.067C1401.58 408.372 1398.33 408.445 1395.09 408.287C1389.71 407.929 1383.31 407.603 1378.52 404.829C1363.13 395.879 1378.28 382.86 1372.89 371.119H1372.21L1337.06 436.822H1477.65L1469.33 421.265C1462.74 420.597 1456.45 418.97 1449.7 418.059Z" fill="#DCDBDB"/>
<path id="Vector_26" d="M1480.77 430.808C1479.4 428.123 1476.64 426.74 1475.33 424.063C1473.91 421.175 1475.02 417.937 1471.67 416.26C1469.38 415.121 1465.98 415.943 1463.44 415.813C1459.01 415.593 1457.43 415.813 1453.38 417.44C1452.72 417.675 1452.05 417.873 1451.37 418.034C1445.06 417.22 1438.76 415.593 1432.4 416.594C1430.34 416.992 1428.35 417.665 1426.47 418.596C1425.01 418.522 1423.6 418.474 1422.29 418.474H1407.21L1406.4 418.189C1402.76 416.903 1400.14 416.138 1396.28 417.253C1395.04 417.611 1393.9 418.067 1392.77 418.474H1378.24C1376.93 417.735 1375.57 417.078 1374.17 416.504C1370.92 415.284 1367.93 416.065 1364.79 416.968C1362.93 417.594 1361.03 418.097 1359.1 418.474H1355.37C1352.12 417.847 1349.99 416.26 1346.42 417.44C1339.91 419.588 1336.05 425.87 1333.78 432.086C1330.46 441.142 1343.82 441.036 1349.82 440.222C1357.96 439.165 1365.53 443.689 1373.78 442.501C1377.4 441.98 1380.55 439.881 1384.21 439.409C1387.88 438.937 1391.15 439.36 1394.69 439.856C1398.48 440.385 1402.45 440.572 1406 439.49C1409.38 438.465 1412.07 437.139 1415.41 436.878H1417.85C1422.41 437.269 1426.6 439.393 1431.1 440.336C1434.99 441.025 1438.95 441.246 1442.9 440.995C1447.17 440.841 1449.62 439.555 1454.08 440.711C1458.03 441.736 1461.4 442.842 1465.68 442.484C1468.81 442.232 1471.5 440.735 1474.3 440.247C1476.87 439.791 1480 441.24 1481.44 439.124C1482.59 437.334 1481.58 432.411 1480.77 430.808Z" fill="#F7F7F7"/>
<path id="Vector_27" d="M1455.83 399.768C1455.83 399.678 1455.91 399.597 1455.95 399.499C1457.26 396.326 1453.07 390.866 1451.69 388.279L1445.38 376.465C1445.13 375.993 1443.01 371.095 1442.51 371.095H1372.21L1356.18 401.037C1356.44 400.573 1361.22 401.037 1362.12 400.736C1364.66 399.752 1366.13 396.855 1368.45 395.488C1370.16 394.479 1371.7 393.446 1373.62 393.283C1376.09 393.212 1378.57 393.299 1381.03 393.543C1383.47 393.682 1384.59 394.674 1386.86 395.382C1395.74 398.141 1404.5 394.975 1413.51 394.569C1418.03 394.341 1420.44 395.87 1424.37 397.522C1425.5 398.002 1428.1 398.555 1429.3 398.287C1431.44 397.799 1432.55 395.488 1434.8 395.032C1438.39 394.365 1441.52 395.626 1444.56 397.302C1446.87 398.604 1453.99 403.226 1455.83 399.768Z" fill="#DCDBDB"/>
<path id="Vector_28" d="M1435.98 334.838H1407.36H1378.73L1350.1 388.344H1407.36H1464.6L1435.98 334.838Z" fill="#F9F9FA"/>
<path id="Vector_29" d="M1432.15 378.662C1418.24 375.896 1408.91 366.172 1394.23 366.417C1387.72 366.53 1380.54 364.578 1378.58 357.466C1377.37 353.081 1385.13 336.637 1378.67 335.026L1350.11 388.345H1464.6L1457.37 374.838C1449.07 377.035 1440.82 380.395 1432.15 378.662Z" fill="#DCDBDB"/>
<path id="Vector_30" d="M1461.82 380.68C1460.39 378.287 1460.54 375.179 1458.57 373.064C1453.07 367.181 1445.08 372.82 1438.69 371.868C1435.32 371.363 1432.44 370.24 1428.93 370.452C1427.39 370.55 1425.87 370.74 1424.36 371.021C1420.8 370.315 1417.13 370.251 1413.55 370.834C1409.64 371.648 1406.81 373.08 1402.67 373.072C1398.53 373.064 1396.97 371.819 1393.3 370.908C1387.97 369.581 1383.05 372.535 1377.98 373.446H1372.75C1372.61 373.446 1372.47 373.405 1372.33 373.365C1369.31 372.551 1367.79 370.395 1364.45 370.452C1362.23 370.452 1357.32 371.062 1355.5 372.413C1353.43 373.991 1351.86 378.434 1350.18 380.549C1348.67 382.47 1345.62 385.431 1345.68 388.051C1345.88 396.839 1361.14 389.101 1365.46 389.174C1374.09 389.304 1381.15 393.348 1389.94 391.127C1393.41 390.256 1397.27 389.198 1400.8 389.166C1404.33 389.133 1407.09 390.622 1410.56 391.338C1417.88 392.852 1424.47 389.272 1431.57 390.655C1438.12 391.924 1444.21 390.354 1450.69 391.412C1454.86 392.087 1466.7 394.316 1466.06 386.92C1465.81 384.26 1463.14 382.876 1461.82 380.68Z" fill="#F7F7F7"/>
<path id="Vector_31" d="M1449.58 361.421C1450 359.427 1447.13 355.725 1446.16 353.854C1443.93 349.699 1441.71 345.541 1439.49 341.38C1439.18 340.803 1436.6 334.871 1435.98 334.871H1378.73L1364.43 361.575C1364.52 361.388 1367.42 361.478 1367.96 361.258C1369.7 360.542 1370.9 358.67 1372.37 357.564C1374 356.36 1375.42 356.091 1377.32 355.635C1380.98 354.765 1383.82 355.896 1387.24 357.312C1389.14 358.125 1390.33 358.939 1392.5 359.085C1396.01 359.289 1397.79 357.1 1400.76 355.831C1403.47 354.651 1408.01 353.78 1410.99 354.529C1414.95 355.522 1418.88 357.344 1423.08 357.36C1426.45 357.36 1428.86 355.391 1432.36 355.847C1437.95 356.555 1441.31 362.853 1447.09 362.796C1448.69 362.763 1449.4 362.234 1449.58 361.421Z" fill="#DCDBDB"/>
<path id="Vector_32" d="M1430.79 305.075H1407.36H1383.92L1360.5 348.866H1407.36H1454.21L1430.79 305.075Z" fill="#F9F9FA"/>
<path id="Vector_33" d="M1438.94 347.515C1428.62 349.745 1420.42 339.151 1412.57 334.79C1405.58 330.909 1395.18 333.911 1390.84 325.929C1389.65 323.757 1389.8 320.779 1390.16 318.427C1390.98 313.228 1390.68 308.964 1388.88 305.075H1383.93L1360.5 348.866H1454.21L1450.72 342.357C1447.19 344.868 1443.18 346.624 1438.94 347.515Z" fill="#DCDBDB"/>
<path id="Vector_34" d="M1369.85 331.6C1367.78 332.094 1365.84 332.99 1364.12 334.237C1362.41 335.484 1360.95 337.057 1359.85 338.866C1357.41 343.13 1356.89 350.306 1362.94 351.616C1366.44 352.381 1370.07 351.063 1373.43 350.599C1378.19 349.94 1380.29 351.169 1384.68 352.462C1393.21 354.976 1400.03 350.135 1408.27 350.208C1412.17 350.208 1415.6 351.396 1419.43 351.706C1423.26 352.015 1425.47 350.396 1428.89 349.444C1433.47 348.166 1436.93 350.9 1441.35 351.331C1444.12 351.608 1452.74 352.536 1454.5 349.924C1456.26 347.312 1451.81 342.723 1450.55 340.16C1447.85 334.7 1445.97 332.975 1439.97 331.617C1434.77 330.437 1426.56 328.565 1421.39 330.038C1418.14 330.949 1415.19 332.479 1412.02 333.293C1407.78 334.375 1406.18 333.781 1402.75 332.064C1400.13 330.754 1397.05 329.68 1394.03 329.916C1391.24 330.128 1389.15 332.088 1386.44 332.691C1382.75 333.504 1379.65 332.105 1376.14 331.364C1374.05 330.974 1371.9 331.054 1369.85 331.6Z" fill="#F7F7F7"/>
<path id="Vector_35" d="M1438.84 321.95C1438.91 321.87 1438.97 321.779 1439.02 321.682C1439.98 319.81 1435.38 313.627 1434.47 311.918L1430.79 305.051H1383.93C1383.07 305.051 1379.51 313.301 1379.05 314.164C1377.37 317.296 1375.7 320.437 1374.02 323.561C1378.32 323.48 1383.7 324.326 1387.85 323.049C1390.35 322.284 1391.61 321.047 1394.58 321.063C1396.95 321.066 1399.31 321.3 1401.64 321.763C1404.75 322.373 1407.9 323.089 1410.59 321.185C1412.95 319.509 1415 315.579 1418.36 316.304C1422.73 317.239 1424.05 321.999 1428.93 322.398C1430.7 322.544 1437.31 323.659 1438.84 321.95Z" fill="#DCDBDB"/>
<path id="Vector_36" d="M1407.36 241L1364.32 313.667H1407.36H1450.39L1407.36 241Z" fill="#F9F9FA"/>
<path id="Vector_37" d="M1415.57 313.13C1410.83 312.317 1406.56 307.093 1402.65 304.856C1399.69 303.163 1394.61 300.844 1393.08 297.435C1388.8 287.997 1390.68 280.104 1394.95 270.983C1398.09 264.287 1399.93 257.208 1401.94 250.129L1364.32 313.667H1450.39L1446.74 307.492C1436.08 307.378 1427.14 315.083 1415.57 313.13Z" fill="#DCDBDB"/>
<path id="Vector_38" d="M1374.61 297.671C1372.28 298.973 1370.85 302.089 1368.59 303.985C1365.83 306.296 1362.55 308.957 1362.08 312.781C1361.09 320.73 1370.42 316.629 1374.29 315.84C1379.66 314.75 1384.78 318.045 1390.24 318.086C1393.19 318.086 1395.85 316.857 1398.72 316.572C1402.67 316.316 1406.64 316.678 1410.47 317.646C1413.22 318.257 1416.17 319.274 1419.04 318.842C1421.16 318.533 1422.83 317.264 1424.85 316.784C1427.61 316.117 1431.2 316.89 1434.1 317.484C1436.66 318.004 1450.54 320.999 1451.19 316.084C1451.55 315.35 1451.75 314.549 1451.78 313.732C1451.81 312.915 1451.67 312.101 1451.37 311.34C1451.13 310.153 1449.56 309.103 1448.39 308.598C1446.32 306.312 1444.21 303.538 1441.02 303.09C1436.07 302.39 1432.53 299.331 1427.27 299.892C1424.49 300.193 1422.38 301.577 1419.77 302.521C1416.18 303.83 1412.32 302.724 1408.71 301.52C1405.09 300.316 1402.07 299.835 1398.52 301.023C1394.96 302.211 1391.71 303.001 1387.94 301.772C1384.43 300.625 1381.59 297.801 1377.85 297.15C1376.75 296.936 1375.6 297.121 1374.61 297.671Z" fill="#F7F7F7"/>
<path id="Vector_39" d="M1490.35 495.698C1484.12 493.712 1478.09 495.12 1471.76 496.129C1460.77 497.886 1452.81 488.253 1441.21 493.395C1435.4 496.01 1429.07 497.27 1422.7 497.081C1416.09 496.926 1410.11 489.083 1403.86 490.734C1395.19 493.012 1390.64 492.939 1387.66 492.362C1383.34 491.435 1378.94 490.979 1374.52 491.003H1374.43C1364.6 491.198 1355.72 494.689 1345.88 494.558C1335.71 494.412 1329.73 487.594 1319.39 492.866C1318.67 494.625 1318.22 496.482 1318.04 498.374V498.448C1318.04 498.521 1318.04 498.619 1318.04 498.684C1318.63 505.771 1327.23 500.693 1333.67 498.448H1341.02C1344.93 500.116 1348.27 502.841 1352.8 503.191C1358.5 503.622 1362.34 501.719 1367.4 499.937C1372.45 498.155 1376.92 500.457 1381.94 501.442C1388.39 502.695 1393.23 501.995 1399.58 500.954C1405.66 499.953 1410.46 500.954 1416.42 502.085C1421.71 503.11 1426.38 500.872 1431.5 500.124C1440.52 498.806 1449.2 503.191 1458.21 501.361C1462.9 500.4 1466.16 499.237 1470.8 500.213C1474.77 501.027 1478.04 501.588 1482.19 500.962C1486.67 500.287 1495.62 503.305 1498.47 498.025C1495.75 497.341 1493.06 496.568 1490.35 495.698Z" fill="#EAEAEA"/>
<path id="Vector_40" d="M1480.23 430.036C1472.8 437.53 1458.44 428.881 1448.8 431.118C1443.71 432.306 1442.93 432.298 1437.86 431.517C1431.02 430.467 1433.24 422.412 1422.11 428.14C1416.18 431.2 1411.85 429.58 1405.83 428.401C1396.62 426.611 1387.7 438.539 1379.21 435.154C1371.89 432.208 1366.71 431.436 1358.73 432.713C1351.27 433.909 1342.86 426.041 1335.14 428.962C1334.67 429.979 1334.23 430.996 1333.86 432.021C1330.54 441.077 1343.9 440.972 1349.9 440.158C1358.04 439.1 1365.61 443.624 1373.87 442.436C1377.49 441.915 1380.63 439.816 1384.3 439.344C1387.96 438.872 1391.23 439.295 1394.78 439.792C1398.56 440.321 1402.53 440.508 1406.09 439.426C1409.46 438.4 1412.16 437.074 1415.49 436.814H1417.93C1422.49 437.204 1426.68 439.328 1431.18 440.272C1435.07 440.96 1439.03 441.182 1442.98 440.931C1447.25 440.776 1449.7 439.491 1454.16 440.646C1458.11 441.671 1461.48 442.778 1465.76 442.42C1468.89 442.168 1471.58 440.67 1474.38 440.182C1476.95 439.727 1480.08 441.175 1481.52 439.059C1482.71 437.326 1481.67 432.404 1480.86 430.801C1480.67 430.532 1480.46 430.276 1480.23 430.036Z" fill="#EAEAEA"/>
<path id="Vector_41" d="M1459.38 385.667C1451.93 383.731 1448.48 381.705 1439.3 384.268C1435.65 385.293 1431.33 386.652 1427.69 384.406C1420.37 379.907 1410.5 382.958 1402.55 381.851C1393.17 380.541 1386.9 383.788 1378.15 384.463C1372.38 384.903 1363.84 382.746 1358.11 382.258C1355.48 382.159 1352.93 381.291 1350.79 379.76C1350.6 380.053 1350.42 380.33 1350.23 380.574C1348.72 382.494 1345.67 385.456 1345.73 388.076C1345.93 396.863 1361.19 389.125 1365.51 389.199C1374.14 389.329 1381.2 393.373 1389.99 391.151C1393.46 390.281 1397.31 389.223 1400.85 389.191C1404.38 389.158 1407.14 390.647 1410.61 391.363C1417.93 392.876 1424.52 389.296 1431.62 390.679C1438.17 391.949 1444.25 390.378 1450.74 391.436C1454.91 392.111 1466.75 394.341 1466.11 386.945C1466 385.999 1465.63 385.103 1465.03 384.366C1463.32 385.415 1461.07 386.107 1459.38 385.667Z" fill="#EAEAEA"/>
<path id="Vector_42" d="M1431.69 343.26C1423.56 347.727 1414.6 339.867 1407.58 345.09C1398.11 352.128 1386.43 341.022 1376.79 342.047C1372.19 342.527 1366.97 342.771 1362.76 340.306C1361.86 339.689 1361.04 338.965 1360.32 338.15C1360.16 338.386 1360 338.622 1359.86 338.866C1357.42 343.129 1356.91 350.306 1362.95 351.616C1366.45 352.381 1370.09 351.063 1373.44 350.599C1378.2 349.94 1380.31 351.168 1384.69 352.462C1393.23 354.976 1400.05 350.135 1408.29 350.208C1412.19 350.208 1415.61 351.396 1419.45 351.705C1423.28 352.015 1425.48 350.395 1428.91 349.443C1433.49 348.166 1436.95 350.9 1441.37 351.331C1444.13 351.608 1452.76 352.535 1454.51 349.923C1455.45 348.54 1454.64 346.604 1453.48 344.716C1446.2 345.831 1440.71 338.329 1431.69 343.26Z" fill="#EAEAEA"/>
<path id="Vector_43" d="M1451.01 310.494C1447.75 312.48 1443.25 312.122 1438.49 311.959C1429.78 311.707 1421.69 307.939 1413.08 310.803C1407.89 312.52 1404.8 312.87 1399.63 311.715C1394.45 310.559 1392.21 304.782 1386.61 308.721C1384.51 310.193 1380.25 309.957 1377.94 309.534C1375.17 309.013 1372.08 308.452 1370.33 305.995C1369.82 305.207 1369.42 304.346 1369.15 303.44C1368.97 303.619 1368.81 303.83 1368.62 303.993C1365.85 306.304 1362.57 308.965 1362.11 312.789C1361.12 320.738 1370.44 316.637 1374.36 315.848C1379.72 314.758 1384.86 318.053 1390.3 318.094C1393.25 318.094 1395.92 316.865 1398.79 316.58C1402.74 316.324 1406.7 316.686 1410.54 317.654C1413.29 318.265 1416.23 319.282 1419.1 318.851C1421.23 318.541 1422.9 317.272 1424.91 316.792C1427.67 316.125 1431.27 316.898 1434.17 317.492C1436.73 318.012 1450.61 321.007 1451.25 316.092C1451.61 315.358 1451.81 314.557 1451.85 313.74C1451.88 312.923 1451.74 312.109 1451.44 311.349C1451.36 311.035 1451.21 310.743 1451.01 310.494Z" fill="#EAEAEA"/>
</g>
<g id="bush">
<path id="Vector_44" d="M395.052 535.767H168.942C166.549 535.768 164.241 534.882 162.463 533.281C160.684 531.68 159.562 529.477 159.312 527.097C158.442 518.927 160.312 509.527 156.552 502.097C154.612 498.287 151.342 495.377 148.552 492.157C138.292 480.407 134.852 460.967 145.552 449.617C150.472 444.397 157.552 441.677 162.702 436.707C172.612 427.187 173.522 412.017 176.702 398.657C179.372 387.587 184.182 376.797 192.082 368.597C199.982 360.397 211.272 355.047 222.632 355.877C231.362 356.507 239.632 360.637 248.372 360.767C265.072 360.997 278.962 346.897 295.582 345.177C310.692 343.607 326.172 353.977 330.472 368.537C332.332 374.847 332.262 381.537 333.372 388.027C334.482 394.517 337.172 401.257 342.792 404.687C349.572 408.837 358.342 406.947 366.062 408.857C374.942 411.047 382.062 418.477 384.982 427.137C387.902 435.797 387.042 445.467 383.732 453.997C381.532 459.657 378.232 465.297 378.832 471.337C380.262 485.577 400.392 489.477 407.222 502.057C412.222 511.297 408.712 522.977 402.862 531.707C401.993 532.972 400.826 534.004 399.464 534.712C398.102 535.42 396.587 535.783 395.052 535.767Z" fill="#F7F7F7"/>
<path id="Vector_45" d="M221.992 421.257C226.772 396.947 234.773 394.607 248.553 396.087C251.931 396.479 255.336 396.59 258.733 396.417C262.47 396.225 266.173 395.612 269.773 394.587C279.275 391.624 288.205 387.069 296.182 381.117C294.732 385.117 293.253 389.187 291.733 393.067C286.253 402.707 280.053 409.067 272.293 409.307C262.993 409.547 236.772 417.277 221.992 421.257Z" fill="#F0EFEF"/>
<path id="Vector_46" d="M150.162 493.977L150.772 494.287C169.042 503.117 187.462 509.757 208.052 507.807C219.58 506.756 230.694 502.986 240.482 496.807C247.112 492.527 255.922 483.807 263.752 482.187C284.172 477.867 301.822 489.657 322.532 480.057C338.172 472.797 349.992 457.617 354.632 441.057C360.422 420.357 356.552 423.057 377.632 420.137C378.782 419.977 379.932 419.767 381.082 419.567C382.78 421.906 384.128 424.48 385.082 427.207C388.022 435.867 387.142 445.537 383.832 454.067C381.632 459.727 378.332 465.367 378.932 471.407C380.362 485.647 400.492 489.547 407.322 502.127C412.322 511.367 408.812 523.047 402.962 531.777C402.086 533.033 400.914 534.054 399.551 534.752C398.187 535.449 396.674 535.801 395.142 535.777H168.942C166.549 535.778 164.241 534.892 162.463 533.291C160.684 531.69 159.562 529.487 159.312 527.107C158.442 518.937 160.312 509.537 156.552 502.107C154.982 499.037 152.532 496.527 150.162 493.977Z" fill="#F0EFEF"/>
<path id="Vector_47" d="M365.132 513.777C362.592 506.857 355.382 503.117 349.612 498.537C343.842 493.957 338.962 485.777 342.942 479.537C346.922 473.297 357.182 473.537 360.532 467.017C363.712 460.847 358.412 453.857 353.532 448.957L341.432 436.867C336.932 432.377 332.262 427.767 326.372 425.377C320.482 422.987 312.992 423.377 308.602 427.937C301.792 435.077 304.942 448.937 296.702 454.327C290.072 458.697 281.372 454.167 274.792 449.717C282.272 448.717 290.022 445.157 293.312 438.357C298.312 428.057 291.532 413.917 298.852 405.107C301.512 401.907 305.592 400.107 308.322 397.007C313.492 391.057 312.462 381.927 309.642 374.567C306.822 367.207 301.742 359.797 294.042 357.907C278.472 354.097 266.532 374.257 250.542 375.367C241.672 375.977 233.652 370.597 225.182 367.887C212.872 363.957 198.942 366.307 188.182 373.347C189.419 371.679 190.755 370.086 192.182 368.577C200.102 360.377 211.372 355.027 222.732 355.857C231.462 356.487 239.732 360.617 248.472 360.747C265.172 360.977 279.062 346.877 295.682 345.157C310.792 343.587 326.272 353.957 330.572 368.517C332.432 374.827 332.362 381.517 333.472 388.007C334.582 394.497 337.272 401.237 342.892 404.667C349.672 408.817 358.442 406.927 366.162 408.837C375.042 411.027 382.162 418.457 385.082 427.117C388.002 435.777 387.142 445.447 383.832 453.977C381.632 459.637 378.332 465.277 378.932 471.317C380.362 485.557 400.492 489.457 407.322 502.037C412.322 511.277 408.812 522.957 402.962 531.687C402.009 533.091 400.96 534.428 399.822 535.687H357.102C363.422 530.017 368.002 521.617 365.132 513.777Z" fill="#F0EFEF"/>
<path id="Vector_48" d="M162.702 436.737C172.612 427.217 173.522 412.047 176.702 398.687C179.372 387.617 184.182 376.827 192.082 368.627C192.682 368.007 193.332 367.437 193.962 366.857C193.212 368.602 192.594 370.4 192.112 372.237C187.322 391.027 197.272 412.297 188.692 429.687C184.412 438.357 175.622 446.127 177.382 455.687C182.162 451.027 188.572 448.497 194.812 446.077C201.422 443.507 208.142 440.917 215.212 440.277C222.282 439.637 229.852 441.187 235.062 446.007C236.191 446.902 236.975 448.16 237.282 449.567C237.582 451.857 235.632 453.927 233.442 454.667C231.252 455.407 228.882 455.147 226.582 455.027C220.421 454.722 214.252 455.452 208.332 457.187C204.522 458.317 200.712 459.937 197.972 462.817C195.232 465.697 193.772 470.057 195.222 473.767C197.445 471.358 200.286 469.606 203.436 468.702C206.587 467.798 209.925 467.776 213.086 468.64C216.248 469.504 219.112 471.219 221.365 473.599C223.618 475.98 225.174 478.933 225.862 482.137C226.215 483.469 226.184 484.873 225.772 486.187C224.062 490.667 217.662 489.747 212.862 489.767C207.012 489.767 201.062 492.887 198.382 498.097C195.702 503.307 196.912 510.437 201.632 513.907C206.512 517.497 213.192 516.567 219.242 516.217C227.982 515.717 237.032 516.857 244.662 521.157C250.495 524.375 255.016 529.534 257.442 535.737H168.932C166.539 535.738 164.231 534.852 162.453 533.251C160.674 531.65 159.552 529.447 159.302 527.067C158.432 518.897 160.302 509.497 156.542 502.067C154.602 498.257 151.332 495.347 148.542 492.127C138.282 480.377 134.842 460.937 145.542 449.587C150.472 444.427 157.532 441.707 162.702 436.737Z" fill="#D8D8D8"/>
</g>
<g id="tree">
<path id="Vector_49" d="M126.734 175.032C130.458 172.967 134.667 171.94 138.923 172.058C156.891 171.899 174.273 184.247 180.026 201.313C183.524 211.637 183.683 224.204 192.118 231.067C196.348 234.419 201.833 235.638 206.867 237.576C221.556 243.195 234.111 257.481 232.575 273.121C231.685 282.214 226.383 290.186 222.25 298.292C218.118 306.398 215.046 316.198 218.752 324.536C220.495 328.448 223.555 331.605 226.346 334.86C233.66 343.393 239.437 353.559 241.705 364.602C243.972 375.646 242.436 387.689 236.268 397.124C232.38 403.06 226.712 408.094 224.786 414.871C223.238 420.32 224.347 426.147 223.774 431.79C222.104 448.051 204.003 460.497 188.217 456.23C183.524 455.011 179.209 452.5 174.468 451.354C153.148 446.296 133.84 469.212 111.972 467.737C110.418 467.699 108.891 467.32 107.499 466.628C106.216 465.796 105.079 464.758 104.135 463.556C95.8703 454.316 83.693 446.381 71.7352 449.611C66.384 451.062 61.8617 454.56 56.8641 456.925C51.0787 459.678 44.686 460.907 38.2923 460.496C31.8986 460.084 25.716 458.046 20.3311 454.575C14.9462 451.103 10.5376 446.313 7.52347 440.66C4.50934 435.006 2.98967 428.676 3.10864 422.27C3.48652 402.158 19.7716 383.752 16.0294 363.993C13.2137 349.146 -0.621324 337.139 0.0978525 322.012C0.756082 307.751 13.9694 297.475 19.089 284.152C21.5269 277.838 22.0632 270.975 22.5752 264.222C23.5991 250.899 24.6718 237.405 29.4256 224.863C34.1795 212.32 43.2241 200.849 55.7914 196.303C75.136 189.318 99.9171 199.289 115.52 185.832C119.408 182.419 122.285 177.75 126.734 175.032Z" fill="#F0EFEF"/>
<path id="Vector_50" d="M198.286 437.227C184 432.997 172.42 425.354 164.009 412.848C155.988 400.89 150.442 384.471 139.082 375.207C130.196 367.966 115.836 373.232 105.378 372.903C98.5031 372.684 92.4083 368.783 87.0084 365.016C72.9296 355.179 65.36 338.577 61.7641 322.353C56.1691 297.121 48.0998 278.471 21.9168 271.158C21.528 275.617 20.5694 280.009 19.0645 284.225C13.9449 297.548 0.780362 307.824 0.0733747 322.085C-0.621423 337.2 13.2136 349.219 16.0293 364.102C19.7715 383.861 3.48641 402.267 3.10854 422.38C2.98957 428.786 4.50924 435.116 7.52337 440.769C10.5375 446.423 14.9461 451.213 20.331 454.684C25.7159 458.156 31.8985 460.194 38.2922 460.605C44.6859 461.016 51.0786 459.787 56.8639 457.034C61.8616 454.657 66.3839 451.159 71.7351 449.721C83.6929 446.491 95.8702 454.426 104.135 463.665C105.079 464.868 106.216 465.906 107.499 466.737C108.891 467.43 110.418 467.808 111.972 467.846C133.84 469.321 153.148 446.393 174.468 451.464C179.209 452.585 183.524 455.048 188.217 456.34C201.626 459.996 216.692 451.464 221.945 438.897C214.031 440.058 205.959 439.489 198.286 437.227Z" fill="#E8E8E8"/>
<path id="Vector_51" d="M94.7981 277.277C101.6 288.382 108.365 300.718 118.616 308.434C133.244 319.404 147.688 312.919 163.327 310.238C165.204 309.921 167.081 309.665 168.971 309.458C165.598 308.625 162.328 307.423 159.219 305.874C147.7 300.169 135.669 292.246 130.282 279.691C127.844 273.998 126.43 263.272 121.152 258.835C112.619 251.619 105.732 254.824 96.6509 254.91C89.6501 254.911 82.7144 253.566 76.2214 250.948C82.9605 259.326 89.165 268.12 94.7981 277.277Z" fill="#E8E8E8"/>
<path id="Vector_52" d="M241.705 364.602C239.438 353.559 233.66 343.441 226.346 334.86C223.555 331.605 220.495 328.448 218.752 324.535C215.095 316.198 218.106 306.434 222.251 298.292C226.395 290.149 231.685 282.214 232.575 273.12C234.111 257.481 221.605 243.195 206.868 237.576C201.833 235.638 196.348 234.419 192.167 231.018C183.695 224.155 183.634 211.588 180.075 201.264C174.31 184.259 156.915 171.899 138.972 172.009C134.716 171.891 130.507 172.919 126.783 174.983C122.334 177.702 119.469 182.37 115.508 185.783C100.283 198.948 76.2455 189.72 57.0837 195.864C61.0284 198.972 65.1294 201.877 69.3707 204.567C85.7411 214.843 97.1017 215.452 115.691 213.002C135.108 210.455 155.611 211.076 166.35 229.726C171.92 239.392 168.678 252.642 175.175 261.711C181.062 269.939 191.838 274.193 199.651 280.422C205.624 285.188 165.618 315.393 163.924 322.256C160.06 337.834 197.628 327.9 212.682 339.321C226.09 349.439 235.305 366.601 226.639 383.203C222.628 390.858 184.427 380.619 168.13 405.071C161.974 414.299 209.293 409.301 207.404 419.698C205.807 428.499 197.652 433.85 188.571 435.752C179.051 437.739 176.04 443.675 171.823 450.952C172.713 451.074 173.59 451.172 174.48 451.379C179.222 452.5 183.537 454.962 188.23 456.255C204.015 460.521 222.117 448.075 223.786 431.815C224.359 426.171 223.25 420.344 224.798 414.896C226.724 408.07 232.392 403.084 236.281 397.148C242.436 387.689 243.96 375.646 241.705 364.602Z" fill="#F7F7F7"/>
<path id="Vector_53" d="M138.973 172.058C134.717 171.94 130.507 172.967 126.783 175.032C122.334 177.75 119.47 182.419 115.508 185.832C99.9421 199.24 75.161 189.318 55.7798 196.303C43.2003 200.849 34.2288 212.368 29.3531 224.863C24.4773 237.357 23.5265 250.899 22.5026 264.222C21.9906 270.975 21.4421 277.838 19.0164 284.152C13.8969 297.475 0.732266 307.751 0.025279 322.012C-0.669519 337.127 13.1655 349.146 15.9812 364.029C19.7234 383.788 3.43832 402.194 3.06045 422.307C2.94147 428.713 4.46114 435.043 7.47528 440.696C10.4894 446.35 14.8981 451.14 20.283 454.611C25.6678 458.083 31.8504 460.121 38.2441 460.532C44.6378 460.944 51.0305 459.714 56.8159 456.962C59.6804 455.596 62.4108 453.89 65.2144 452.391C65.5889 449.207 65.4489 445.985 64.7999 442.846C63.0569 434.667 57.1206 427.232 49.1243 424.757C43.1149 422.892 34.7895 422.478 33.4365 416.346C31.8397 409.167 41.9691 405.754 46.5036 399.988C49.9654 395.624 50.1604 389.322 48.2101 384.142C46.2598 378.961 42.603 374.549 38.7999 370.465C37.3868 369.193 36.3354 367.57 35.7525 365.76C34.8261 361.506 39.9213 357.837 44.212 358.654C48.5027 359.47 51.6232 363.164 53.7929 366.943C56.1441 371.088 57.7918 375.594 58.6687 380.278C64.5784 369.105 67.119 356.457 65.9823 343.868C65.5069 338.773 64.2514 333.397 60.5702 329.838C56.889 326.279 52.0376 325.303 47.5397 323.463C43.0418 321.622 38.3976 318.246 38.0076 313.382C37.776 310.469 39.1534 307.665 40.8355 305.276C45.1506 299.182 51.4891 294.793 56.9865 289.686C62.4839 284.579 67.4694 278.033 67.5669 270.536C67.6645 262.516 62.2645 255.58 59.8023 247.949C55.0728 233.322 62.8131 215.794 76.7822 209.431C88.6547 204.031 103.209 206.201 114.435 199.557C122.712 194.682 127.697 185.856 133.561 178.226C135.231 176.058 137.065 174.02 139.046 172.131L138.973 172.058Z" fill="#D8D8D8"/>
<path id="Vector_54" d="M151.247 378.864C139.058 389.578 124.711 405.217 123.358 402.706C121.286 398.879 122.578 336.53 122.578 336.53C122.578 336.53 116.641 403.304 112.497 401.341C108.353 399.379 85.0952 359.97 85.0952 359.97C85.0952 359.97 114.045 418.248 114.252 419.223C115.788 426.439 108.097 539.447 108.097 539.447H121.7C121.7 527.258 119.348 437.275 122.566 421.649C124.431 412.385 139.996 394.868 151.247 378.864Z" fill="#7D7D7D"/>
</g>
<g id="shrub">
<path id="Vector_55" d="M1739.84 422.83C1739.84 463.6 1708.76 496.66 1670.42 496.66C1632.08 496.66 1601 463.6 1601 422.83C1601 382.06 1632.08 349 1670.42 349C1708.76 349 1739.84 382.06 1739.84 422.83Z" fill="#F0EFEF"/>
<path id="Vector_56" d="M1669.35 369.88C1677.8 382.29 1687.99 381.43 1694.7 383.61C1704.92 386.94 1712.27 392.61 1717.49 402.07C1724.6 414.94 1719.59 429.63 1730.16 440.98C1732.16 443.122 1734.04 445.372 1735.79 447.72C1738.48 439.699 1739.85 431.292 1739.84 422.83C1739.84 382.06 1708.76 349 1670.42 349C1664.74 349 1659.07 349.74 1653.58 351.2C1660.57 355.86 1664.58 362.87 1669.35 369.88Z" fill="#F7F7F7"/>
<path id="Vector_57" d="M1695.74 476.33C1681.25 474.77 1673.54 492.67 1660.53 479.42C1650.28 468.94 1645.86 477.94 1635.12 466.75C1628.96 460.35 1634.68 447.75 1621.78 440.81C1610.61 434.81 1608.84 423.9 1609 412.92C1609.14 403.12 1616 392.62 1615.08 383.29C1614.94 382.022 1614.64 380.777 1614.2 379.58C1605.55 392.338 1600.94 407.413 1601 422.83C1601 463.6 1632.08 496.66 1670.42 496.66C1691.01 496.66 1709.47 487.09 1722.18 471.95C1713.38 475.82 1705.64 477.39 1695.74 476.33Z" fill="#D8D8D8"/>
<path id="Vector_58" d="M1672.3 538.29H1668.54L1669.88 386.57H1670.95L1672.3 538.29Z" fill="#7D7D7D"/>
<path id="Vector_59" d="M1706 411.02L1670.42 429.58V434.82L1706 411.02Z" fill="#7D7D7D"/>
<path id="Vector_60" d="M1718.88 431.98L1670.42 464.9V473.84L1718.88 431.98Z" fill="#7D7D7D"/>
<path id="Vector_61" d="M1645.86 384.99L1670.42 412.56V417.8L1645.86 384.99Z" fill="#7D7D7D"/>
<path id="Vector_62" d="M1621.3 422.83L1670.42 451.35V458.75L1621.3 422.83Z" fill="#7D7D7D"/>
</g>
</g>
<defs>
<clipPath id="clip0">
<rect width="1742" height="534" fill="white"/>
</clipPath>
</defs>
</svg>
